<svg width="106" height="143" viewBox="0 0 106 143" fill="none" xmlns="http://www.w3.org/2000/svg">
<path fill-rule="evenodd" clip-rule="evenodd" d="M104.107 54.2419C105.33 39.4005 93.6179 32.2429 77.9694 27.9877L81.6125 7.75208L69.2945 5.53618L65.7484 25.239C62.51 24.6557 59.1888 24.124 55.8881 23.5974L59.4608 3.76437L47.1505 1.54798L43.5042 21.7773C40.8282 21.3519 38.1996 20.9304 35.6461 20.4719L35.656 20.4084L18.6687 17.3436L16.3035 30.4998C16.3035 30.4998 25.4304 31.9645 25.2494 32.1039C30.2376 33.0032 31.3404 36.1927 31.3638 38.7771L27.2141 61.8302C27.5577 61.8937 28.0042 61.9887 28.5007 62.151C28.3835 62.13 28.2642 62.1084 28.1429 62.0865C27.839 62.0315 27.523 61.9743 27.1988 61.9191L21.3812 94.2135C20.8804 95.7441 19.5066 98.0824 16.0195 97.4603C16.1527 97.6282 7.06645 95.8464 7.06645 95.8464L1.97003 110.116L17.9999 113.002C19.755 113.32 21.4905 113.652 23.2083 113.98L23.2096 113.98L23.2115 113.98C24.4118 114.21 25.6035 114.438 26.7872 114.658L23.108 135.125L35.4119 137.342L39.0567 117.092C42.4229 117.77 45.6867 118.385 48.8799 118.958L45.2455 139.113L57.564 141.329L61.2452 120.899C82.1678 123.44 97.6004 120.833 102.901 101.709C107.173 86.312 101.065 77.9995 89.8189 73.0604C97.6157 70.7093 103.234 65.1062 104.111 54.2432L104.107 54.2408L104.107 54.2419ZM78.9947 94.9008C76.4743 108.934 54.4862 104.66 44.4259 102.704L44.4257 102.704C43.5208 102.528 42.7124 102.371 42.0233 102.247L46.9087 75.131C47.7484 75.2825 48.7728 75.4421 49.9333 75.6229L49.934 75.623C60.3133 77.2399 81.5789 80.5529 78.9952 94.9008L78.9947 94.9008ZM51.1643 63.1065C59.5532 64.7598 77.8536 68.3664 80.1533 55.6112L80.1543 55.6111C82.5012 42.566 64.7691 39.8557 56.1087 38.532C55.1344 38.3831 54.2749 38.2518 53.5718 38.1252L49.1431 62.7181C49.7221 62.8223 50.4023 62.9563 51.1643 63.1065Z" fill="#FF8616"/>
<path d="M77.9694 27.9877L76.9 27.7952L76.7236 28.775L77.6843 29.0362L77.9694 27.9877ZM104.107 54.2419L103.024 54.1526L105.11 54.6582L104.107 54.2419ZM81.6125 7.75208L82.6818 7.9446L82.8744 6.87511L81.8048 6.68271L81.6125 7.75208ZM69.2945 5.53618L69.4869 4.46681L68.4176 4.27446L68.2252 5.34372L69.2945 5.53618ZM65.7484 25.239L65.5558 26.3083L66.6253 26.5009L66.8177 25.4314L65.7484 25.239ZM55.8881 23.5974L54.8188 23.4048L54.6222 24.4958L55.7169 24.6704L55.8881 23.5974ZM59.4608 3.76437L60.5302 3.957L60.7228 2.88758L59.6534 2.69503L59.4608 3.76437ZM47.1505 1.54798L47.343 0.47863L46.2738 0.286139L46.0812 1.35524L47.1505 1.54798ZM43.5042 21.7773L43.3336 22.8504L44.3847 23.0175L44.5735 21.9701L43.5042 21.7773ZM35.6461 20.4719L34.5725 20.305L34.4094 21.3538L35.4541 21.5414L35.6461 20.4719ZM35.656 20.4084L36.7296 20.5754L36.8926 19.5274L35.8489 19.3391L35.656 20.4084ZM18.6687 17.3436L18.8616 16.2743L17.7917 16.0813L17.5993 17.1513L18.6687 17.3436ZM16.3035 30.4998L15.2341 30.3076L15.0382 31.3972L16.1313 31.5726L16.3035 30.4998ZM25.2494 32.1039L24.5865 31.243L22.6446 32.7383L25.0566 33.1732L25.2494 32.1039ZM31.3638 38.7771L32.4331 38.9696L32.4512 38.8693L32.4503 38.7673L31.3638 38.7771ZM27.2141 61.8302L26.1447 61.6378L25.9531 62.7024L27.0169 62.8987L27.2141 61.8302ZM28.5007 62.151L28.3092 63.2205L28.8382 61.1182L28.5007 62.151ZM28.1429 62.0865L27.9495 63.1557L27.9495 63.1557L28.1429 62.0865ZM27.1988 61.9191L27.3814 60.848L26.3203 60.6672L26.1295 61.7265L27.1988 61.9191ZM21.3812 94.2135L22.4139 94.5514L22.4372 94.48L22.4505 94.4061L21.3812 94.2135ZM16.0195 97.4603L16.2104 96.3906L13.3854 95.8866L15.1681 98.1353L16.0195 97.4603ZM7.06645 95.8464L7.27554 94.7801L6.35777 94.6002L6.04321 95.4809L7.06645 95.8464ZM1.97003 110.116L0.946795 109.751L0.515496 110.958L1.77755 111.186L1.97003 110.116ZM17.9999 113.002L18.1939 111.933L18.1924 111.932L17.9999 113.002ZM23.2083 113.98L23.4157 112.913L23.4122 112.913L23.2083 113.98ZM23.2096 113.98L23.0022 115.047L23.009 115.048L23.2096 113.98ZM23.2115 113.98L23.4155 112.913L23.4121 112.913L23.2115 113.98ZM26.7872 114.658L27.8566 114.85L28.0477 113.787L26.9861 113.59L26.7872 114.658ZM23.108 135.125L22.0386 134.933L21.8464 136.002L22.9153 136.195L23.108 135.125ZM35.4119 137.342L35.2192 138.411L36.2888 138.604L36.4813 137.535L35.4119 137.342ZM39.0567 117.092L39.2714 116.027L38.1839 115.807L37.9874 116.899L39.0567 117.092ZM48.8799 118.958L49.9492 119.15L50.1422 118.08L49.0715 117.888L48.8799 118.958ZM45.2455 139.113L44.1762 138.92L43.9833 139.99L45.0532 140.182L45.2455 139.113ZM57.564 141.329L57.3717 142.398L58.4407 142.59L58.6333 141.521L57.564 141.329ZM61.2452 120.899L61.3762 119.821L60.3578 119.697L60.1759 120.707L61.2452 120.899ZM102.901 101.709L101.854 101.419L101.854 101.419L102.901 101.709ZM89.8189 73.0604L89.5052 72.0201L86.6848 72.8706L89.382 74.0552L89.8189 73.0604ZM104.111 54.2432L105.194 54.3306L105.248 53.6676L104.681 53.3184L104.111 54.2432ZM104.107 54.2408L104.677 53.316L103.592 52.6465L103.103 53.8245L104.107 54.2408ZM44.4259 102.704L44.6332 101.637L44.6187 101.635L44.6042 101.632L44.4259 102.704ZM78.9947 94.9008L78.9228 93.8167L78.0754 93.8729L77.9252 94.7088L78.9947 94.9008ZM44.4257 102.704L44.2183 103.77L44.2328 103.773L44.2473 103.776L44.4257 102.704ZM42.0233 102.247L40.954 102.055L40.7612 103.125L41.8318 103.317L42.0233 102.247ZM46.9087 75.131L47.1015 74.0617L46.032 73.8688L45.8393 74.9384L46.9087 75.131ZM49.9333 75.6229L49.766 76.6965L49.7753 76.6978L49.9333 75.6229ZM49.934 75.623L50.1013 74.5493L50.092 74.548L49.934 75.623ZM78.9952 94.9008L79.0671 95.985L79.9141 95.9288L80.0645 95.0934L78.9952 94.9008ZM80.1533 55.6112L80.0814 54.527L79.2345 54.5832L79.084 55.4184L80.1533 55.6112ZM51.1643 63.1065L51.3744 62.0405L51.3744 62.0405L51.1643 63.1065ZM80.1543 55.6111L80.2262 56.6953L81.0734 56.6391L81.2237 55.8035L80.1543 55.6111ZM56.1087 38.532L55.9445 39.6061L56.1087 38.532ZM53.5718 38.1252L53.7643 37.0559L52.695 36.8634L52.5025 37.9327L53.5718 38.1252ZM49.1431 62.7181L48.0738 62.5255L47.8812 63.5949L48.9506 63.7874L49.1431 62.7181ZM77.6843 29.0362C85.4542 31.149 92.1019 33.9483 96.6459 37.9595C101.132 41.9201 103.606 47.09 103.024 54.1526L105.189 54.3311C105.831 46.5524 103.06 40.7228 98.084 36.3304C93.1657 31.9887 86.1331 29.0816 78.2545 26.9393L77.6843 29.0362ZM80.5431 7.55956L76.9 27.7952L79.0387 28.1802L82.6818 7.9446L80.5431 7.55956ZM69.1022 6.60556L81.4201 8.82145L81.8048 6.68271L69.4869 4.46681L69.1022 6.60556ZM66.8177 25.4314L70.3639 5.72865L68.2252 5.34372L64.679 25.0465L66.8177 25.4314ZM55.7169 24.6704C59.019 25.1972 62.3297 25.7272 65.5558 26.3083L65.941 24.1696C62.6903 23.5841 59.3587 23.0508 56.0593 22.5245L55.7169 24.6704ZM58.3915 3.57174L54.8188 23.4048L56.9574 23.7901L60.5302 3.957L58.3915 3.57174ZM46.9579 2.61732L59.2683 4.83372L59.6534 2.69503L47.343 0.47863L46.9579 2.61732ZM44.5735 21.9701L48.2198 1.74071L46.0812 1.35524L42.4349 21.5846L44.5735 21.9701ZM35.4541 21.5414C38.0197 22.002 40.6582 22.4251 43.3336 22.8504L43.6748 20.7043C40.9982 20.2788 38.3796 19.8588 35.8381 19.4025L35.4541 21.5414ZM34.5824 20.2414L34.5725 20.305L36.7197 20.6389L36.7296 20.5754L34.5824 20.2414ZM18.4758 18.4129L35.4631 21.4777L35.8489 19.3391L18.8616 16.2743L18.4758 18.4129ZM17.3729 30.6921L19.7381 17.5358L17.5993 17.1513L15.2341 30.3076L17.3729 30.6921ZM25.9123 32.9648C26.0378 32.8681 26.236 32.6696 26.3109 32.3436C26.3891 32.003 26.2888 31.7184 26.1891 31.548C26.0318 31.2789 25.8021 31.157 25.7803 31.1445C25.662 31.0767 25.5471 31.0401 25.5128 31.029C25.4084 30.9952 25.2809 30.9637 25.1604 30.936C24.9064 30.8776 24.5474 30.8057 24.1298 30.7268C23.2892 30.5679 22.1571 30.3704 21.0262 30.1784C19.8937 29.9861 18.7561 29.7982 17.9021 29.6586C17.475 29.5887 17.1186 29.5308 16.8688 29.4904C16.744 29.4702 16.6458 29.4544 16.5787 29.4436C16.5452 29.4382 16.5195 29.4341 16.5021 29.4313C16.4934 29.4299 16.4868 29.4288 16.4824 29.4281C16.4802 29.4277 16.4785 29.4275 16.4774 29.4273C16.4768 29.4272 16.4764 29.4271 16.4761 29.4271C16.4759 29.4271 16.4758 29.427 16.4758 29.427C16.4757 29.427 16.4756 29.427 16.3035 30.4998C16.1313 31.5726 16.1313 31.5726 16.1314 31.5726C16.1315 31.5727 16.1316 31.5727 16.1317 31.5727C16.1319 31.5727 16.1324 31.5728 16.1329 31.5729C16.134 31.5731 16.1356 31.5733 16.1378 31.5737C16.1421 31.5744 16.1486 31.5754 16.1572 31.5768C16.1743 31.5795 16.1998 31.5836 16.2331 31.589C16.2997 31.5997 16.3974 31.6155 16.5217 31.6356C16.7704 31.6759 17.1256 31.7335 17.5513 31.8031C18.403 31.9424 19.5358 32.1295 20.6624 32.3208C21.7907 32.5123 22.9064 32.7071 23.7262 32.8621C24.1387 32.9401 24.4631 33.0055 24.6735 33.0539C24.7251 33.0657 24.7661 33.0757 24.7975 33.0838C24.8131 33.0879 24.8249 33.0911 24.8335 33.0935C24.8424 33.0961 24.8458 33.0971 24.8447 33.0968C24.8446 33.0968 24.8337 33.0933 24.8158 33.0862C24.8029 33.0811 24.7572 33.0629 24.6991 33.0295C24.6892 33.0239 24.4672 32.9083 24.3132 32.6448C24.2152 32.4772 24.1153 32.1952 24.193 31.8572C24.2673 31.5336 24.4638 31.3375 24.5865 31.243L25.9123 32.9648ZM32.4503 38.7673C32.4373 37.3367 32.1261 35.644 31.0452 34.1669C29.9482 32.6678 28.156 31.5239 25.4422 31.0346L25.0566 33.1732C27.3311 33.5832 28.5843 34.4837 29.2916 35.4502C30.015 36.4389 30.2668 37.6331 30.2773 38.787L32.4503 38.7673ZM28.2835 62.0227L32.4331 38.9696L30.2944 38.5846L26.1447 61.6378L28.2835 62.0227ZM28.8382 61.1182C28.2788 60.9354 27.7808 60.83 27.4113 60.7618L27.0169 62.8987C27.3345 62.9574 27.7296 63.0421 28.1632 63.1838L28.8382 61.1182ZM27.9495 63.1557C28.0706 63.1776 28.1909 63.1993 28.3092 63.2205L28.6922 61.0815C28.5762 61.0607 28.4578 61.0393 28.3364 61.0173L27.9495 63.1557ZM27.0163 62.9902C27.3342 63.0443 27.6448 63.1005 27.9495 63.1557L28.3364 61.0173C28.0331 60.9624 27.7118 60.9043 27.3814 60.848L27.0163 62.9902ZM22.4505 94.4061L28.2682 62.1117L26.1295 61.7265L20.3119 94.0209L22.4505 94.4061ZM15.8287 98.5299C17.8638 98.893 19.4081 98.3973 20.5138 97.4805C21.5749 96.6007 22.1301 95.4185 22.4139 94.5514L20.3486 93.8756C20.1315 94.5391 19.7494 95.2914 19.1267 95.8077C18.5485 96.2872 17.6624 96.6497 16.2104 96.3906L15.8287 98.5299ZM7.06645 95.8464C6.85736 96.9126 6.8574 96.9126 6.85748 96.9126C6.85755 96.9126 6.85766 96.9127 6.85781 96.9127C6.85809 96.9128 6.85852 96.9128 6.85908 96.9129C6.8602 96.9132 6.86187 96.9135 6.86407 96.9139C6.86848 96.9148 6.87504 96.9161 6.88368 96.9178C6.90096 96.9211 6.92655 96.9262 6.95991 96.9327C7.02661 96.9457 7.12436 96.9648 7.24867 96.9891C7.49729 97.0375 7.85222 97.1066 8.27768 97.1889C9.12843 97.3535 10.262 97.5714 11.3919 97.7841C12.5205 97.9965 13.6506 98.2048 14.4924 98.3497C14.9111 98.4218 15.2697 98.4802 15.524 98.5154C15.6454 98.5322 15.7694 98.5475 15.8709 98.5541C15.9041 98.5562 16.012 98.5636 16.1317 98.5496C16.1674 98.5454 16.2274 98.5369 16.299 98.5174C16.3576 98.5015 16.5003 98.4586 16.6521 98.3498C16.8178 98.2311 17.0743 97.9681 17.1048 97.5411C17.1323 97.1549 16.9528 96.8884 16.871 96.7853L15.1681 98.1353C15.0884 98.0347 14.9098 97.7707 14.9372 97.3865C14.9675 96.9618 15.2228 96.7007 15.3861 96.5836C15.5355 96.4765 15.6748 96.4351 15.7289 96.4204C15.796 96.4022 15.8503 96.3946 15.8794 96.3912C15.9726 96.3803 16.037 96.3872 16.011 96.3855C15.994 96.3844 15.9364 96.3787 15.8221 96.3629C15.605 96.3328 15.2756 96.2795 14.8611 96.2081C14.0367 96.0662 12.9203 95.8605 11.7939 95.6485C10.6689 95.4367 9.53925 95.2196 8.6905 95.0554C8.26621 94.9733 7.91232 94.9045 7.66455 94.8561C7.54068 94.832 7.44334 94.813 7.37701 94.8C7.34385 94.7935 7.31844 94.7885 7.30134 94.7852C7.29279 94.7835 7.28632 94.7823 7.28199 94.7814C7.27983 94.781 7.27821 94.7807 7.27713 94.7805C7.27659 94.7804 7.27619 94.7803 7.27592 94.7802C7.27579 94.7802 7.27569 94.7802 7.27562 94.7802C7.27556 94.7801 7.27554 94.7801 7.06645 95.8464ZM2.99327 110.482L8.08969 96.2118L6.04321 95.4809L0.946795 109.751L2.99327 110.482ZM18.1924 111.932L2.16252 109.047L1.77755 111.186L17.8075 114.071L18.1924 111.932ZM23.4122 112.913C21.6951 112.585 19.9548 112.252 18.1939 111.933L17.806 114.071C19.5552 114.388 21.2858 114.719 23.0044 115.047L23.4122 112.913ZM23.4169 112.914L23.4157 112.913L23.001 115.046L23.0022 115.047L23.4169 112.914ZM23.4121 112.913L23.4101 112.912L23.009 115.048L23.011 115.048L23.4121 112.913ZM26.9861 113.59C25.8053 113.37 24.6162 113.143 23.4155 112.913L23.0076 115.048C24.2075 115.277 25.4016 115.505 26.5883 115.726L26.9861 113.59ZM24.1774 135.318L27.8566 114.85L25.7178 114.466L22.0386 134.933L24.1774 135.318ZM35.6046 136.273L23.3007 134.056L22.9153 136.195L35.2192 138.411L35.6046 136.273ZM37.9874 116.899L34.3426 137.15L36.4813 137.535L40.1261 117.284L37.9874 116.899ZM49.0715 117.888C45.8849 117.317 42.6289 116.703 39.2714 116.027L38.8421 118.157C42.2169 118.837 45.4884 119.454 48.6882 120.027L49.0715 117.888ZM46.3148 139.306L49.9492 119.15L47.8106 118.765L44.1762 138.92L46.3148 139.306ZM57.7564 140.259L45.4379 138.043L45.0532 140.182L57.3717 142.398L57.7564 140.259ZM60.1759 120.707L56.4947 141.136L58.6333 141.521L62.3145 121.092L60.1759 120.707ZM101.854 101.419C99.286 110.683 94.3247 115.824 87.5438 118.413C80.6666 121.039 71.8003 121.086 61.3762 119.821L61.1143 121.978C71.6127 123.253 80.924 123.267 88.3189 120.443C95.81 117.583 101.215 111.859 103.948 101.999L101.854 101.419ZM89.382 74.0552C94.8783 76.469 98.9723 79.6442 101.215 83.9636C103.45 88.269 103.941 93.896 101.854 101.419L103.948 102C106.133 94.1251 105.706 87.8973 103.143 82.9623C100.589 78.0414 96.0058 74.5908 90.2558 72.0655L89.382 74.0552ZM103.028 54.1558C102.604 59.4127 101.041 63.3072 98.7178 66.1571C96.3933 69.0082 93.2419 70.8933 89.5052 72.0201L90.1326 74.1006C94.1927 72.8763 97.7489 70.7844 100.402 67.5303C103.056 64.2752 104.742 59.9366 105.194 54.3306L103.028 54.1558ZM103.537 55.1655L103.541 55.168L104.681 53.3184L104.677 53.316L103.537 55.1655ZM105.11 54.6582L105.111 54.657L103.103 53.8245L103.103 53.8256L105.11 54.6582ZM44.2185 103.771C49.224 104.744 57.3737 106.334 64.6054 105.883C68.2241 105.657 71.7197 104.916 74.5033 103.247C77.3317 101.552 79.3758 98.9256 80.0641 95.0929L77.9252 94.7088C77.3534 97.8929 75.7038 99.9944 73.3862 101.384C71.0238 102.799 67.921 103.499 64.4701 103.714C57.5626 104.145 49.6881 102.62 44.6332 101.637L44.2185 103.771ZM44.2473 103.776L44.2475 103.776L44.6042 101.632L44.604 101.632L44.2473 103.776ZM41.8318 103.317C42.5113 103.439 43.3109 103.594 44.2183 103.77L44.633 101.637C43.7306 101.462 42.9135 101.303 42.2148 101.178L41.8318 103.317ZM45.8393 74.9384L40.954 102.055L43.0927 102.44L47.978 75.3237L45.8393 74.9384ZM50.1005 74.5493C48.9357 74.3678 47.9257 74.2104 47.1015 74.0617L46.7158 76.2003C47.5711 76.3546 48.6099 76.5163 49.766 76.6964L50.1005 74.5493ZM50.092 74.548L50.0913 74.5479L49.7753 76.6978L49.776 76.698L50.092 74.548ZM80.0645 95.0934C80.7647 91.2054 79.8447 87.9996 77.8684 85.4047C75.9221 82.8493 72.9996 80.9459 69.7707 79.4965C63.3233 76.6024 55.2627 75.3535 50.1013 74.5494L49.7668 76.6966C54.9847 77.5094 62.7464 78.7254 68.8808 81.479C71.9427 82.8535 74.5008 84.5697 76.1396 86.7213C77.7482 88.8334 78.5176 91.4222 77.9259 94.7082L80.0645 95.0934ZM79.0666 95.985L79.0671 95.985L78.9233 93.8167L78.9228 93.8167L79.0666 95.985ZM79.084 55.4184C78.5616 58.316 77.1561 60.2233 75.2355 61.4886C73.2766 62.7792 70.7138 63.4439 67.8532 63.6792C62.1182 64.1508 55.5955 62.8724 51.3744 62.0405L50.9543 64.1726C55.1221 64.994 61.944 66.3455 68.0313 65.8449C71.0819 65.5941 74.0497 64.8722 76.431 63.3033C78.8507 61.7091 80.5951 59.284 81.2226 55.804L79.084 55.4184ZM80.0824 54.5269L80.0814 54.527L80.2252 56.6953L80.2262 56.6953L80.0824 54.5269ZM55.9445 39.6061C60.3051 40.2726 66.7405 41.2642 71.7941 43.658C74.3116 44.8505 76.3942 46.3502 77.7133 48.2458C79.0085 50.1072 79.6231 52.4276 79.085 55.4187L81.2237 55.8035C81.859 52.2721 81.1372 49.3617 79.497 47.0046C77.8807 44.6818 75.429 42.9752 72.7244 41.6941C67.3335 39.1406 60.5726 38.1152 56.2728 37.458L55.9445 39.6061ZM53.3793 39.1946C54.0997 39.3242 54.9751 39.4579 55.9445 39.6061L56.2728 37.458C55.2937 37.3083 54.4502 37.1793 53.7643 37.0559L53.3793 39.1946ZM50.2124 62.9106L54.6411 38.3178L52.5025 37.9327L48.0738 62.5255L50.2124 62.9106ZM51.3744 62.0405C50.6152 61.8909 49.9253 61.7549 49.3356 61.6487L48.9506 63.7874C49.519 63.8897 50.1895 64.0218 50.9543 64.1726L51.3744 62.0405Z" fill="black"/>
</svg>
