<svg width="111" height="171" viewBox="0 0 111 171" fill="none" xmlns="http://www.w3.org/2000/svg">
<path d="M49.8559 4.30804L49.0116 8.08201L56.1338 115.487L57.2957 116.502L105.197 83.7264L49.8559 4.30804Z" fill="#343434" stroke="black" stroke-width="2.17308"/>
<path d="M49.8566 4.30799L5.4856 90.3384L57.2964 116.502L53.8395 64.3707L49.8566 4.30799Z" fill="#8C8C8C" stroke="black" stroke-width="2.17308"/>
<path d="M57.9221 125.942L57.3576 126.731L59.8946 164.991L60.6277 166.743L105.855 93.179L57.9221 125.942Z" fill="#3C3C3B" stroke="black" stroke-width="2.17308"/>
<path d="M60.628 166.743L57.9224 125.942L6.11255 99.793L60.628 166.743Z" fill="#8C8C8C" stroke="black" stroke-width="2.17308"/>
<path d="M57.2968 116.502L105.198 83.7263L53.8398 64.3707L57.2968 116.502Z" fill="#141414" stroke="black" stroke-width="2.17308"/>
<path d="M5.48564 90.3384L57.2965 116.502L53.8395 64.3707L5.48564 90.3384Z" fill="#393939" stroke="black" stroke-width="2.17308"/>
</svg>
