<svg width="133" height="128" viewBox="0 0 133 128" fill="none" xmlns="http://www.w3.org/2000/svg">
<path d="M89.9793 74.5297C89.177 62.4305 81.6422 58.7635 67.0082 57.9981C56.5455 57.3027 54.2879 54.6749 53.9669 49.8346C53.6459 44.9942 56.897 41.6545 63.8107 41.196C70.0333 40.7834 73.6281 42.6283 75.7002 47.6992C76.115 48.7134 77.1979 49.3357 78.235 49.267L83.7656 48.9002C85.1487 48.8085 86.1171 47.7026 86.0254 46.3204L86.0025 45.9744C84.115 38.4604 77.5027 32.9964 69.5061 32.8325L68.9559 24.5357C68.8642 23.1526 67.7583 22.1843 66.0071 21.9529L60.8216 22.2968C59.4385 22.3885 58.4702 23.4944 58.2389 25.2464L58.7661 33.1972C48.4868 35.268 42.3775 42.6173 42.9506 51.2601C43.7071 62.6682 50.9189 66.7033 65.5529 67.4695C75.3474 68.5559 78.5963 70.4237 78.9631 75.9552C79.3299 81.4867 74.7417 85.6101 68.1739 86.0456C59.1851 86.6417 55.8216 83.0448 54.4407 77.928C54.0039 76.5687 52.9209 75.9455 51.8838 76.0142L46.0063 76.404C44.6241 76.4957 43.6557 77.6015 43.7475 78.9846L43.7704 79.3306C45.7257 87.8809 51.6698 93.7367 63.1926 94.7092L63.7428 103.006C63.8344 104.388 64.9403 105.357 66.6915 105.588L71.877 105.244C73.2601 105.152 74.2284 104.047 74.4598 102.295L73.9096 93.9986C84.166 91.5818 90.5983 83.8636 89.9793 74.5297Z" fill="#3D68FF" stroke="black" stroke-width="2.17308"/>
<path fill-rule="evenodd" clip-rule="evenodd" d="M16.7709 49.1761C8.51017 76.4604 24.3329 105.619 51.9393 113.51C53.0223 114.134 54.1511 115.447 54.2199 116.484L54.5408 121.324C54.5867 122.016 54.6096 122.362 54.2865 122.73C54.0331 124.136 52.6958 124.918 51.2669 124.319C31.4953 119.38 15.6442 105.501 8.13785 86.5542C-4.41093 54.4006 11.2504 18.2923 43.404 5.7435C43.7271 5.37541 44.4182 5.32958 44.7642 5.30663C46.1701 5.56007 46.93 6.55134 47.0217 7.93442L47.3426 12.7739C47.4573 14.503 46.835 15.5859 45.4977 16.3688C31.6681 22.4941 20.9936 34.3128 16.7709 49.1761ZM78.4123 4.8112C78.6657 3.40523 80.0029 2.62239 81.4318 3.2218C100.857 8.18363 117.055 22.0403 124.584 41.3326C137.133 73.4862 121.471 109.595 89.3177 122.143C88.9947 122.511 88.3035 122.557 87.9575 122.58C86.5516 122.327 85.7917 121.335 85.7 119.952L85.3791 115.113C85.2644 113.384 85.8867 112.301 87.224 111.518C101.054 105.393 111.728 93.574 115.951 78.7108C124.212 51.4264 108.389 22.2675 80.7824 14.3765C79.6994 13.7533 78.5706 12.4398 78.4789 11.0567L78.158 6.21722C78.1121 5.52526 78.0892 5.18012 78.4123 4.8112Z" fill="#3D68FF"/>
<path d="M51.9393 113.51L52.4812 112.569L52.3659 112.502L52.2379 112.466L51.9393 113.51ZM16.7709 49.1761L17.8108 49.4909L17.8135 49.482L17.816 49.473L16.7709 49.1761ZM54.2199 116.484L55.304 116.412L54.2199 116.484ZM54.5408 121.324L53.4567 121.396L54.5408 121.324ZM54.2865 122.73L53.4699 122.013L53.2708 122.24L53.2172 122.537L54.2865 122.73ZM51.2669 124.319L51.6872 123.317L51.6107 123.285L51.5302 123.265L51.2669 124.319ZM8.13785 86.5542L7.12565 86.9492L7.1277 86.9544L8.13785 86.5542ZM43.404 5.7435L43.799 6.75568L44.0458 6.65936L44.2206 6.46026L43.404 5.7435ZM44.7642 5.30663L44.9569 4.23733L44.8255 4.21364L44.6923 4.22248L44.7642 5.30663ZM45.4977 16.3688L45.9377 17.3622L45.9937 17.3374L46.0466 17.3065L45.4977 16.3688ZM81.4318 3.2218L81.0115 4.22375L81.0854 4.25473L81.1629 4.27454L81.4318 3.2218ZM78.4123 4.8112L79.2297 5.52698L79.4281 5.30037L79.4816 5.00394L78.4123 4.8112ZM124.584 41.3326L123.572 41.7277L123.572 41.7277L124.584 41.3326ZM89.3177 122.143L88.9227 121.131L88.6759 121.227L88.5011 121.427L89.3177 122.143ZM87.9575 122.58L87.7648 123.649L87.8962 123.673L88.0294 123.664L87.9575 122.58ZM87.224 111.518L86.784 110.525L86.7279 110.549L86.6751 110.58L87.224 111.518ZM115.951 78.7108L114.911 78.3959L114.908 78.4049L114.906 78.4138L115.951 78.7108ZM80.7824 14.3765L80.2405 15.3182L80.3558 15.3846L80.4837 15.4212L80.7824 14.3765ZM52.2379 112.466C25.2146 104.741 9.72596 76.1944 17.8108 49.4909L15.7309 48.8612C7.29438 76.7264 23.4511 106.497 51.6407 114.555L52.2379 112.466ZM55.304 116.412C55.2484 115.574 54.7954 114.776 54.3103 114.166C53.8071 113.533 53.1522 112.955 52.4812 112.569L51.3974 114.452C51.8094 114.689 52.2604 115.079 52.6095 115.518C52.9768 115.98 53.1225 116.357 53.1357 116.556L55.304 116.412ZM55.625 121.253L55.304 116.412L53.1357 116.556L53.4567 121.396L55.625 121.253ZM55.1031 123.446C55.7702 122.686 55.665 121.855 55.625 121.253L53.4567 121.396C53.4685 121.575 53.4768 121.703 53.4797 121.812C53.4825 121.92 53.4788 121.976 53.4748 122.006C53.4717 122.03 53.47 122.024 53.4774 122.008C53.4849 121.991 53.4889 121.991 53.4699 122.013L55.1031 123.446ZM50.8466 125.321C51.8394 125.737 52.8788 125.698 53.7371 125.231C54.5907 124.766 55.1748 123.927 55.3558 122.922L53.2172 122.537C53.1448 122.939 52.9336 123.194 52.6979 123.322C52.467 123.448 52.1233 123.5 51.6872 123.317L50.8466 125.321ZM7.1277 86.9544C14.763 106.226 30.8922 120.349 51.0036 125.373L51.5302 123.265C32.0984 118.411 16.5253 104.775 9.148 86.154L7.1277 86.9544ZM43.0089 4.73131C10.2916 17.5001 -5.63942 54.2415 7.12566 86.9492L9.15003 86.1592C-3.18244 54.5598 12.2092 19.0844 43.799 6.75568L43.0089 4.73131ZM44.6923 4.22248C44.5255 4.23353 44.1819 4.25438 43.8266 4.33798C43.4959 4.41579 42.9733 4.58708 42.5874 5.02674L44.2206 6.46026C44.1826 6.50346 44.1578 6.51082 44.1806 6.49968C44.2033 6.4886 44.2492 6.47097 44.3243 6.45329C44.4819 6.41621 44.6568 6.40268 44.836 6.39079L44.6923 4.22248ZM48.1059 7.86252C48.0482 6.99187 47.7737 6.1648 47.2203 5.50111C46.6604 4.82962 45.8798 4.40368 44.9569 4.23733L44.5714 6.37594C45.0545 6.46302 45.3568 6.65943 45.5513 6.89271C45.7523 7.13378 45.9036 7.49388 45.9376 8.00631L48.1059 7.86252ZM48.4268 12.7021L48.1059 7.86252L45.9376 8.00631L46.2585 12.8458L48.4268 12.7021ZM46.0466 17.3065C46.8426 16.8405 47.5 16.2402 47.9257 15.4331C48.3507 14.6274 48.4938 13.7121 48.4268 12.7021L46.2585 12.8458C46.3062 13.5648 46.1954 14.0556 46.0036 14.4193C45.8125 14.7816 45.4901 15.1142 44.9488 15.4311L46.0466 17.3065ZM17.816 49.473C21.947 34.9324 32.3916 23.3621 45.9377 17.3622L45.0577 15.3753C30.9447 21.6262 20.0401 33.6931 15.7257 48.8791L17.816 49.473ZM81.8521 2.21985C80.8594 1.80339 79.8199 1.84292 78.9617 2.31023C78.1081 2.77498 77.5239 3.61431 77.343 4.61845L79.4816 5.00394C79.554 4.60211 79.7652 4.34705 80.0008 4.21874C80.2318 4.09299 80.5754 4.0408 81.0115 4.22375L81.8521 2.21985ZM125.596 40.9376C117.936 21.3112 101.457 7.21544 81.7007 2.16906L81.1629 4.27454C100.258 9.15182 116.173 22.7694 123.572 41.7277L125.596 40.9376ZM89.7128 123.156C122.43 110.387 138.361 73.6454 125.596 40.9376L123.572 41.7277C135.904 73.327 120.512 108.802 88.9227 121.131L89.7128 123.156ZM88.0294 123.664C88.1962 123.653 88.5398 123.632 88.8951 123.549C89.2258 123.471 89.7484 123.3 90.1343 122.86L88.5011 121.427C88.5391 121.383 88.5639 121.376 88.5411 121.387C88.5184 121.398 88.4725 121.416 88.3974 121.434C88.2398 121.471 88.0649 121.484 87.8857 121.496L88.0294 123.664ZM84.6158 120.024C84.6735 120.895 84.948 121.722 85.5014 122.386C86.0613 123.057 86.8419 123.483 87.7648 123.649L88.1503 121.511C87.6672 121.424 87.3649 121.227 87.1704 120.994C86.9694 120.753 86.8181 120.393 86.7841 119.881L84.6158 120.024ZM84.2949 115.185L84.6158 120.024L86.7841 119.881L86.4632 115.041L84.2949 115.185ZM86.6751 110.58C85.8791 111.046 85.2217 111.647 84.796 112.454C84.371 113.259 84.2279 114.175 84.2949 115.185L86.4632 115.041C86.4155 114.322 86.5263 113.831 86.7181 113.468C86.9092 113.105 87.2316 112.773 87.7729 112.456L86.6751 110.58ZM114.906 78.4138C110.775 92.9544 100.33 104.525 86.784 110.525L87.664 112.512C101.777 106.261 112.682 94.1937 116.996 79.0077L114.906 78.4138ZM80.4837 15.4212C107.507 23.1455 122.996 51.6925 114.911 78.3959L116.991 79.0256C125.427 51.1604 109.271 21.3895 81.081 13.3318L80.4837 15.4212ZM77.3947 11.1286C77.4582 12.0854 77.8721 12.9548 78.3858 13.6483C78.9015 14.3445 79.5662 14.9303 80.2405 15.3182L81.3243 13.4347C80.9155 13.1995 80.4743 12.817 80.132 12.3548C79.7877 11.89 79.5913 11.4112 79.5631 10.9849L77.3947 11.1286ZM77.0738 6.28911L77.3947 11.1286L79.5631 10.9849L79.2421 6.14533L77.0738 6.28911ZM77.5948 4.09541C76.929 4.85582 77.0337 5.68465 77.0738 6.28911L79.2421 6.14533C79.2303 5.96618 79.222 5.83831 79.2191 5.72901C79.2163 5.62166 79.22 5.56534 79.224 5.53539C79.2271 5.51175 79.2288 5.51685 79.2214 5.5333C79.2141 5.54976 79.2104 5.54907 79.2297 5.52698L77.5948 4.09541Z" fill="black"/>
</svg>
