<svg width="20" height="22" viewBox="0 0 20 22" fill="none" xmlns="http://www.w3.org/2000/svg">
<path d="M7.8355 9.11302C7.22275 9.11302 6.739 9.65052 6.739 10.3063C6.739 10.962 7.2335 11.4995 7.8355 11.4995C8.44825 11.4995 8.932 10.962 8.932 10.3063C8.94275 9.65052 8.44825 9.11302 7.8355 9.11302ZM11.7592 9.11302C11.1465 9.11302 10.6628 9.65052 10.6628 10.3063C10.6628 10.962 11.1572 11.4995 11.7592 11.4995C12.372 11.4995 12.8558 10.962 12.8558 10.3063C12.8558 9.65052 12.372 9.11302 11.7592 9.11302Z" fill="white"/>
<path d="M16.9837 0.0937653H2.57875C1.364 0.0937653 0.375 1.08277 0.375 2.30827V16.8423C0.375 18.0678 1.364 19.0568 2.57875 19.0568H14.7692L14.1995 17.068L15.5755 18.3473L16.8762 19.5513L19.1875 21.5938V2.30827C19.1875 1.08277 18.1985 0.0937653 16.9837 0.0937653ZM12.8342 14.1333C12.8342 14.1333 12.4472 13.671 12.1247 13.2625C13.533 12.8648 14.0705 11.9833 14.0705 11.9833C13.6297 12.2735 13.2105 12.4778 12.8342 12.6175C12.2967 12.8433 11.7807 12.9938 11.2755 13.0798C10.2435 13.2733 9.2975 13.2195 8.49125 13.069C7.8785 12.9508 7.35175 12.7788 6.911 12.6068C6.66375 12.51 6.395 12.3918 6.12625 12.2413C6.094 12.2198 6.06175 12.209 6.0295 12.1875C6.008 12.1768 5.99725 12.166 5.9865 12.1553C5.793 12.0478 5.6855 11.9725 5.6855 11.9725C5.6855 11.9725 6.2015 12.8325 7.56675 13.241C7.24425 13.6495 6.8465 14.1333 6.8465 14.1333C4.47075 14.058 3.56775 12.4993 3.56775 12.4993C3.56775 9.03776 5.11575 6.23202 5.11575 6.23202C6.66375 5.07102 8.1365 5.10327 8.1365 5.10327L8.244 5.23227C6.309 5.79127 5.41675 6.64052 5.41675 6.64052C5.41675 6.64052 5.65325 6.51152 6.051 6.32877C7.20125 5.82352 8.115 5.68376 8.49125 5.65152C8.55575 5.64077 8.6095 5.63002 8.674 5.63002C9.32975 5.54402 10.0715 5.52252 10.8455 5.60852C11.8667 5.72677 12.9632 6.02777 14.0812 6.64052C14.0812 6.64052 13.232 5.83427 11.4045 5.27527L11.555 5.10327C11.555 5.10327 13.0277 5.07102 14.5757 6.23202C14.5757 6.23202 16.1237 9.03776 16.1237 12.4993C16.1237 12.4993 15.21 14.058 12.8342 14.1333Z" fill="white"/>
</svg>
