<svg width="41" height="41" viewBox="0 0 41 41" fill="none" xmlns="http://www.w3.org/2000/svg">
<g clip-path="url(#clip0_39_139)">
<path d="M0.0578613 14.8541C0.0578613 9.675 0.0578613 7.08543 1.06579 5.10726C1.95239 3.36721 3.36709 1.95251 5.10714 1.06591C7.08531 0.0579834 9.67487 0.0579834 14.854 0.0579834H26.1458C31.325 0.0579834 33.9145 0.0579834 35.8927 1.06591C37.6327 1.95251 39.0474 3.36721 39.934 5.10726C40.942 7.08543 40.942 9.675 40.942 14.8541V26.1459C40.942 31.3251 40.942 33.9146 39.934 35.8928C39.0474 37.6329 37.6327 39.0476 35.8927 39.9342C33.9145 40.9421 31.325 40.9421 26.1458 40.9421H14.854C9.67487 40.9421 7.08531 40.9421 5.10714 39.9342C3.36709 39.0476 1.95239 37.6329 1.06579 35.8928C0.0578613 33.9146 0.0578613 31.3251 0.0578613 26.1459V14.8541Z" fill="#470137"/>
<path d="M4.43981 30.2772V12.0589C4.42678 11.9437 4.51088 11.8374 4.62098 11.8298C6.29475 11.7082 7.99144 11.7442 9.66799 11.7438C12.9461 11.7438 16.2729 12.931 17.8855 16.1409C18.5669 17.5064 18.9077 19.0771 18.9079 20.853C18.9279 22.0931 18.7485 23.3279 18.3773 24.5052C18.0569 25.5024 17.5656 26.4295 16.9279 27.2408C16.3338 27.988 15.6306 28.631 14.8444 29.1457C11.8896 31.0776 7.94949 30.7785 4.59507 30.5637C4.49154 30.5637 4.43978 30.4682 4.43981 30.2772ZM8.01151 15.2672V27.1262C11.9596 27.1262 15.2476 25.4541 15.1809 20.9389C15.2676 16.362 11.8135 15.0238 8.01151 15.2672Z" fill="#FF61F6"/>
<path d="M34.06 30.5665H30.8929C30.7191 30.5914 30.6365 30.4308 30.5889 30.28C29.9426 26.9371 29.2657 23.6456 28.6632 20.3975C27.9502 23.7008 27.2253 26.9961 26.4335 30.28C26.3995 30.4712 26.3069 30.5665 26.1548 30.5665H22.9876C22.8107 30.5865 22.6832 30.483 22.6329 30.3087L19.3391 16.5591C19.2884 16.4064 19.356 16.33 19.5418 16.3299H22.7343C22.8863 16.3299 22.9707 16.3872 22.9876 16.5018C23.7153 19.8762 24.3532 23.2574 24.888 26.6708C25.5429 23.2898 26.3044 19.9093 26.9909 16.6164C27.0058 16.4334 27.0622 16.3299 27.2443 16.3299H30.5635C30.6649 16.3299 30.7238 16.3971 30.7409 16.5305C31.4843 19.8947 32.0579 23.2008 32.6412 26.7854C33.4261 23.4097 33.8797 19.9468 34.6428 16.5591C34.6764 16.4064 34.7525 16.33 34.8709 16.3299H37.8353C37.9873 16.3299 38.0464 16.4158 38.0126 16.5877L34.3641 30.3087C34.3183 30.4605 34.2272 30.5886 34.06 30.5665Z" fill="#FF61F6"/>
</g>
<defs>
<clipPath id="clip0_39_139">
<rect width="40.8841" height="40.8841" fill="white" transform="translate(0.0578613 0.0579834)"/>
</clipPath>
</defs>
</svg>
