<svg width="84" height="84" viewBox="0 0 84 84" fill="none" xmlns="http://www.w3.org/2000/svg">
<mask id="path-1-inside-1_141_237" fill="white">
<path d="M46 -1.66103e-06C50.9902 -1.87916e-06 55.9316 0.9829 60.542 2.89258C65.1523 4.80225 69.3414 7.60132 72.8701 11.1299C76.3987 14.6586 79.1977 18.8477 81.1074 23.458C83.0171 28.0684 84 33.0098 84 38L46 38L46 -1.66103e-06Z"/>
</mask>
<path d="M46 -1.66103e-06C50.9902 -1.87916e-06 55.9316 0.9829 60.542 2.89258C65.1523 4.80225 69.3414 7.60132 72.8701 11.1299C76.3987 14.6586 79.1977 18.8477 81.1074 23.458C83.0171 28.0684 84 33.0098 84 38L46 38L46 -1.66103e-06Z" fill="black" stroke="black" stroke-width="2" mask="url(#path-1-inside-1_141_237)"/>
<mask id="path-2-inside-2_141_237" fill="white">
<path d="M37.5 9C42.4246 9 47.3009 9.96996 51.8506 11.8545C56.4003 13.7391 60.5343 16.5013 64.0165 19.9835C67.4987 23.4657 70.2609 27.5997 72.1455 32.1494C74.03 36.6991 75 41.5754 75 46.5L37.5 46.5L37.5 9Z"/>
</mask>
<path d="M37.5 9C42.4246 9 47.3009 9.96996 51.8506 11.8545C56.4003 13.7391 60.5343 16.5013 64.0165 19.9835C67.4987 23.4657 70.2609 27.5997 72.1455 32.1494C74.03 36.6991 75 41.5754 75 46.5L37.5 46.5L37.5 9Z" fill="#E9DA56" stroke="black" stroke-width="2" mask="url(#path-2-inside-2_141_237)"/>
</svg>
