<svg width="35" height="46" viewBox="0 0 35 46" fill="none" xmlns="http://www.w3.org/2000/svg">
<path d="M34.9332 22.7439C34.9332 22.2139 34.5415 21.9083 34.0609 22.0601L0.994879 32.5454C0.513265 32.6982 0.122559 33.2523 0.122559 33.7813V44.4977C0.122559 45.0277 0.513265 45.3343 0.994879 45.1815L34.0609 34.6972C34.5415 34.5444 34.9332 33.9902 34.9332 33.4602V22.7439Z" fill="url(#paint0_linear_39_36)"/>
<path d="M0.122559 22.4024C0.122559 22.9324 0.513265 23.4865 0.994879 23.6393L34.0657 34.1255C34.5473 34.2783 34.938 33.9718 34.938 33.4428V22.7254C34.938 22.1964 34.5473 21.6423 34.0657 21.4895L0.994879 11.0032C0.513265 10.8504 0.122559 11.156 0.122559 11.686V22.4024Z" fill="#FF9800"/>
<path d="M34.9332 0.723019C34.9332 0.19305 34.5415 -0.11352 34.0609 0.0392816L0.994879 10.5236C0.513265 10.6764 0.122559 11.2305 0.122559 11.7605V22.4769C0.122559 23.0068 0.513265 23.3125 0.994879 23.1606L34.0609 12.6754C34.5415 12.5226 34.9332 11.9684 34.9332 11.4394V0.723019Z" fill="#FF9800"/>
<defs>
<linearGradient id="paint0_linear_39_36" x1="19.3092" y1="35.6346" x2="20.7692" y2="30.7527" gradientUnits="userSpaceOnUse">
<stop stop-color="#FF9700"/>
<stop offset="0.53" stop-color="#F48E00"/>
<stop offset="1" stop-color="#D06F00"/>
</linearGradient>
</defs>
</svg>
