<svg width="41" height="39" viewBox="0 0 41 39" fill="none" xmlns="http://www.w3.org/2000/svg">
<path d="M2.40483 36.4299C3.02743 36.7172 3.65003 36.845 4.27263 36.845C4.8633 36.845 5.43801 36.7172 5.99676 36.4459C6.23622 36.3341 6.42779 36.2703 6.5555 36.2383C6.79496 36.1904 6.97057 36.1266 7.03443 36.0627C7.21003 35.9031 7.36967 35.6955 7.49738 35.4242C7.6251 35.1528 7.68895 34.9133 7.68895 34.6898C7.68895 34.5142 7.64106 34.3705 7.54528 34.2428C7.44949 34.1151 7.33774 34.0672 7.21003 34.0672C7.11425 34.0672 7.0025 34.1311 6.85882 34.2747C6.69918 34.4344 6.45972 34.5621 6.17236 34.6738C5.86904 34.7696 5.58169 34.8175 5.27837 34.8175C4.4642 34.8175 3.82564 34.4663 3.39461 33.7479C3.07532 33.2211 2.89972 32.6304 2.89972 31.9759C2.89972 31.5129 3.01147 31.1298 3.23496 30.8584C3.45846 30.587 3.76178 30.4434 4.14492 30.4434C4.54402 30.4434 4.92716 30.5711 5.27837 30.8265C5.42205 30.9382 5.54976 31.05 5.64555 31.1777C5.74133 31.3054 5.86904 31.5129 6.04465 31.8163C6.1564 32.0238 6.26815 32.1675 6.39586 32.2473C6.52357 32.3271 6.66725 32.375 6.85882 32.375C7.06635 32.375 7.25792 32.3112 7.41756 32.1994C7.72088 31.9919 7.88052 31.6566 7.88052 31.2096C7.88052 30.5711 7.70492 30.0283 7.33774 29.5973C7.19407 29.4216 7.01846 29.3259 6.82689 29.3259C6.76304 29.3259 6.71514 29.3259 6.66725 29.3418C6.52357 29.3738 6.41182 29.3897 6.34797 29.3897C6.25218 29.3897 6.09254 29.3259 5.85308 29.2141C5.34223 28.9747 4.81541 28.8629 4.27263 28.8629C3.69792 28.8629 3.12322 28.9747 2.58044 29.2141C1.86205 29.5334 1.27138 29.9804 0.824383 30.5711C0.313531 31.2575 0.0581055 32.0078 0.0581055 32.838C0.0581055 33.5564 0.265639 34.2268 0.680706 34.8814C1.11174 35.5998 1.67048 36.1106 2.40483 36.4299ZM8.56698 30.7786C8.77451 30.9063 8.90223 31.0979 8.96608 31.3533C9.01398 31.6087 9.0459 32.1994 9.0459 33.1094C9.0459 34.0034 9.01398 34.6898 8.95012 35.1847C8.91819 35.472 8.82241 35.6477 8.67873 35.7115C8.51909 35.7754 8.4233 35.8392 8.37541 35.8871C8.32752 35.935 8.31155 35.9989 8.31155 36.0946C8.31155 36.2064 8.35945 36.3181 8.43927 36.4139C8.51909 36.5097 8.63084 36.5895 8.77451 36.6374C9.06187 36.7492 9.57272 36.7971 10.2911 36.7971C10.9297 36.7971 11.3767 36.7492 11.6481 36.6694C11.7917 36.6215 11.9035 36.5576 11.9993 36.4618C12.0791 36.366 12.127 36.2543 12.127 36.1266C12.127 36.0308 12.111 35.951 12.0631 35.9031C12.0152 35.8552 11.9194 35.7913 11.7917 35.7275C11.6321 35.6636 11.5044 35.5519 11.4884 35.4242C11.4565 35.2964 11.4246 34.8335 11.4246 34.0353V32.2313C11.4246 31.6726 11.4884 31.066 11.5363 30.3955C11.5682 29.9644 11.6161 29.693 11.6161 29.5653C11.6161 29.1982 11.4724 29.0225 11.1851 29.0225C10.9935 29.0225 10.7062 29.0545 10.2911 29.1343C9.87604 29.1982 9.55676 29.278 9.28537 29.3578C8.90223 29.4695 8.61487 29.5973 8.43927 29.7409C8.26366 29.8846 8.18384 30.0442 8.18384 30.2199C8.18384 30.3316 8.21577 30.4274 8.26366 30.5072C8.31155 30.603 8.4233 30.6988 8.56698 30.7786ZM15.3996 36.845C16.3096 36.845 17.1237 36.5736 17.8421 36.0308C18.5924 35.4561 18.9596 34.7696 18.9596 33.9714C18.9596 33.5085 18.8479 33.0615 18.6084 32.6304C18.3849 32.2154 18.0816 31.8961 17.7144 31.6407C17.2036 31.2894 16.5969 31.1138 15.9105 31.1138C14.9367 31.1138 14.0906 31.4012 13.4041 31.9919C12.7496 32.5506 12.4143 33.269 12.4143 34.147C12.4143 34.9452 12.6857 35.5838 13.2125 36.0787C13.7872 36.5895 14.5216 36.845 15.3996 36.845ZM15.0803 32.5825C15.1761 32.4548 15.3038 32.4069 15.4794 32.4069C15.7029 32.4069 15.8785 32.5506 15.9903 32.806C16.102 33.0615 16.2138 33.3808 16.2936 33.7799C16.3734 34.179 16.4213 34.5302 16.4213 34.8494C16.4213 35.2645 16.2617 35.488 15.9264 35.488C15.671 35.488 15.4794 35.3284 15.3677 35.0251C15.2559 34.7217 15.1442 34.3865 15.0644 34.0033C14.9846 33.6202 14.9367 33.3169 14.9367 33.0934C14.9367 32.8699 14.9846 32.7103 15.0803 32.5825ZM23.7967 36.7492C23.8606 36.7971 23.9883 36.813 24.1639 36.813C24.595 36.813 25.0579 36.7651 25.5209 36.6534C26.3191 36.4778 26.7182 36.2064 26.7182 35.8712C26.7182 35.6955 26.6543 35.5678 26.4787 35.472C26.2552 35.3603 26.1914 35.2486 26.1914 35.1208V32.6464C26.1914 32.391 26.1594 32.1675 26.1594 31.9919C26.1594 31.8642 26.1435 31.7843 26.1435 31.7364C26.1435 31.3373 25.9519 31.1298 25.5688 31.1298C24.8983 31.1298 24.1959 31.2096 23.5094 31.3852C23.1422 31.481 22.9507 31.6407 22.9507 31.8642C22.9507 32.0398 23.0624 32.1834 23.2699 32.2952C23.3817 32.359 23.4455 32.4069 23.4775 32.4389C23.5094 32.4868 23.5413 32.5506 23.5573 32.6464C23.6052 32.8699 23.6211 33.285 23.6211 33.9076C23.6211 34.5302 23.5732 34.9293 23.4934 35.1049C23.4455 35.2007 23.3817 35.2645 23.2699 35.3284C23.1582 35.3922 23.0624 35.4242 22.9507 35.4242C22.5196 35.4242 22.3121 35.1049 22.3121 34.4503V31.4172C22.3121 31.2256 22.2003 31.1298 21.9768 31.1298C21.2425 31.1298 20.5081 31.2096 19.7738 31.3693C19.3428 31.4651 19.1352 31.6566 19.1352 31.928C19.1352 32.0078 19.1512 32.0717 19.1991 32.1196C19.231 32.1675 19.3268 32.2313 19.4705 32.2952C19.6301 32.375 19.7099 32.5027 19.7738 32.6464C19.8376 32.7901 19.8536 33.0295 19.8536 33.3488V33.6042V34.3865C19.8536 35.2007 19.9813 35.7913 20.2368 36.1425C20.5241 36.5576 21.035 36.7651 21.7533 36.7651C22.1844 36.7651 22.5994 36.6374 22.9666 36.382C23.1582 36.2543 23.2699 36.1745 23.3019 36.1585C23.3338 36.1425 23.3817 36.1266 23.4296 36.1266C23.5573 36.1266 23.6211 36.2383 23.6371 36.4778C23.685 36.6374 23.7329 36.7172 23.7967 36.7492ZM27.9953 36.2064C28.4583 36.6374 28.9851 36.845 29.5598 36.845C30.0228 36.845 30.4538 36.6853 30.8369 36.382C30.9646 36.2703 31.0764 36.2064 31.1402 36.2064C31.252 36.2064 31.3158 36.3022 31.3478 36.4938C31.3637 36.6215 31.3797 36.7172 31.4116 36.7492C31.4436 36.7811 31.5234 36.7971 31.6511 36.7971C32.1939 36.7971 32.7367 36.7332 33.2794 36.5895C33.8861 36.4299 34.1734 36.2064 34.1734 35.9031C34.1734 35.8073 34.1575 35.7115 34.1096 35.6477C34.0617 35.5838 33.9659 35.488 33.8382 35.4082C33.7264 35.3284 33.5828 35.2485 33.5668 35.1687C33.5349 35.0889 33.455 34.8973 33.455 34.61V29.5015C33.455 29.1981 33.3593 29.0385 33.04 29.0385C32.7207 29.0385 32.1141 29.1662 31.1562 29.4376C30.6134 29.5973 30.358 29.8048 30.358 30.0762C30.358 30.2677 30.4857 30.3955 30.7252 30.4753C30.9008 30.5232 31.0125 30.587 31.0764 30.6668C31.1402 30.7467 31.1722 30.8425 31.1722 30.9861C31.1722 31.3054 31.1083 31.4651 30.9966 31.4651C30.9646 31.4651 30.9167 31.4491 30.8689 31.4172C30.5336 31.2256 30.1345 31.1298 29.7035 31.1298C29.3203 31.1298 28.9372 31.2256 28.5541 31.4331C28.0911 31.6726 27.7239 32.0238 27.4525 32.4708C27.1652 32.9657 27.0215 33.4606 27.0215 33.9874C27.0215 34.4344 27.1332 34.8814 27.3567 35.3124C27.5004 35.6477 27.7239 35.951 27.9953 36.2064ZM29.9589 32.7103C30.1026 32.4548 30.2941 32.3271 30.5336 32.3271C30.7252 32.3271 30.8689 32.4069 30.9806 32.5666C31.1083 32.7581 31.1722 33.1413 31.1722 33.716C31.1722 34.3386 31.1243 34.8016 31.0125 35.0729C30.9008 35.3603 30.7252 35.488 30.4857 35.488C30.2622 35.488 30.0866 35.3922 29.9589 35.2007C29.7833 34.9452 29.6875 34.5621 29.6875 34.0512C29.6715 33.4925 29.7673 33.0455 29.9589 32.7103ZM36.8714 35.4242C37.0789 35.4082 37.2066 35.3922 37.2545 35.3922C37.3982 35.3922 37.478 35.4561 37.478 35.5998C37.478 35.7754 37.3822 36.0148 37.2066 36.3022C37.015 36.6215 36.7756 36.8609 36.5042 37.0365C36.2807 37.1802 36.1689 37.292 36.1689 37.3718C36.1689 37.4835 36.3445 37.6432 36.7117 37.8347C37.0629 38.0263 37.3662 38.1221 37.5897 38.1221C37.7175 38.1221 37.8771 38.0582 38.0687 37.9146C38.8669 37.3239 39.5533 36.5257 40.144 35.5359C40.6708 34.6419 40.9422 33.7798 40.9422 32.9657C40.9422 31.9599 40.5431 31.2256 39.7289 30.7626C39.1063 30.4274 38.4358 30.2518 37.6855 30.2518C36.7596 30.2518 35.9774 30.4912 35.3388 30.9542C34.7322 31.3852 34.4289 32.0078 34.4289 32.806C34.4289 33.2051 34.5087 33.5883 34.6523 33.9555C34.796 34.3226 35.0195 34.6419 35.2909 34.8973C35.6581 35.2485 36.137 35.4082 36.7277 35.4082C36.7915 35.4401 36.8394 35.4401 36.8714 35.4242ZM37.1906 32.0717C37.3024 31.944 37.4301 31.8642 37.5897 31.8642C37.7653 31.8642 37.925 31.944 38.0687 32.1036C38.1804 32.2313 38.2762 32.4229 38.356 32.6783C38.4358 32.9338 38.4837 33.1573 38.4837 33.3648C38.4837 33.5404 38.4358 33.6841 38.3401 33.7958C38.2443 33.9076 38.1166 33.9714 37.9729 33.9714C37.7175 33.9714 37.494 33.8277 37.3024 33.5564C37.1108 33.285 37.015 32.9497 37.015 32.5666C37.031 32.375 37.0949 32.2154 37.1906 32.0717ZM38.5476 11.6217C36.3765 9.45054 33.2794 8.74812 30.5336 9.53036C30.0547 4.67727 25.9519 0.877808 20.9871 0.877808C16.3894 0.877808 12.542 4.11852 11.6161 8.4448C8.58294 7.47099 5.1347 8.18937 2.72411 10.6C-0.708172 14.0322 -0.708172 19.5878 2.72411 23.02C5.56573 25.8616 9.7164 26.6758 11.8716 26.6758H12.8933H28.6498C31.9065 26.6918 35.4346 26.3246 38.5316 23.2435C41.7404 20.0188 41.7404 14.8304 38.5476 11.6217ZM24.8823 18.5341C24.2437 19.6197 21.9449 23.02 20.8274 23.02C20.2367 23.02 18.0656 21.9345 18.0656 21.1682C18.0656 20.8968 18.3689 20.6095 18.5286 20.5137C19.5343 19.8591 20.6359 17.9434 20.6359 16.8898C20.6359 16.5386 20.4443 16.3949 20.1889 16.3949C19.8536 16.3949 19.5024 16.4747 19.1672 16.4747C16.0861 16.4747 14.6653 13.1382 14.6653 10.137C14.6653 5.9065 17.9539 3.97485 20.9551 3.97485C24.148 3.97485 27.3727 5.93843 27.3727 10.3924C27.3727 13.4416 26.3031 16.1395 24.8823 18.5341ZM20.7955 7.87009C20.0931 7.87009 19.7099 8.79601 19.7099 9.59422C19.7099 10.9192 20.3006 13.0105 21.5618 13.0105C22.2163 13.0105 22.5675 12.2762 22.5675 11.5259C22.5515 10.3924 22.0247 7.87009 20.7955 7.87009Z" fill="#00A8E9"/>
</svg>
