<svg width="50" height="50" viewBox="0 0 50 50" fill="none" xmlns="http://www.w3.org/2000/svg">
<path d="M25 1.88605C12.2535 1.88605 1.88608 12.2535 1.88608 25C1.88608 37.7465 12.2535 48.1139 25 48.1139C37.7465 48.1139 48.1139 37.7465 48.1139 25C48.1139 12.2535 37.7465 1.88605 25 1.88605Z" fill="#DD8157" stroke="black" stroke-width="2.22785"/>
<path d="M33.8835 29.7179L33.8833 29.7177L29.1656 25.0002L33.8833 20.2826L33.8835 20.2824C35.0344 19.1309 35.0344 17.2683 33.8835 16.1168L33.8831 16.1164C32.7316 14.9654 30.8689 14.9654 29.7175 16.1164L29.7172 16.1166L24.9999 20.8344L20.2825 16.1166L20.2823 16.1164C19.1308 14.9654 17.2681 14.9654 16.1166 16.1164L16.1162 16.1167C14.9653 17.2683 14.9653 19.1309 16.1162 20.2824L16.1164 20.2826L20.8341 25.0002L16.1164 29.7177L16.1162 29.7179C14.9653 30.8694 14.9653 32.7321 16.1162 33.8836L16.1164 33.8838C16.6906 34.458 17.4464 34.7468 18.1996 34.7468C18.9526 34.7468 19.7083 34.4579 20.2824 33.8838L20.2825 33.8838L24.9999 29.166L29.7172 33.8838L29.7173 33.8838C30.2914 34.4579 31.0472 34.7468 31.8001 34.7468C32.5533 34.7468 33.3091 34.458 33.8833 33.8838L33.8835 33.8836C35.0344 32.7321 35.0344 30.8694 33.8835 29.7179Z" fill="#FAFAFA" stroke="black" stroke-width="2.22785"/>
</svg>
