<svg width="41" height="41" viewBox="0 0 41 41" fill="none" xmlns="http://www.w3.org/2000/svg">
<path d="M20.5005 40.9426C31.7905 40.9426 40.9428 31.7903 40.9428 20.5003C40.9428 9.21028 31.7905 0.0579224 20.5005 0.0579224C9.21046 0.0579224 0.0581055 9.21028 0.0581055 20.5003C0.0581055 31.7903 9.21046 40.9426 20.5005 40.9426Z" fill="#60B57D"/>
<path d="M18.8743 9.50328C19.1221 9.70239 19.1617 10.0647 18.9626 10.3126C18.7635 10.5605 18.4011 10.6 18.1533 10.4009C16.6526 9.19541 15.4026 8.79741 14.6317 9.19097C13.7344 9.64854 13.3865 11.1207 13.5676 13.175L13.5948 13.4523C13.6101 13.5927 13.6276 13.7355 13.6475 13.8808L13.6904 14.1743C13.7437 14.5177 13.8095 14.8733 13.8877 15.2395C14.9683 15.072 16.1314 14.9625 17.3528 14.9169C17.8827 14.2362 18.4214 13.5972 18.9625 13.0056L19.2336 12.7133C19.9118 11.9925 20.592 11.3474 21.2614 10.789L21.5285 10.5703C23.9712 8.6083 26.2448 7.83198 27.7151 8.78658C28.9958 9.6175 29.3391 11.4998 28.8635 14.0222C28.8045 14.3346 28.5035 14.5401 28.1911 14.4812C27.8787 14.4223 27.6732 14.1213 27.7321 13.8089C28.1304 11.6964 27.8682 10.2583 27.0883 9.75233C26.0747 9.09425 24.1911 9.85185 22.0673 11.6211L21.8304 11.8218C21.7114 11.9243 21.5918 12.0298 21.4717 12.1383L21.2306 12.3593C20.9889 12.5842 20.7452 12.8211 20.5005 13.0692L20.2553 13.321C20.2144 13.3636 20.1735 13.4065 20.1326 13.4497L19.8867 13.7126L19.6406 13.9828L19.3945 14.26C19.3124 14.3535 19.2304 14.4483 19.1485 14.5442L18.9028 14.8352L18.8549 14.8932C19.4276 14.8962 20.0103 14.9128 20.6007 14.9435L20.8299 14.9562L21.2855 14.9854C21.6634 15.0119 22.0372 15.0438 22.4061 15.081L22.8465 15.1281C22.9195 15.1364 22.9923 15.1448 23.0649 15.1535L23.498 15.208C23.8568 15.2554 24.2102 15.3078 24.5576 15.3651L24.9715 15.4361L25.3795 15.5116L25.7813 15.5916C27.11 15.8656 28.3317 16.2125 29.4082 16.6192L29.7268 16.7429C32.5542 17.8727 34.2966 19.4279 34.2072 21.1469C34.1331 22.568 32.8593 23.741 30.7242 24.5817C30.4284 24.6982 30.0941 24.5528 29.9777 24.2569C29.8612 23.9611 30.0066 23.6269 30.3024 23.5104C32.0631 22.8172 33.0128 21.9425 33.0575 21.087C33.1144 19.9917 31.804 18.859 29.6226 17.9452L29.3512 17.8345C29.1674 17.7614 28.9779 17.6898 28.783 17.6199L28.4867 17.5163C28.3866 17.4823 28.2852 17.4486 28.1825 17.4154L27.8706 17.3171L27.5512 17.2217C27.4973 17.206 27.4432 17.1905 27.3887 17.1751L27.0584 17.0841C27.0028 17.0691 26.9469 17.0543 26.8907 17.0397L26.55 16.9533C26.206 16.8686 25.852 16.7887 25.4888 16.7141L25.1226 16.6413C25.0611 16.6295 24.9993 16.6178 24.9373 16.6063L24.5625 16.539L24.182 16.4756C24.1181 16.4653 24.0541 16.4552 23.9898 16.4453L23.6013 16.3878C23.471 16.3693 23.3398 16.3514 23.2079 16.3343L22.8095 16.285L22.4065 16.24C22.2039 16.2186 21.9996 16.1988 21.7938 16.1808L21.38 16.1469C21.2415 16.1364 21.1022 16.1267 20.9624 16.1177L20.5409 16.0933L20.1192 16.0739L19.7008 16.0596C19.2145 16.0458 18.7353 16.0424 18.2646 16.0486L17.9357 16.0548L17.8063 16.2263C17.7259 16.3341 17.6458 16.443 17.5659 16.5528L17.327 16.8854C17.0493 17.2768 16.7751 17.6804 16.506 18.0952C16.4291 18.2137 16.3532 18.3322 16.2783 18.4506L16.0567 18.8058C15.8207 19.1891 15.5954 19.5716 15.3808 19.952C15.4005 20.0002 15.4205 20.0485 15.4407 20.097L15.5972 20.4666C15.6238 20.5283 15.6506 20.5902 15.6777 20.6521L15.8432 21.0244L16.0148 21.3983L16.1923 21.7736L16.3759 22.1499L16.5655 22.527L16.7595 22.902L16.9563 23.2716L17.1558 23.6356C17.1892 23.6959 17.2228 23.7558 17.2564 23.8156L17.4595 24.1711C17.5276 24.2887 17.596 24.4053 17.6648 24.5209L17.8721 24.8646C17.9415 24.9781 18.0112 25.0907 18.0812 25.2022L18.292 25.5335L18.5043 25.8583C18.6818 26.1263 18.8606 26.3875 19.0403 26.6415L19.2563 26.9428C19.4006 27.1413 19.5453 27.3351 19.6903 27.524L19.9078 27.8036L20.1255 28.0758C20.1618 28.1205 20.1981 28.1649 20.2344 28.209L20.4519 28.4697L20.6692 28.7225C20.8863 28.9713 21.1026 29.2082 21.3175 29.4324L21.5318 29.6525L21.7449 29.8639C21.8511 29.9675 21.9568 30.0678 22.0619 30.1647L22.2713 30.3541C22.3755 30.4466 22.479 30.5357 22.5818 30.6213L22.7863 30.7878C24.1761 31.8937 25.4076 32.3403 26.2252 31.9233C26.993 31.5318 27.3594 30.3888 27.3323 28.7679L27.3253 28.5212C27.322 28.4378 27.3177 28.3533 27.3124 28.2676L27.2937 28.0072C27.2864 27.9193 27.2782 27.8303 27.269 27.7402L27.2384 27.4669C27.2329 27.4208 27.227 27.3745 27.221 27.3279L27.1816 27.0454L27.1364 26.7572L27.0853 26.4632C27.0403 26.216 26.9892 25.9631 26.9321 25.7051L26.8606 25.3931L26.7832 25.0764C26.7698 25.0232 26.7562 24.9699 26.7424 24.9163L26.6563 24.5929L26.5644 24.2653C26.5486 24.2104 26.5326 24.1553 26.5163 24.1L26.4157 23.7665L26.3093 23.4293C26.2546 23.2598 26.1978 23.089 26.1388 22.9171L26.0179 22.5716L25.8913 22.2231C25.8049 21.9899 25.7147 21.7548 25.6207 21.5181L25.4768 21.162L25.3271 20.8037C25.3016 20.7438 25.276 20.6839 25.2501 20.6238L25.0917 20.2627L24.9277 19.9C24.8999 19.8394 24.8718 19.7787 24.8435 19.7181L24.6709 19.3533C24.6416 19.2924 24.6121 19.2314 24.5824 19.1704C24.4431 18.8846 24.5618 18.54 24.8476 18.4007C25.1334 18.2614 25.478 18.3802 25.6173 18.6659L25.8082 19.0635C25.8708 19.1958 25.9324 19.328 25.9929 19.4599L26.1713 19.855C26.3466 20.2493 26.5123 20.6412 26.6684 21.0298L26.8213 21.4173C26.8462 21.4817 26.8709 21.5459 26.8953 21.6101L27.0385 21.9939C27.0618 22.0576 27.0848 22.1212 27.1076 22.1847L27.2409 22.5643C27.3276 22.8163 27.4099 23.0663 27.4877 23.3139L27.6011 23.6836C28.9587 28.2206 28.7845 31.9107 26.7482 32.9489C25.1012 33.789 22.7658 32.6222 20.4152 30.1613L20.172 29.9021C20.0098 29.7263 19.8477 29.5444 19.6859 29.3568L19.4434 29.071C18.7973 28.2974 18.157 27.4327 17.5368 26.4921L17.3052 26.1358C16.7287 25.2364 16.1713 24.2718 15.6447 23.2543L15.5398 23.0501C15.4702 22.9135 15.4016 22.777 15.3341 22.6407L15.1349 22.232C14.9781 21.9054 14.8277 21.5798 14.6836 21.2557L14.5907 21.4397C14.562 21.4972 14.5336 21.5547 14.5055 21.612L14.3398 21.955L14.1805 22.2954L14.0276 22.6332C14.0027 22.6892 13.978 22.7451 13.9536 22.8009L13.8104 23.1342C13.7871 23.1894 13.7641 23.2446 13.7413 23.2996L13.6079 23.6278C13.5862 23.6822 13.5648 23.7365 13.5436 23.7906L13.4201 24.1133C13.4 24.1668 13.3803 24.2201 13.3608 24.2732L13.2472 24.5899L13.1402 24.9023C13.0884 25.0574 13.0391 25.2108 12.9923 25.3623L12.9022 25.663L12.8188 25.9586C12.8055 26.0074 12.7924 26.056 12.7797 26.1044L12.7065 26.392C12.6484 26.6293 12.5975 26.8607 12.5538 27.0856L12.5048 27.3524C12.179 29.2416 12.3913 30.6349 13.1987 31.1588C14.0119 31.6864 15.5197 31.2851 17.3802 29.9419C17.638 29.7558 17.9978 29.8139 18.1839 30.0716C18.37 30.3294 18.3119 30.6892 18.0541 30.8753C15.849 32.4673 13.8998 32.9861 12.572 32.1247C10.9677 31.0835 10.8549 28.3306 11.9227 24.9057L12.0334 24.5611C12.1098 24.3298 12.1914 24.0958 12.2781 23.8592L12.412 23.5025C12.5957 23.0244 12.7995 22.5369 13.0229 22.0423L13.1941 21.6701L13.3725 21.2955C13.5998 20.8263 13.8439 20.352 14.1042 19.8747C14.0697 19.7865 14.0355 19.6985 14.0018 19.6107L13.8529 19.2154C13.6588 18.69 13.4832 18.1721 13.3264 17.6642L13.2124 17.2851C13.142 17.0448 13.076 16.807 13.0143 16.5718C12.9433 16.586 12.873 16.6005 12.8033 16.6153L12.4902 16.6842L12.1848 16.7564C12.1345 16.7687 12.0845 16.7812 12.0349 16.7938L11.7412 16.871L11.4556 16.9515C11.3618 16.9788 11.2694 17.0067 11.1783 17.035L10.9096 17.1216C10.8215 17.151 10.7348 17.1808 10.6496 17.2112L10.3986 17.3036C8.67334 17.9604 7.6224 18.8224 7.57356 19.7612C7.52893 20.6168 8.38282 21.5854 10.0623 22.4575C10.3444 22.604 10.4544 22.9515 10.3079 23.2336C10.1614 23.5158 9.81388 23.6258 9.53172 23.4793C7.49499 22.4217 6.34967 21.1225 6.4238 19.7013C6.52685 17.72 9.02779 16.2078 12.7477 15.4442C11.9948 11.8468 12.378 9.0479 14.1084 8.16543C15.3874 7.51252 17.0583 8.04455 18.8743 9.50328ZM22.029 20.2115C22.2201 21.0956 21.6582 21.9666 20.7742 22.158C19.8901 22.349 19.0192 21.7871 18.8278 20.9031C18.6371 20.019 19.1986 19.1481 20.0826 18.9567C20.9667 18.7657 21.8376 19.3275 22.029 20.2115ZM16.4556 16.1221L16.3517 16.1293C16.2724 16.135 16.1935 16.141 16.1149 16.1473L15.7404 16.1796L15.3715 16.2161C15.3105 16.2225 15.2497 16.2291 15.1892 16.2359L14.829 16.2785C14.7695 16.286 14.7102 16.2936 14.6512 16.3013L14.3002 16.3499L14.1609 16.3712L14.2101 16.5549C14.2872 16.835 14.3707 17.1196 14.4605 17.4081L14.5714 17.7563C14.5904 17.8147 14.6096 17.8731 14.6291 17.9318L14.7492 18.2853C14.7822 18.3806 14.816 18.4764 14.8503 18.5724C15.0327 18.2692 15.2212 17.9653 15.4158 17.6614L15.5402 17.4685C15.8399 17.0067 16.1455 16.5574 16.4556 16.1221Z" fill="white"/>
</svg>
