<svg width="710" height="476" viewBox="0 0 710 476" fill="none" xmlns="http://www.w3.org/2000/svg">
<rect x="2.10436" y="1.95616" width="705.523" height="472.088" rx="16.3515" fill="#DD8157" stroke="#161616" stroke-width="3.91233" stroke-linejoin="round"/>
<rect x="31.0078" y="32.0386" width="647.177" height="415.585" rx="18.3077" fill="#A259FF"/>
<path d="M31.2949 384.712H678.209V429.002C678.209 439.113 670.013 447.31 659.901 447.31H49.6026C39.4915 447.31 31.2949 439.113 31.2949 429.002V384.712Z" fill="black"/>
<ellipse cx="354.678" cy="208.451" rx="65.5312" ry="65.6505" fill="#FF8577" stroke="black" stroke-width="3.07737"/>
<path d="M389.132 213.35C392.925 211.185 392.925 205.716 389.132 203.551L342.379 176.86C338.618 174.713 333.94 177.429 333.94 181.76L333.94 235.141C333.94 239.472 338.618 242.188 342.379 240.041L389.132 213.35Z" fill="white" stroke="black" stroke-width="3.07737"/>
<path d="M135.434 416.011C135.434 414.571 136.602 413.403 138.043 413.403H218.746V418.619H138.043C136.602 418.619 135.434 417.452 135.434 416.011Z" fill="#A259FF"/>
<path d="M299.453 413.403H632.694C634.134 413.403 635.302 414.571 635.302 416.011C635.302 417.452 634.134 418.619 632.694 418.619H299.453V413.403Z" fill="#A259FF"/>
<rect x="214.186" y="408.839" width="87.2236" height="14.3452" fill="#FF8577" stroke="black" stroke-width="3.91233"/>
<rect x="76.8557" y="399.058" width="14.3191" height="33.9068" rx="5.21644" fill="white" stroke="black" stroke-width="3.91233"/>
<rect x="59.9333" y="399.058" width="14.3191" height="33.9068" rx="5.21644" fill="white" stroke="black" stroke-width="3.91233"/>
</svg>
