<svg width="24" height="24" viewBox="0 0 24 24" fill="none" xmlns="http://www.w3.org/2000/svg">
<g clip-path="url(#clip0_28_1203)">
<path d="M23.6304 7.27661C23.5773 6.07149 23.3824 5.24298 23.1032 4.52507C22.8153 3.76303 22.3722 3.08077 21.7917 2.5136C21.2245 1.93761 20.5378 1.49004 19.7846 1.20654C19.0625 0.927375 18.2383 0.732493 17.0332 0.679359C15.8191 0.621725 15.4336 0.608398 12.3543 0.608398C9.27497 0.608398 8.88953 0.621725 7.67992 0.674859C6.4748 0.727993 5.6463 0.923048 4.92856 1.20204C4.16634 1.49004 3.48408 1.93311 2.91692 2.5136C2.34093 3.08077 1.89353 3.76753 1.60986 4.52075C1.33069 5.24299 1.13581 6.06699 1.08268 7.27211C1.02505 8.48623 1.01172 8.87166 1.01172 11.951C1.01172 15.0303 1.02505 15.4158 1.07818 16.6254C1.13131 17.8305 1.32637 18.659 1.60554 19.3769C1.89353 20.139 2.34093 20.8212 2.91692 21.3884C3.48408 21.9644 4.17084 22.412 4.92406 22.6955C5.6463 22.9746 6.4703 23.1695 7.67559 23.2226C8.88504 23.276 9.27064 23.2891 12.35 23.2891C15.4293 23.2891 15.8148 23.276 17.0244 23.2226C18.2295 23.1695 19.058 22.9746 19.7757 22.6955C21.3 22.1061 22.5051 20.901 23.0944 19.3769C23.3734 18.6547 23.5685 17.8305 23.6216 16.6254C23.6747 15.4158 23.6881 15.0303 23.6881 11.951C23.6881 8.87166 23.6836 8.48623 23.6304 7.27661ZM21.588 16.5368C21.5392 17.6445 21.3531 18.2426 21.198 18.6414C20.8169 19.6294 20.0327 20.4136 19.0447 20.7948C18.6459 20.9498 18.0434 21.1359 16.9401 21.1845C15.7438 21.2378 15.385 21.251 12.3588 21.251C9.3326 21.251 8.96932 21.2378 7.77736 21.1845C6.66969 21.1359 6.07154 20.9498 5.67278 20.7948C5.18108 20.613 4.73351 20.325 4.37022 19.9484C3.99361 19.5806 3.70562 19.1376 3.52389 18.6459C3.36882 18.2471 3.18276 17.6445 3.13413 16.5413C3.08082 15.345 3.06767 14.986 3.06767 11.9598C3.06767 8.93362 3.08082 8.57034 3.13413 7.37855C3.18276 6.27087 3.36882 5.67273 3.52389 5.27397C3.70562 4.78209 3.99361 4.33469 4.37472 3.97123C4.74233 3.59462 5.1854 3.30663 5.67728 3.12507C6.07604 2.97 6.67869 2.78394 7.78186 2.73514C8.97815 2.682 9.3371 2.66868 12.3631 2.66868C15.3938 2.66868 15.7526 2.682 16.9446 2.73514C18.0523 2.78394 18.6504 2.97 19.0492 3.12507C19.5409 3.30663 19.9884 3.59462 20.3517 3.97123C20.7283 4.33902 21.0163 4.78209 21.198 5.27397C21.3531 5.67273 21.5392 6.2752 21.588 7.37855C21.6411 8.57484 21.6544 8.93362 21.6544 11.9598C21.6544 14.986 21.6411 15.3405 21.588 16.5368Z" fill="black"/>
<path d="M12.3547 6.125C9.13811 6.125 6.52832 8.73462 6.52832 11.9514C6.52832 15.1681 9.13811 17.7778 12.3547 17.7778C15.5715 17.7778 18.1811 15.1681 18.1811 11.9514C18.1811 8.73462 15.5715 6.125 12.3547 6.125ZM12.3547 15.7308C10.2679 15.7308 8.57527 14.0383 8.57527 11.9514C8.57527 9.86445 10.2679 8.17195 12.3547 8.17195C14.4416 8.17195 16.1341 9.86445 16.1341 11.9514C16.1341 14.0383 14.4416 15.7308 12.3547 15.7308Z" fill="black"/>
<path d="M19.7723 5.89535C19.7723 6.6465 19.1633 7.25555 18.412 7.25555C17.6608 7.25555 17.0518 6.6465 17.0518 5.89535C17.0518 5.14403 17.6608 4.53516 18.412 4.53516C19.1633 4.53516 19.7723 5.14403 19.7723 5.89535Z" fill="black"/>
</g>
<defs>
<clipPath id="clip0_28_1203">
<rect width="22.6808" height="22.6808" fill="white" transform="translate(0.97168 0.608398)"/>
</clipPath>
</defs>
</svg>
