<svg width="23" height="19" viewBox="0 0 23 19" fill="none" xmlns="http://www.w3.org/2000/svg">
<path d="M3.49062 4.39374C3.49062 4.12499 3.35625 3.85624 3.22187 3.72187L1.20625 1.30312V0.899994H7.3875L12.225 11.5156L16.525 0.899994H22.4375V1.30312L20.6906 2.91562C20.5563 3.04999 20.4219 3.18437 20.5562 3.45312V15.5469C20.5562 15.6812 20.5563 15.95 20.6906 16.0844L22.3031 17.6969V18.1H13.8375V17.6969L15.5844 15.95C15.7187 15.8156 15.7188 15.6812 15.7188 15.4125V5.60312L10.8812 17.8312H10.3438L4.7 5.60312V13.8C4.7 14.2031 4.83438 14.4719 4.96875 14.7406L7.25312 17.4281V17.8312H0.9375V17.4281L3.22187 14.7406C3.49062 14.4719 3.625 14.2031 3.49062 13.8V4.39374Z" fill="black"/>
</svg>
