<svg width="592" height="248" viewBox="0 0 592 248" fill="none" xmlns="http://www.w3.org/2000/svg">
<line x1="544.825" y1="49.351" x2="491.597" y2="54.8725" stroke="white" stroke-width="3.84756"/>
<circle cx="567.096" cy="48.171" r="20.0073" transform="rotate(33.246 567.096 48.171)" fill="#487DE5" stroke="white" stroke-width="5.38658"/>
<path d="M313.06 86.2268L312.899 84.5307C312.785 83.3172 312.913 82.1781 313.286 81.1133C313.658 80.0486 314.203 79.0371 314.919 78.079C315.635 77.1209 316.439 76.1963 317.328 75.3053C318.243 74.3841 319.161 73.5042 320.084 72.6657C321.137 71.7315 322.123 70.8313 323.043 69.9653C323.963 69.0992 324.685 68.2101 325.211 67.2978C325.765 66.3828 325.992 65.4014 325.893 64.3534C325.841 63.8018 325.654 63.2908 325.331 62.8204C325.033 62.3199 324.579 61.9315 323.969 61.6553C323.386 61.3764 322.625 61.2813 321.688 61.3699C320.75 61.4585 319.981 61.7121 319.381 62.1306C318.778 62.5215 318.339 63.0359 318.066 63.674C317.792 64.312 317.694 65.0447 317.772 65.8721L317.89 67.1131L311.602 67.7074C311.558 67.5445 311.514 67.3679 311.468 67.1774C311.447 66.9568 311.424 66.7086 311.398 66.4328C311.21 64.447 311.507 62.7355 312.29 61.2981C313.072 59.8607 314.258 58.719 315.848 57.8732C317.462 56.9971 319.428 56.4496 321.745 56.2307C323.51 56.0639 325.049 56.155 326.362 56.5039C327.702 56.8503 328.824 57.3843 329.727 58.1059C330.63 58.8275 331.323 59.6803 331.805 60.6642C332.313 61.618 332.617 62.6327 332.719 63.7083C332.842 65.0045 332.718 66.1988 332.348 67.2911C331.978 68.3835 331.424 69.4376 330.685 70.4535C329.944 71.4418 329.062 72.4156 328.04 73.3748C327.015 74.3064 325.908 75.2597 324.72 76.2345C324.128 76.7357 323.588 77.2042 323.1 77.6398C322.638 78.0452 322.268 78.4002 321.99 78.7047C321.713 79.0091 321.516 79.2782 321.399 79.5119L334.347 78.2882L334.902 84.1626L313.06 86.2268ZM349.842 83.2517C347.857 83.4393 346.133 83.31 344.672 82.8638C343.208 82.3899 341.979 81.6018 340.984 80.4993C339.987 79.3692 339.194 77.8997 338.606 76.091C338.017 74.2823 337.603 72.1093 337.364 69.5719C337.126 67.0622 337.127 64.8639 337.366 62.9769C337.606 61.09 338.11 59.5119 338.881 58.2426C339.649 56.9457 340.708 55.9412 342.06 55.2291C343.41 54.4894 345.077 54.0258 347.063 53.8381C349.048 53.6504 350.759 53.7948 352.196 54.2713C353.657 54.7175 354.886 55.5057 355.884 56.6358C356.878 57.7383 357.67 59.1939 358.258 61.0027C358.846 62.8114 359.259 64.9706 359.496 67.4804C359.736 70.0177 359.736 72.2298 359.497 74.1167C359.258 76.0037 358.755 77.5956 357.987 78.8925C357.216 80.1618 356.157 81.1663 354.807 81.906C353.483 82.6154 351.828 83.064 349.842 83.2517ZM349.377 78.3287C350.48 78.2245 351.308 77.8541 351.86 77.2176C352.437 76.5509 352.78 75.6142 352.888 74.4074C353.022 73.1704 353.001 71.628 352.827 69.7802L352.522 66.5534C352.344 64.678 352.074 63.1453 351.712 61.9552C351.376 60.7626 350.864 59.9066 350.175 59.3874C349.513 58.8656 348.631 58.6568 347.528 58.761C346.425 58.8653 345.583 59.237 345.004 59.8761C344.452 60.5126 344.109 61.4493 343.975 62.6863C343.839 63.8957 343.86 65.4381 344.037 67.3135L344.338 70.4989C344.515 72.3743 344.785 73.907 345.148 75.0971C345.511 76.2871 346.025 77.1569 346.689 77.7063C347.378 78.2255 348.274 78.433 349.377 78.3287ZM364.771 81.34L364.611 79.6439C364.496 78.4304 364.625 77.2913 364.997 76.2265C365.37 75.1618 365.914 74.1503 366.631 73.1922C367.347 72.2341 368.15 71.3095 369.04 70.4185C369.955 69.4972 370.873 68.6174 371.796 67.7789C372.848 66.8447 373.834 65.9445 374.754 65.0785C375.674 64.2124 376.397 63.3233 376.923 62.4109C377.477 61.496 377.704 60.5146 377.605 59.4665C377.553 58.915 377.365 58.404 377.043 57.9336C376.745 57.4331 376.291 57.0447 375.68 56.7684C375.097 56.4896 374.337 56.3945 373.399 56.4831C372.462 56.5717 371.693 56.8253 371.092 57.2438C370.489 57.6347 370.051 58.1491 369.777 58.7871C369.504 59.4252 369.406 60.1579 369.484 60.9853L369.601 62.2263L363.313 62.8206C363.27 62.6577 363.225 62.481 363.18 62.2906C363.159 62.07 363.135 61.8217 363.109 61.546C362.922 59.5602 363.219 57.8487 364.001 56.4113C364.784 54.9739 365.97 53.8322 367.559 52.9863C369.174 52.1103 371.14 51.5628 373.456 51.3439C375.221 51.1771 376.76 51.2682 378.073 51.6171C379.414 51.9635 380.536 52.4975 381.439 53.2191C382.342 53.9407 383.034 54.7935 383.517 55.7774C384.024 56.7312 384.329 57.7459 384.431 58.8215C384.553 60.1177 384.43 61.312 384.06 62.4043C383.69 63.4967 383.136 64.5508 382.397 65.5667C381.655 66.555 380.774 67.5288 379.751 68.488C378.726 69.4196 377.62 70.3729 376.432 71.3477C375.839 71.8489 375.299 72.3174 374.812 72.753C374.349 73.1584 373.979 73.5134 373.702 73.8179C373.425 74.1223 373.227 74.3914 373.11 74.6251L386.059 73.4014L386.614 79.2758L364.771 81.34ZM402.914 77.7355L402.343 71.6956L389.105 72.9466L388.608 67.6927C389.455 66.0544 390.26 64.2671 391.023 62.3306C391.811 60.364 392.532 58.2785 393.187 56.0741C393.841 53.8696 394.352 51.6231 394.72 49.3344L401.546 48.6894C401.435 49.8686 401.181 51.1586 400.785 52.5595C400.386 53.9329 399.893 55.3429 399.306 56.7896C398.745 58.2062 398.124 59.5866 397.444 60.9308C396.789 62.2449 396.139 63.4611 395.493 64.5795C394.872 65.6677 394.289 66.5576 393.742 67.2493L401.85 66.4831L401.236 59.9881C401.493 59.463 401.755 58.8538 402.024 58.1607C402.32 57.4649 402.599 56.7428 402.863 55.9945C403.153 55.2435 403.392 54.5254 403.577 53.84C403.788 53.1244 403.948 52.4693 404.059 51.8744L407.079 51.5891L408.428 65.8615L412.193 65.5057L412.685 70.7182L408.921 71.074L409.491 77.1139L402.914 77.7355ZM444.482 79.275L439.454 74.658C439.291 74.7012 439.113 74.732 438.92 74.7502C438.73 74.796 438.552 74.8268 438.387 74.8424C435.435 75.1213 432.846 74.8095 430.618 73.907C428.39 73.0045 426.608 71.5173 425.271 69.4453C423.932 67.3458 423.111 64.6965 422.809 61.4973C422.499 58.2153 422.835 55.4427 423.818 53.1794C424.798 50.8885 426.34 49.1011 428.445 47.817C430.575 46.5027 433.198 45.6983 436.314 45.4038C439.431 45.1092 442.144 45.4093 444.455 46.304C446.79 47.1685 448.654 48.6341 450.046 50.7008C451.435 52.7399 452.285 55.4005 452.595 58.6825C452.913 62.0472 452.542 64.8926 451.482 67.2189C450.446 69.515 448.836 71.3227 446.652 72.6422L453.666 78.4071L444.482 79.275ZM438.546 69.0256C439.732 68.9135 440.763 68.6352 441.64 68.1907C442.516 67.7462 443.225 67.1505 443.766 66.4036C444.336 65.6542 444.725 64.7687 444.934 63.7472C445.144 62.7257 445.19 61.5944 445.073 60.3533L444.901 58.533C444.781 57.2644 444.522 56.148 444.125 55.1838C443.728 54.2196 443.18 53.4227 442.48 52.7932C441.808 52.161 441 51.7087 440.056 51.4361C439.112 51.1636 438.047 51.0834 436.861 51.1955C435.648 51.3101 434.603 51.5897 433.727 52.0343C432.851 52.4788 432.142 53.0745 431.6 53.8213C431.058 54.5682 430.683 55.4523 430.473 56.4739C430.264 57.4954 430.219 58.6405 430.339 59.9092L430.511 61.7294C430.628 62.9705 430.885 64.0731 431.283 65.0373C431.68 66.0015 432.214 66.7997 432.886 67.4318C433.558 68.064 434.366 68.5163 435.31 68.7888C436.254 69.0614 437.333 69.1403 438.546 69.0256ZM457.852 72.5438L457.692 70.8476C457.577 69.6341 457.706 68.495 458.078 67.4303C458.451 66.3655 458.995 65.3541 459.712 64.3959C460.428 63.4378 461.231 62.5132 462.121 61.6222C463.035 60.701 463.954 59.8212 464.877 58.9827C465.929 58.0484 466.915 57.1483 467.835 56.2822C468.755 55.4162 469.478 54.527 470.004 53.6147C470.557 52.6998 470.785 51.7183 470.686 50.6703C470.634 50.1187 470.446 49.6077 470.123 49.1374C469.826 48.6368 469.372 48.2484 468.761 47.9722C468.178 47.6934 467.418 47.5983 466.48 47.6869C465.543 47.7755 464.774 48.029 464.173 48.4475C463.57 48.8384 463.132 49.3529 462.858 49.9909C462.584 50.6289 462.487 51.3616 462.565 52.189L462.682 53.4301L456.394 54.0243C456.351 53.8615 456.306 53.6848 456.261 53.4944C456.24 53.2737 456.216 53.0255 456.19 52.7497C456.003 50.764 456.3 49.0524 457.082 47.615C457.865 46.1776 459.051 45.036 460.64 44.1901C462.255 43.314 464.221 42.7666 466.537 42.5476C468.302 42.3808 469.841 42.4719 471.154 42.8209C472.495 43.1672 473.617 43.7012 474.52 44.4228C475.423 45.1444 476.115 45.9972 476.598 46.9812C477.105 47.935 477.41 48.9496 477.512 50.0252C477.634 51.3215 477.51 52.5158 477.141 53.6081C476.771 54.7004 476.217 55.7545 475.478 56.7704C474.736 57.7587 473.855 58.7325 472.832 59.6917C471.807 60.6234 470.701 61.5766 469.513 62.5515C468.92 63.0527 468.38 63.5211 467.893 63.9567C467.43 64.3622 467.06 64.7171 466.783 65.0216C466.506 65.3261 466.308 65.5951 466.191 65.8288L479.14 64.6051L479.695 70.4796L457.852 72.5438Z" fill="white"/>
<path d="M227.922 147.595C227.338 147.662 226.779 147.587 226.247 147.371C225.713 147.142 225.269 146.801 224.915 146.346C224.561 145.892 224.349 145.367 224.281 144.771C224.218 144.222 224.295 143.688 224.513 143.168C224.743 142.646 225.085 142.208 225.539 141.854C226.004 141.486 226.553 141.266 227.185 141.193C227.769 141.126 228.322 141.207 228.843 141.437C229.364 141.655 229.8 141.985 230.153 142.428C230.518 142.869 230.736 143.399 230.808 144.019C230.875 144.603 230.788 145.157 230.546 145.68C230.316 146.202 229.967 146.635 229.5 146.978C229.044 147.321 228.518 147.526 227.922 147.595ZM242.994 147.472L241.543 134.866L246.872 134.252C248.219 134.097 249.299 134.299 250.112 134.857C250.924 135.404 251.396 136.25 251.528 137.394C251.614 138.145 251.521 138.808 251.249 139.383C250.977 139.958 250.554 140.424 249.979 140.78C249.402 141.124 248.703 141.343 247.88 141.438L248.133 141.119L248.616 141.063C249.105 141.007 249.554 141.082 249.965 141.289C250.387 141.494 250.755 141.856 251.068 142.375L253.348 146.28L251.309 146.515L249.046 142.59C248.811 142.122 248.494 141.838 248.096 141.739C247.71 141.639 247.243 141.62 246.694 141.683L244.245 141.965L244.854 147.258L242.994 147.472ZM244.082 140.552L247.247 140.188C248.141 140.085 248.793 139.817 249.202 139.383C249.623 138.948 249.792 138.373 249.71 137.658C249.626 136.931 249.331 136.409 248.823 136.093C248.328 135.776 247.633 135.668 246.739 135.771L243.574 136.136L244.082 140.552ZM259.277 145.761C257.823 145.928 256.631 145.649 255.702 144.922C254.773 144.196 254.224 143.105 254.057 141.651C253.948 140.709 254.033 139.866 254.309 139.121C254.598 138.376 255.042 137.775 255.642 137.319C256.252 136.85 256.987 136.567 257.845 136.468C258.691 136.37 259.421 136.467 260.035 136.759C260.648 137.051 261.142 137.508 261.515 138.129C261.887 138.738 262.124 139.484 262.226 140.366L262.291 140.939L255.496 141.721L255.377 140.684L260.938 140.043L260.661 140.311C260.558 139.417 260.276 138.749 259.814 138.307C259.363 137.851 258.762 137.667 258.011 137.753C257.177 137.849 256.566 138.215 256.181 138.852C255.794 139.476 255.658 140.295 255.775 141.308L255.796 141.487C255.918 142.548 256.266 143.317 256.84 143.795C257.427 144.271 258.197 144.454 259.15 144.344C259.675 144.284 260.155 144.156 260.592 143.961C261.039 143.752 261.451 143.451 261.829 143.057L262.561 144.223C262.186 144.641 261.712 144.985 261.14 145.257C260.566 145.516 259.945 145.684 259.277 145.761ZM264.854 144.956L263.339 131.795L265.145 131.587L266.66 144.748L264.854 144.956ZM273.492 144.125C272.037 144.292 270.846 144.012 269.917 143.286C268.987 142.559 268.439 141.469 268.272 140.015C268.163 139.073 268.247 138.23 268.524 137.485C268.813 136.739 269.257 136.138 269.857 135.683C270.467 135.214 271.201 134.93 272.06 134.831C272.906 134.734 273.636 134.831 274.249 135.123C274.863 135.415 275.356 135.871 275.73 136.493C276.102 137.102 276.339 137.848 276.44 138.73L276.506 139.302L269.711 140.084L269.592 139.047L275.153 138.407L274.876 138.675C274.773 137.78 274.491 137.112 274.029 136.67C273.578 136.215 272.977 136.03 272.226 136.117C271.391 136.213 270.781 136.579 270.395 137.215C270.008 137.84 269.873 138.659 269.99 139.672L270.01 139.851C270.132 140.912 270.481 141.681 271.055 142.158C271.641 142.634 272.411 142.818 273.365 142.708C273.89 142.647 274.37 142.52 274.807 142.324C275.254 142.116 275.666 141.815 276.043 141.421L276.776 142.587C276.401 143.005 275.927 143.349 275.354 143.62C274.78 143.88 274.159 144.048 273.492 144.125ZM282.538 143.083C281.74 143.175 281.021 143.071 280.382 142.77C279.744 142.469 279.217 141.986 278.802 141.321C278.399 140.655 278.142 139.839 278.031 138.873C277.919 137.895 277.984 137.042 278.226 136.314C278.48 135.584 278.884 135 279.437 134.562C279.99 134.112 280.665 133.841 281.464 133.749C282.251 133.658 282.959 133.776 283.588 134.102C284.218 134.428 284.667 134.92 284.936 135.578L284.739 135.6L284.683 133.541L286.436 133.339C286.442 133.713 286.449 134.087 286.456 134.461C286.473 134.821 286.502 135.174 286.542 135.52L287.33 142.368L285.524 142.576L285.293 140.574L285.49 140.551C285.376 141.24 285.044 141.816 284.493 142.278C283.953 142.727 283.301 142.995 282.538 143.083ZM282.823 141.619C283.598 141.53 284.186 141.184 284.588 140.582C285.001 139.979 285.147 139.141 285.023 138.068C284.9 136.995 284.569 136.218 284.03 135.736C283.502 135.241 282.85 135.039 282.075 135.128C281.289 135.218 280.688 135.565 280.275 136.169C279.872 136.759 279.732 137.59 279.855 138.663C279.979 139.736 280.305 140.52 280.833 141.015C281.361 141.509 282.024 141.711 282.823 141.619ZM293.077 141.87C292.326 141.956 291.624 141.941 290.97 141.823C290.316 141.705 289.761 141.497 289.304 141.199L289.716 139.901C290.196 140.184 290.713 140.378 291.269 140.484C291.825 140.589 292.383 140.609 292.943 140.545C293.599 140.469 294.08 140.299 294.388 140.034C294.694 139.757 294.824 139.416 294.778 139.011C294.742 138.701 294.606 138.463 294.369 138.297C294.145 138.129 293.788 138.025 293.301 137.985L291.545 137.843C290.763 137.764 290.152 137.544 289.711 137.184C289.271 136.824 289.015 136.328 288.942 135.696C288.881 135.16 288.969 134.667 289.207 134.216C289.457 133.765 289.836 133.389 290.345 133.089C290.866 132.787 291.49 132.595 292.217 132.511C292.885 132.434 293.516 132.458 294.11 132.583C294.704 132.708 295.213 132.927 295.635 133.241L295.201 134.505C294.796 134.237 294.351 134.047 293.867 133.934C293.381 133.808 292.9 133.773 292.423 133.828C291.756 133.905 291.276 134.087 290.982 134.374C290.689 134.662 290.566 135.008 290.613 135.413C290.649 135.723 290.773 135.969 290.988 136.149C291.212 136.317 291.545 136.429 291.987 136.487L293.743 136.629C294.572 136.703 295.212 136.907 295.661 137.242C296.11 137.577 296.372 138.066 296.446 138.71C296.511 139.27 296.412 139.777 296.15 140.23C295.888 140.683 295.495 141.048 294.972 141.326C294.448 141.603 293.817 141.785 293.077 141.87ZM303.056 140.721C301.602 140.889 300.41 140.609 299.481 139.883C298.552 139.156 298.004 138.066 297.836 136.611C297.728 135.669 297.812 134.826 298.089 134.082C298.377 133.336 298.821 132.735 299.421 132.279C300.032 131.811 300.766 131.527 301.624 131.428C302.471 131.33 303.201 131.428 303.814 131.719C304.427 132.011 304.921 132.468 305.294 133.089C305.666 133.699 305.903 134.444 306.005 135.327L306.071 135.899L299.276 136.681L299.156 135.644L304.717 135.004L304.44 135.271C304.337 134.377 304.055 133.709 303.593 133.267C303.142 132.811 302.541 132.627 301.79 132.713C300.956 132.809 300.346 133.176 299.96 133.812C299.573 134.436 299.438 135.255 299.554 136.268L299.575 136.447C299.697 137.508 300.045 138.277 300.62 138.755C301.206 139.231 301.976 139.414 302.93 139.304C303.454 139.244 303.935 139.116 304.371 138.921C304.818 138.712 305.231 138.411 305.608 138.018L306.34 139.183C305.965 139.601 305.492 139.946 304.919 140.217C304.345 140.476 303.724 140.644 303.056 140.721ZM317.281 139.084C316.387 139.186 315.591 139.091 314.893 138.797C314.193 138.491 313.625 138.013 313.188 137.362C312.749 136.7 312.474 135.886 312.363 134.921C312.252 133.955 312.335 133.106 312.613 132.373C312.89 131.629 313.335 131.034 313.948 130.589C314.56 130.132 315.313 129.852 316.207 129.749C317.101 129.646 317.898 129.748 318.597 130.054C319.308 130.347 319.882 130.824 320.321 131.486C320.77 132.135 321.05 132.942 321.161 133.908C321.272 134.874 321.183 135.729 320.895 136.475C320.617 137.208 320.166 137.803 319.542 138.262C318.929 138.707 318.176 138.981 317.281 139.084ZM317.119 137.671C317.906 137.58 318.5 137.234 318.902 136.632C319.304 136.03 319.443 135.193 319.319 134.12C319.196 133.047 318.871 132.269 318.344 131.786C317.816 131.291 317.158 131.089 316.372 131.18C315.597 131.269 315.008 131.615 314.607 132.216C314.203 132.806 314.064 133.638 314.187 134.711C314.311 135.784 314.63 136.568 315.147 137.064C315.675 137.559 316.332 137.761 317.119 137.671ZM324.24 138.119L323.363 130.502L321.611 130.703L321.45 129.309L323.703 129.049L323.256 129.572L323.091 128.141C322.969 127.08 323.145 126.245 323.618 125.635C324.09 125.013 324.845 124.642 325.882 124.522C326.132 124.494 326.396 124.481 326.675 124.486C326.953 124.49 327.186 124.523 327.375 124.586L327.544 126.052C327.394 126.009 327.209 125.982 326.991 125.971C326.783 125.947 326.571 125.947 326.357 125.972C326.011 126.011 325.721 126.117 325.487 126.289C325.252 126.449 325.079 126.674 324.967 126.965C324.867 127.254 324.842 127.614 324.892 128.043L325.032 129.259L324.722 128.932L327.44 128.619L327.601 130.014L325.169 130.294L326.046 137.912L324.24 138.119ZM334.918 136.89L333.467 124.283L334.898 124.119L343.81 133.384L343.363 133.436L342.193 123.279L343.928 123.079L345.379 135.686L343.967 135.849L335.072 126.581L335.484 126.534L336.653 136.69L334.918 136.89ZM352.354 135.046C350.899 135.214 349.708 134.934 348.779 134.207C347.849 133.481 347.301 132.391 347.134 130.936C347.025 129.994 347.109 129.151 347.386 128.407C347.675 127.661 348.119 127.06 348.719 126.604C349.329 126.136 350.063 125.852 350.922 125.753C351.768 125.655 352.498 125.753 353.111 126.044C353.725 126.336 354.218 126.793 354.592 127.414C354.964 128.024 355.201 128.769 355.302 129.652L355.368 130.224L348.573 131.006L348.454 129.969L354.015 129.329L353.738 129.596C353.635 128.702 353.352 128.034 352.891 127.592C352.44 127.136 351.839 126.952 351.088 127.038C350.253 127.134 349.643 127.501 349.257 128.137C348.87 128.761 348.735 129.58 348.852 130.593L348.872 130.772C348.994 131.833 349.343 132.602 349.917 133.08C350.503 133.556 351.273 133.739 352.227 133.629C352.752 133.569 353.232 133.441 353.669 133.246C354.116 133.037 354.528 132.736 354.905 132.343L355.638 133.508C355.263 133.926 354.789 134.27 354.216 134.542C353.642 134.801 353.021 134.969 352.354 135.046ZM360.258 133.973L355.805 125.354L357.683 125.138L361.212 132.341L360.747 132.395L362.618 124.569L364.013 124.409L367.596 131.606L367.149 131.658L368.948 123.841L370.754 123.633L368.359 133.041L366.714 133.23L363.007 125.902L363.848 125.805L361.939 133.78L360.258 133.973ZM378.383 131.887L376.932 119.28L385.193 118.329L385.364 119.813L378.909 120.556L379.366 124.526L385.41 123.83L385.583 125.332L379.539 126.028L380.016 130.177L386.472 129.433L386.645 130.936L378.383 131.887ZM387.5 130.837L391.01 125.287L391.109 126.146L386.677 121.8L388.841 121.551L391.982 124.759L391.338 124.833L393.669 120.995L395.815 120.748L392.52 125.965L392.425 125.142L397.085 129.734L394.921 129.983L391.536 126.549L392.18 126.475L389.646 130.59L387.5 130.837ZM402.223 129.305C401.317 129.41 400.503 129.316 399.78 129.025C399.069 128.72 398.488 128.237 398.037 127.577C397.597 126.902 397.321 126.077 397.209 125.099C397.097 124.133 397.187 123.284 397.477 122.55C397.767 121.816 398.225 121.231 398.851 120.797C399.476 120.351 400.242 120.075 401.148 119.971C401.732 119.904 402.31 119.94 402.882 120.079C403.452 120.207 403.937 120.429 404.336 120.745L403.892 122.083C403.521 121.8 403.118 121.604 402.683 121.497C402.246 121.379 401.831 121.342 401.438 121.387C400.58 121.486 399.938 121.838 399.512 122.442C399.086 123.047 398.933 123.868 399.053 124.905C399.173 125.954 399.51 126.731 400.064 127.235C400.617 127.739 401.323 127.941 402.181 127.842C402.562 127.799 402.954 127.681 403.354 127.49C403.754 127.287 404.107 126.999 404.414 126.625L405.151 127.827C404.822 128.227 404.39 128.561 403.853 128.828C403.326 129.082 402.783 129.241 402.223 129.305ZM407.176 128.572L405.661 115.411L407.467 115.203L408.982 128.364L407.176 128.572ZM414.848 127.852C413.763 127.977 412.913 127.779 412.297 127.258C411.692 126.723 411.319 125.842 411.178 124.614L410.538 119.053L412.344 118.845L412.98 124.371C413.066 125.122 413.285 125.658 413.636 125.98C413.987 126.302 414.479 126.427 415.11 126.354C415.826 126.272 416.376 125.967 416.763 125.439C417.149 124.911 417.297 124.254 417.206 123.467L416.617 118.353L418.423 118.145L419.461 127.158L417.709 127.36L417.486 125.428L417.719 125.401C417.545 126.098 417.205 126.662 416.7 127.095C416.192 127.516 415.575 127.768 414.848 127.852ZM425.218 126.658C424.467 126.745 423.765 126.729 423.111 126.611C422.457 126.493 421.902 126.285 421.445 125.987L421.857 124.69C422.337 124.973 422.854 125.167 423.41 125.272C423.966 125.377 424.524 125.397 425.084 125.333C425.74 125.257 426.221 125.087 426.529 124.822C426.835 124.545 426.965 124.204 426.919 123.799C426.883 123.489 426.747 123.251 426.51 123.085C426.286 122.917 425.929 122.814 425.442 122.773L423.686 122.631C422.904 122.552 422.293 122.332 421.852 121.972C421.412 121.612 421.156 121.116 421.083 120.484C421.022 119.948 421.11 119.455 421.348 119.004C421.598 118.553 421.977 118.177 422.486 117.877C423.007 117.575 423.631 117.383 424.358 117.299C425.026 117.222 425.657 117.246 426.251 117.371C426.845 117.496 427.354 117.715 427.776 118.029L427.342 119.293C426.937 119.025 426.492 118.835 426.008 118.722C425.522 118.596 425.041 118.561 424.564 118.616C423.897 118.693 423.417 118.875 423.123 119.162C422.83 119.45 422.707 119.796 422.754 120.202C422.79 120.511 422.914 120.757 423.129 120.938C423.353 121.105 423.686 121.218 424.128 121.275L425.883 121.418C426.713 121.491 427.353 121.695 427.802 122.03C428.251 122.365 428.513 122.854 428.587 123.498C428.652 124.058 428.553 124.565 428.291 125.018C428.029 125.471 427.636 125.836 427.113 126.114C426.589 126.392 425.958 126.573 425.218 126.658ZM431.012 125.828L429.975 116.816L431.781 116.608L432.818 125.62L431.012 125.828ZM429.616 114.954L429.4 113.077L431.492 112.836L431.708 114.714L429.616 114.954ZM438.112 125.011L433.212 116.443L435.143 116.221L439.05 123.399L438.531 123.459L440.758 115.574L442.6 115.362L439.757 124.821L438.112 125.011ZM449.098 123.909C447.643 124.077 446.452 123.797 445.522 123.07C444.593 122.344 444.045 121.254 443.877 119.799C443.769 118.857 443.853 118.014 444.13 117.27C444.418 116.524 444.863 115.923 445.462 115.467C446.073 114.999 446.807 114.715 447.666 114.616C448.512 114.518 449.242 114.616 449.855 114.907C450.469 115.199 450.962 115.656 451.336 116.277C451.708 116.887 451.945 117.632 452.046 118.515L452.112 119.087L445.317 119.869L445.198 118.832L450.759 118.192L450.482 118.459C450.379 117.565 450.096 116.897 449.635 116.455C449.184 115.999 448.583 115.815 447.832 115.901C446.997 115.997 446.387 116.364 446.001 117C445.614 117.624 445.479 118.443 445.596 119.456L445.616 119.635C445.738 120.696 446.087 121.465 446.661 121.943C447.247 122.419 448.017 122.602 448.971 122.492C449.495 122.432 449.976 122.304 450.413 122.109C450.86 121.9 451.272 121.599 451.649 121.206L452.381 122.371C452.007 122.789 451.533 123.134 450.96 123.405C450.386 123.664 449.765 123.832 449.098 123.909ZM459.603 122.537L458.151 109.93L466.234 109L466.405 110.484L460.182 111.2L460.647 115.241L466.459 114.572L466.63 116.057L460.818 116.726L461.462 122.323L459.603 122.537ZM473.441 121.107C471.986 121.274 470.795 120.995 469.866 120.268C468.936 119.542 468.388 118.451 468.221 116.997C468.112 116.055 468.196 115.212 468.473 114.467C468.762 113.721 469.206 113.121 469.806 112.665C470.416 112.196 471.15 111.912 472.009 111.814C472.855 111.716 473.585 111.813 474.198 112.105C474.812 112.397 475.305 112.853 475.679 113.475C476.051 114.084 476.288 114.83 476.389 115.712L476.455 116.284L469.66 117.067L469.541 116.029L475.102 115.389L474.825 115.657C474.722 114.763 474.44 114.095 473.978 113.652C473.527 113.197 472.926 113.013 472.175 113.099C471.34 113.195 470.73 113.561 470.344 114.198C469.957 114.822 469.822 115.641 469.939 116.654L469.959 116.833C470.081 117.894 470.43 118.663 471.004 119.141C471.59 119.617 472.36 119.8 473.314 119.69C473.839 119.63 474.319 119.502 474.756 119.307C475.203 119.098 475.615 118.797 475.992 118.403L476.725 119.569C476.35 119.987 475.876 120.331 475.303 120.602C474.729 120.862 474.108 121.03 473.441 121.107ZM482.487 120.065C481.689 120.157 480.97 120.053 480.331 119.752C479.693 119.451 479.166 118.968 478.751 118.303C478.348 117.637 478.091 116.821 477.98 115.855C477.868 114.878 477.933 114.025 478.175 113.296C478.429 112.566 478.833 111.982 479.386 111.544C479.939 111.094 480.614 110.823 481.413 110.731C482.2 110.64 482.908 110.758 483.537 111.084C484.167 111.411 484.616 111.902 484.885 112.56L484.688 112.583L484.632 110.523L486.385 110.322C486.391 110.695 486.398 111.069 486.405 111.443C486.422 111.803 486.451 112.156 486.491 112.502L487.279 119.351L485.473 119.559L485.242 117.556L485.439 117.533C485.325 118.223 484.993 118.798 484.442 119.261C483.902 119.709 483.25 119.978 482.487 120.065ZM482.772 118.601C483.547 118.512 484.135 118.166 484.537 117.565C484.95 116.961 485.096 116.123 484.972 115.05C484.849 113.977 484.518 113.2 483.979 112.719C483.451 112.224 482.799 112.021 482.024 112.11C481.238 112.201 480.637 112.548 480.224 113.151C479.821 113.741 479.681 114.572 479.804 115.645C479.928 116.718 480.254 117.502 480.782 117.997C481.31 118.492 481.973 118.693 482.772 118.601ZM493.438 118.805C492.46 118.917 491.691 118.74 491.13 118.273C490.567 117.794 490.225 117.024 490.103 115.963L489.574 111.368L487.821 111.57L487.661 110.175L489.413 109.973L489.14 107.595L490.89 106.904L491.219 109.765L493.723 109.477L493.883 110.872L491.38 111.16L491.89 115.595C491.967 116.262 492.141 116.725 492.413 116.984C492.684 117.243 493.046 117.346 493.499 117.294C493.726 117.268 493.921 117.227 494.083 117.172C494.257 117.104 494.411 117.032 494.548 116.956L494.716 118.422C494.546 118.514 494.343 118.592 494.109 118.655C493.876 118.73 493.652 118.78 493.438 118.805ZM499.63 118.092C498.545 118.217 497.695 118.019 497.079 117.498C496.474 116.963 496.101 116.082 495.96 114.854L495.319 109.293L497.125 109.085L497.762 114.611C497.848 115.362 498.067 115.898 498.418 116.22C498.769 116.542 499.261 116.667 499.892 116.594C500.608 116.512 501.158 116.207 501.545 115.679C501.931 115.152 502.079 114.494 501.988 113.707L501.399 108.593L503.205 108.385L504.243 117.398L502.49 117.6L502.268 115.668L502.501 115.642C502.327 116.338 501.987 116.903 501.482 117.335C500.974 117.756 500.357 118.008 499.63 118.092ZM506.852 117.097L506.072 110.32C506.03 109.951 505.975 109.582 505.909 109.216C505.853 108.836 505.786 108.463 505.708 108.097L507.46 107.896L507.924 110.198L507.638 110.23C507.693 109.656 507.842 109.168 508.086 108.766C508.329 108.363 508.643 108.049 509.028 107.824C509.425 107.597 509.85 107.457 510.303 107.405C510.493 107.383 510.656 107.377 510.79 107.385C510.922 107.382 511.056 107.391 511.191 107.412L511.359 109.023C511.146 108.963 510.962 108.936 510.806 108.942C510.66 108.934 510.48 108.943 510.265 108.968C509.741 109.028 509.307 109.199 508.965 109.48C508.622 109.749 508.377 110.091 508.232 110.506C508.086 110.922 508.04 111.356 508.092 111.809L508.676 116.887L506.852 117.097ZM517.692 116.013C516.237 116.18 515.045 115.901 514.116 115.174C513.187 114.448 512.639 113.357 512.471 111.903C512.363 110.961 512.447 110.118 512.724 109.373C513.012 108.627 513.457 108.027 514.056 107.571C514.667 107.102 515.401 106.818 516.259 106.72C517.106 106.622 517.836 106.719 518.449 107.011C519.063 107.303 519.556 107.759 519.929 108.381C520.302 108.99 520.538 109.736 520.64 110.618L520.706 111.19L513.911 111.973L513.791 110.935L519.353 110.295L519.075 110.563C518.972 109.669 518.69 109 518.229 108.558C517.778 108.103 517.177 107.918 516.426 108.005C515.591 108.101 514.981 108.467 514.595 109.103C514.208 109.728 514.073 110.547 514.189 111.56L514.21 111.739C514.332 112.8 514.68 113.569 515.255 114.046C515.841 114.523 516.611 114.706 517.565 114.596C518.089 114.536 518.57 114.408 519.006 114.213C519.453 114.004 519.866 113.703 520.243 113.309L520.975 114.475C520.601 114.893 520.127 115.237 519.554 115.508C518.98 115.768 518.359 115.936 517.692 116.013ZM526.38 115.012C525.629 115.099 524.927 115.083 524.273 114.965C523.619 114.847 523.064 114.639 522.607 114.342L523.019 113.044C523.499 113.327 524.016 113.521 524.572 113.626C525.128 113.731 525.686 113.752 526.246 113.687C526.902 113.612 527.383 113.441 527.691 113.177C527.997 112.9 528.127 112.559 528.081 112.153C528.045 111.843 527.909 111.605 527.672 111.439C527.448 111.272 527.091 111.168 526.604 111.127L524.848 110.985C524.066 110.906 523.454 110.687 523.014 110.327C522.574 109.967 522.318 109.471 522.245 108.839C522.183 108.302 522.272 107.809 522.51 107.359C522.76 106.907 523.139 106.531 523.648 106.231C524.169 105.93 524.793 105.737 525.52 105.653C526.188 105.577 526.819 105.601 527.413 105.725C528.007 105.85 528.516 106.07 528.938 106.383L528.504 107.647C528.099 107.38 527.654 107.189 527.17 107.076C526.684 106.951 526.203 106.916 525.726 106.97C525.059 107.047 524.578 107.229 524.285 107.517C523.992 107.804 523.869 108.151 523.916 108.556C523.952 108.866 524.076 109.111 524.29 109.292C524.515 109.459 524.848 109.572 525.29 109.63L527.045 109.772C527.875 109.846 528.515 110.05 528.964 110.385C529.413 110.719 529.675 111.209 529.749 111.852C529.814 112.413 529.715 112.919 529.453 113.372C529.191 113.825 528.798 114.191 528.275 114.468C527.751 114.746 527.12 114.927 526.38 115.012ZM218.248 179.913C217.663 179.98 217.105 179.906 216.573 179.689C216.039 179.461 215.595 179.119 215.241 178.665C214.887 178.21 214.675 177.685 214.607 177.089C214.544 176.541 214.621 176.006 214.839 175.486C215.069 174.964 215.411 174.526 215.865 174.172C216.33 173.804 216.879 173.584 217.511 173.512C218.095 173.444 218.648 173.526 219.169 173.755C219.69 173.973 220.126 174.304 220.479 174.746C220.844 175.187 221.062 175.718 221.134 176.338C221.201 176.922 221.114 177.475 220.872 177.999C220.642 178.52 220.293 178.953 219.825 179.297C219.37 179.639 218.844 179.845 218.248 179.913ZM232.015 179.941L236.178 166.688L237.77 166.505L244.925 178.455L243.012 178.675L241.045 175.278L241.889 175.688L234.254 176.567L235.036 175.969L233.892 179.725L232.015 179.941ZM237.182 168.638L235.203 175.37L234.726 175.008L241.075 174.278L240.764 174.73L237.254 168.63L237.182 168.638ZM249.813 178.055C249.027 178.146 248.308 178.041 247.657 177.742C247.019 177.441 246.492 176.958 246.077 176.293C245.674 175.626 245.417 174.811 245.306 173.845C245.194 172.867 245.259 172.014 245.501 171.286C245.755 170.556 246.159 169.972 246.712 169.534C247.277 169.082 247.952 168.811 248.739 168.721C249.514 168.632 250.216 168.75 250.845 169.076C251.485 169.389 251.939 169.868 252.207 170.514L251.992 170.539L251.284 164.387L253.09 164.179L254.605 177.34L252.817 177.546L252.582 175.508L252.797 175.483C252.672 176.186 252.341 176.768 251.802 177.228C251.263 177.689 250.6 177.965 249.813 178.055ZM250.098 176.591C250.873 176.502 251.467 176.156 251.881 175.552C252.294 174.949 252.439 174.111 252.316 173.038C252.192 171.965 251.861 171.188 251.323 170.706C250.783 170.213 250.125 170.011 249.351 170.1C248.564 170.19 247.963 170.537 247.55 171.141C247.147 171.731 247.007 172.562 247.13 173.635C247.254 174.708 247.58 175.492 248.108 175.987C248.648 176.48 249.311 176.682 250.098 176.591ZM260.71 176.801C259.923 176.891 259.205 176.787 258.554 176.487C257.916 176.186 257.389 175.703 256.974 175.038C256.571 174.372 256.314 173.556 256.203 172.59C256.091 171.613 256.155 170.76 256.398 170.031C256.652 169.302 257.056 168.718 257.609 168.279C258.173 167.828 258.849 167.557 259.636 167.466C260.41 167.377 261.113 167.496 261.742 167.822C262.382 168.135 262.836 168.614 263.103 169.26L262.889 169.284L262.181 163.133L263.987 162.925L265.502 176.086L263.714 176.292L263.479 174.253L263.694 174.229C263.569 174.931 263.237 175.513 262.699 175.974C262.16 176.434 261.497 176.71 260.71 176.801ZM260.995 175.337C261.769 175.247 262.364 174.901 262.777 174.298C263.191 173.695 263.336 172.856 263.213 171.784C263.089 170.711 262.758 169.933 262.22 169.452C261.68 168.958 261.022 168.756 260.247 168.845C259.46 168.936 258.86 169.283 258.447 169.886C258.043 170.476 257.904 171.308 258.027 172.381C258.151 173.453 258.476 174.237 259.004 174.732C259.544 175.226 260.208 175.427 260.995 175.337ZM268.137 175.783L267.1 166.77L268.906 166.562L269.943 175.575L268.137 175.783ZM266.74 164.909L266.524 163.031L268.617 162.791L268.833 164.668L266.74 164.909ZM276.114 175.027C275.136 175.14 274.367 174.963 273.806 174.496C273.243 174.017 272.901 173.247 272.779 172.186L272.25 167.591L270.497 167.792L270.337 166.397L272.089 166.196L271.815 163.817L273.566 163.127L273.895 165.988L276.399 165.7L276.559 167.094L274.056 167.383L274.566 171.817C274.643 172.485 274.817 172.948 275.089 173.207C275.36 173.465 275.722 173.569 276.175 173.517C276.402 173.49 276.596 173.45 276.759 173.395C276.932 173.327 277.087 173.254 277.223 173.178L277.392 174.645C277.222 174.737 277.019 174.814 276.785 174.878C276.552 174.953 276.328 175.003 276.114 175.027ZM279.086 174.522L278.049 165.51L279.855 165.302L280.892 174.314L279.086 174.522ZM277.69 163.649L277.473 161.771L279.566 161.53L279.782 163.408L277.69 163.649ZM287.42 173.726C286.526 173.829 285.73 173.733 285.032 173.439C284.332 173.133 283.764 172.655 283.327 172.005C282.888 171.343 282.613 170.529 282.502 169.563C282.391 168.597 282.474 167.748 282.752 167.016C283.029 166.271 283.474 165.676 284.087 165.231C284.699 164.774 285.452 164.494 286.346 164.391C287.24 164.289 288.037 164.39 288.736 164.696C289.446 164.989 290.021 165.466 290.459 166.128C290.909 166.777 291.189 167.585 291.3 168.55C291.411 169.516 291.322 170.372 291.034 171.117C290.756 171.85 290.305 172.446 289.681 172.904C289.068 173.349 288.314 173.623 287.42 173.726ZM287.258 172.313C288.045 172.223 288.639 171.876 289.041 171.274C289.442 170.673 289.582 169.835 289.458 168.762C289.335 167.689 289.009 166.911 288.483 166.428C287.955 165.934 287.297 165.731 286.511 165.822C285.736 165.911 285.147 166.257 284.745 166.859C284.342 167.449 284.202 168.28 284.326 169.353C284.449 170.426 284.769 171.211 285.285 171.707C285.814 172.202 286.471 172.404 287.258 172.313ZM293.93 172.813L293.141 165.965C293.102 165.619 293.043 165.269 292.966 164.916C292.9 164.549 292.827 164.183 292.749 163.817L294.502 163.616L294.881 165.493L294.666 165.517C294.863 164.818 295.228 164.263 295.761 163.851C296.292 163.428 296.933 163.173 297.684 163.086C298.745 162.964 299.577 163.164 300.181 163.687C300.797 164.208 301.175 165.082 301.316 166.31L301.959 171.889L300.153 172.097L299.523 166.625C299.431 165.826 299.204 165.273 298.842 164.964C298.491 164.642 297.994 164.518 297.35 164.592C296.587 164.68 296.006 164.989 295.608 165.518C295.209 166.035 295.055 166.693 295.147 167.491L295.736 172.606L293.93 172.813ZM313.178 170.761C312.284 170.864 311.488 170.768 310.79 170.474C310.09 170.168 309.522 169.69 309.084 169.04C308.646 168.377 308.371 167.563 308.26 166.598C308.148 165.632 308.232 164.783 308.51 164.05C308.787 163.306 309.232 162.711 309.845 162.266C310.456 161.809 311.209 161.529 312.103 161.426C312.998 161.323 313.794 161.425 314.494 161.731C315.204 162.024 315.778 162.501 316.217 163.163C316.666 163.812 316.946 164.619 317.058 165.585C317.169 166.551 317.08 167.406 316.791 168.152C316.513 168.885 316.063 169.48 315.439 169.939C314.826 170.384 314.072 170.658 313.178 170.761ZM313.015 169.348C313.802 169.257 314.396 168.911 314.798 168.309C315.2 167.707 315.339 166.87 315.216 165.797C315.092 164.724 314.767 163.946 314.24 163.463C313.712 162.968 313.055 162.766 312.268 162.857C311.493 162.946 310.905 163.292 310.503 163.894C310.1 164.484 309.96 165.315 310.084 166.388C310.207 167.461 310.527 168.245 311.043 168.742C311.571 169.236 312.229 169.439 313.015 169.348ZM320.136 169.797L319.26 162.179L317.507 162.381L317.347 160.986L319.6 160.726L319.153 161.249L318.988 159.818C318.866 158.757 319.041 157.922 319.515 157.312C319.987 156.69 320.741 156.319 321.778 156.2C322.029 156.171 322.293 156.158 322.571 156.163C322.85 156.167 323.083 156.2 323.271 156.263L323.44 157.73C323.29 157.686 323.106 157.659 322.887 157.648C322.679 157.624 322.468 157.624 322.253 157.649C321.907 157.689 321.618 157.794 321.384 157.966C321.148 158.126 320.975 158.352 320.864 158.642C320.764 158.931 320.739 159.291 320.788 159.72L320.928 160.936L320.619 160.609L323.337 160.296L323.498 161.691L321.066 161.971L321.943 169.589L320.136 169.797ZM330.815 168.567L329.364 155.961L337.446 155.03L337.617 156.514L331.394 157.231L331.859 161.272L337.671 160.603L337.842 162.087L332.03 162.756L332.675 168.353L330.815 168.567ZM340.589 167.442L339.809 160.665C339.767 160.295 339.712 159.927 339.646 159.56C339.59 159.18 339.523 158.807 339.445 158.442L341.197 158.24L341.661 160.542L341.375 160.575C341.43 160.001 341.579 159.513 341.823 159.11C342.066 158.708 342.38 158.394 342.765 158.168C343.162 157.942 343.587 157.802 344.04 157.75C344.23 157.728 344.393 157.721 344.527 157.73C344.659 157.727 344.793 157.736 344.928 157.756L345.096 159.368C344.883 159.308 344.699 159.281 344.543 159.286C344.397 159.279 344.217 159.288 344.002 159.312C343.478 159.373 343.044 159.543 342.702 159.824C342.359 160.093 342.114 160.436 341.969 160.851C341.823 161.266 341.777 161.701 341.829 162.154L342.413 167.232L340.589 167.442ZM351.429 166.357C349.974 166.525 348.782 166.245 347.853 165.519C346.924 164.792 346.376 163.702 346.208 162.247C346.1 161.306 346.184 160.462 346.461 159.718C346.749 158.972 347.194 158.371 347.793 157.916C348.404 157.447 349.138 157.163 349.996 157.064C350.843 156.967 351.573 157.064 352.186 157.356C352.8 157.647 353.293 158.104 353.667 158.725C354.039 159.335 354.275 160.081 354.377 160.963L354.443 161.535L347.648 162.317L347.528 161.28L353.09 160.64L352.812 160.907C352.71 160.013 352.427 159.345 351.966 158.903C351.515 158.448 350.914 158.263 350.163 158.35C349.328 158.446 348.718 158.812 348.332 159.448C347.945 160.072 347.81 160.891 347.926 161.905L347.947 162.083C348.069 163.144 348.417 163.914 348.992 164.391C349.578 164.867 350.348 165.05 351.302 164.941C351.826 164.88 352.307 164.752 352.743 164.557C353.19 164.349 353.603 164.048 353.98 163.654L354.712 164.82C354.338 165.237 353.864 165.582 353.291 165.853C352.717 166.112 352.096 166.28 351.429 166.357ZM360.117 165.357C359.366 165.444 358.664 165.428 358.01 165.31C357.356 165.192 356.801 164.984 356.344 164.686L356.756 163.389C357.236 163.672 357.753 163.866 358.309 163.971C358.865 164.076 359.423 164.096 359.983 164.032C360.639 163.956 361.12 163.786 361.428 163.521C361.734 163.244 361.864 162.903 361.818 162.498C361.782 162.188 361.646 161.95 361.409 161.784C361.185 161.616 360.828 161.513 360.341 161.472L358.585 161.33C357.803 161.251 357.192 161.031 356.751 160.671C356.311 160.311 356.055 159.815 355.982 159.183C355.921 158.647 356.009 158.154 356.247 157.704C356.497 157.252 356.876 156.876 357.385 156.576C357.906 156.274 358.53 156.082 359.257 155.998C359.925 155.921 360.556 155.945 361.15 156.07C361.744 156.195 362.253 156.414 362.675 156.728L362.241 157.992C361.836 157.724 361.391 157.534 360.907 157.421C360.421 157.295 359.94 157.26 359.463 157.315C358.796 157.392 358.316 157.574 358.022 157.861C357.729 158.149 357.606 158.495 357.653 158.901C357.689 159.211 357.813 159.456 358.028 159.637C358.252 159.804 358.585 159.917 359.027 159.975L360.782 160.117C361.612 160.19 362.252 160.394 362.701 160.729C363.15 161.064 363.412 161.553 363.486 162.197C363.551 162.757 363.452 163.264 363.19 163.717C362.928 164.17 362.535 164.535 362.012 164.813C361.488 165.091 360.857 165.272 360.117 165.357ZM365.911 164.527L364.396 151.366L366.202 151.158L366.9 157.22L366.65 157.249C366.834 156.539 367.198 155.978 367.742 155.565C368.285 155.14 368.938 154.884 369.701 154.796C370.774 154.672 371.607 154.878 372.2 155.414C372.792 155.938 373.157 156.796 373.294 157.988L373.94 163.603L372.134 163.811L371.5 158.303C371.411 157.528 371.192 156.986 370.842 156.676C370.503 156.352 370.005 156.228 369.349 156.304C368.587 156.392 368 156.701 367.59 157.231C367.191 157.748 367.035 158.394 367.125 159.169L367.717 164.319L365.911 164.527ZM381.457 162.737L380.006 150.131L381.633 149.943L387.759 160.345L387.223 160.407L390.825 148.885L392.434 148.7L393.885 161.307L392.204 161.5L391.043 151.415L391.634 151.347L388.253 161.955L387.09 162.089L381.387 152.526L381.995 152.456L383.156 162.542L381.457 162.737ZM396.733 160.979L395.696 151.966L397.502 151.758L398.539 160.771L396.733 160.979ZM395.336 150.105L395.12 148.228L397.213 147.987L397.429 149.864L395.336 150.105ZM404.298 160.271C403.547 160.358 402.845 160.342 402.191 160.224C401.537 160.106 400.982 159.898 400.525 159.6L400.937 158.303C401.417 158.586 401.934 158.78 402.49 158.885C403.046 158.99 403.604 159.01 404.164 158.946C404.82 158.87 405.301 158.7 405.609 158.435C405.915 158.158 406.045 157.817 405.998 157.412C405.963 157.102 405.827 156.864 405.59 156.698C405.366 156.53 405.009 156.427 404.521 156.386L402.766 156.244C401.984 156.165 401.372 155.945 400.932 155.585C400.492 155.225 400.236 154.729 400.163 154.097C400.101 153.561 400.19 153.068 400.428 152.618C400.678 152.166 401.057 151.79 401.566 151.49C402.087 151.188 402.711 150.996 403.438 150.912C404.106 150.835 404.737 150.859 405.331 150.984C405.925 151.109 406.434 151.328 406.856 151.642L406.422 152.906C406.017 152.638 405.572 152.448 405.088 152.335C404.602 152.209 404.121 152.174 403.644 152.229C402.977 152.306 402.496 152.488 402.203 152.775C401.91 153.063 401.787 153.409 401.834 153.815C401.869 154.125 401.994 154.37 402.208 154.551C402.433 154.718 402.766 154.831 403.208 154.888L404.963 155.031C405.793 155.104 406.433 155.308 406.882 155.643C407.331 155.978 407.593 156.467 407.667 157.111C407.732 157.671 407.633 158.178 407.371 158.631C407.109 159.084 406.716 159.449 406.192 159.727C405.669 160.005 405.037 160.186 404.298 160.271ZM413.204 159.246C412.453 159.332 411.751 159.317 411.097 159.198C410.443 159.08 409.888 158.873 409.431 158.575L409.843 157.277C410.323 157.56 410.84 157.754 411.396 157.86C411.952 157.965 412.51 157.985 413.07 157.92C413.726 157.845 414.207 157.675 414.515 157.41C414.821 157.133 414.951 156.792 414.904 156.387C414.869 156.077 414.733 155.839 414.496 155.673C414.272 155.505 413.915 155.401 413.427 155.361L411.672 155.219C410.89 155.14 410.278 154.92 409.838 154.56C409.398 154.2 409.142 153.704 409.069 153.072C409.007 152.536 409.096 152.042 409.334 151.592C409.584 151.141 409.963 150.765 410.472 150.465C410.993 150.163 411.617 149.97 412.344 149.887C413.012 149.81 413.643 149.834 414.237 149.959C414.831 150.084 415.34 150.303 415.762 150.617L415.328 151.881C414.923 151.613 414.478 151.423 413.994 151.309C413.508 151.184 413.027 151.149 412.55 151.204C411.883 151.281 411.402 151.463 411.109 151.75C410.816 152.038 410.693 152.384 410.74 152.789C410.775 153.099 410.9 153.345 411.114 153.525C411.339 153.693 411.672 153.805 412.114 153.863L413.869 154.005C414.699 154.079 415.339 154.283 415.788 154.618C416.237 154.953 416.499 155.442 416.573 156.086C416.638 156.646 416.539 157.153 416.277 157.606C416.015 158.059 415.622 158.424 415.099 158.702C414.575 158.979 413.943 159.161 413.204 159.246ZM418.998 158.416L417.961 149.403L419.767 149.195L420.804 158.208L418.998 158.416ZM417.602 147.542L417.385 145.665L419.478 145.424L419.694 147.301L417.602 147.542ZM427.332 157.619C426.438 157.722 425.642 157.627 424.944 157.333C424.244 157.027 423.676 156.549 423.239 155.898C422.8 155.236 422.525 154.422 422.414 153.457C422.303 152.491 422.386 151.642 422.664 150.909C422.941 150.165 423.386 149.57 423.999 149.125C424.611 148.668 425.364 148.388 426.258 148.285C427.152 148.182 427.949 148.284 428.648 148.59C429.358 148.882 429.933 149.36 430.371 150.022C430.821 150.671 431.101 151.478 431.212 152.444C431.323 153.409 431.234 154.265 430.946 155.011C430.668 155.744 430.217 156.339 429.593 156.797C428.98 157.243 428.226 157.517 427.332 157.619ZM427.17 156.207C427.956 156.116 428.551 155.77 428.953 155.168C429.354 154.566 429.494 153.729 429.37 152.656C429.246 151.583 428.921 150.805 428.395 150.322C427.867 149.827 427.209 149.625 426.422 149.716C425.648 149.805 425.059 150.15 424.657 150.752C424.254 151.342 424.114 152.174 424.238 153.247C424.361 154.32 424.681 155.104 425.197 155.6C425.725 156.095 426.383 156.297 427.17 156.207ZM433.842 156.707L433.053 149.858C433.013 149.513 432.955 149.163 432.878 148.809C432.812 148.443 432.739 148.076 432.661 147.711L434.414 147.509L434.793 149.386L434.578 149.411C434.775 148.712 435.14 148.156 435.673 147.745C436.204 147.321 436.845 147.066 437.596 146.98C438.657 146.858 439.489 147.058 440.093 147.58C440.709 148.101 441.087 148.976 441.228 150.204L441.871 155.783L440.065 155.991L439.435 150.519C439.343 149.72 439.116 149.166 438.754 148.858C438.403 148.536 437.906 148.412 437.262 148.486C436.499 148.574 435.918 148.882 435.52 149.411C435.121 149.928 434.967 150.586 435.059 151.385L435.648 156.499L433.842 156.707ZM452.392 154.572L451.12 143.521L446.81 144.017L446.631 142.461L457.11 141.255L457.289 142.81L452.979 143.306L454.252 154.357L452.392 154.572ZM462.946 153.52C461.492 153.687 460.3 153.408 459.371 152.681C458.442 151.955 457.893 150.864 457.726 149.41C457.617 148.468 457.701 147.625 457.978 146.88C458.267 146.134 458.711 145.534 459.311 145.078C459.921 144.609 460.656 144.325 461.514 144.226C462.36 144.129 463.09 144.226 463.704 144.518C464.317 144.81 464.81 145.266 465.184 145.888C465.556 146.497 465.793 147.243 465.894 148.125L465.96 148.697L459.165 149.48L459.046 148.442L464.607 147.802L464.33 148.07C464.227 147.176 463.945 146.507 463.483 146.065C463.032 145.61 462.431 145.425 461.68 145.512C460.845 145.608 460.235 145.974 459.85 146.61C459.462 147.235 459.327 148.054 459.444 149.067L459.464 149.246C459.587 150.307 459.935 151.076 460.509 151.553C461.095 152.029 461.865 152.213 462.819 152.103C463.344 152.042 463.824 151.915 464.261 151.719C464.708 151.511 465.12 151.21 465.498 150.816L466.23 151.982C465.855 152.4 465.381 152.744 464.809 153.015C464.234 153.275 463.614 153.443 462.946 153.52ZM468.523 152.715L467.734 145.866C467.695 145.52 467.636 145.17 467.559 144.817C467.493 144.45 467.42 144.084 467.342 143.719L469.095 143.517L469.474 145.394L469.259 145.419C469.434 144.734 469.757 144.183 470.229 143.767C470.712 143.349 471.317 143.098 472.044 143.014C472.784 142.929 473.406 143.039 473.912 143.343C474.429 143.634 474.819 144.132 475.081 144.839L474.795 144.872C474.958 144.189 475.304 143.623 475.832 143.176C476.359 142.717 476.998 142.444 477.749 142.358C478.75 142.242 479.535 142.448 480.103 142.974C480.671 143.501 481.025 144.378 481.167 145.606L481.809 151.185L480.003 151.393L479.371 145.903C479.28 145.116 479.078 144.566 478.764 144.252C478.461 143.924 478.011 143.795 477.415 143.864C476.723 143.943 476.202 144.245 475.852 144.768C475.502 145.292 475.373 145.959 475.466 146.769L476.051 151.848L474.245 152.056L473.613 146.566C473.522 145.779 473.32 145.229 473.006 144.915C472.703 144.587 472.253 144.458 471.657 144.526C470.965 144.606 470.45 144.907 470.112 145.429C469.773 145.951 469.651 146.618 469.744 147.428L470.329 152.507L468.523 152.715ZM484.841 154.75L483.608 144.038C483.568 143.693 483.51 143.343 483.433 142.99C483.367 142.623 483.294 142.257 483.216 141.891L484.968 141.689L485.382 143.707L485.185 143.73C485.298 143.029 485.617 142.448 486.144 141.989C486.683 141.528 487.352 141.252 488.151 141.16C488.949 141.068 489.669 141.179 490.309 141.491C490.947 141.792 491.467 142.27 491.869 142.924C492.282 143.577 492.545 144.393 492.658 145.37C492.769 146.336 492.698 147.19 492.445 147.931C492.204 148.672 491.807 149.261 491.254 149.699C490.7 150.137 490.024 150.402 489.225 150.494C488.438 150.585 487.731 150.473 487.103 150.159C486.485 149.831 486.043 149.345 485.775 148.699L485.972 148.677L486.647 154.542L484.841 154.75ZM488.616 149.133C489.402 149.043 489.997 148.696 490.398 148.095C490.812 147.491 490.957 146.653 490.834 145.58C490.71 144.507 490.379 143.73 489.841 143.249C489.313 142.754 488.655 142.552 487.868 142.642C487.081 142.733 486.481 143.08 486.067 143.683C485.664 144.273 485.524 145.104 485.648 146.177C485.771 147.25 486.097 148.034 486.625 148.529C487.165 149.022 487.829 149.224 488.616 149.133ZM495.293 149.633L493.778 136.472L495.584 136.264L497.099 149.425L495.293 149.633ZM503.216 148.884C502.417 148.976 501.699 148.871 501.06 148.57C500.421 148.269 499.895 147.786 499.48 147.122C499.077 146.455 498.82 145.639 498.709 144.674C498.596 143.696 498.661 142.843 498.904 142.115C499.158 141.385 499.562 140.801 500.115 140.363C500.667 139.912 501.343 139.641 502.141 139.549C502.928 139.459 503.636 139.577 504.266 139.903C504.895 140.229 505.344 140.721 505.613 141.378L505.417 141.401L505.361 139.342L507.113 139.14C507.12 139.514 507.127 139.888 507.134 140.261C507.151 140.622 507.179 140.975 507.219 141.32L508.008 148.169L506.202 148.377L505.971 146.374L506.168 146.352C506.054 147.041 505.722 147.617 505.171 148.079C504.631 148.528 503.979 148.796 503.216 148.884ZM503.5 147.42C504.275 147.331 504.864 146.985 505.265 146.383C505.679 145.78 505.824 144.942 505.701 143.869C505.577 142.796 505.246 142.019 504.708 141.537C504.179 141.042 503.528 140.839 502.753 140.929C501.966 141.019 501.366 141.366 500.952 141.969C500.549 142.559 500.409 143.391 500.533 144.464C500.656 145.537 500.982 146.32 501.51 146.815C502.038 147.31 502.702 147.512 503.5 147.42ZM514.166 147.623C513.189 147.736 512.42 147.559 511.858 147.092C511.296 146.613 510.954 145.843 510.832 144.782L510.303 140.186L508.55 140.388L508.39 138.993L510.142 138.792L509.868 136.413L511.619 135.723L511.948 138.584L514.452 138.295L514.612 139.69L512.109 139.978L512.619 144.413C512.696 145.081 512.87 145.544 513.141 145.803C513.413 146.061 513.775 146.164 514.228 146.112C514.454 146.086 514.649 146.046 514.812 145.991C514.985 145.922 515.14 145.85 515.276 145.774L515.445 147.241C515.274 147.333 515.072 147.41 514.838 147.473C514.605 147.549 514.381 147.599 514.166 147.623ZM521.237 146.809C519.782 146.977 518.591 146.697 517.662 145.971C516.732 145.244 516.184 144.154 516.017 142.699C515.908 141.758 515.992 140.914 516.269 140.17C516.558 139.424 517.002 138.823 517.602 138.368C518.212 137.899 518.946 137.615 519.805 137.516C520.651 137.419 521.381 137.516 521.994 137.808C522.608 138.099 523.101 138.556 523.475 139.177C523.847 139.787 524.084 140.533 524.185 141.415L524.251 141.987L517.456 142.769L517.337 141.732L522.898 141.092L522.621 141.359C522.518 140.465 522.235 139.797 521.774 139.355C521.323 138.9 520.722 138.715 519.971 138.802C519.136 138.898 518.526 139.264 518.14 139.9C517.753 140.524 517.618 141.343 517.735 142.357L517.755 142.535C517.877 143.596 518.226 144.366 518.8 144.843C519.386 145.319 520.156 145.502 521.11 145.393C521.635 145.332 522.115 145.204 522.552 145.009C522.999 144.801 523.411 144.5 523.788 144.106L524.521 145.272C524.146 145.689 523.672 146.034 523.099 146.305C522.525 146.564 521.904 146.732 521.237 146.809ZM529.926 145.809C529.175 145.896 528.472 145.88 527.818 145.762C527.165 145.644 526.609 145.436 526.152 145.138L526.564 143.841C527.044 144.124 527.562 144.318 528.117 144.423C528.673 144.528 529.231 144.548 529.791 144.484C530.447 144.408 530.929 144.238 531.236 143.973C531.543 143.696 531.672 143.355 531.626 142.95C531.59 142.64 531.454 142.402 531.217 142.236C530.993 142.068 530.637 141.965 530.149 141.924L528.393 141.782C527.611 141.703 527 141.483 526.56 141.123C526.12 140.763 525.863 140.267 525.79 139.635C525.729 139.099 525.817 138.606 526.055 138.156C526.305 137.704 526.684 137.328 527.193 137.028C527.714 136.726 528.338 136.534 529.066 136.45C529.733 136.373 530.364 136.397 530.958 136.522C531.553 136.647 532.061 136.866 532.484 137.18L532.049 138.444C531.644 138.176 531.199 137.986 530.715 137.873C530.23 137.747 529.749 137.712 529.272 137.767C528.604 137.844 528.124 138.026 527.831 138.313C527.538 138.601 527.414 138.947 527.461 139.353C527.497 139.663 527.622 139.908 527.836 140.089C528.06 140.256 528.393 140.369 528.835 140.426L530.591 140.569C531.421 140.642 532.06 140.846 532.509 141.181C532.959 141.516 533.22 142.005 533.294 142.649C533.359 143.209 533.26 143.716 532.998 144.169C532.736 144.622 532.344 144.987 531.82 145.265C531.296 145.543 530.665 145.724 529.926 145.809ZM402.595 190.903C402.011 190.97 401.452 190.895 400.92 190.679C400.387 190.45 399.943 190.109 399.588 189.655C399.234 189.2 399.022 188.675 398.954 188.079C398.891 187.53 398.968 186.996 399.186 186.476C399.416 185.954 399.758 185.516 400.213 185.162C400.678 184.794 401.226 184.574 401.858 184.501C402.442 184.434 402.995 184.515 403.517 184.745C404.037 184.963 404.474 185.293 404.826 185.736C405.191 186.177 405.409 186.707 405.481 187.327C405.548 187.911 405.461 188.465 405.219 188.988C404.989 189.51 404.64 189.943 404.173 190.286C403.717 190.629 403.191 190.834 402.595 190.903ZM431.376 189.202L429.924 176.596L431.784 176.381L433.052 187.397L439.239 186.684L439.422 188.276L431.376 189.202ZM444.875 187.811C443.981 187.914 443.185 187.819 442.486 187.525C441.787 187.219 441.218 186.74 440.781 186.09C440.343 185.428 440.068 184.614 439.956 183.648C439.845 182.683 439.929 181.834 440.207 181.101C440.483 180.357 440.928 179.762 441.541 179.317C442.153 178.86 442.906 178.58 443.8 178.477C444.694 178.374 445.491 178.476 446.191 178.782C446.901 179.074 447.475 179.552 447.914 180.214C448.363 180.863 448.643 181.67 448.754 182.636C448.866 183.601 448.777 184.457 448.488 185.203C448.21 185.936 447.759 186.531 447.136 186.989C446.523 187.434 445.769 187.708 444.875 187.811ZM444.712 186.399C445.499 186.308 446.093 185.962 446.495 185.36C446.897 184.758 447.036 183.921 446.913 182.848C446.789 181.775 446.464 180.997 445.937 180.514C445.409 180.019 444.752 179.817 443.965 179.908C443.19 179.997 442.602 180.342 442.2 180.944C441.797 181.534 441.657 182.366 441.78 183.438C441.904 184.511 442.224 185.296 442.74 185.792C443.268 186.287 443.925 186.489 444.712 186.399ZM451.348 186.903L450.568 180.126C450.526 179.756 450.471 179.388 450.405 179.021C450.349 178.641 450.282 178.268 450.204 177.903L451.956 177.701L452.42 180.003L452.134 180.036C452.189 179.462 452.338 178.974 452.582 178.571C452.825 178.169 453.139 177.855 453.524 177.629C453.921 177.402 454.346 177.263 454.799 177.211C454.989 177.189 455.152 177.182 455.286 177.191C455.418 177.188 455.552 177.197 455.687 177.217L455.855 178.829C455.642 178.769 455.458 178.741 455.302 178.747C455.156 178.74 454.976 178.749 454.761 178.773C454.237 178.834 453.803 179.004 453.461 179.285C453.118 179.554 452.873 179.897 452.728 180.312C452.582 180.727 452.536 181.162 452.588 181.615L453.172 186.693L451.348 186.903ZM462.188 185.818C460.733 185.986 459.541 185.706 458.612 184.98C457.683 184.253 457.135 183.163 456.967 181.708C456.859 180.767 456.943 179.923 457.22 179.179C457.508 178.433 457.952 177.832 458.552 177.377C459.163 176.908 459.897 176.624 460.755 176.525C461.602 176.428 462.332 176.525 462.945 176.817C463.558 177.108 464.052 177.565 464.425 178.186C464.798 178.796 465.034 179.542 465.136 180.424L465.202 180.996L458.407 181.778L458.287 180.741L463.849 180.101L463.571 180.368C463.468 179.474 463.186 178.806 462.725 178.364C462.274 177.909 461.673 177.724 460.921 177.811C460.087 177.907 459.477 178.273 459.091 178.909C458.704 179.533 458.569 180.352 458.685 181.366L458.706 181.544C458.828 182.605 459.176 183.375 459.751 183.852C460.337 184.328 461.107 184.511 462.061 184.402C462.585 184.341 463.066 184.213 463.502 184.018C463.949 183.81 464.362 183.508 464.739 183.115L465.471 184.281C465.097 184.698 464.623 185.043 464.05 185.314C463.476 185.573 462.855 185.741 462.188 185.818ZM467.764 185.013L466.976 178.164C466.936 177.819 466.878 177.469 466.801 177.116C466.734 176.749 466.662 176.383 466.584 176.017L468.336 175.815L468.715 177.692L468.501 177.717C468.676 177.033 468.999 176.482 469.47 176.065C469.954 175.647 470.559 175.397 471.286 175.313C472.025 175.228 472.648 175.337 473.154 175.641C473.67 175.932 474.06 176.431 474.323 177.138L474.037 177.17C474.199 176.487 474.545 175.922 475.073 175.475C475.6 175.015 476.239 174.743 476.99 174.656C477.992 174.541 478.776 174.747 479.344 175.273C479.912 175.8 480.267 176.677 480.408 177.905L481.051 183.484L479.244 183.692L478.612 178.202C478.522 177.415 478.32 176.865 478.006 176.55C477.702 176.223 477.252 176.094 476.656 176.162C475.965 176.242 475.444 176.543 475.094 177.067C474.743 177.59 474.615 178.257 474.708 179.068L475.293 184.147L473.486 184.355L472.855 178.865C472.764 178.078 472.562 177.527 472.248 177.213C471.944 176.886 471.494 176.756 470.898 176.825C470.207 176.905 469.692 177.206 469.354 177.728C469.015 178.25 468.892 178.916 468.986 179.727L469.57 184.805L467.764 185.013ZM488.566 182.619L487.115 170.012L488.975 169.798L490.426 182.404L488.566 182.619ZM493.67 185.945L492.437 175.233C492.397 174.888 492.338 174.538 492.262 174.185C492.195 173.818 492.123 173.452 492.044 173.086L493.797 172.884L494.21 174.902L494.014 174.925C494.126 174.224 494.446 173.643 494.973 173.184C495.512 172.723 496.181 172.447 496.979 172.355C497.778 172.263 498.497 172.374 499.137 172.686C499.776 172.987 500.296 173.465 500.697 174.119C501.111 174.772 501.374 175.588 501.486 176.565C501.597 177.531 501.527 178.385 501.274 179.126C501.033 179.867 500.636 180.456 500.082 180.894C499.529 181.332 498.853 181.597 498.054 181.689C497.267 181.78 496.56 181.668 495.931 181.354C495.314 181.026 494.871 180.54 494.604 179.894L494.801 179.872L495.476 185.737L493.67 185.945ZM497.444 180.328C498.231 180.238 498.825 179.891 499.227 179.29C499.641 178.686 499.786 177.848 499.662 176.775C499.539 175.702 499.208 174.925 498.669 174.444C498.141 173.949 497.484 173.747 496.697 173.837C495.91 173.928 495.31 174.275 494.896 174.878C494.493 175.468 494.353 176.299 494.477 177.372C494.6 178.445 494.926 179.229 495.454 179.724C495.994 180.217 496.657 180.419 497.444 180.328ZM507.234 180.633C506.483 180.719 505.78 180.703 505.127 180.585C504.473 180.467 503.917 180.259 503.46 179.962L503.873 178.664C504.352 178.947 504.87 179.141 505.426 179.246C505.981 179.351 506.539 179.372 507.099 179.307C507.755 179.232 508.237 179.062 508.545 178.797C508.851 178.52 508.981 178.179 508.934 177.773C508.898 177.463 508.762 177.225 508.526 177.059C508.301 176.892 507.945 176.788 507.457 176.748L505.701 176.605C504.919 176.526 504.308 176.307 503.868 175.947C503.428 175.587 503.171 175.091 503.099 174.459C503.037 173.923 503.125 173.429 503.363 172.979C503.613 172.528 503.993 172.152 504.502 171.851C505.023 171.55 505.647 171.357 506.374 171.274C507.042 171.197 507.672 171.221 508.267 171.346C508.861 171.47 509.369 171.69 509.792 172.003L509.358 173.267C508.952 173 508.508 172.81 508.023 172.696C507.538 172.571 507.057 172.536 506.58 172.591C505.912 172.668 505.432 172.85 505.139 173.137C504.846 173.424 504.723 173.771 504.769 174.176C504.805 174.486 504.93 174.731 505.144 174.912C505.369 175.08 505.702 175.192 506.143 175.25L507.899 175.392C508.729 175.466 509.368 175.67 509.818 176.005C510.267 176.34 510.529 176.829 510.603 177.473C510.667 178.033 510.568 178.54 510.306 178.992C510.045 179.445 509.652 179.811 509.128 180.088C508.604 180.366 507.973 180.548 507.234 180.633ZM516.247 179.595C515.162 179.72 514.312 179.522 513.697 179.001C513.091 178.467 512.718 177.585 512.577 176.358L511.937 170.796L513.743 170.588L514.379 176.114C514.465 176.865 514.684 177.401 515.035 177.723C515.386 178.045 515.878 178.17 516.51 178.097C517.225 178.015 517.776 177.71 518.162 177.182C518.548 176.655 518.696 175.997 518.605 175.211L518.017 170.096L519.823 169.888L520.86 178.901L519.108 179.103L518.885 177.171L519.118 177.145C518.944 177.841 518.605 178.406 518.099 178.838C517.592 179.259 516.974 179.511 516.247 179.595ZM523.506 178.596L522.717 171.748C522.677 171.402 522.619 171.052 522.542 170.699C522.476 170.332 522.403 169.966 522.325 169.6L524.077 169.399L524.457 171.276L524.242 171.3C524.417 170.616 524.74 170.065 525.211 169.649C525.695 169.231 526.3 168.98 527.027 168.896C527.766 168.811 528.389 168.92 528.895 169.225C529.412 169.515 529.801 170.014 530.064 170.721L529.778 170.754C529.941 170.071 530.286 169.505 530.815 169.058C531.342 168.599 531.981 168.326 532.732 168.239C533.733 168.124 534.518 168.33 535.086 168.856C535.654 169.383 536.008 170.26 536.15 171.488L536.792 177.067L534.986 177.275L534.354 171.785C534.263 170.998 534.061 170.448 533.747 170.134C533.443 169.806 532.994 169.677 532.398 169.745C531.706 169.825 531.185 170.127 530.835 170.65C530.484 171.174 530.356 171.841 530.449 172.651L531.034 177.73L529.228 177.938L528.596 172.448C528.505 171.661 528.303 171.111 527.989 170.797C527.685 170.469 527.236 170.34 526.64 170.408C525.948 170.488 525.433 170.789 525.095 171.311C524.756 171.833 524.634 172.499 524.727 173.31L525.312 178.388L523.506 178.596Z" fill="white"/>
</svg>
