<svg width="451" height="213" viewBox="0 0 451 213" fill="none" xmlns="http://www.w3.org/2000/svg">
<line x1="99.9856" y1="45.6558" x2="45.9395" y2="51.8619" stroke="white" stroke-width="3.84756"/>
<circle cx="24.3022" cy="55.1978" r="20.0073" transform="rotate(33.246 24.3022 55.1978)" fill="#00FFFF" stroke="white" stroke-width="5.38658"/>
<path d="M111.295 56.5804L111.11 54.8867C110.978 53.675 111.091 52.5342 111.448 51.4641C111.805 50.3941 112.334 49.3749 113.037 48.4066C113.739 47.4382 114.529 46.5021 115.406 45.5984C116.307 44.6641 117.213 43.771 118.123 42.9193C119.162 41.97 120.135 41.0557 121.042 40.1765C121.95 39.2972 122.66 38.3977 123.173 37.4779C123.713 36.5551 123.926 35.5705 123.812 34.524C123.752 33.9732 123.557 33.465 123.227 32.9993C122.922 32.5031 122.463 32.1213 121.848 31.8539C121.262 31.5836 120.5 31.4994 119.564 31.6016C118.627 31.7037 117.862 31.9683 117.268 32.3954C116.67 32.795 116.239 33.3157 115.975 33.9576C115.711 34.5995 115.624 35.3336 115.714 36.1597L115.849 37.399L109.57 38.0839C109.524 37.9217 109.477 37.7457 109.429 37.5559C109.405 37.3356 109.378 37.0878 109.348 36.8124C109.131 34.8296 109.404 33.1139 110.166 31.6653C110.927 30.2168 112.097 29.0582 113.674 28.1894C115.276 27.2902 117.233 26.7144 119.546 26.462C121.309 26.2698 122.849 26.3386 124.167 26.6686C125.512 26.9956 126.642 27.5133 127.555 28.2218C128.468 28.9303 129.173 29.773 129.67 30.7499C130.191 31.6963 130.51 32.7065 130.628 33.7805C130.769 35.0748 130.662 36.2708 130.308 37.3683C129.954 38.4659 129.415 39.5279 128.691 40.5543C127.964 41.5532 127.097 42.5396 126.088 43.5135C125.077 44.4598 123.984 45.4289 122.81 46.4208C122.225 46.9306 121.692 47.4067 121.211 47.8494C120.754 48.2614 120.389 48.6217 120.116 48.9301C119.843 49.2386 119.65 49.5104 119.537 49.7458L132.466 48.3354L133.106 54.2012L111.295 56.5804ZM148.031 53.0747C146.048 53.291 144.323 53.1866 142.856 52.7615C141.385 52.3088 140.144 51.5385 139.134 50.4504C138.121 49.3348 137.307 47.877 136.692 46.077C136.078 44.2769 135.633 42.1101 135.356 39.5765C135.083 37.0704 135.052 34.8723 135.264 32.9821C135.476 31.092 135.958 29.5067 136.71 28.2264C137.459 26.9186 138.504 25.8989 139.845 25.1674C141.184 24.4083 142.844 23.9206 144.827 23.7043C146.81 23.488 148.523 23.6077 149.966 24.0634C151.434 24.4885 152.674 25.2588 153.688 26.3744C154.698 27.4625 155.51 28.9065 156.125 30.7066C156.739 32.5066 157.183 34.6597 157.456 37.1657C157.733 39.6993 157.765 41.9112 157.553 43.8014C157.341 45.6916 156.861 47.2906 156.112 48.5984C155.36 49.8787 154.315 50.8984 152.976 51.6575C151.662 52.386 150.014 52.8584 148.031 53.0747ZM147.495 48.159C148.596 48.0388 149.419 47.6565 149.961 47.0121C150.529 46.3372 150.858 45.3956 150.949 44.1874C151.065 42.9486 151.022 41.4067 150.821 39.5616L150.469 36.3395C150.265 34.4669 149.973 32.9382 149.593 31.7535C149.24 30.5658 148.716 29.7174 148.019 29.2081C147.35 28.6959 146.465 28.4999 145.364 28.62C144.262 28.7402 143.426 29.124 142.856 29.7714C142.313 30.4158 141.984 31.3574 141.868 32.5961C141.749 33.8074 141.792 35.3493 141.996 37.2219L142.343 40.4027C142.548 42.2754 142.84 43.804 143.22 44.9887C143.6 46.1734 144.126 47.0356 144.798 47.5754C145.494 48.0846 146.393 48.2791 147.495 48.159ZM162.931 50.9478L162.746 49.2541C162.614 48.0424 162.726 46.9016 163.083 45.8316C163.44 44.7615 163.97 43.7423 164.673 42.774C165.375 41.8056 166.165 40.8695 167.041 39.9658C167.943 39.0315 168.848 38.1384 169.759 37.2867C170.798 36.3374 171.771 35.4231 172.678 34.5439C173.585 33.6646 174.295 32.7651 174.808 31.8453C175.348 30.9225 175.562 29.9379 175.447 28.8914C175.387 28.3406 175.193 27.8324 174.863 27.3667C174.558 26.8705 174.098 26.4887 173.484 26.2213C172.897 25.951 172.136 25.8668 171.199 25.969C170.263 26.0711 169.498 26.3357 168.903 26.7628C168.306 27.1624 167.875 27.6831 167.611 28.325C167.346 28.9669 167.259 29.701 167.349 30.5271L167.485 31.7664L161.206 32.4513C161.16 32.2891 161.113 32.1131 161.064 31.9233C161.04 31.703 161.013 31.4552 160.983 31.1798C160.767 29.197 161.04 27.4813 161.801 26.0327C162.563 24.5842 163.732 23.4256 165.31 22.5568C166.911 21.6576 168.869 21.0818 171.182 20.8294C172.945 20.6372 174.485 20.706 175.803 21.036C177.148 21.363 178.277 21.8807 179.191 22.5892C180.104 23.2977 180.809 24.1404 181.306 25.1173C181.827 26.0637 182.146 27.0739 182.263 28.1479C182.404 29.4422 182.298 30.6382 181.944 31.7357C181.59 32.8333 181.051 33.8953 180.327 34.9217C179.6 35.9206 178.732 36.907 177.724 37.8809C176.712 38.8272 175.62 39.7963 174.446 40.7882C173.861 41.298 173.328 41.7741 172.846 42.2168C172.39 42.6288 172.025 42.9891 171.752 43.2975C171.479 43.606 171.286 43.8778 171.172 44.1132L184.102 42.7028L184.742 48.5686L162.931 50.9478ZM199.708 47.4376C197.23 47.708 195.111 47.5768 193.353 47.044C191.62 46.4807 190.273 45.6245 189.311 44.4753C188.347 43.2987 187.778 41.9117 187.603 40.3144L187.522 39.5709L193.801 38.8859L193.887 39.6708C193.998 40.6897 194.472 41.4601 195.309 41.9818C196.146 42.5036 197.322 42.6818 198.837 42.5166C200.352 42.3514 201.443 41.884 202.112 41.1144C202.777 40.3173 203.039 39.2716 202.898 37.9772C202.799 37.0684 202.542 36.3719 202.127 35.8878C201.712 35.4036 201.189 35.0844 200.559 34.9301C199.954 34.7454 199.293 34.692 198.577 34.7701L195.892 35.063L195.387 30.4365L197.783 30.1751C198.472 30.1 199.064 29.91 199.56 29.6051C200.081 29.2696 200.464 28.8237 200.71 28.2674C200.984 27.7082 201.077 27.0292 200.99 26.2306C200.908 25.487 200.688 24.8701 200.328 24.3799C199.965 23.8622 199.465 23.4987 198.83 23.2894C198.218 23.0495 197.513 22.9732 196.715 23.0603C195.971 23.1414 195.298 23.3542 194.694 23.6987C194.118 24.0402 193.679 24.4783 193.375 25.013C193.098 25.5448 192.996 26.1411 193.068 26.8021L193.127 27.3391L187.054 28.0015L186.942 26.9688C186.779 25.4816 187.048 24.1147 187.748 22.8679C188.473 21.5906 189.584 20.5359 191.082 19.7037C192.576 18.844 194.398 18.297 196.546 18.0627C198.666 17.8314 200.534 17.9621 202.148 18.4548C203.759 18.92 205.042 19.6996 205.998 20.7936C206.95 21.8602 207.509 23.1507 207.674 24.6654C207.785 25.6843 207.695 26.6417 207.402 27.5375C207.134 28.4027 206.701 29.1605 206.104 29.8109C205.533 30.4583 204.841 31.0076 204.026 31.4587L204.044 31.624C205.637 31.9239 206.955 32.6302 207.995 33.7428C209.033 34.8278 209.65 36.2653 209.845 38.0554C209.992 39.6557 209.706 41.122 208.988 42.4544C208.266 43.7592 207.132 44.8583 205.585 45.7515C204.036 46.6172 202.076 47.1793 199.708 47.4376ZM242.563 47.7371L237.469 43.1931C237.307 43.2386 237.13 43.2719 236.937 43.293C236.747 43.3415 236.57 43.3748 236.404 43.3929C233.458 43.7143 230.864 43.4399 228.623 42.5696C226.383 41.6994 224.579 40.238 223.213 38.1856C221.843 36.1057 220.984 33.4684 220.636 30.2739C220.278 26.9968 220.575 24.2196 221.524 21.9423C222.471 19.6376 223.988 17.828 226.074 16.5137C228.184 15.1688 230.795 14.3266 233.907 13.9872C237.019 13.6477 239.737 13.9086 242.06 14.7698C244.408 15.6005 246.293 17.0391 247.714 19.0855C249.133 21.1044 250.021 23.7524 250.378 27.0295C250.745 30.3893 250.415 33.2398 249.388 35.5811C248.386 37.8919 246.802 39.7227 244.637 41.0736L251.734 46.7367L242.563 47.7371ZM236.48 37.5744C237.664 37.4452 238.691 37.152 239.561 36.6949C240.431 36.2377 241.131 35.6319 241.662 34.8773C242.22 34.1198 242.597 33.2287 242.791 32.2043C242.986 31.1798 243.016 30.048 242.881 28.8087L242.683 26.9912C242.544 25.7244 242.27 24.6118 241.859 23.6534C241.448 22.6951 240.888 21.9062 240.179 21.2868C239.498 20.6644 238.684 20.2238 237.736 19.9649C236.788 19.706 235.722 19.6412 234.538 19.7704C233.326 19.9025 232.286 20.1972 231.416 20.6543C230.546 21.1115 229.846 21.7173 229.315 22.4719C228.784 23.2265 228.422 24.116 228.227 25.1404C228.032 26.1649 228.004 27.3105 228.142 28.5773L228.34 30.3949C228.475 31.6341 228.749 32.7329 229.16 33.6913C229.571 34.6497 230.117 35.44 230.798 36.0624C231.479 36.6848 232.293 37.1254 233.241 37.3843C234.189 37.6432 235.269 37.7065 236.48 37.5744ZM266.794 40.1196C264.316 40.39 262.197 40.2588 260.439 39.726C258.706 39.1627 257.359 38.3065 256.397 37.1574C255.433 35.9807 254.864 34.5937 254.689 32.9964L254.608 32.2529L260.887 31.568L260.973 32.3528C261.084 33.3718 261.558 34.1421 262.395 34.6639C263.232 35.1856 264.408 35.3639 265.923 35.1986C267.438 35.0334 268.529 34.566 269.198 33.7964C269.863 32.9993 270.125 31.9536 269.984 30.6592C269.885 29.7505 269.628 29.054 269.213 28.5698C268.798 28.0856 268.275 27.7664 267.645 27.6122C267.04 27.4274 266.379 27.3741 265.663 27.4522L262.978 27.7451L262.473 23.1185L264.869 22.8572C265.558 22.782 266.15 22.592 266.646 22.2871C267.167 21.9516 267.55 21.5058 267.796 20.9495C268.07 20.3902 268.163 19.7112 268.076 18.9126C267.995 18.169 267.774 17.5522 267.414 17.062C267.051 16.5442 266.552 16.1807 265.916 15.9714C265.304 15.7316 264.599 15.6552 263.801 15.7423C263.057 15.8234 262.384 16.0362 261.78 16.3807C261.204 16.7222 260.765 17.1603 260.461 17.6951C260.184 18.2268 260.082 18.8232 260.154 19.4841L260.213 20.0211L254.14 20.6835L254.028 19.6508C253.866 18.1637 254.134 16.7967 254.834 15.55C255.559 14.2727 256.67 13.2179 258.168 12.3858C259.662 11.5261 261.484 10.979 263.632 10.7447C265.752 10.5134 267.62 10.6441 269.234 11.1368C270.845 11.602 272.128 12.3816 273.084 13.4757C274.036 14.5422 274.595 15.8328 274.76 17.3474C274.871 18.3664 274.781 19.3237 274.488 20.2195C274.22 21.0847 273.787 21.8425 273.19 22.4929C272.619 23.1404 271.927 23.6896 271.112 24.1408L271.13 24.306C272.723 24.6059 274.041 25.3122 275.082 26.4248C276.12 27.5098 276.736 28.9474 276.931 30.7374C277.078 32.3377 276.792 33.804 276.074 35.1364C275.352 36.4412 274.218 37.5403 272.671 38.4335C271.122 39.2992 269.163 39.8613 266.794 40.1196Z" fill="white"/>
<path d="M89.0362 105.879C88.4521 105.947 87.8939 105.872 87.3616 105.656C86.828 105.427 86.384 105.086 86.0297 104.631C85.6754 104.177 85.464 103.651 85.3954 103.055C85.3322 102.507 85.4096 101.973 85.6276 101.452C85.8574 100.931 86.1996 100.493 86.654 100.138C87.119 99.7707 87.6675 99.5505 88.2993 99.4778C88.8834 99.4105 89.4364 99.4918 89.9581 99.7217C90.4784 99.9396 90.915 100.27 91.268 100.712C91.6328 101.154 91.8509 101.684 91.9223 102.304C91.9895 102.888 91.9023 103.442 91.6605 103.965C91.4306 104.487 91.0818 104.919 90.6141 105.263C90.1583 105.605 89.6323 105.811 89.0362 105.879ZM102.953 99.494C102.801 98.1708 102.901 96.9996 103.255 95.9804C103.609 94.9613 104.197 94.1387 105.018 93.5126C105.852 92.8851 106.883 92.5007 108.111 92.3594C109.327 92.2194 110.406 92.3609 111.349 92.7839C112.291 93.2068 113.056 93.8737 113.644 94.7844C114.244 95.6938 114.62 96.8041 114.771 98.1155C114.923 99.4387 114.811 100.617 114.435 101.651C114.069 102.672 113.47 103.502 112.638 104.141C111.816 104.767 110.803 105.149 109.599 105.288C108.371 105.429 107.286 105.289 106.344 104.866C105.4 104.431 104.634 103.758 104.046 102.847C103.468 101.923 103.104 100.805 102.953 99.494ZM104.902 99.2697C105.078 100.796 105.549 101.949 106.315 102.731C107.082 103.512 108.114 103.828 109.414 103.679C110.678 103.533 111.606 102.997 112.2 102.071C112.793 101.133 113.001 99.8956 112.824 98.3577C112.647 96.8199 112.164 95.6676 111.375 94.9007C110.598 94.1326 109.572 93.8219 108.296 93.9687C106.997 94.1183 106.062 94.6547 105.492 95.578C104.922 96.5013 104.725 97.7318 104.902 99.2697ZM117.847 104.175L117.067 97.3981C117.025 97.0286 116.97 96.6604 116.904 96.2936C116.848 95.9135 116.781 95.5407 116.703 95.1753L118.455 94.9735L118.919 97.2755L118.633 97.3085C118.688 96.7344 118.837 96.2462 119.081 95.8437C119.324 95.4412 119.638 95.1272 120.023 94.9017C120.42 94.6749 120.845 94.5354 121.298 94.4832C121.488 94.4613 121.651 94.4547 121.785 94.4634C121.917 94.4602 122.051 94.469 122.186 94.4896L122.354 96.1011C122.141 96.0409 121.957 96.0138 121.801 96.0198C121.655 96.0124 121.475 96.0211 121.26 96.0458C120.736 96.1061 120.302 96.2768 119.96 96.5578C119.617 96.8268 119.372 97.169 119.227 97.5844C119.081 97.9998 119.035 98.4339 119.087 98.8869L119.671 103.965L117.847 104.175ZM129.453 103.002C128.666 103.093 127.958 102.975 127.328 102.649C126.699 102.323 126.25 101.831 125.981 101.174L126.177 101.151L126.412 103.189L124.624 103.395L123.109 90.2342L124.915 90.0263L125.623 96.1777L125.408 96.2024C125.534 95.5115 125.861 94.9423 126.39 94.495C126.928 94.0343 127.591 93.7587 128.378 93.6681C129.177 93.5762 129.896 93.6866 130.536 93.9995C131.175 94.3004 131.695 94.7841 132.098 95.4504C132.512 96.1034 132.775 96.9187 132.887 97.8962C132.998 98.8618 132.927 99.7155 132.675 100.457C132.432 101.186 132.028 101.77 131.463 102.209C130.91 102.648 130.239 102.912 129.453 103.002ZM128.843 101.641C129.618 101.552 130.213 101.212 130.628 100.62C131.042 100.017 131.187 99.1791 131.063 98.1062C130.938 97.0213 130.607 96.2381 130.068 95.7566C129.528 95.2631 128.871 95.0609 128.096 95.1501C127.309 95.2407 126.709 95.5876 126.295 96.1909C125.892 96.7809 125.752 97.6123 125.875 98.6853C125.999 99.7582 126.325 100.542 126.853 101.037C127.393 101.53 128.056 101.732 128.843 101.641ZM135.521 102.141L134.006 88.9798L135.812 88.7719L137.327 101.933L135.521 102.141ZM144.159 101.31C142.704 101.477 141.512 101.197 140.583 100.471C139.654 99.7444 139.106 98.654 138.938 97.1996C138.83 96.2578 138.914 95.4147 139.191 94.6701C139.479 93.9242 139.924 93.3235 140.523 92.8679C141.134 92.399 141.868 92.1152 142.726 92.0164C143.573 91.9189 144.303 92.0161 144.916 92.3079C145.53 92.5996 146.023 93.0562 146.396 93.6775C146.769 94.287 147.005 95.0328 147.107 95.915L147.173 96.4872L140.378 97.2694L140.258 96.2323L145.82 95.5921L145.542 95.8595C145.439 94.9654 145.157 94.2973 144.696 93.8552C144.245 93.3998 143.644 93.2153 142.893 93.3018C142.058 93.3979 141.448 93.764 141.062 94.4003C140.675 95.0247 140.54 95.8436 140.656 96.8569L140.677 97.0357C140.799 98.0967 141.147 98.8659 141.722 99.3433C142.308 99.8194 143.078 100.003 144.032 99.8928C144.556 99.8324 145.037 99.7046 145.473 99.5094C145.92 99.3009 146.333 98.9998 146.71 98.606L147.442 99.7719C147.068 100.19 146.594 100.534 146.021 100.805C145.447 101.065 144.826 101.233 144.159 101.31ZM149.7 100.509L148.919 93.7314C148.877 93.3618 148.822 92.9936 148.756 92.6268C148.7 92.2467 148.633 91.8739 148.555 91.5085L150.307 91.3068L150.771 93.6088L150.485 93.6417C150.54 93.0677 150.689 92.5794 150.933 92.1769C151.176 91.7744 151.491 91.4604 151.875 91.235C152.272 91.0081 152.697 90.8686 153.15 90.8165C153.34 90.7945 153.503 90.7879 153.637 90.7966C153.769 90.7935 153.903 90.8022 154.038 90.8229L154.206 92.4343C153.993 92.3742 153.809 92.3471 153.653 92.353C153.507 92.3456 153.327 92.3543 153.112 92.379C152.588 92.4394 152.154 92.6101 151.812 92.891C151.469 93.1601 151.224 93.5023 151.079 93.9176C150.933 94.333 150.887 94.7672 150.939 95.2202L151.523 100.299L149.7 100.509ZM161.404 99.1612L159.953 86.5545L165.282 85.941C166.629 85.7859 167.709 85.9877 168.522 86.5464C169.334 87.0931 169.806 87.9387 169.938 89.0832C170.024 89.8342 169.931 90.4972 169.659 91.0721C169.387 91.6469 168.964 92.1124 168.389 92.4685C167.812 92.8127 167.113 93.0321 166.29 93.1268L166.543 92.8078L167.026 92.7522C167.515 92.6959 167.964 92.771 168.375 92.9775C168.797 93.1825 169.165 93.5448 169.478 94.0644L171.758 97.9693L169.719 98.204L167.456 94.2791C167.221 93.8109 166.904 93.5273 166.506 93.4281C166.12 93.3276 165.653 93.3089 165.104 93.372L162.655 93.6541L163.264 98.9471L161.404 99.1612ZM162.492 92.2414L165.657 91.877C166.551 91.7741 167.203 91.5058 167.612 91.0722C168.033 90.6372 168.202 90.0621 168.12 89.3468C168.036 88.6196 167.741 88.098 167.233 87.7819C166.738 87.4645 166.043 87.3573 165.149 87.4602L161.984 87.8246L162.492 92.2414ZM177.687 97.4498C176.233 97.6172 175.041 97.3377 174.112 96.6112C173.183 95.8847 172.634 94.7942 172.467 93.3398C172.358 92.3981 172.443 91.5549 172.719 90.8104C173.008 90.0645 173.452 89.4637 174.052 89.0082C174.662 88.5393 175.397 88.2554 176.255 88.1566C177.101 88.0592 177.831 88.1563 178.445 88.4481C179.058 88.7399 179.552 89.1964 179.925 89.8178C180.297 90.4272 180.534 91.173 180.636 92.0552L180.701 92.6274L173.906 93.4097L173.787 92.3725L179.348 91.7323L179.071 91.9998C178.968 91.1057 178.686 90.4376 178.224 89.9955C177.773 89.5401 177.172 89.3556 176.421 89.4421C175.587 89.5381 174.976 89.9043 174.591 90.5406C174.204 91.165 174.068 91.9838 174.185 92.9971L174.206 93.1759C174.328 94.2369 174.676 95.0061 175.25 95.4836C175.837 95.9597 176.607 96.1428 177.56 96.033C178.085 95.9726 178.565 95.8448 179.002 95.6496C179.449 95.4411 179.861 95.14 180.239 94.7463L180.971 95.9122C180.596 96.3298 180.122 96.6742 179.55 96.9455C178.976 97.2048 178.355 97.3729 177.687 97.4498ZM188.093 96.2519C187.306 96.3425 186.598 96.2247 185.968 95.8986C185.339 95.5724 184.89 95.0806 184.621 94.423L184.817 94.4004L185.052 96.4389L183.264 96.6448L181.749 83.4837L183.555 83.2758L184.263 89.4271L184.048 89.4518C184.174 88.7609 184.501 88.1918 185.03 87.7444C185.568 87.2838 186.231 87.0082 187.018 86.9176C187.817 86.8256 188.536 86.9361 189.176 87.249C189.815 87.5499 190.335 88.0335 190.738 88.6998C191.152 89.3528 191.415 90.1681 191.527 91.1457C191.638 92.1113 191.568 92.965 191.315 93.7068C191.072 94.4352 190.669 95.0193 190.103 95.4588C189.55 95.897 188.879 96.1614 188.093 96.2519ZM187.483 94.8907C188.258 94.8015 188.853 94.4613 189.268 93.8699C189.682 93.2666 189.827 92.4285 189.703 91.3556C189.578 90.2708 189.247 89.4876 188.708 89.006C188.168 88.5125 187.511 88.3104 186.736 88.3996C185.949 88.4902 185.349 88.8371 184.935 89.4404C184.532 90.0304 184.392 90.8618 184.515 91.9347C184.639 93.0076 184.965 93.7915 185.493 94.2864C186.033 94.7799 186.696 94.9813 187.483 94.8907ZM194.125 95.3945L193.345 88.6172C193.302 88.2477 193.248 87.8795 193.181 87.5126C193.125 87.1325 193.058 86.7598 192.98 86.3943L194.733 86.1926L195.197 88.4946L194.911 88.5275C194.965 87.9535 195.115 87.4652 195.358 87.0627C195.602 86.6603 195.916 86.3463 196.301 86.1208C196.697 85.8939 197.122 85.7544 197.575 85.7023C197.766 85.6803 197.928 85.6737 198.062 85.6825C198.195 85.6793 198.328 85.688 198.464 85.7087L198.631 87.3201C198.419 87.26 198.234 87.2329 198.078 87.2388C197.932 87.2315 197.752 87.2401 197.538 87.2648C197.013 87.3252 196.58 87.4959 196.238 87.7769C195.894 88.0459 195.65 88.3881 195.504 88.8035C195.359 89.2188 195.312 89.653 195.364 90.106L195.949 95.1845L194.125 95.3945ZM204.284 94.3881C203.485 94.48 202.766 94.3755 202.128 94.0746C201.489 93.7736 200.962 93.2907 200.548 92.6258C200.145 91.9595 199.888 91.1435 199.777 90.1779C199.664 89.2003 199.729 88.3473 199.971 87.6188C200.225 86.889 200.629 86.3049 201.183 85.8668C201.735 85.4167 202.41 85.1457 203.209 85.0537C203.996 84.9631 204.704 85.0809 205.334 85.4071C205.963 85.7332 206.412 86.2251 206.681 86.8826L206.484 86.9053L206.429 84.8462L208.181 84.6444C208.188 85.0181 208.195 85.3918 208.201 85.7655C208.219 86.1258 208.247 86.4789 208.287 86.8246L209.075 93.6734L207.269 93.8813L207.039 91.8785L207.235 91.8559C207.122 92.5454 206.789 93.1212 206.238 93.5832C205.698 94.0319 205.047 94.3002 204.284 94.3881ZM204.568 92.9239C205.343 92.8347 205.931 92.4892 206.333 91.8873C206.747 91.284 206.892 90.4459 206.768 89.373C206.645 88.3001 206.314 87.5228 205.775 87.0413C205.247 86.5464 204.596 86.3436 203.821 86.4328C203.034 86.5234 202.434 86.8703 202.02 87.4736C201.617 88.0635 201.477 88.895 201.601 89.9679C201.724 91.0408 202.05 91.8247 202.578 92.3196C203.106 92.8144 203.769 93.0159 204.568 92.9239ZM211.711 93.37L210.922 86.5212C210.883 86.1755 210.824 85.8259 210.747 85.4724C210.681 85.1056 210.609 84.7394 210.53 84.374L212.283 84.1723L212.662 86.0492L212.447 86.0739C212.645 85.3748 213.009 84.8194 213.542 84.4078C214.073 83.9843 214.714 83.7293 215.465 83.6428C216.526 83.5207 217.358 83.7208 217.962 84.2432C218.578 84.7642 218.956 85.6387 219.097 86.8666L219.74 92.4457L217.934 92.6536L217.304 87.1818C217.212 86.383 216.985 85.8293 216.623 85.5207C216.272 85.1987 215.775 85.0748 215.131 85.1489C214.368 85.2367 213.788 85.5452 213.389 86.0742C212.99 86.5912 212.836 87.2491 212.928 88.0479L213.517 93.1621L211.711 93.37ZM225.78 91.9134C224.994 92.004 224.275 91.8995 223.624 91.5999C222.986 91.299 222.459 90.816 222.044 90.1511C221.642 89.4848 221.385 88.6688 221.273 87.7032C221.161 86.7257 221.226 85.8727 221.468 85.1442C221.722 84.4143 222.126 83.8303 222.68 83.3921C223.244 82.9406 223.919 82.6696 224.706 82.579C225.481 82.4898 226.183 82.6083 226.812 82.9345C227.452 83.2473 227.906 83.7266 228.174 84.3722L227.959 84.3969L227.251 78.2455L229.057 78.0376L230.572 91.1987L228.784 91.4046L228.549 89.366L228.764 89.3413C228.639 90.0442 228.308 90.6259 227.769 91.0866C227.23 91.5472 226.567 91.8228 225.78 91.9134ZM226.065 90.4493C226.84 90.3601 227.434 90.0138 227.848 89.4105C228.261 88.8073 228.407 87.9692 228.283 86.8963C228.16 85.8234 227.828 85.0461 227.29 84.5646C226.75 84.0711 226.092 83.8689 225.318 83.9581C224.531 84.0487 223.931 84.3956 223.517 84.9989C223.114 85.5889 222.974 86.4203 223.097 87.4932C223.221 88.5662 223.547 89.35 224.075 89.8449C224.615 90.3384 225.278 90.5398 226.065 90.4493ZM233.207 90.8953L232.17 81.8829L233.976 81.6749L235.014 90.6874L233.207 90.8953ZM231.811 80.0217L231.595 78.1441L233.687 77.9033L233.903 79.7809L231.811 80.0217ZM237.66 90.3827L236.872 83.5339C236.832 83.1882 236.774 82.8386 236.697 82.4851C236.631 82.1183 236.558 81.7521 236.48 81.3867L238.232 81.185L238.611 83.0619L238.397 83.0866C238.594 82.3875 238.959 81.8321 239.492 81.4205C240.023 80.997 240.664 80.742 241.415 80.6556C242.476 80.5334 243.308 80.7335 243.912 81.2559C244.527 81.7769 244.906 82.6514 245.047 83.8793L245.689 89.4584L243.883 89.6663L243.253 84.1945C243.162 83.3958 242.935 82.8421 242.573 82.5334C242.222 82.2114 241.724 82.0875 241.081 82.1616C240.318 82.2495 239.737 82.5579 239.339 83.0869C238.94 83.6039 238.786 84.2619 238.878 85.0606L239.467 90.1748L237.66 90.3827ZM252.781 92.7007C251.97 92.794 251.22 92.7838 250.53 92.6699C249.853 92.5546 249.23 92.3364 248.661 92.0153L248.956 90.6406C249.354 90.8484 249.741 91.0033 250.115 91.1051C250.49 91.219 250.879 91.289 251.28 91.3152C251.682 91.3415 252.091 91.3306 252.509 91.2825C253.367 91.1837 253.985 90.8891 254.364 90.3986C254.755 89.9186 254.904 89.2674 254.809 88.4448L254.531 86.0308L254.71 86.0102C254.596 86.6997 254.264 87.2755 253.713 87.7375C253.173 88.1862 252.515 88.4552 251.741 88.5444C250.918 88.6391 250.182 88.5426 249.533 88.255C248.894 87.954 248.37 87.489 247.959 86.8598C247.559 86.2174 247.306 85.4372 247.2 84.5192C247.095 83.6013 247.164 82.79 247.409 82.0854C247.666 81.3793 248.072 80.8132 248.627 80.3869C249.193 79.9474 249.887 79.6803 250.709 79.5856C251.496 79.495 252.198 79.6135 252.816 79.941C253.444 80.2552 253.892 80.7352 254.159 81.3808L253.982 81.2563L253.929 79.378L255.681 79.1763C255.676 79.5514 255.683 79.925 255.701 80.2973C255.719 80.6577 255.747 81.0108 255.787 81.3565L256.555 88.0264C256.711 89.3855 256.467 90.4645 255.822 91.2635C255.189 92.0611 254.175 92.5402 252.781 92.7007ZM252.007 87.0823C252.794 86.9918 253.389 86.6515 253.792 86.0615C254.207 85.4702 254.358 84.6857 254.246 83.7082C254.133 82.7306 253.808 82.007 253.271 81.5374C252.746 81.0664 252.09 80.8762 251.303 80.9667C250.492 81.06 249.879 81.3964 249.462 81.9759C249.058 82.5539 248.912 83.3317 249.024 84.3093C249.137 85.2868 249.457 86.017 249.983 86.5C250.522 86.9815 251.196 87.1757 252.007 87.0823ZM92.5815 136.676C91.9973 136.743 91.4391 136.669 90.9069 136.452C90.3733 136.224 89.9293 135.882 89.575 135.428C89.2207 134.973 89.0092 134.448 88.9406 133.852C88.8775 133.304 88.9549 132.769 89.1728 132.249C89.4027 131.727 89.7448 131.289 90.1993 130.935C90.6643 130.567 91.2127 130.347 91.8445 130.274C92.4287 130.207 92.9816 130.288 93.5033 130.518C94.0236 130.736 94.4603 131.066 94.8132 131.509C95.1781 131.95 95.3962 132.481 95.4675 133.101C95.5348 133.685 95.4475 134.238 95.2057 134.761C94.9759 135.283 94.6271 135.716 94.1593 136.06C93.7035 136.402 93.1776 136.607 92.5815 136.676ZM106.498 130.291C106.346 128.967 106.447 127.796 106.8 126.777C107.154 125.758 107.742 124.935 108.564 124.309C109.397 123.682 110.428 123.297 111.656 123.156C112.872 123.016 113.951 123.157 114.894 123.58C115.836 124.003 116.602 124.67 117.19 125.581C117.79 126.49 118.165 127.601 118.316 128.912C118.468 130.235 118.356 131.414 117.98 132.448C117.615 133.468 117.016 134.298 116.183 134.938C115.361 135.564 114.348 135.946 113.144 136.085C111.917 136.226 110.831 136.085 109.889 135.662C108.945 135.227 108.179 134.554 107.591 133.644C107.013 132.72 106.649 131.602 106.498 130.291ZM108.447 130.066C108.623 131.592 109.094 132.746 109.86 133.527C110.627 134.309 111.66 134.625 112.959 134.475C114.223 134.33 115.152 133.794 115.746 132.868C116.338 131.93 116.546 130.692 116.369 129.154C116.192 127.616 115.709 126.464 114.92 125.697C114.143 124.929 113.117 124.618 111.841 124.765C110.542 124.915 109.607 125.451 109.037 126.375C108.467 127.298 108.27 128.528 108.447 130.066ZM121.428 134.968L120.64 128.119C120.6 127.773 120.542 127.424 120.465 127.07C120.399 126.703 120.326 126.337 120.248 125.972L122 125.77L122.379 127.647L122.165 127.672C122.362 126.973 122.727 126.417 123.259 126.006C123.791 125.582 124.432 125.327 125.183 125.241C126.244 125.119 127.076 125.319 127.68 125.841C128.295 126.362 128.674 127.237 128.815 128.464L129.457 134.044L127.651 134.252L127.021 128.78C126.929 127.981 126.703 127.427 126.341 127.119C125.99 126.797 125.492 126.673 124.849 126.747C124.086 126.835 123.505 127.143 123.107 127.672C122.708 128.189 122.554 128.847 122.646 129.646L123.234 134.76L121.428 134.968ZM136.857 133.355C136.07 133.445 135.362 133.328 134.733 133.001C134.103 132.675 133.654 132.183 133.385 131.526L133.582 131.503L133.817 133.542L132.028 133.748L130.513 120.587L132.319 120.379L133.027 126.53L132.813 126.555C132.939 125.864 133.266 125.295 133.794 124.847C134.333 124.387 134.996 124.111 135.783 124.02C136.581 123.929 137.301 124.039 137.941 124.352C138.579 124.653 139.1 125.136 139.503 125.803C139.916 126.456 140.179 127.271 140.292 128.249C140.403 129.214 140.332 130.068 140.079 130.81C139.837 131.538 139.433 132.122 138.868 132.562C138.314 133 137.644 133.264 136.857 133.355ZM136.247 131.994C137.022 131.904 137.617 131.564 138.032 130.973C138.446 130.37 138.591 129.531 138.468 128.459C138.343 127.374 138.011 126.59 137.472 126.109C136.932 125.615 136.275 125.413 135.5 125.502C134.713 125.593 134.113 125.94 133.699 126.543C133.296 127.133 133.156 127.965 133.28 129.038C133.403 130.111 133.729 130.894 134.257 131.389C134.797 131.883 135.461 132.084 136.247 131.994ZM146.806 132.21C145.912 132.312 145.116 132.217 144.418 131.923C143.718 131.617 143.15 131.139 142.712 130.488C142.274 129.826 141.999 129.012 141.888 128.047C141.777 127.081 141.86 126.232 142.138 125.499C142.415 124.755 142.86 124.16 143.473 123.715C144.085 123.258 144.837 122.978 145.732 122.875C146.626 122.772 147.423 122.874 148.122 123.18C148.832 123.472 149.407 123.95 149.845 124.612C150.294 125.261 150.575 126.068 150.686 127.034C150.797 127.999 150.708 128.855 150.42 129.601C150.141 130.334 149.691 130.929 149.067 131.388C148.454 131.833 147.7 132.107 146.806 132.21ZM146.644 130.797C147.43 130.706 148.025 130.36 148.426 129.758C148.828 129.156 148.967 128.319 148.844 127.246C148.72 126.173 148.395 125.395 147.869 124.912C147.34 124.417 146.683 124.215 145.896 124.306C145.121 124.395 144.533 124.74 144.131 125.342C143.728 125.932 143.588 126.764 143.712 127.837C143.835 128.91 144.155 129.694 144.671 130.19C145.199 130.685 145.857 130.887 146.644 130.797ZM156.785 131.061C155.986 131.153 155.268 131.048 154.629 130.747C153.991 130.446 153.464 129.963 153.049 129.298C152.646 128.632 152.389 127.816 152.278 126.851C152.166 125.873 152.23 125.02 152.473 124.292C152.727 123.562 153.131 122.978 153.684 122.539C154.236 122.089 154.912 121.818 155.711 121.726C156.497 121.636 157.206 121.754 157.835 122.08C158.464 122.406 158.914 122.898 159.183 123.555L158.986 123.578L158.93 121.519L160.682 121.317C160.689 121.691 160.696 122.064 160.703 122.438C160.72 122.799 160.749 123.152 160.788 123.497L161.577 130.346L159.771 130.554L159.54 128.551L159.737 128.529C159.623 129.218 159.291 129.794 158.74 130.256C158.2 130.705 157.548 130.973 156.785 131.061ZM157.07 129.597C157.845 129.507 158.433 129.162 158.835 128.56C159.248 127.957 159.393 127.119 159.27 126.046C159.146 124.973 158.815 124.196 158.277 123.714C157.749 123.219 157.097 123.016 156.322 123.105C155.536 123.196 154.935 123.543 154.522 124.146C154.118 124.736 153.979 125.568 154.102 126.641C154.226 127.713 154.551 128.497 155.079 128.992C155.608 129.487 156.271 129.689 157.07 129.597ZM164.176 130.047L163.396 123.27C163.354 122.9 163.299 122.532 163.233 122.165C163.177 121.785 163.11 121.412 163.032 121.047L164.784 120.845L165.248 123.147L164.962 123.18C165.017 122.606 165.166 122.118 165.41 121.715C165.653 121.313 165.967 120.999 166.352 120.773C166.749 120.546 167.174 120.407 167.627 120.355C167.817 120.333 167.98 120.326 168.114 120.335C168.246 120.332 168.38 120.34 168.515 120.361L168.683 121.972C168.47 121.912 168.286 121.885 168.13 121.891C167.984 121.884 167.804 121.892 167.589 121.917C167.065 121.978 166.631 122.148 166.289 122.429C165.946 122.698 165.701 123.04 165.556 123.456C165.41 123.871 165.364 124.305 165.416 124.758L166 129.837L164.176 130.047ZM174.3 129.044C173.514 129.135 172.795 129.03 172.144 128.731C171.506 128.43 170.979 127.947 170.564 127.282C170.161 126.616 169.904 125.8 169.793 124.834C169.681 123.857 169.746 123.004 169.988 122.275C170.242 121.545 170.646 120.961 171.2 120.523C171.764 120.072 172.439 119.801 173.226 119.71C174.001 119.621 174.703 119.739 175.332 120.065C175.972 120.378 176.426 120.858 176.694 121.503L176.479 121.528L175.771 115.377L177.577 115.169L179.092 128.33L177.304 128.536L177.069 126.497L177.284 126.472C177.159 127.175 176.828 127.757 176.289 128.218C175.75 128.678 175.087 128.954 174.3 129.044ZM174.585 127.58C175.36 127.491 175.954 127.145 176.368 126.542C176.781 125.938 176.927 125.1 176.803 124.027C176.68 122.954 176.348 122.177 175.81 121.696C175.27 121.202 174.612 121 173.838 121.089C173.051 121.18 172.451 121.527 172.037 122.13C171.634 122.72 171.494 123.551 171.617 124.624C171.741 125.697 172.067 126.481 172.595 126.976C173.135 127.469 173.798 127.671 174.585 127.58ZM181.727 128.026L180.69 119.014L182.496 118.806L183.534 127.818L181.727 128.026ZM180.331 117.153L180.115 115.275L182.207 115.034L182.423 116.912L180.331 117.153ZM186.18 127.514L185.392 120.665C185.352 120.319 185.294 119.97 185.217 119.616C185.151 119.249 185.078 118.883 185 118.518L186.752 118.316L187.131 120.193L186.917 120.218C187.114 119.518 187.479 118.963 188.012 118.552C188.543 118.128 189.184 117.873 189.935 117.787C190.996 117.664 191.828 117.865 192.432 118.387C193.047 118.908 193.426 119.782 193.567 121.01L194.209 126.589L192.403 126.797L191.773 121.326C191.681 120.527 191.455 119.973 191.093 119.664C190.742 119.342 190.244 119.219 189.601 119.293C188.838 119.38 188.257 119.689 187.859 120.218C187.46 120.735 187.306 121.393 187.398 122.192L187.987 127.306L186.18 127.514ZM201.301 129.832C200.49 129.925 199.74 129.915 199.05 129.801C198.373 129.686 197.75 129.467 197.181 129.146L197.476 127.772C197.874 127.979 198.261 128.134 198.635 128.236C199.01 128.35 199.399 128.42 199.8 128.446C200.202 128.472 200.611 128.462 201.029 128.414C201.887 128.315 202.505 128.02 202.884 127.53C203.275 127.05 203.424 126.398 203.329 125.576L203.051 123.162L203.23 123.141C203.116 123.831 202.784 124.407 202.233 124.869C201.693 125.317 201.035 125.586 200.261 125.675C199.438 125.77 198.702 125.674 198.053 125.386C197.414 125.085 196.89 124.62 196.479 123.991C196.079 123.348 195.826 122.568 195.72 121.65C195.615 120.732 195.684 119.921 195.929 119.216C196.186 118.51 196.592 117.944 197.147 117.518C197.713 117.078 198.407 116.811 199.229 116.717C200.016 116.626 200.718 116.745 201.336 117.072C201.964 117.386 202.412 117.866 202.679 118.512L202.502 118.387L202.449 116.509L204.201 116.307C204.196 116.682 204.203 117.056 204.221 117.428C204.239 117.789 204.267 118.142 204.307 118.488L205.075 125.157C205.231 126.516 204.987 127.595 204.342 128.394C203.709 129.192 202.695 129.671 201.301 129.832ZM200.527 124.213C201.314 124.123 201.909 123.783 202.312 123.193C202.727 122.601 202.878 121.817 202.766 120.839C202.653 119.862 202.328 119.138 201.791 118.668C201.266 118.197 200.61 118.007 199.823 118.098C199.012 118.191 198.399 118.527 197.982 119.107C197.578 119.685 197.432 120.463 197.544 121.44C197.657 122.418 197.976 123.148 198.503 123.631C199.042 124.113 199.716 124.307 200.527 124.213ZM212.658 124.466L211.207 111.859L212.637 111.694L221.549 120.96L221.102 121.011L219.933 110.854L221.667 110.655L223.119 123.261L221.706 123.424L212.812 114.156L213.223 114.109L214.392 124.266L212.658 124.466ZM230.093 122.622C228.639 122.789 227.447 122.51 226.518 121.783C225.589 121.057 225.04 119.966 224.873 118.512C224.765 117.57 224.849 116.727 225.125 115.982C225.414 115.236 225.858 114.636 226.458 114.18C227.068 113.711 227.803 113.427 228.661 113.328C229.508 113.231 230.237 113.328 230.851 113.62C231.464 113.912 231.958 114.368 232.331 114.99C232.703 115.599 232.94 116.345 233.042 117.227L233.108 117.799L226.312 118.582L226.193 117.544L231.754 116.904L231.477 117.172C231.374 116.278 231.092 115.609 230.63 115.167C230.179 114.712 229.578 114.527 228.827 114.614C227.993 114.71 227.383 115.076 226.997 115.712C226.61 116.337 226.474 117.156 226.591 118.169L226.612 118.348C226.734 119.409 227.082 120.178 227.656 120.655C228.243 121.131 229.013 121.315 229.966 121.205C230.491 121.144 230.972 121.017 231.408 120.821C231.855 120.613 232.267 120.312 232.645 119.918L233.377 121.084C233.002 121.502 232.529 121.846 231.956 122.117C231.382 122.377 230.761 122.545 230.093 122.622ZM237.998 121.549L233.545 112.929L235.422 112.713L238.951 119.917L238.486 119.97L240.358 112.145L241.752 111.984L245.335 119.182L244.888 119.233L246.688 111.416L248.494 111.208L246.098 120.616L244.453 120.806L240.747 113.477L241.587 113.381L239.678 121.355L237.998 121.549ZM259.145 119.114L257.873 108.063L253.563 108.559L253.384 107.004L263.863 105.797L264.042 107.353L259.732 107.849L261.004 118.9L259.145 119.114ZM269.699 118.062C268.245 118.23 267.053 117.95 266.124 117.224C265.194 116.497 264.646 115.407 264.479 113.952C264.37 113.011 264.454 112.167 264.731 111.423C265.02 110.677 265.464 110.076 266.064 109.621C266.674 109.152 267.408 108.868 268.267 108.769C269.113 108.672 269.843 108.769 270.456 109.061C271.07 109.352 271.563 109.809 271.937 110.43C272.309 111.04 272.546 111.786 272.647 112.668L272.713 113.24L265.918 114.022L265.799 112.985L271.36 112.345L271.083 112.612C270.98 111.718 270.698 111.05 270.236 110.608C269.785 110.153 269.184 109.968 268.433 110.055C267.598 110.151 266.988 110.517 266.602 111.153C266.215 111.777 266.08 112.596 266.197 113.61L266.217 113.788C266.339 114.849 266.688 115.619 267.262 116.096C267.848 116.572 268.618 116.755 269.572 116.646C270.097 116.585 270.577 116.457 271.014 116.262C271.461 116.054 271.873 115.753 272.25 115.359L272.983 116.525C272.608 116.942 272.134 117.287 271.561 117.558C270.987 117.817 270.367 117.985 269.699 118.062ZM278.745 117.021C277.947 117.113 277.228 117.008 276.589 116.707C275.951 116.406 275.424 115.924 275.009 115.259C274.606 114.592 274.349 113.776 274.238 112.811C274.126 111.833 274.191 110.98 274.433 110.252C274.687 109.522 275.091 108.938 275.645 108.5C276.197 108.05 276.872 107.778 277.671 107.687C278.458 107.596 279.166 107.714 279.795 108.04C280.425 108.366 280.874 108.858 281.143 109.515L280.946 109.538L280.89 107.479L282.643 107.277C282.649 107.651 282.656 108.025 282.663 108.398C282.68 108.759 282.709 109.112 282.749 109.457L283.537 116.306L281.731 116.514L281.5 114.511L281.697 114.489C281.583 115.178 281.251 115.754 280.7 116.216C280.16 116.665 279.508 116.933 278.745 117.021ZM279.03 115.557C279.805 115.468 280.393 115.122 280.795 114.52C281.209 113.917 281.354 113.079 281.23 112.006C281.107 110.933 280.776 110.156 280.237 109.674C279.709 109.179 279.057 108.976 278.283 109.066C277.496 109.156 276.895 109.503 276.482 110.106C276.079 110.696 275.939 111.528 276.062 112.601C276.186 113.674 276.512 114.458 277.04 114.952C277.568 115.447 278.231 115.649 279.03 115.557ZM286.172 116.003L285.384 109.154C285.344 108.808 285.286 108.459 285.209 108.105C285.143 107.738 285.07 107.372 284.992 107.007L286.744 106.805L287.123 108.682L286.909 108.707C287.084 108.022 287.407 107.472 287.878 107.055C288.362 106.637 288.967 106.386 289.694 106.302C290.433 106.217 291.056 106.327 291.562 106.631C292.079 106.922 292.468 107.421 292.731 108.127L292.445 108.16C292.608 107.477 292.953 106.912 293.482 106.464C294.008 106.005 294.647 105.732 295.398 105.646C296.4 105.53 297.185 105.736 297.752 106.263C298.32 106.789 298.675 107.666 298.816 108.894L299.459 114.473L297.653 114.681L297.021 109.192C296.93 108.405 296.728 107.854 296.414 107.54C296.11 107.213 295.661 107.083 295.065 107.152C294.373 107.231 293.852 107.533 293.502 108.056C293.151 108.58 293.023 109.247 293.116 110.058L293.701 115.136L291.895 115.344L291.263 109.854C291.172 109.068 290.97 108.517 290.656 108.203C290.352 107.875 289.903 107.746 289.307 107.815C288.615 107.894 288.1 108.195 287.762 108.717C287.423 109.239 287.301 109.906 287.394 110.716L287.978 115.795L286.172 116.003ZM306.813 113.627L306.025 106.778C305.985 106.432 305.927 106.083 305.85 105.729C305.784 105.362 305.711 104.996 305.633 104.631L307.385 104.429L307.764 106.306L307.55 106.331C307.725 105.646 308.048 105.096 308.519 104.679C309.003 104.261 309.608 104.01 310.335 103.926C311.074 103.841 311.697 103.951 312.203 104.255C312.72 104.546 313.109 105.044 313.372 105.751L313.086 105.784C313.249 105.101 313.594 104.536 314.123 104.088C314.649 103.629 315.288 103.356 316.04 103.27C317.041 103.154 317.826 103.36 318.393 103.886C318.961 104.413 319.316 105.29 319.457 106.518L320.1 112.097L318.294 112.305L317.662 106.815C317.571 106.029 317.369 105.478 317.055 105.164C316.751 104.836 316.302 104.707 315.706 104.776C315.014 104.855 314.493 105.157 314.143 105.68C313.792 106.204 313.664 106.871 313.757 107.682L314.342 112.76L312.536 112.968L311.904 107.478C311.813 106.691 311.611 106.141 311.297 105.827C310.993 105.499 310.544 105.37 309.948 105.439C309.256 105.518 308.741 105.819 308.403 106.341C308.064 106.863 307.942 107.53 308.035 108.34L308.62 113.419L306.813 113.627ZM326.872 111.481C325.418 111.648 324.226 111.369 323.297 110.642C322.368 109.916 321.819 108.825 321.652 107.371C321.543 106.429 321.628 105.586 321.904 104.841C322.193 104.095 322.637 103.495 323.237 103.039C323.847 102.57 324.582 102.286 325.44 102.187C326.286 102.09 327.016 102.187 327.63 102.479C328.243 102.771 328.736 103.227 329.11 103.849C329.482 104.458 329.719 105.204 329.821 106.086L329.886 106.658L323.091 107.441L322.972 106.403L328.533 105.763L328.256 106.031C328.153 105.137 327.871 104.468 327.409 104.026C326.958 103.571 326.357 103.386 325.606 103.473C324.772 103.569 324.161 103.935 323.776 104.571C323.389 105.196 323.253 106.015 323.37 107.028L323.391 107.207C323.513 108.268 323.861 109.037 324.435 109.514C325.022 109.99 325.792 110.174 326.745 110.064C327.27 110.003 327.75 109.876 328.187 109.68C328.634 109.472 329.046 109.171 329.424 108.777L330.156 109.943C329.781 110.361 329.307 110.705 328.735 110.976C328.161 111.236 327.54 111.404 326.872 111.481ZM332.449 110.676L331.66 103.827C331.621 103.481 331.562 103.131 331.485 102.778C331.419 102.411 331.347 102.045 331.268 101.68L333.021 101.478L333.4 103.355L333.185 103.379C333.36 102.695 333.683 102.144 334.155 101.728C334.638 101.31 335.243 101.059 335.971 100.975C336.71 100.89 337.332 101 337.838 101.304C338.355 101.595 338.745 102.093 339.007 102.8L338.721 102.833C338.884 102.15 339.23 101.584 339.758 101.137C340.285 100.678 340.924 100.405 341.675 100.319C342.676 100.203 343.461 100.409 344.029 100.935C344.597 101.462 344.951 102.339 345.093 103.567L345.735 109.146L343.929 109.354L343.297 103.864C343.206 103.077 343.004 102.527 342.69 102.213C342.387 101.885 341.937 101.756 341.341 101.825C340.65 101.904 340.129 102.206 339.778 102.729C339.428 103.253 339.299 103.92 339.392 104.73L339.977 109.809L338.171 110.017L337.539 104.527C337.448 103.74 337.246 103.19 336.932 102.876C336.629 102.548 336.179 102.419 335.583 102.487C334.892 102.567 334.377 102.868 334.038 103.39C333.7 103.912 333.577 104.579 333.67 105.389L334.255 110.468L332.449 110.676ZM353.151 108.455C352.364 108.546 351.656 108.428 351.027 108.102C350.397 107.776 349.948 107.284 349.679 106.626L349.876 106.604L350.111 108.642L348.323 108.848L346.807 95.6871L348.614 95.4792L349.322 101.631L349.107 101.655C349.233 100.964 349.56 100.395 350.088 99.9479C350.627 99.4873 351.29 99.2116 352.077 99.1211C352.875 99.0291 353.595 99.1396 354.235 99.4524C354.873 99.7534 355.394 100.237 355.797 100.903C356.21 101.556 356.473 102.372 356.586 103.349C356.697 104.315 356.626 105.168 356.373 105.91C356.131 106.639 355.727 107.223 355.162 107.662C354.608 108.1 353.938 108.365 353.151 108.455ZM352.542 107.094C353.316 107.005 353.911 106.665 354.327 106.073C354.74 105.47 354.885 104.632 354.762 103.559C354.637 102.474 354.305 101.691 353.767 101.21C353.227 100.716 352.569 100.514 351.794 100.603C351.008 100.694 350.407 101.041 349.994 101.644C349.59 102.234 349.451 103.065 349.574 104.138C349.698 105.211 350.023 105.995 350.551 106.49C351.091 106.983 351.755 107.185 352.542 107.094ZM363.404 107.275C361.95 107.443 360.758 107.163 359.829 106.436C358.9 105.71 358.351 104.62 358.184 103.165C358.076 102.223 358.16 101.38 358.436 100.636C358.725 99.8898 359.169 99.2891 359.769 98.8335C360.379 98.3646 361.114 98.0807 361.972 97.9819C362.819 97.8845 363.548 97.9817 364.162 98.2734C364.775 98.5652 365.269 99.0217 365.642 99.6431C366.014 100.253 366.251 100.998 366.353 101.881L366.419 102.453L359.623 103.235L359.504 102.198L365.065 101.558L364.788 101.825C364.685 100.931 364.403 100.263 363.941 99.8208C363.49 99.3654 362.889 99.1809 362.138 99.2674C361.304 99.3634 360.694 99.7296 360.308 100.366C359.921 100.99 359.785 101.809 359.902 102.822L359.923 103.001C360.045 104.062 360.393 104.831 360.967 105.309C361.554 105.785 362.324 105.968 363.277 105.858C363.802 105.798 364.283 105.67 364.719 105.475C365.166 105.266 365.578 104.965 365.956 104.572L366.688 105.737C366.313 106.155 365.84 106.5 365.267 106.771C364.693 107.03 364.072 107.198 363.404 107.275ZM368.945 106.474L368.165 99.6969C368.123 99.3274 368.068 98.9592 368.002 98.5924C367.946 98.2123 367.879 97.8395 367.8 97.4741L369.553 97.2723L370.017 99.5743L369.731 99.6073C369.786 99.0332 369.935 98.545 370.178 98.1425C370.422 97.74 370.736 97.426 371.121 97.2005C371.518 96.9737 371.942 96.8342 372.395 96.782C372.586 96.7601 372.748 96.7534 372.882 96.7622C373.015 96.759 373.149 96.7678 373.284 96.7884L373.451 98.3999C373.239 98.3397 373.055 98.3126 372.898 98.3186C372.753 98.3112 372.572 98.3199 372.358 98.3446C371.833 98.4049 371.4 98.5756 371.058 98.8566C370.714 99.1256 370.47 99.4678 370.325 99.8832C370.179 100.299 370.132 100.733 370.185 101.186L370.769 106.264L368.945 106.474ZM378.746 105.509C377.995 105.595 377.293 105.58 376.639 105.462C375.985 105.344 375.43 105.136 374.973 104.838L375.385 103.54C375.865 103.823 376.382 104.018 376.938 104.123C377.494 104.228 378.052 104.248 378.612 104.184C379.268 104.108 379.749 103.938 380.057 103.673C380.363 103.396 380.493 103.055 380.447 102.65C380.411 102.34 380.275 102.102 380.038 101.936C379.814 101.768 379.457 101.664 378.97 101.624L377.214 101.482C376.432 101.403 375.821 101.183 375.38 100.823C374.94 100.463 374.684 99.9672 374.611 99.3354C374.549 98.7989 374.638 98.3056 374.876 97.8554C375.126 97.4038 375.505 97.028 376.014 96.7278C376.535 96.4262 377.159 96.2336 377.886 96.1499C378.554 96.073 379.185 96.0971 379.779 96.2219C380.373 96.3468 380.882 96.5661 381.304 96.8798L380.87 98.1438C380.465 97.8764 380.02 97.686 379.536 97.5726C379.05 97.4473 378.569 97.4121 378.092 97.467C377.425 97.5438 376.945 97.726 376.651 98.0134C376.358 98.3008 376.235 98.6471 376.282 99.0524C376.318 99.3624 376.442 99.6077 376.656 99.7884C376.881 99.9558 377.214 100.068 377.656 100.126L379.411 100.269C380.241 100.342 380.881 100.546 381.33 100.881C381.779 101.216 382.041 101.705 382.115 102.349C382.18 102.909 382.081 103.416 381.819 103.869C381.557 104.322 381.164 104.687 380.641 104.965C380.117 105.242 379.486 105.424 378.746 105.509ZM96.2411 168.466C95.657 168.533 95.0988 168.459 94.5665 168.242C94.0329 168.014 93.5889 167.672 93.2346 167.218C92.8803 166.763 92.6689 166.238 92.6002 165.642C92.5371 165.094 92.6145 164.559 92.8324 164.039C93.0623 163.517 93.4044 163.079 93.8589 162.725C94.3239 162.357 94.8723 162.137 95.5041 162.064C96.0883 161.997 96.6412 162.078 97.1629 162.308C97.6833 162.526 98.1199 162.856 98.4728 163.299C98.8377 163.74 99.0558 164.271 99.1271 164.891C99.1944 165.475 99.1071 166.028 98.8654 166.551C98.6355 167.073 98.2867 167.506 97.819 167.85C97.3631 168.192 96.8372 168.398 96.2411 168.466ZM111.314 168.344L109.862 155.737L111.722 155.523L112.99 166.538L119.177 165.826L119.361 167.417L111.314 168.344ZM124.489 166.99C123.69 167.082 122.972 166.977 122.333 166.676C121.694 166.376 121.168 165.893 120.753 165.228C120.35 164.561 120.093 163.745 119.982 162.78C119.869 161.802 119.934 160.949 120.176 160.221C120.431 159.491 120.835 158.907 121.388 158.469C121.94 158.019 122.616 157.748 123.414 157.656C124.201 157.565 124.909 157.683 125.539 158.009C126.168 158.335 126.617 158.827 126.886 159.485L126.69 159.507L126.634 157.448L128.386 157.246C128.393 157.62 128.4 157.994 128.407 158.367C128.424 158.728 128.452 159.081 128.492 159.427L129.281 166.275L127.475 166.483L127.244 164.48L127.441 164.458C127.327 165.147 126.994 165.723 126.444 166.185C125.903 166.634 125.252 166.902 124.489 166.99ZM124.773 165.526C125.548 165.437 126.137 165.091 126.538 164.489C126.952 163.886 127.097 163.048 126.974 161.975C126.85 160.902 126.519 160.125 125.981 159.643C125.452 159.148 124.801 158.945 124.026 159.035C123.239 159.125 122.639 159.472 122.225 160.075C121.822 160.665 121.682 161.497 121.806 162.57C121.929 163.643 122.255 164.427 122.783 164.921C123.311 165.416 123.975 165.618 124.773 165.526ZM135.135 165.764C134.051 165.889 133.2 165.691 132.585 165.17C131.98 164.636 131.606 163.755 131.465 162.527L130.825 156.966L132.631 156.758L133.267 162.283C133.353 163.034 133.572 163.571 133.923 163.893C134.274 164.215 134.766 164.339 135.398 164.267C136.113 164.184 136.664 163.879 137.05 163.352C137.436 162.824 137.584 162.167 137.493 161.38L136.905 156.266L138.711 156.058L139.748 165.07L137.996 165.272L137.774 163.341L138.006 163.314C137.832 164.01 137.493 164.575 136.987 165.008C136.48 165.428 135.863 165.681 135.135 165.764ZM142.394 164.766L141.605 157.917C141.565 157.571 141.507 157.222 141.43 156.868C141.364 156.501 141.291 156.135 141.213 155.77L142.966 155.568L143.345 157.445L143.13 157.47C143.327 156.77 143.692 156.215 144.225 155.804C144.756 155.38 145.397 155.125 146.148 155.039C147.209 154.916 148.041 155.117 148.645 155.639C149.261 156.16 149.639 157.034 149.78 158.262L150.423 163.841L148.617 164.049L147.987 158.577C147.895 157.779 147.668 157.225 147.306 156.916C146.955 156.594 146.458 156.471 145.814 156.545C145.051 156.632 144.47 156.941 144.072 157.47C143.673 157.987 143.519 158.645 143.611 159.444L144.2 164.558L142.394 164.766ZM156.964 163.251C156.058 163.356 155.244 163.262 154.522 162.971C153.81 162.666 153.229 162.184 152.779 161.523C152.339 160.849 152.063 160.023 151.95 159.045C151.839 158.08 151.928 157.23 152.218 156.496C152.508 155.762 152.966 155.178 153.593 154.743C154.218 154.297 154.983 154.021 155.889 153.917C156.474 153.85 157.052 153.886 157.623 154.026C158.194 154.153 158.678 154.375 159.077 154.692L158.633 156.029C158.262 155.746 157.859 155.551 157.424 155.444C156.988 155.325 156.573 155.288 156.179 155.333C155.321 155.432 154.679 155.784 154.253 156.388C153.828 156.993 153.675 157.814 153.794 158.851C153.915 159.9 154.252 160.677 154.805 161.181C155.358 161.685 156.064 161.887 156.922 161.789C157.304 161.745 157.695 161.627 158.096 161.436C158.495 161.233 158.849 160.945 159.156 160.571L159.892 161.773C159.564 162.173 159.131 162.507 158.594 162.774C158.068 163.028 157.524 163.187 156.964 163.251ZM161.917 162.518L160.402 149.357L162.208 149.149L162.906 155.211L162.656 155.24C162.84 154.53 163.204 153.969 163.748 153.556C164.291 153.131 164.944 152.875 165.707 152.787C166.78 152.663 167.613 152.87 168.206 153.405C168.798 153.929 169.162 154.787 169.3 155.979L169.946 161.594L168.14 161.802L167.506 156.294C167.417 155.519 167.197 154.977 166.848 154.667C166.508 154.344 166.011 154.22 165.355 154.295C164.592 154.383 164.006 154.692 163.596 155.222C163.196 155.739 163.041 156.385 163.13 157.16L163.723 162.31L161.917 162.518ZM181.165 160.465C180.271 160.568 179.475 160.473 178.777 160.179C178.077 159.873 177.509 159.395 177.072 158.744C176.633 158.082 176.358 157.268 176.247 156.303C176.136 155.337 176.219 154.488 176.497 153.755C176.774 153.011 177.219 152.416 177.832 151.971C178.444 151.514 179.197 151.234 180.091 151.131C180.985 151.028 181.782 151.13 182.481 151.436C183.191 151.728 183.766 152.206 184.204 152.868C184.654 153.517 184.934 154.324 185.045 155.29C185.156 156.255 185.067 157.111 184.779 157.857C184.501 158.59 184.05 159.185 183.426 159.644C182.813 160.089 182.059 160.363 181.165 160.465ZM181.003 159.053C181.79 158.962 182.384 158.616 182.786 158.014C183.187 157.412 183.327 156.575 183.203 155.502C183.08 154.429 182.754 153.651 182.228 153.168C181.7 152.673 181.042 152.471 180.255 152.562C179.481 152.651 178.892 152.996 178.49 153.598C178.087 154.188 177.947 155.02 178.071 156.093C178.194 157.166 178.514 157.95 179.03 158.446C179.558 158.941 180.216 159.143 181.003 159.053ZM188.124 159.501L187.247 151.884L185.494 152.085L185.334 150.691L187.587 150.431L187.14 150.954L186.975 149.523C186.853 148.462 187.029 147.627 187.502 147.017C187.974 146.395 188.728 146.024 189.766 145.904C190.016 145.876 190.28 145.863 190.559 145.867C190.837 145.872 191.07 145.905 191.259 145.968L191.427 147.434C191.278 147.391 191.093 147.364 190.875 147.353C190.666 147.329 190.455 147.329 190.24 147.354C189.895 147.393 189.605 147.499 189.371 147.671C189.136 147.831 188.962 148.056 188.851 148.347C188.751 148.636 188.726 148.996 188.776 149.425L188.916 150.641L188.606 150.314L191.324 150.001L191.485 151.396L189.053 151.676L189.93 159.293L188.124 159.501ZM202.165 158.048C201.187 158.161 200.418 157.983 199.857 157.517C199.294 157.038 198.952 156.268 198.83 155.207L198.301 150.611L196.548 150.813L196.388 149.418L198.14 149.216L197.866 146.838L199.617 146.147L199.946 149.008L202.45 148.72L202.61 150.115L200.107 150.403L200.617 154.838C200.694 155.506 200.868 155.969 201.14 156.227C201.411 156.486 201.773 156.589 202.226 156.537C202.453 156.511 202.647 156.471 202.81 156.416C202.984 156.347 203.138 156.275 203.275 156.199L203.443 157.665C203.273 157.757 203.07 157.835 202.836 157.898C202.603 157.973 202.379 158.023 202.165 158.048ZM205.137 157.543L203.622 144.382L205.428 144.174L206.126 150.236L205.876 150.265C206.06 149.555 206.424 148.994 206.969 148.581C207.512 148.156 208.164 147.899 208.927 147.811C210 147.688 210.833 147.894 211.427 148.43C212.018 148.954 212.383 149.811 212.52 151.004L213.166 156.618L211.36 156.826L210.726 151.319C210.637 150.544 210.418 150.001 210.068 149.691C209.729 149.368 209.231 149.244 208.576 149.32C207.813 149.407 207.226 149.717 206.816 150.247C206.417 150.764 206.261 151.41 206.351 152.185L206.944 157.335L205.137 157.543ZM219.922 156.004C218.468 156.171 217.276 155.892 216.347 155.165C215.418 154.439 214.87 153.348 214.702 151.894C214.594 150.952 214.678 150.109 214.955 149.364C215.243 148.619 215.687 148.018 216.287 147.562C216.898 147.093 217.632 146.809 218.49 146.711C219.337 146.613 220.067 146.71 220.68 147.002C221.293 147.294 221.787 147.75 222.16 148.372C222.532 148.981 222.769 149.727 222.871 150.609L222.937 151.181L216.142 151.964L216.022 150.927L221.583 150.286L221.306 150.554C221.203 149.66 220.921 148.992 220.459 148.55C220.008 148.094 219.407 147.91 218.656 147.996C217.822 148.092 217.212 148.458 216.826 149.095C216.439 149.719 216.304 150.538 216.42 151.551L216.441 151.73C216.563 152.791 216.911 153.56 217.486 154.038C218.072 154.514 218.842 154.697 219.796 154.587C220.32 154.527 220.801 154.399 221.237 154.204C221.684 153.995 222.097 153.694 222.474 153.3L223.206 154.466C222.831 154.884 222.358 155.228 221.785 155.5C221.211 155.759 220.59 155.927 219.922 156.004ZM230.427 154.631L228.976 142.025L230.407 141.86L239.319 151.126L238.872 151.177L237.702 141.02L239.437 140.82L240.888 153.427L239.476 153.59L230.581 144.322L230.993 144.275L232.162 154.432L230.427 154.631ZM247.863 152.787C246.408 152.955 245.217 152.675 244.288 151.949C243.358 151.222 242.81 150.132 242.643 148.677C242.534 147.736 242.618 146.892 242.895 146.148C243.184 145.402 243.628 144.801 244.228 144.346C244.838 143.877 245.572 143.593 246.431 143.494C247.277 143.397 248.007 143.494 248.62 143.786C249.234 144.077 249.727 144.534 250.101 145.155C250.473 145.765 250.71 146.511 250.811 147.393L250.877 147.965L244.082 148.747L243.963 147.71L249.524 147.07L249.247 147.337C249.144 146.443 248.861 145.775 248.4 145.333C247.949 144.878 247.348 144.693 246.597 144.78C245.762 144.876 245.152 145.242 244.766 145.878C244.379 146.503 244.244 147.321 244.361 148.335L244.381 148.513C244.503 149.574 244.852 150.344 245.426 150.821C246.012 151.297 246.782 151.48 247.736 151.371C248.261 151.31 248.741 151.182 249.178 150.987C249.625 150.779 250.037 150.478 250.414 150.084L251.147 151.25C250.772 151.667 250.298 152.012 249.725 152.283C249.151 152.542 248.53 152.711 247.863 152.787ZM255.767 151.714L251.314 143.095L253.192 142.879L256.721 150.083L256.256 150.136L258.127 142.311L259.522 142.15L263.105 149.348L262.658 149.399L264.457 141.582L266.263 141.374L263.868 150.782L262.223 150.971L258.516 143.643L259.357 143.546L257.448 151.521L255.767 151.714ZM273.892 149.628L272.441 137.021L274.301 136.807L275.569 147.822L281.756 147.11L281.939 148.702L273.892 149.628ZM287.068 148.274C286.269 148.366 285.55 148.262 284.912 147.961C284.273 147.66 283.746 147.177 283.331 146.512C282.929 145.846 282.672 145.03 282.56 144.064C282.448 143.086 282.513 142.233 282.755 141.505C283.009 140.775 283.413 140.191 283.967 139.753C284.519 139.303 285.194 139.032 285.993 138.94C286.78 138.849 287.488 138.967 288.117 139.293C288.747 139.619 289.196 140.111 289.465 140.769L289.268 140.791L289.212 138.732L290.965 138.531C290.972 138.904 290.978 139.278 290.985 139.652C291.002 140.012 291.031 140.365 291.071 140.711L291.859 147.56L290.053 147.767L289.823 145.765L290.019 145.742C289.905 146.432 289.573 147.007 289.022 147.469C288.482 147.918 287.831 148.186 287.068 148.274ZM287.352 146.81C288.127 146.721 288.715 146.375 289.117 145.773C289.531 145.17 289.676 144.332 289.552 143.259C289.429 142.186 289.098 141.409 288.559 140.927C288.031 140.433 287.38 140.23 286.605 140.319C285.818 140.41 285.218 140.756 284.804 141.36C284.401 141.95 284.261 142.781 284.384 143.854C284.508 144.927 284.834 145.711 285.362 146.206C285.89 146.701 286.553 146.902 287.352 146.81ZM294.495 147.256L293.706 140.407C293.666 140.062 293.608 139.712 293.531 139.359C293.465 138.992 293.392 138.626 293.314 138.26L295.066 138.058L295.446 139.935L295.231 139.96C295.428 139.261 295.793 138.706 296.326 138.294C296.857 137.87 297.498 137.615 298.249 137.529C299.31 137.407 300.142 137.607 300.746 138.129C301.361 138.65 301.74 139.525 301.881 140.753L302.524 146.332L300.718 146.54L300.088 141.068C299.996 140.269 299.769 139.715 299.407 139.407C299.056 139.085 298.559 138.961 297.915 139.035C297.152 139.123 296.571 139.431 296.173 139.96C295.774 140.477 295.62 141.135 295.712 141.934L296.301 147.048L294.495 147.256ZM308.564 145.8C307.777 145.89 307.059 145.786 306.408 145.486C305.77 145.185 305.243 144.702 304.828 144.037C304.425 143.371 304.168 142.555 304.057 141.589C303.945 140.612 304.01 139.759 304.252 139.03C304.506 138.3 304.91 137.716 305.463 137.278C306.027 136.827 306.703 136.556 307.49 136.465C308.265 136.376 308.967 136.494 309.596 136.821C310.236 137.133 310.69 137.613 310.958 138.258L310.743 138.283L310.035 132.132L311.841 131.924L313.356 145.085L311.568 145.291L311.333 143.252L311.548 143.227C311.423 143.93 311.092 144.512 310.553 144.973C310.014 145.433 309.351 145.709 308.564 145.8ZM308.849 144.335C309.624 144.246 310.218 143.9 310.632 143.297C311.045 142.693 311.19 141.855 311.067 140.782C310.943 139.709 310.612 138.932 310.074 138.451C309.534 137.957 308.876 137.755 308.101 137.844C307.315 137.935 306.714 138.282 306.301 138.885C305.897 139.475 305.758 140.306 305.881 141.379C306.005 142.452 306.33 143.236 306.858 143.731C307.398 144.225 308.062 144.426 308.849 144.335ZM315.991 144.781L314.954 135.769L316.76 135.561L317.797 144.574L315.991 144.781ZM314.595 133.908L314.378 132.03L316.471 131.789L316.687 133.667L314.595 133.908ZM320.444 144.269L319.656 137.42C319.616 137.074 319.558 136.725 319.481 136.371C319.414 136.004 319.342 135.638 319.264 135.273L321.016 135.071L321.395 136.948L321.181 136.973C321.378 136.274 321.743 135.718 322.275 135.307C322.806 134.883 323.447 134.628 324.199 134.542C325.26 134.42 326.092 134.62 326.696 135.142C327.311 135.663 327.69 136.538 327.831 137.765L328.473 143.345L326.667 143.552L326.037 138.081C325.945 137.282 325.719 136.728 325.357 136.42C325.006 136.098 324.508 135.974 323.865 136.048C323.102 136.136 322.521 136.444 322.123 136.973C321.723 137.49 321.57 138.148 321.662 138.947L322.25 144.061L320.444 144.269ZM335.565 146.587C334.754 146.68 334.004 146.67 333.314 146.556C332.637 146.441 332.014 146.223 331.445 145.901L331.74 144.527C332.138 144.735 332.524 144.889 332.899 144.991C333.274 145.105 333.663 145.175 334.064 145.201C334.466 145.228 334.875 145.217 335.293 145.169C336.151 145.07 336.769 144.775 337.148 144.285C337.539 143.805 337.688 143.154 337.593 142.331L337.315 139.917L337.494 139.896C337.38 140.586 337.048 141.162 336.497 141.624C335.957 142.072 335.299 142.341 334.524 142.431C333.702 142.525 332.966 142.429 332.317 142.141C331.678 141.84 331.154 141.375 330.743 140.746C330.343 140.104 330.09 139.323 329.984 138.405C329.879 137.487 329.948 136.676 330.193 135.971C330.45 135.265 330.856 134.699 331.411 134.273C331.976 133.834 332.67 133.566 333.493 133.472C334.28 133.381 334.982 133.5 335.6 133.827C336.228 134.141 336.675 134.621 336.943 135.267L336.766 135.142L336.712 133.264L338.465 133.062C338.46 133.437 338.467 133.811 338.485 134.183C338.503 134.544 338.531 134.897 338.571 135.243L339.339 141.913C339.495 143.272 339.251 144.351 338.606 145.15C337.973 145.947 336.959 146.426 335.565 146.587ZM334.791 140.968C335.578 140.878 336.173 140.538 336.576 139.948C336.991 139.356 337.142 138.572 337.03 137.594C336.917 136.617 336.592 135.893 336.055 135.424C335.53 134.953 334.874 134.762 334.087 134.853C333.276 134.946 332.663 135.283 332.246 135.862C331.842 136.44 331.696 137.218 331.808 138.195C331.921 139.173 332.24 139.903 332.767 140.386C333.306 140.868 333.98 141.062 334.791 140.968ZM346.922 141.221L345.47 128.614L350.817 127.999C352.164 127.844 353.233 128.053 354.024 128.626C354.825 129.186 355.292 130.038 355.423 131.183C355.555 132.327 355.295 133.269 354.644 134.008C354.004 134.746 353.01 135.193 351.663 135.348L348.176 135.749L348.781 141.007L346.922 141.221ZM348.005 134.265L351.296 133.886C352.142 133.789 352.758 133.525 353.143 133.094C353.528 132.663 353.68 132.096 353.6 131.393C353.52 130.701 353.244 130.189 352.771 129.857C352.297 129.525 351.638 129.408 350.791 129.505L347.501 129.884L348.005 134.265ZM361.564 139.698C360.765 139.79 360.046 139.686 359.408 139.385C358.769 139.084 358.243 138.601 357.828 137.936C357.425 137.27 357.168 136.454 357.057 135.488C356.944 134.511 357.009 133.658 357.251 132.929C357.506 132.199 357.909 131.615 358.463 131.177C359.015 130.727 359.691 130.456 360.489 130.364C361.276 130.273 361.984 130.391 362.614 130.717C363.243 131.043 363.692 131.535 363.961 132.193L363.765 132.216L363.709 130.156L365.461 129.955C365.468 130.328 365.475 130.702 365.481 131.076C365.499 131.436 365.527 131.789 365.567 132.135L366.356 138.984L364.549 139.192L364.319 137.189L364.516 137.166C364.402 137.856 364.069 138.431 363.519 138.893C362.978 139.342 362.327 139.61 361.564 139.698ZM361.848 138.234C362.623 138.145 363.211 137.799 363.613 137.198C364.027 136.594 364.172 135.756 364.049 134.683C363.925 133.61 363.594 132.833 363.055 132.352C362.527 131.857 361.876 131.654 361.101 131.743C360.314 131.834 359.714 132.181 359.3 132.784C358.897 133.374 358.757 134.205 358.881 135.278C359.004 136.351 359.33 137.135 359.858 137.63C360.386 138.125 361.05 138.326 361.848 138.234ZM373.511 142.219C372.701 142.312 371.95 142.302 371.261 142.188C370.583 142.072 369.96 141.854 369.392 141.533L369.686 140.158C370.085 140.366 370.471 140.521 370.845 140.623C371.221 140.737 371.609 140.807 372.011 140.833C372.413 140.859 372.822 140.848 373.239 140.8C374.098 140.702 374.716 140.407 375.094 139.916C375.486 139.436 375.634 138.785 375.54 137.963L375.262 135.549L375.441 135.528C375.327 136.218 374.994 136.793 374.444 137.255C373.903 137.704 373.246 137.973 372.471 138.062C371.648 138.157 370.913 138.06 370.263 137.773C369.625 137.472 369.1 137.007 368.69 136.378C368.289 135.735 368.037 134.955 367.931 134.037C367.825 133.119 367.895 132.308 368.14 131.603C368.397 130.897 368.803 130.331 369.358 129.905C369.923 129.465 370.617 129.198 371.44 129.103C372.227 129.013 372.929 129.131 373.546 129.459C374.174 129.773 374.622 130.253 374.89 130.899L374.712 130.774L374.659 128.896L376.412 128.694C376.406 129.069 376.413 129.443 376.432 129.815C376.449 130.176 376.478 130.529 376.518 130.874L377.285 137.544C377.442 138.903 377.198 139.982 376.553 140.781C375.92 141.579 374.906 142.058 373.511 142.219ZM372.738 136.6C373.524 136.51 374.119 136.169 374.523 135.579C374.938 134.988 375.089 134.203 374.976 133.226C374.864 132.248 374.539 131.525 374.002 131.055C373.476 130.584 372.82 130.394 372.034 130.485C371.223 130.578 370.609 130.914 370.193 131.494C369.788 132.072 369.642 132.85 369.755 133.827C369.867 134.805 370.187 135.535 370.714 136.018C371.252 136.499 371.927 136.693 372.738 136.6ZM384.125 137.101C382.671 137.269 381.479 136.989 380.55 136.262C379.621 135.536 379.072 134.446 378.905 132.991C378.796 132.049 378.881 131.206 379.157 130.462C379.446 129.716 379.89 129.115 380.49 128.659C381.1 128.191 381.835 127.907 382.693 127.808C383.539 127.71 384.269 127.808 384.883 128.099C385.496 128.391 385.989 128.848 386.363 129.469C386.735 130.079 386.972 130.824 387.073 131.707L387.139 132.279L380.344 133.061L380.225 132.024L385.786 131.384L385.509 131.651C385.406 130.757 385.124 130.089 384.662 129.647C384.211 129.191 383.61 129.007 382.859 129.093C382.024 129.189 381.414 129.556 381.029 130.192C380.641 130.816 380.506 131.635 380.623 132.648L380.643 132.827C380.766 133.888 381.114 134.657 381.688 135.135C382.275 135.611 383.045 135.794 383.998 135.684C384.523 135.624 385.003 135.496 385.44 135.301C385.887 135.092 386.299 134.791 386.677 134.398L387.409 135.563C387.034 135.981 386.56 136.326 385.988 136.597C385.414 136.856 384.793 137.024 384.125 137.101ZM99.9007 200.256C99.3166 200.323 98.7584 200.249 98.2261 200.032C97.6925 199.804 97.2485 199.462 96.8942 199.008C96.5399 198.553 96.3285 198.028 96.2599 197.432C96.1967 196.884 96.2741 196.349 96.492 195.829C96.7219 195.307 97.064 194.869 97.5185 194.515C97.9835 194.147 98.5319 193.927 99.1638 193.854C99.7479 193.787 100.301 193.869 100.823 194.098C101.343 194.316 101.78 194.647 102.132 195.089C102.497 195.53 102.715 196.061 102.787 196.681C102.854 197.265 102.767 197.818 102.525 198.342C102.295 198.863 101.946 199.296 101.479 199.64C101.023 199.982 100.497 200.188 99.9007 200.256ZM114.973 200.134L113.522 187.527L115.382 187.313L116.833 199.92L114.973 200.134ZM119.632 199.597L118.844 192.749C118.804 192.403 118.745 192.053 118.669 191.7C118.602 191.333 118.53 190.967 118.452 190.601L120.204 190.4L120.583 192.277L120.368 192.301C120.566 191.602 120.931 191.047 121.463 190.635C121.994 190.212 122.635 189.957 123.386 189.87C124.447 189.748 125.28 189.948 125.883 190.471C126.499 190.992 126.877 191.866 127.019 193.094L127.661 198.673L125.855 198.881L125.225 193.409C125.133 192.61 124.906 192.057 124.545 191.748C124.193 191.426 123.696 191.302 123.052 191.376C122.289 191.464 121.709 191.772 121.311 192.301C120.911 192.819 120.757 193.476 120.849 194.275L121.438 199.389L119.632 199.597ZM133.755 198.135C132.778 198.247 132.008 198.07 131.447 197.603C130.885 197.124 130.543 196.354 130.421 195.293L129.891 190.698L128.139 190.899L127.979 189.505L129.731 189.303L129.457 186.925L131.208 186.234L131.537 189.095L134.04 188.807L134.201 190.202L131.698 190.49L132.208 194.924C132.285 195.592 132.459 196.055 132.73 196.314C133.002 196.572 133.364 196.676 133.817 196.624C134.043 196.598 134.238 196.557 134.401 196.502C134.574 196.434 134.729 196.362 134.865 196.286L135.034 197.752C134.863 197.844 134.661 197.922 134.427 197.985C134.194 198.06 133.97 198.11 133.755 198.135ZM136.692 197.633L135.912 190.856C135.87 190.487 135.815 190.118 135.749 189.752C135.693 189.371 135.626 188.999 135.548 188.633L137.3 188.432L137.764 190.734L137.478 190.766C137.533 190.192 137.682 189.704 137.926 189.302C138.169 188.899 138.483 188.585 138.868 188.36C139.265 188.133 139.69 187.993 140.143 187.941C140.333 187.919 140.496 187.913 140.63 187.921C140.762 187.918 140.896 187.927 141.031 187.948L141.199 189.559C140.986 189.499 140.802 189.472 140.646 189.478C140.5 189.47 140.32 189.479 140.105 189.504C139.58 189.564 139.147 189.735 138.805 190.016C138.462 190.285 138.217 190.627 138.072 191.042C137.926 191.458 137.88 191.892 137.932 192.345L138.516 197.423L136.692 197.633ZM147.228 196.584C146.333 196.687 145.537 196.591 144.839 196.297C144.14 195.991 143.571 195.513 143.134 194.863C142.695 194.2 142.42 193.386 142.309 192.421C142.198 191.455 142.281 190.606 142.56 189.873C142.836 189.129 143.281 188.534 143.894 188.089C144.506 187.632 145.259 187.352 146.153 187.249C147.047 187.146 147.844 187.248 148.544 187.554C149.254 187.847 149.828 188.324 150.267 188.986C150.716 189.635 150.996 190.442 151.107 191.408C151.218 192.374 151.13 193.229 150.841 193.975C150.563 194.708 150.112 195.303 149.488 195.762C148.875 196.207 148.122 196.481 147.228 196.584ZM147.065 195.171C147.852 195.08 148.446 194.734 148.848 194.132C149.25 193.53 149.389 192.693 149.265 191.62C149.142 190.547 148.817 189.769 148.29 189.286C147.762 188.791 147.104 188.589 146.318 188.68C145.543 188.769 144.954 189.115 144.553 189.717C144.149 190.306 144.01 191.138 144.133 192.211C144.257 193.284 144.576 194.068 145.093 194.565C145.621 195.059 146.278 195.262 147.065 195.171ZM157.207 195.435C156.42 195.525 155.701 195.421 155.051 195.121C154.412 194.82 153.885 194.338 153.471 193.673C153.068 193.006 152.811 192.19 152.7 191.225C152.587 190.247 152.652 189.394 152.894 188.666C153.148 187.936 153.552 187.352 154.106 186.914C154.67 186.462 155.345 186.191 156.132 186.101C156.907 186.011 157.609 186.13 158.239 186.456C158.879 186.769 159.332 187.248 159.6 187.894L159.385 187.918L158.677 181.767L160.483 181.559L161.998 194.72L160.21 194.926L159.975 192.888L160.19 192.863C160.066 193.566 159.734 194.147 159.195 194.608C158.656 195.069 157.993 195.344 157.207 195.435ZM157.491 193.971C158.266 193.882 158.86 193.535 159.274 192.932C159.688 192.329 159.833 191.491 159.709 190.418C159.586 189.345 159.255 188.568 158.716 188.086C158.176 187.593 157.519 187.39 156.744 187.48C155.957 187.57 155.357 187.917 154.943 188.52C154.54 189.11 154.4 189.942 154.524 191.015C154.647 192.088 154.973 192.872 155.501 193.366C156.041 193.86 156.704 194.061 157.491 193.971ZM167.853 194.209C166.768 194.334 165.918 194.136 165.302 193.615C164.697 193.081 164.324 192.2 164.183 190.972L163.543 185.411L165.349 185.203L165.985 190.728C166.071 191.479 166.29 192.016 166.641 192.338C166.992 192.66 167.484 192.784 168.115 192.711C168.831 192.629 169.382 192.324 169.768 191.796C170.154 191.269 170.302 190.612 170.211 189.825L169.622 184.711L171.428 184.503L172.466 193.515L170.714 193.717L170.491 191.786L170.724 191.759C170.55 192.455 170.211 193.02 169.705 193.453C169.197 193.873 168.58 194.126 167.853 194.209ZM179.082 192.917C178.176 193.021 177.362 192.927 176.64 192.636C175.928 192.331 175.347 191.849 174.897 191.188C174.457 190.514 174.18 189.688 174.068 188.71C173.957 187.745 174.046 186.895 174.336 186.161C174.626 185.427 175.084 184.843 175.711 184.408C176.336 183.962 177.101 183.687 178.007 183.582C178.591 183.515 179.169 183.551 179.741 183.691C180.311 183.818 180.796 184.04 181.195 184.357L180.751 185.694C180.38 185.411 179.977 185.216 179.542 185.109C179.105 184.99 178.69 184.953 178.297 184.998C177.439 185.097 176.797 185.449 176.371 186.054C175.945 186.658 175.792 187.479 175.912 188.516C176.033 189.565 176.37 190.342 176.923 190.846C177.476 191.35 178.182 191.553 179.04 191.454C179.422 191.41 179.813 191.292 180.214 191.101C180.613 190.898 180.966 190.61 181.274 190.236L182.01 191.438C181.682 191.838 181.249 192.172 180.712 192.439C180.185 192.693 179.642 192.852 179.082 192.917ZM187.576 191.939C186.598 192.051 185.829 191.874 185.268 191.407C184.705 190.928 184.363 190.159 184.241 189.098L183.712 184.502L181.959 184.704L181.799 183.309L183.551 183.107L183.277 180.729L185.028 180.038L185.357 182.899L187.861 182.611L188.021 184.006L185.518 184.294L186.028 188.729C186.105 189.396 186.279 189.859 186.551 190.118C186.822 190.377 187.184 190.48 187.637 190.428C187.864 190.402 188.058 190.361 188.221 190.306C188.395 190.238 188.549 190.166 188.686 190.09L188.854 191.556C188.684 191.648 188.481 191.726 188.247 191.789C188.014 191.864 187.79 191.914 187.576 191.939ZM190.548 191.434L189.511 182.421L191.317 182.213L192.355 191.226L190.548 191.434ZM189.152 180.56L188.936 178.682L191.028 178.442L191.244 180.319L189.152 180.56ZM198.883 190.637C197.988 190.74 197.192 190.645 196.494 190.351C195.794 190.045 195.226 189.566 194.789 188.916C194.35 188.254 194.075 187.44 193.964 186.474C193.853 185.509 193.936 184.66 194.214 183.927C194.491 183.183 194.936 182.588 195.549 182.143C196.161 181.686 196.914 181.406 197.808 181.303C198.702 181.2 199.499 181.301 200.198 181.607C200.909 181.9 201.483 182.378 201.922 183.04C202.371 183.689 202.651 184.496 202.762 185.462C202.873 186.427 202.784 187.283 202.496 188.029C202.218 188.761 201.767 189.357 201.143 189.815C200.53 190.26 199.777 190.534 198.883 190.637ZM198.72 189.225C199.507 189.134 200.101 188.788 200.503 188.186C200.905 187.584 201.044 186.747 200.92 185.674C200.797 184.601 200.472 183.823 199.945 183.34C199.417 182.845 198.759 182.643 197.973 182.733C197.198 182.823 196.609 183.168 196.208 183.77C195.804 184.36 195.665 185.192 195.788 186.264C195.912 187.337 196.231 188.122 196.748 188.618C197.276 189.113 197.933 189.315 198.72 189.225ZM205.392 189.725L204.603 182.876C204.564 182.53 204.505 182.181 204.428 181.827C204.362 181.46 204.29 181.094 204.211 180.729L205.964 180.527L206.343 182.404L206.128 182.429C206.326 181.73 206.69 181.174 207.223 180.763C207.754 180.339 208.395 180.084 209.146 179.998C210.207 179.876 211.039 180.076 211.643 180.598C212.259 181.119 212.637 181.993 212.779 183.221L213.421 188.801L211.615 189.008L210.985 183.537C210.893 182.738 210.666 182.184 210.304 181.876C209.953 181.554 209.456 181.43 208.812 181.504C208.049 181.592 207.469 181.9 207.07 182.429C206.671 182.946 206.517 183.604 206.609 184.403L207.198 189.517L205.392 189.725ZM224.64 187.672C223.746 187.775 222.95 187.679 222.252 187.385C221.552 187.079 220.984 186.601 220.546 185.951C220.108 185.289 219.833 184.475 219.722 183.509C219.611 182.544 219.694 181.694 219.972 180.962C220.249 180.217 220.694 179.623 221.307 179.178C221.919 178.721 222.671 178.441 223.566 178.338C224.46 178.235 225.257 178.336 225.956 178.642C226.666 178.935 227.241 179.412 227.679 180.075C228.128 180.724 228.409 181.531 228.52 182.496C228.631 183.462 228.542 184.318 228.254 185.064C227.975 185.796 227.525 186.392 226.901 186.85C226.288 187.295 225.534 187.569 224.64 187.672ZM224.477 186.259C225.264 186.169 225.859 185.823 226.26 185.221C226.662 184.619 226.801 183.781 226.678 182.708C226.554 181.636 226.229 180.858 225.703 180.375C225.174 179.88 224.517 179.678 223.73 179.768C222.955 179.857 222.367 180.203 221.965 180.805C221.562 181.395 221.422 182.226 221.546 183.299C221.669 184.372 221.989 185.157 222.505 185.653C223.033 186.148 223.691 186.35 224.477 186.259ZM231.599 186.708L230.722 179.09L228.969 179.292L228.809 177.897L231.062 177.638L230.615 178.16L230.45 176.73C230.328 175.669 230.503 174.833 230.977 174.223C231.449 173.601 232.203 173.23 233.24 173.111C233.491 173.082 233.755 173.07 234.033 173.074C234.312 173.078 234.545 173.112 234.733 173.175L234.902 174.641C234.752 174.598 234.568 174.571 234.349 174.56C234.141 174.535 233.93 174.535 233.715 174.56C233.37 174.6 233.08 174.706 232.846 174.878C232.611 175.038 232.437 175.263 232.326 175.554C232.226 175.843 232.201 176.202 232.25 176.631L232.39 177.847L232.081 177.52L234.799 177.208L234.96 178.602L232.528 178.882L233.405 186.5L231.599 186.708ZM245.639 185.255C244.662 185.367 243.893 185.19 243.332 184.723C242.769 184.244 242.427 183.474 242.305 182.413L241.776 177.818L240.023 178.019L239.863 176.625L241.615 176.423L241.341 174.045L243.092 173.354L243.421 176.215L245.925 175.927L246.085 177.322L243.582 177.61L244.092 182.045C244.169 182.712 244.343 183.175 244.615 183.434C244.886 183.693 245.248 183.796 245.701 183.744C245.928 183.718 246.122 183.677 246.285 183.622C246.458 183.554 246.613 183.482 246.749 183.406L246.918 184.872C246.748 184.964 246.545 185.042 246.311 185.105C246.078 185.18 245.854 185.23 245.639 185.255ZM248.612 184.749L247.097 171.588L248.903 171.38L249.601 177.442L249.351 177.471C249.535 176.761 249.899 176.2 250.443 175.787C250.986 175.362 251.639 175.106 252.402 175.018C253.475 174.895 254.308 175.101 254.901 175.636C255.493 176.16 255.858 177.018 255.995 178.21L256.641 183.825L254.835 184.033L254.201 178.525C254.112 177.75 253.892 177.208 253.543 176.898C253.204 176.575 252.706 176.451 252.05 176.526C251.287 176.614 250.701 176.923 250.291 177.454C249.891 177.971 249.736 178.617 249.825 179.391L250.418 184.541L248.612 184.749ZM263.397 183.21C261.943 183.378 260.751 183.098 259.822 182.372C258.893 181.645 258.344 180.555 258.177 179.1C258.068 178.159 258.153 177.316 258.429 176.571C258.718 175.825 259.162 175.224 259.762 174.769C260.372 174.3 261.107 174.016 261.965 173.917C262.811 173.82 263.541 173.917 264.155 174.209C264.768 174.5 265.262 174.957 265.635 175.578C266.007 176.188 266.244 176.934 266.346 177.816L266.411 178.388L259.616 179.17L259.497 178.133L265.058 177.493L264.781 177.76C264.678 176.866 264.396 176.198 263.934 175.756C263.483 175.301 262.882 175.116 262.131 175.203C261.297 175.299 260.686 175.665 260.301 176.301C259.914 176.926 259.778 177.744 259.895 178.758L259.916 178.937C260.038 179.998 260.386 180.767 260.96 181.244C261.547 181.72 262.317 181.903 263.27 181.794C263.795 181.733 264.275 181.605 264.712 181.41C265.159 181.202 265.571 180.901 265.949 180.507L266.681 181.673C266.306 182.09 265.832 182.435 265.26 182.706C264.686 182.965 264.065 183.134 263.397 183.21ZM273.902 181.838L272.451 169.231L273.881 169.067L282.794 178.332L282.347 178.384L281.177 168.227L282.912 168.027L284.363 180.634L282.95 180.796L274.056 171.529L274.467 171.481L275.637 181.638L273.902 181.838ZM291.338 179.994C289.883 180.161 288.691 179.882 287.762 179.155C286.833 178.429 286.285 177.338 286.117 175.884C286.009 174.942 286.093 174.099 286.37 173.355C286.658 172.609 287.103 172.008 287.702 171.552C288.313 171.083 289.047 170.8 289.905 170.701C290.752 170.603 291.482 170.701 292.095 170.992C292.709 171.284 293.202 171.741 293.576 172.362C293.948 172.971 294.185 173.717 294.286 174.599L294.352 175.172L287.557 175.954L287.437 174.917L292.999 174.276L292.721 174.544C292.619 173.65 292.336 172.982 291.875 172.54C291.424 172.084 290.823 171.9 290.072 171.986C289.237 172.082 288.627 172.448 288.241 173.085C287.854 173.709 287.719 174.528 287.835 175.541L287.856 175.72C287.978 176.781 288.326 177.55 288.901 178.028C289.487 178.504 290.257 178.687 291.211 178.577C291.735 178.517 292.216 178.389 292.652 178.194C293.1 177.985 293.512 177.684 293.889 177.29L294.621 178.456C294.247 178.874 293.773 179.218 293.2 179.49C292.626 179.749 292.005 179.917 291.338 179.994ZM299.242 178.921L294.789 170.302L296.667 170.086L300.196 177.289L299.731 177.343L301.602 169.517L302.997 169.357L306.579 176.554L306.132 176.606L307.932 168.789L309.738 168.581L307.342 177.988L305.697 178.178L301.991 170.85L302.831 170.753L300.923 178.727L299.242 178.921ZM316.211 170.572C316.059 169.248 316.16 168.077 316.513 167.058C316.867 166.039 317.455 165.216 318.277 164.59C319.11 163.963 320.141 163.578 321.369 163.437C322.585 163.297 323.664 163.438 324.607 163.861C325.549 164.284 326.315 164.951 326.903 165.862C327.503 166.771 327.878 167.882 328.029 169.193C328.181 170.516 328.069 171.695 327.693 172.729C327.328 173.749 326.729 174.579 325.896 175.218C325.074 175.845 324.061 176.227 322.857 176.365C321.63 176.507 320.544 176.366 319.602 175.943C318.658 175.508 317.892 174.835 317.304 173.925C316.726 173.001 316.362 171.883 316.211 170.572ZM318.16 170.347C318.336 171.873 318.807 173.027 319.573 173.808C320.34 174.59 321.373 174.906 322.672 174.756C323.936 174.611 324.865 174.075 325.459 173.149C326.051 172.211 326.259 170.973 326.082 169.435C325.905 167.897 325.422 166.745 324.633 165.978C323.856 165.21 322.83 164.899 321.554 165.046C320.255 165.196 319.32 165.732 318.75 166.655C318.18 167.579 317.983 168.809 318.16 170.347ZM331.106 175.253L330.325 168.476C330.283 168.106 330.228 167.738 330.162 167.371C330.106 166.991 330.039 166.618 329.961 166.253L331.713 166.051L332.178 168.353L331.892 168.386C331.946 167.812 332.095 167.324 332.339 166.921C332.582 166.519 332.897 166.205 333.281 165.979C333.678 165.752 334.103 165.613 334.556 165.561C334.747 165.539 334.909 165.532 335.043 165.541C335.175 165.538 335.309 165.546 335.444 165.567L335.612 167.179C335.4 167.118 335.215 167.091 335.059 167.097C334.913 167.09 334.733 167.099 334.518 167.123C333.994 167.184 333.56 167.354 333.218 167.635C332.875 167.904 332.63 168.247 332.485 168.662C332.34 169.077 332.293 169.511 332.345 169.964L332.93 175.043L331.106 175.253ZM342.711 174.08C341.924 174.171 341.216 174.053 340.586 173.727C339.957 173.4 339.508 172.909 339.239 172.251L339.436 172.228L339.67 174.267L337.882 174.473L336.367 161.312L338.173 161.104L338.881 167.255L338.667 167.28C338.792 166.589 339.119 166.02 339.648 165.572C340.187 165.112 340.849 164.836 341.636 164.746C342.435 164.654 343.154 164.764 343.794 165.077C344.433 165.378 344.954 165.862 345.357 166.528C345.77 167.181 346.033 167.996 346.145 168.974C346.257 169.939 346.186 170.793 345.933 171.535C345.691 172.263 345.287 172.847 344.721 173.287C344.168 173.725 343.498 173.989 342.711 174.08ZM342.101 172.719C342.876 172.63 343.471 172.289 343.886 171.698C344.3 171.095 344.445 170.257 344.321 169.184C344.197 168.099 343.865 167.316 343.326 166.834C342.786 166.341 342.129 166.138 341.354 166.228C340.567 166.318 339.967 166.665 339.553 167.268C339.15 167.858 339.01 168.69 339.134 169.763C339.257 170.836 339.583 171.62 340.111 172.114C340.651 172.608 341.314 172.809 342.101 172.719ZM348.779 173.218L347.264 160.057L349.07 159.849L350.585 173.01L348.779 173.218ZM357.417 172.387C355.962 172.554 354.771 172.275 353.842 171.548C352.912 170.822 352.364 169.731 352.197 168.277C352.088 167.335 352.172 166.492 352.449 165.748C352.738 165.002 353.182 164.401 353.782 163.945C354.392 163.477 355.126 163.193 355.985 163.094C356.831 162.996 357.561 163.094 358.174 163.385C358.788 163.677 359.281 164.134 359.655 164.755C360.027 165.364 360.264 166.11 360.365 166.992L360.431 167.565L353.636 168.347L353.517 167.31L359.078 166.67L358.801 166.937C358.698 166.043 358.415 165.375 357.954 164.933C357.503 164.477 356.902 164.293 356.151 164.379C355.316 164.475 354.706 164.842 354.32 165.478C353.933 166.102 353.798 166.921 353.915 167.934L353.935 168.113C354.057 169.174 354.406 169.943 354.98 170.421C355.566 170.897 356.336 171.08 357.29 170.97C357.815 170.91 358.295 170.782 358.732 170.587C359.179 170.378 359.591 170.077 359.968 169.684L360.701 170.849C360.326 171.267 359.852 171.611 359.279 171.883C358.705 172.142 358.084 172.31 357.417 172.387ZM362.958 171.586L362.178 164.809C362.135 164.439 362.081 164.071 362.014 163.704C361.958 163.324 361.891 162.951 361.813 162.586L363.565 162.384L364.03 164.686L363.744 164.719C363.798 164.145 363.947 163.657 364.191 163.254C364.435 162.852 364.749 162.538 365.134 162.312C365.53 162.086 365.955 161.946 366.408 161.894C366.599 161.872 366.761 161.865 366.895 161.874C367.027 161.871 367.161 161.88 367.297 161.9L367.464 163.512C367.252 163.452 367.067 163.425 366.911 163.431C366.765 163.423 366.585 163.432 366.37 163.456C365.846 163.517 365.413 163.688 365.07 163.969C364.727 164.238 364.483 164.58 364.337 164.995C364.192 165.41 364.145 165.845 364.197 166.298L364.782 171.376L362.958 171.586ZM373.357 170.389L377.521 157.136L379.112 156.953L386.268 168.903L384.354 169.123L382.387 165.726L383.231 166.136L375.596 167.015L376.379 166.417L375.235 170.173L373.357 170.389ZM378.524 159.086L376.545 165.818L376.069 165.456L382.417 164.726L382.107 165.178L378.596 159.078L378.524 159.086ZM388.218 172.592L386.985 161.881C386.945 161.535 386.887 161.185 386.81 160.832C386.743 160.465 386.671 160.099 386.593 159.733L388.345 159.532L388.759 161.55L388.562 161.572C388.674 160.871 388.994 160.29 389.521 159.831C390.06 159.37 390.729 159.094 391.527 159.002C392.326 158.91 393.046 159.021 393.686 159.334C394.324 159.635 394.844 160.112 395.246 160.767C395.659 161.42 395.922 162.235 396.035 163.212C396.146 164.178 396.075 165.032 395.822 165.774C395.581 166.514 395.184 167.103 394.63 167.541C394.077 167.98 393.401 168.245 392.602 168.337C391.815 168.427 391.108 168.315 390.48 168.001C389.862 167.674 389.42 167.187 389.152 166.541L389.349 166.519L390.024 172.384L388.218 172.592ZM391.992 166.975C392.779 166.885 393.373 166.539 393.775 165.937C394.189 165.333 394.334 164.495 394.211 163.422C394.087 162.349 393.756 161.572 393.217 161.091C392.689 160.596 392.032 160.394 391.245 160.484C390.458 160.575 389.858 160.922 389.444 161.525C389.041 162.115 388.901 162.946 389.025 164.019C389.148 165.092 389.474 165.876 390.002 166.371C390.542 166.865 391.206 167.066 391.992 166.975ZM399.115 171.337L397.882 160.626C397.842 160.28 397.783 159.931 397.707 159.577C397.64 159.211 397.568 158.844 397.49 158.479L399.242 158.277L399.655 160.295L399.459 160.318C399.571 159.616 399.891 159.036 400.418 158.577C400.957 158.116 401.626 157.84 402.424 157.748C403.223 157.656 403.942 157.766 404.582 158.079C405.221 158.38 405.741 158.858 406.142 159.512C406.556 160.165 406.819 160.98 406.931 161.958C407.042 162.924 406.972 163.777 406.719 164.519C406.478 165.26 406.081 165.849 405.527 166.287C404.974 166.725 404.298 166.99 403.499 167.082C402.712 167.173 402.005 167.061 401.377 166.747C400.759 166.419 400.316 165.933 400.049 165.287L400.246 165.264L400.921 171.13L399.115 171.337ZM402.889 165.721C403.676 165.63 404.27 165.284 404.672 164.682C405.086 164.079 405.231 163.241 405.107 162.168C404.984 161.095 404.653 160.318 404.114 159.836C403.586 159.341 402.929 159.139 402.142 159.23C401.355 159.32 400.755 159.667 400.341 160.271C399.938 160.861 399.798 161.692 399.922 162.765C400.045 163.838 400.371 164.622 400.899 165.117C401.439 165.61 402.102 165.812 402.889 165.721Z" fill="white"/>
</svg>
