<svg width="159" height="147" viewBox="0 0 159 147" fill="none" xmlns="http://www.w3.org/2000/svg">
<path d="M100.625 45.2283L56.8106 89.0423L12.9966 45.2283L56.8106 1.41428L100.625 45.2283Z" fill="#8E3AE2" stroke="black" stroke-width="2"/>
<path d="M100.371 46.8663L99.0019 73.4806L60.8514 113.875L57.3374 89.8999L100.371 46.8663Z" fill="#EDB72B" stroke="black" stroke-width="2"/>
<path d="M13.0224 46.6116L55.8701 89.4594L59.4695 113.394L16.6217 70.5464L13.0224 46.6116Z" fill="#51DA7F" stroke="black" stroke-width="2"/>
<path d="M101.526 74.9592L57.7125 118.773L13.8985 74.9592L57.7125 31.1452L101.526 74.9592Z" fill="#51DA7F" stroke="black" stroke-width="2"/>
<path d="M101.272 76.5963L99.9033 103.211L61.7528 143.605L58.2388 119.63L101.272 76.5963Z" fill="#EDB72B" stroke="black" stroke-width="2"/>
<path d="M13.9257 76.7283L56.7734 119.576L60.3728 143.511L17.525 100.663L13.9257 76.7283Z" fill="#F8CEEE" stroke="black" stroke-width="2"/>
<path d="M142.066 65.9495L98.2518 109.763L54.4378 65.9495L98.2518 22.1355L142.066 65.9495Z" fill="#F8CEEE" stroke="black" stroke-width="2"/>
<path d="M141.812 67.587L140.443 94.2013L102.292 134.596L98.7783 110.621L141.812 67.587Z" fill="#2BEDE1" stroke="black" stroke-width="2"/>
<path d="M54.4645 67.3326L97.3122 110.18L100.912 134.115L58.0639 91.2674L54.4645 67.3326Z" fill="#EDB72B" stroke="black" stroke-width="2"/>
</svg>