<svg width="98" height="99" viewBox="0 0 98 99" fill="none" xmlns="http://www.w3.org/2000/svg">
<path d="M97.7409 48.6477C97.764 48.6487 97.7882 48.6501 97.8125 48.6521L97.7409 50.3728V48.6477ZM97.7409 48.6477V48.6418H97.4658C85.4784 48.5954 76.5468 45.561 69.8776 41.0813C63.2023 36.5974 58.7403 30.6295 55.7558 24.6397C52.7697 18.6465 51.2718 12.6481 50.5217 8.14056C50.1471 5.88891 49.96 4.015 49.8666 2.70754C49.8199 2.05397 49.7967 1.54239 49.7851 1.19645C49.7793 1.0235 49.7765 0.891989 49.7751 0.804883C49.7744 0.761332 49.774 0.728885 49.7738 0.707913L49.7737 0.685109L97.7409 48.6477ZM54.134 73.6539C51.2138 79.5157 49.6778 85.3624 48.8687 89.8921C48.0596 85.3624 46.5236 79.5157 43.6034 73.6539C40.5129 67.4503 35.8632 61.2132 28.872 56.517C24.0645 53.2876 18.1749 50.8039 10.9682 49.5504C18.1749 48.2969 24.0645 45.8132 28.872 42.5838C35.8632 37.8876 40.5129 31.6505 43.6034 25.4469C46.5239 19.5844 48.0599 13.7369 48.869 9.20695C49.6783 13.7369 51.2148 19.5844 54.1358 25.4469C57.2267 31.6505 61.8768 37.8876 68.8683 42.5838C73.6757 45.8129 79.5649 48.2965 86.771 49.5501C79.5634 50.8035 73.6732 53.2874 68.8653 56.517C61.8741 61.2132 57.2245 67.4503 54.134 73.6539Z" fill="#F8CEEE" stroke="black" stroke-width="1.81002"/>
</svg>
