<svg width="98" height="98" viewBox="0 0 98 98" fill="none" xmlns="http://www.w3.org/2000/svg">
<path d="M48.3256 -0.00526036C48.3268 -0.0283238 48.3284 -0.0524979 48.3306 -0.0767973L50.0507 0.0073621L48.3256 -0.00526036ZM48.3256 -0.00526036L48.3198 -0.00530335L48.3178 0.269828C48.1836 12.2565 45.084 21.1657 40.5556 27.802C36.023 34.4443 30.0226 38.8625 24.0111 41.803C17.9962 44.7452 11.9871 46.1993 7.47413 46.9163C5.2198 47.2745 3.34457 47.4479 2.03647 47.5317C1.38257 47.5736 0.870835 47.593 0.524821 47.6021C0.351828 47.6066 0.220302 47.6085 0.133188 47.6093C0.0896322 47.6097 0.0571839 47.6098 0.0362112 47.6098L0.0134067 47.6098L48.3256 -0.00526036ZM73.0122 43.7835C78.8524 46.7465 84.6877 48.3252 89.2114 49.1675C84.6759 49.9434 78.8181 51.4366 72.9351 54.3138C66.7091 57.3588 60.4381 61.9627 55.6909 68.9194C52.4264 73.7031 49.8997 79.5744 48.5935 86.7718C47.3927 79.5561 44.9521 73.6484 41.758 68.8174C37.1131 61.7921 30.9102 57.0969 24.7293 53.9611C18.8884 50.9977 13.0523 49.419 8.5284 48.5768C13.0642 47.8006 18.9227 46.307 24.8065 43.429C31.0325 40.3835 37.3034 35.7792 42.0507 28.8222C45.3149 24.0386 47.8415 18.1677 49.1478 10.971C50.3484 18.1876 52.7891 24.0958 55.9835 28.9272C60.6285 35.9525 66.8314 40.6477 73.0122 43.7835Z" fill="#F8CEEE" stroke="black" stroke-width="1.81002"/>
</svg>
