<svg width="41" height="41" viewBox="0 0 41 41" fill="none" xmlns="http://www.w3.org/2000/svg">
<g clip-path="url(#clip0_39_77)">
<mask id="mask0_39_77" style="mask-type:alpha" maskUnits="userSpaceOnUse" x="0" y="0" width="41" height="41">
<path d="M28.9367 40.5596C29.5781 40.8095 30.3096 40.7934 30.957 40.4819L39.3416 36.4475C40.2226 36.0235 40.7829 35.1317 40.7829 34.1535V6.79696C40.7829 5.81873 40.2226 4.92706 39.3416 4.50311L30.957 0.468469C30.1074 0.0596372 29.1129 0.159776 28.3673 0.701901C28.2607 0.779346 28.1592 0.865813 28.0641 0.961103L12.0127 15.605L5.0211 10.2978C4.37024 9.80377 3.45988 9.84424 2.8554 10.3941L0.612956 12.4339C-0.12644 13.1065 -0.127288 14.2698 0.611125 14.9434L6.6745 20.4751L0.611125 26.0069C-0.127288 26.6806 -0.12644 27.8438 0.612956 28.5164L2.8554 30.5562C3.45988 31.1061 4.37024 31.1465 5.0211 30.6526L12.0127 25.3453L28.0641 39.9893C28.318 40.2433 28.6161 40.4347 28.9367 40.5596ZM30.6078 11.2301L18.4285 20.4751L30.6078 29.7202V11.2301Z" fill="white"/>
</mask>
<g mask="url(#mask0_39_77)">
<path d="M39.3665 4.50961L30.9754 0.46941C30.0042 0.00175945 28.8433 0.199025 28.081 0.961283L0.61146 26.0071C-0.127401 26.6808 -0.126552 27.844 0.613293 28.5166L2.85709 30.5564C3.46196 31.1063 4.37288 31.1467 5.02411 30.6528L38.1038 5.55773C39.2136 4.71584 40.8076 5.50737 40.8076 6.90036V6.80293C40.8076 5.82514 40.2475 4.93378 39.3665 4.50961Z" fill="#0065A9"/>
<path d="M39.3665 36.4409L30.9754 40.4811C30.0042 40.9487 28.8433 40.7514 28.081 39.9893L0.61146 14.9434C-0.127401 14.2697 -0.126552 13.1065 0.613293 12.4339L2.85709 10.3941C3.46196 9.84419 4.37288 9.8037 5.02411 10.2978L38.1038 35.3927C39.2136 36.2346 40.8076 35.4432 40.8076 34.0501V34.1476C40.8076 35.1253 40.2475 36.0166 39.3665 36.4409Z" fill="#007ACC"/>
<path d="M30.9489 40.4844C29.9773 40.9516 28.8165 40.7542 28.0542 39.9919C28.9934 40.9311 30.5995 40.2658 30.5995 38.9375V2.01797C30.5995 0.689626 28.9934 0.0243854 28.0542 0.963668C28.8165 0.201339 29.9773 0.00379501 30.9489 0.471033L39.3385 4.50568C40.2202 4.92963 40.7808 5.8213 40.7808 6.79953V34.1561C40.7808 35.1343 40.2202 36.026 39.3385 36.4499L30.9489 40.4844Z" fill="#1F9CF0"/>
<path d="M28.9367 40.5594C29.5781 40.8092 30.3096 40.7933 30.9569 40.4818L39.3415 36.4472C40.2226 36.0232 40.7829 35.1315 40.7829 34.1534V6.79677C40.7829 5.81855 40.2226 4.92687 39.3416 4.50292L30.9569 0.468287C30.1074 0.0594539 29.113 0.159592 28.3672 0.701718C28.2608 0.779162 28.1593 0.865629 28.064 0.96092L12.0127 15.6048L5.02109 10.2976C4.37025 9.80359 3.45987 9.84407 2.85539 10.3939L0.612956 12.4338C-0.12644 13.1064 -0.127288 14.2696 0.611125 14.9433L6.67451 20.475L0.611125 26.0068C-0.127288 26.6805 -0.12644 27.8437 0.612956 28.5163L2.85539 30.556C3.45987 31.106 4.37025 31.1464 5.02109 30.6524L12.0127 25.3451L28.064 39.9891C28.3179 40.2432 28.6162 40.4345 28.9367 40.5594ZM30.6079 11.2299L18.4285 20.475L30.6079 29.72V11.2299Z" fill="url(#paint0_linear_39_77)" fill-opacity="0.25"/>
</g>
</g>
<defs>
<linearGradient id="paint0_linear_39_77" x1="20.4204" y1="0.217468" x2="20.4204" y2="40.7325" gradientUnits="userSpaceOnUse">
<stop stop-color="white"/>
<stop offset="1" stop-color="white" stop-opacity="0"/>
</linearGradient>
<clipPath id="clip0_39_77">
<rect width="40.8841" height="40.5647" fill="white" transform="translate(0.0578613 0.217651)"/>
</clipPath>
</defs>
</svg>
