<svg width="140" height="140" viewBox="0 0 140 140" fill="none" xmlns="http://www.w3.org/2000/svg">
<mask id="path-1-inside-1_28_1015" fill="white">
<path d="M69.6233 70.1449C65.0601 70.1449 60.5416 69.2461 56.3258 67.4999C52.1099 65.7536 48.2793 63.1941 45.0526 59.9674C41.826 56.7407 39.2664 52.9101 37.5202 48.6942C35.7739 44.4784 34.8751 39.9599 34.8751 35.3967C34.8751 30.8335 35.7739 26.3149 37.5202 22.0991C39.2664 17.8832 41.826 14.0526 45.0526 10.826C48.2793 7.59928 52.1099 5.03975 56.3258 3.29349C60.5416 1.54722 65.0601 0.648435 69.6233 0.648436L69.6233 35.3967L69.6233 70.1449Z"/>
</mask>
<path d="M69.6233 70.1449C65.0601 70.1449 60.5416 69.2461 56.3258 67.4999C52.1099 65.7536 48.2793 63.1941 45.0526 59.9674C41.826 56.7407 39.2664 52.9101 37.5202 48.6942C35.7739 44.4784 34.8751 39.9599 34.8751 35.3967C34.8751 30.8335 35.7739 26.3149 37.5202 22.0991C39.2664 17.8832 41.826 14.0526 45.0526 10.826C48.2793 7.59928 52.1099 5.03975 56.3258 3.29349C60.5416 1.54722 65.0601 0.648435 69.6233 0.648436L69.6233 35.3967L69.6233 70.1449Z" fill="#8E3AE2" stroke="black" stroke-width="1.70719" mask="url(#path-1-inside-1_28_1015)"/>
<mask id="path-2-inside-2_28_1015" fill="white">
<path d="M69.6235 70.1446C74.1867 70.1446 78.7052 71.0434 82.9211 72.7897C87.1369 74.536 90.9675 77.0955 94.1942 80.3222C97.4209 83.5488 99.9804 87.3795 101.727 91.5953C103.473 95.8112 104.372 100.33 104.372 104.893C104.372 109.456 103.473 113.975 101.727 118.19C99.9804 122.406 97.4209 126.237 94.1942 129.464C90.9675 132.69 87.1369 135.25 82.9211 136.996C78.7052 138.742 74.1867 139.641 69.6235 139.641L69.6235 104.893L69.6235 70.1446Z"/>
</mask>
<path d="M69.6235 70.1446C74.1867 70.1446 78.7052 71.0434 82.9211 72.7897C87.1369 74.536 90.9675 77.0955 94.1942 80.3222C97.4209 83.5488 99.9804 87.3795 101.727 91.5953C103.473 95.8112 104.372 100.33 104.372 104.893C104.372 109.456 103.473 113.975 101.727 118.19C99.9804 122.406 97.4209 126.237 94.1942 129.464C90.9675 132.69 87.1369 135.25 82.9211 136.996C78.7052 138.742 74.1867 139.641 69.6235 139.641L69.6235 104.893L69.6235 70.1446Z" fill="#8E3AE2" stroke="black" stroke-width="1.70719" mask="url(#path-2-inside-2_28_1015)"/>
<mask id="path-3-inside-3_28_1015" fill="white">
<path d="M69.6232 70.1452C69.6232 74.7084 68.7244 79.2269 66.9781 83.4428C65.2319 87.6586 62.6723 91.4893 59.4457 94.7159C56.219 97.9426 52.3884 100.502 48.1725 102.248C43.9567 103.995 39.4381 104.893 34.8749 104.893C30.3117 104.893 25.7932 103.995 21.5774 102.248C17.3615 100.502 13.5309 97.9426 10.3042 94.7159C7.07756 91.4893 4.51802 87.6586 2.77176 83.4428C1.0255 79.2269 0.126709 74.7084 0.126709 70.1452L34.8749 70.1452L69.6232 70.1452Z"/>
</mask>
<path d="M69.6232 70.1452C69.6232 74.7084 68.7244 79.2269 66.9781 83.4428C65.2319 87.6586 62.6723 91.4893 59.4457 94.7159C56.219 97.9426 52.3884 100.502 48.1725 102.248C43.9567 103.995 39.4381 104.893 34.8749 104.893C30.3117 104.893 25.7932 103.995 21.5774 102.248C17.3615 100.502 13.5309 97.9426 10.3042 94.7159C7.07756 91.4893 4.51802 87.6586 2.77176 83.4428C1.0255 79.2269 0.126709 74.7084 0.126709 70.1452L34.8749 70.1452L69.6232 70.1452Z" fill="#8E3AE2" stroke="black" stroke-width="1.70719" mask="url(#path-3-inside-3_28_1015)"/>
<mask id="path-4-inside-4_28_1015" fill="white">
<path d="M69.6241 70.1453C69.6241 65.5821 70.5229 61.0636 72.2692 56.8477C74.0154 52.6319 76.575 48.8013 79.8017 45.5746C83.0283 42.3479 86.8589 39.7884 91.0748 38.0421C95.2906 36.2959 99.8092 35.3971 104.372 35.3971C108.936 35.3971 113.454 36.2959 117.67 38.0421C121.886 39.7884 125.716 42.3479 128.943 45.5746C132.17 48.8013 134.729 52.6319 136.476 56.8477C138.222 61.0636 139.121 65.5821 139.121 70.1453L104.372 70.1453L69.6241 70.1453Z"/>
</mask>
<path d="M69.6241 70.1453C69.6241 65.5821 70.5229 61.0636 72.2692 56.8477C74.0154 52.6319 76.575 48.8013 79.8017 45.5746C83.0283 42.3479 86.8589 39.7884 91.0748 38.0421C95.2906 36.2959 99.8092 35.3971 104.372 35.3971C108.936 35.3971 113.454 36.2959 117.67 38.0421C121.886 39.7884 125.716 42.3479 128.943 45.5746C132.17 48.8013 134.729 52.6319 136.476 56.8477C138.222 61.0636 139.121 65.5821 139.121 70.1453L104.372 70.1453L69.6241 70.1453Z" fill="#8E3AE2" stroke="black" stroke-width="1.70719" mask="url(#path-4-inside-4_28_1015)"/>
</svg>
