<svg width="188" height="188" viewBox="0 0 188 188" fill="none" xmlns="http://www.w3.org/2000/svg">
<path d="M108.013 95.0588C107.734 94.8558 107.457 94.6399 107.183 94.4125C105.247 92.8059 103.341 90.5493 101.462 87.9068C97.9534 82.9717 94.4193 76.5191 90.8691 70.037C90.6199 69.582 90.3706 69.1268 90.1212 68.672C86.2991 61.7014 82.4563 54.8118 78.5433 49.6578C76.5883 47.0829 74.6475 44.9844 72.7205 43.5338C70.7946 42.084 68.9447 41.3274 67.1483 41.318C58.816 41.2746 45.213 41.2212 35.65 41.1889C35.138 41.1871 34.6376 41.1855 34.1502 41.1839C34.4446 41.3776 34.7376 41.5831 35.0292 41.7994C37.1844 43.3983 39.3443 45.6488 41.4843 48.2941C45.7631 53.5834 50.0814 60.6034 54.2207 67.5577C54.9333 68.755 55.6405 69.9501 56.3414 71.1346C59.7304 76.8616 62.9736 82.3424 65.9827 86.6371C67.7981 89.2282 69.4957 91.3393 71.0544 92.795C72.6459 94.2815 73.9295 94.9294 74.924 94.9346C80.4782 94.9636 93.7408 95.0129 103.785 95.0455C105.277 95.0504 106.698 95.0548 108.013 95.0588Z" fill="#51DA7F" stroke="black" stroke-width="2"/>
<path d="M79.3297 95.0588C79.6086 94.8558 79.8851 94.6399 80.1592 94.4125C82.0956 92.8059 84.0009 90.5493 85.8798 87.9068C89.3889 82.9717 92.923 76.5191 96.4732 70.037C96.7224 69.582 96.9717 69.1268 97.2211 68.672C101.043 61.7014 104.886 54.8118 108.799 49.6578C110.754 47.0829 112.695 44.9844 114.622 43.5338C116.548 42.084 118.398 41.3274 120.194 41.318C128.526 41.2746 142.129 41.2212 151.692 41.1889C152.204 41.1871 152.705 41.1855 153.192 41.1839C152.898 41.3776 152.605 41.5831 152.313 41.7994C150.158 43.3983 147.998 45.6488 145.858 48.2941C141.579 53.5834 137.261 60.6034 133.122 67.5577C132.409 68.755 131.702 69.9501 131.001 71.1346C127.612 76.8616 124.369 82.3424 121.36 86.6371C119.544 89.2282 117.847 91.3393 116.288 92.795C114.696 94.2815 113.413 94.9294 112.418 94.9346C106.864 94.9636 93.6015 95.0129 83.5575 95.0455C82.0651 95.0504 80.6439 95.0548 79.3297 95.0588Z" fill="#F8CEEE" stroke="black" stroke-width="2"/>
<path d="M79.3297 92.3923C79.6086 92.5954 79.8851 92.8112 80.1592 93.0386C82.0956 94.6453 84.0009 96.9019 85.8798 99.5444C89.3889 104.479 92.923 110.932 96.4732 117.414C96.7224 117.869 96.9717 118.324 97.2211 118.779C101.043 125.75 104.886 132.639 108.799 137.793C110.754 140.368 112.695 142.467 114.622 143.917C116.548 145.367 118.398 146.124 120.194 146.133C128.526 146.177 142.129 146.23 151.692 146.262C152.204 146.264 152.705 146.266 153.192 146.267C152.898 146.074 152.605 145.868 152.313 145.652C150.158 144.053 147.998 141.802 145.858 139.157C141.579 133.868 137.261 126.848 133.122 119.893C132.409 118.696 131.702 117.501 131.001 116.317C127.612 110.59 124.369 105.109 121.36 100.814C119.544 98.2229 117.847 96.1119 116.288 94.6561C114.696 93.1697 113.413 92.5217 112.418 92.5166C106.864 92.4876 93.6015 92.4383 83.5575 92.4056C82.0651 92.4008 80.6439 92.3963 79.3297 92.3923Z" fill="black" stroke="black" stroke-width="2"/>
<path d="M108.013 92.3923C107.734 92.5954 107.457 92.8113 107.183 93.0387C105.247 94.6453 103.341 96.9019 101.462 99.5444C97.9534 104.479 94.4193 110.932 90.8691 117.414C90.6198 117.869 90.3706 118.324 90.1212 118.779C86.2991 125.75 82.4563 132.639 78.5433 137.793C76.5883 140.368 74.6475 142.467 72.7205 143.917C70.7946 145.367 68.9447 146.124 67.1483 146.133C58.816 146.177 45.213 146.23 35.6499 146.262C35.138 146.264 34.6376 146.266 34.1502 146.267C34.4446 146.074 34.7376 145.868 35.0292 145.652C37.1844 144.053 39.3443 141.802 41.4843 139.157C45.7631 133.868 50.0814 126.848 54.2207 119.893C54.9333 118.696 55.6405 117.501 56.3414 116.317C59.7304 110.59 62.9736 105.109 65.9827 100.814C67.7981 98.2229 69.4957 96.1119 71.0544 94.6561C72.6459 93.1697 73.9295 92.5218 74.924 92.5166C80.4782 92.4876 93.7408 92.4383 103.785 92.4057C105.277 92.4008 106.698 92.3963 108.013 92.3923Z" fill="#F8CEEE" stroke="black" stroke-width="2"/>
</svg>