<svg width="95" height="86" viewBox="0 0 95 86" fill="none" xmlns="http://www.w3.org/2000/svg">
<path d="M37.7538 21.7654C39.0476 16.6156 46.3654 16.6156 47.6592 21.7654C48.5888 25.4652 52.6465 27.4157 56.117 25.833C60.9259 23.6399 65.4848 29.3795 62.2721 33.6291C59.9737 36.6695 60.9678 41.0749 64.3613 42.8168C69.1019 45.2502 67.4753 52.4034 62.166 52.5268C58.352 52.6154 55.5519 56.1501 56.3096 59.8846C57.3674 65.0985 50.7766 68.2869 47.399 64.2234C44.9592 61.2881 40.4538 61.2881 38.014 64.2234C34.6365 68.2869 28.0456 65.0985 29.1034 59.8846C29.8611 56.1501 27.061 52.6154 23.247 52.5268C17.9377 52.4034 16.3112 45.2502 21.0517 42.8168C24.4452 41.0749 25.4394 36.6695 23.1409 33.6291C19.9283 29.3795 24.4871 23.6399 29.296 25.833C32.7665 27.4157 36.8242 25.4652 37.7538 21.7654Z" fill="#2BEDE1" stroke="black"/>
<path d="M47.3526 21.7552C48.6597 16.5827 56.0088 16.5827 57.3158 21.7552C58.253 25.4641 62.3176 27.4215 65.8017 25.8418C70.6606 23.6386 75.2427 29.3844 72.0136 33.6313C69.6982 36.6764 70.7021 41.0747 74.1094 42.8137C78.8614 45.239 77.2261 52.4038 71.8924 52.5271C68.068 52.6155 65.2552 56.1426 66.02 59.8908C67.0867 65.1182 60.4654 68.3069 57.0435 64.2137C54.5899 61.2788 50.0785 61.2788 47.6249 64.2137C44.2031 68.3069 37.5818 65.1182 38.6484 59.8909C39.4133 56.1426 36.6005 52.6155 32.776 52.5271C27.4424 52.4038 25.8071 45.239 30.559 42.8137C33.9664 41.0747 34.9702 36.6764 32.6549 33.6313C29.4258 29.3844 34.0078 23.6386 38.8668 25.8418C42.3508 27.4215 46.4155 25.4641 47.3526 21.7552Z" fill="#DD8157" stroke="black"/>
<path d="M60.0003 41.7191C60.0003 46.0962 56.5613 49.6322 52.334 49.6322C48.1068 49.6322 44.6678 46.0962 44.6678 41.7191C44.6678 37.342 48.1068 33.806 52.334 33.806C56.5613 33.806 60.0003 37.342 60.0003 41.7191Z" fill="#2BEDE1" stroke="black" stroke-width="0.466504"/>
<path d="M55.5568 41.7191C55.5568 43.9454 55.1607 45.9424 54.4319 47.3736C53.7036 48.8039 52.667 49.6322 51.3835 49.6322C50.0673 49.6322 48.3873 48.7675 47.0259 47.3196C45.6707 45.8785 44.6678 43.8966 44.6678 41.7191C44.6678 39.5416 45.6707 37.5597 47.0259 36.1185C48.3873 34.6707 50.0673 33.806 51.3835 33.806C52.667 33.806 53.7036 34.6343 54.4319 36.0646C55.1607 37.4957 55.5568 39.4927 55.5568 41.7191Z" fill="#63C5CF" stroke="black" stroke-width="0.466504"/>
<path d="M69.6796 42.2652C69.4607 42.3388 69.2519 42.4219 69.0545 42.5107C69.1429 42.3125 69.2257 42.1029 69.2991 41.8831C69.5748 41.0564 69.7195 40.0755 69.5124 39.0166C69.4476 38.6851 69.349 38.3494 69.2114 38.0115C69.548 38.1496 69.8823 38.2486 70.2124 38.3137C71.267 38.5216 72.2439 38.3764 73.0672 38.0995C73.2862 38.0258 73.495 37.9426 73.6925 37.8538C73.604 38.0521 73.5212 38.2618 73.4478 38.4817C73.1721 39.3084 73.0275 40.2894 73.2346 41.3483C73.2994 41.6797 73.398 42.0154 73.5355 42.3532C73.1989 42.2151 72.8645 42.116 72.5344 42.0509C71.4798 41.843 70.5029 41.9883 69.6796 42.2652Z" fill="white" stroke="black"/>
</svg>
