<svg width="38" height="38" viewBox="0 0 38 38" fill="none" xmlns="http://www.w3.org/2000/svg">
<mask id="path-1-inside-1_28_1436" fill="white">
<path d="M0.499997 -1.63918e-06C5.42457 -1.85444e-06 10.3009 0.969961 14.8506 2.85451C19.4003 4.73906 23.5343 7.50129 27.0165 10.9835C30.4987 14.4657 33.2609 18.5997 35.1455 23.1494C37.03 27.6991 38 32.5754 38 37.5L0.499998 37.5L0.499997 -1.63918e-06Z"/>
</mask>
<path d="M0.499997 -1.63918e-06C5.42457 -1.85444e-06 10.3009 0.969961 14.8506 2.85451C19.4003 4.73906 23.5343 7.50129 27.0165 10.9835C30.4987 14.4657 33.2609 18.5997 35.1455 23.1494C37.03 27.6991 38 32.5754 38 37.5L0.499998 37.5L0.499997 -1.63918e-06Z" fill="#E9DA56" stroke="black" stroke-width="2" mask="url(#path-1-inside-1_28_1436)"/>
</svg>
