<svg width="131" height="109" viewBox="0 0 131 109" fill="none" xmlns="http://www.w3.org/2000/svg">
<path d="M60.8173 65.6129C93.2424 75.6475 121.13 55.5201 128.339 38.8553L112.982 34.7404C108.7 45.2613 92.0237 63.0356 58.433 54.035C28.7428 46.0795 9.12004 67.4399 5.31476 80.2763L18.6242 83.8426C18.6242 83.8426 28.3922 55.5783 60.8173 65.6129Z" fill="#51DA7F" stroke="black"/>
<path d="M58.0351 54.7389C90.4601 64.7735 118.348 44.6461 125.557 27.9814L110.2 23.8665C105.917 34.3874 89.2415 52.1617 55.6508 43.1611C25.9605 35.2056 6.33781 56.5659 2.53253 69.4024L15.842 72.9686C15.842 72.9686 25.61 44.7043 58.0351 54.7389Z" fill="black" stroke="black"/>
</svg>
