<svg width="138" height="138" viewBox="0 0 138 138" fill="none" xmlns="http://www.w3.org/2000/svg">
<path fill-rule="evenodd" clip-rule="evenodd" d="M66.7069 33.3716L43.3127 60.0888L43.3131 60.0877L27.7682 46.4757L64.7734 4.21423L107.049 41.2304L93.4366 56.7758L66.7069 33.3716ZM18.156 57.4511L4.54371 72.9992L20.0884 86.6086L33.7008 71.0626L18.156 57.4511ZM44.6786 80.679L71.3957 104.072L94.8005 77.3434L110.353 90.947L110.346 90.9553L73.3291 133.229L31.0676 96.2238L31.0456 96.2045L44.6786 80.679ZM118.014 50.8377L104.401 66.3837L119.947 79.9951L133.559 64.4492L118.014 50.8377Z" fill="#F3BA2F"/>
<path d="M43.3127 60.0888L42.3108 59.6682L44.1301 60.8045L43.3127 60.0888ZM66.7069 33.3716L67.4226 32.5541L66.6052 31.8384L65.8894 32.6558L66.7069 33.3716ZM43.3131 60.0877L44.315 60.5082L44.6181 59.7862L44.0289 59.2703L43.3131 60.0877ZM27.7682 46.4757L26.9508 45.7599L26.235 46.5774L27.0524 47.2932L27.7682 46.4757ZM64.7734 4.21423L65.4892 3.39677L64.6717 2.68101L63.956 3.49845L64.7734 4.21423ZM107.049 41.2304L107.866 41.9462L108.582 41.1287L107.764 40.413L107.049 41.2304ZM93.4366 56.7758L92.7209 57.5933L93.5383 58.309L94.2541 57.4916L93.4366 56.7758ZM4.54371 72.9992L3.72621 72.2834L3.01049 73.1009L3.82799 73.8167L4.54371 72.9992ZM18.156 57.4511L18.8718 56.6337L18.0543 55.9179L17.3385 56.7354L18.156 57.4511ZM20.0884 86.6086L19.3727 87.4261L20.1902 88.1417L20.9059 87.3243L20.0884 86.6086ZM33.7008 71.0626L34.5183 71.7784L35.2341 70.9609L34.4166 70.2451L33.7008 71.0626ZM71.3957 104.072L70.6799 104.889L71.4973 105.605L72.2131 104.787L71.3957 104.072ZM44.6786 80.679L45.3943 79.8615L44.578 79.1468L43.8621 79.962L44.6786 80.679ZM94.8005 77.3434L95.5159 76.5255L94.6985 75.8106L93.9831 76.6276L94.8005 77.3434ZM110.353 90.947L111.195 91.6346L111.859 90.821L111.069 90.1292L110.353 90.947ZM110.346 90.9553L111.164 91.6711L111.176 91.6571L111.188 91.6428L110.346 90.9553ZM73.3291 133.229L72.6134 134.046L73.4308 134.762L74.1466 133.945L73.3291 133.229ZM31.0676 96.2238L31.7834 95.4063L31.7833 95.4063L31.0676 96.2238ZM31.0456 96.2045L30.2292 95.4876L29.5112 96.3053L30.3299 97.022L31.0456 96.2045ZM104.401 66.3837L103.584 65.6679L102.868 66.4853L103.686 67.2011L104.401 66.3837ZM118.014 50.8377L118.73 50.0202L117.912 49.3045L117.196 50.1219L118.014 50.8377ZM119.947 79.9951L119.231 80.8125L120.049 81.5283L120.764 80.7108L119.947 79.9951ZM133.559 64.4492L134.376 65.1649L135.092 64.3475L134.275 63.6317L133.559 64.4492ZM44.1301 60.8045L67.5243 34.0873L65.8894 32.6558L42.4952 59.373L44.1301 60.8045ZM42.3113 59.6671L42.3108 59.6682L44.3145 60.5093L44.315 60.5082L42.3113 59.6671ZM27.0524 47.2932L42.5973 60.9051L44.0289 59.2703L28.484 45.6583L27.0524 47.2932ZM63.956 3.49845L26.9508 45.7599L28.5857 47.1915L65.5909 4.93001L63.956 3.49845ZM107.764 40.413L65.4892 3.39677L64.0576 5.03169L106.333 42.0479L107.764 40.413ZM94.2541 57.4916L107.866 41.9462L106.231 40.5146L92.6192 56.0601L94.2541 57.4916ZM65.9911 34.189L92.7209 57.5933L94.1524 55.9584L67.4226 32.5541L65.9911 34.189ZM5.36121 73.7149L18.9735 58.1669L17.3385 56.7354L3.72621 72.2834L5.36121 73.7149ZM20.8042 85.7911L5.25943 72.1817L3.82799 73.8167L19.3727 87.4261L20.8042 85.7911ZM32.8834 70.3468L19.271 85.8928L20.9059 87.3243L34.5183 71.7784L32.8834 70.3468ZM17.4402 58.2686L32.9851 71.88L34.4166 70.2451L18.8718 56.6337L17.4402 58.2686ZM72.1114 103.254L45.3943 79.8615L43.9628 81.4964L70.6799 104.889L72.1114 103.254ZM93.9831 76.6276L70.5782 103.356L72.2131 104.787L95.618 78.0592L93.9831 76.6276ZM111.069 90.1292L95.5159 76.5255L94.0852 78.1612L109.638 91.7649L111.069 90.1292ZM111.188 91.6428L111.195 91.6346L109.512 90.2595L109.505 90.2677L111.188 91.6428ZM74.1466 133.945L111.164 91.6711L109.529 90.2395L72.5117 132.513L74.1466 133.945ZM30.3518 97.0412L72.6134 134.046L74.0449 132.412L31.7834 95.4063L30.3518 97.0412ZM30.3299 97.022L30.3519 97.0413L31.7833 95.4063L31.7613 95.387L30.3299 97.022ZM43.8621 79.962L30.2292 95.4876L31.8621 96.9214L45.495 81.3959L43.8621 79.962ZM105.219 67.0994L118.831 51.5535L117.196 50.1219L103.584 65.6679L105.219 67.0994ZM120.663 79.1776L105.117 65.5662L103.686 67.2011L119.231 80.8125L120.663 79.1776ZM132.741 63.7334L119.129 79.2793L120.764 80.7108L134.376 65.1649L132.741 63.7334ZM117.298 51.6551L132.843 65.2666L134.275 63.6317L118.73 50.0202L117.298 51.6551Z" fill="black"/>
<path d="M83.837 67.7335L83.8432 67.7331L68.0699 53.9206L57.861 65.5763L56.6882 66.9162L54.2694 69.6791L54.2501 69.7006L54.2722 69.7204L70.0329 83.5228L83.8452 67.7485L83.8519 67.7397L83.838 67.7334" fill="#F3BA2F"/>
<path d="M83.837 67.7335L83.8432 67.7331L68.0699 53.9206L57.861 65.5763L56.6882 66.9162L54.2694 69.6791L54.2501 69.7006L54.2722 69.7204L70.0329 83.5228L83.8452 67.7485L83.8519 67.7397L83.838 67.7334" stroke="black" stroke-width="2.17308"/>
</svg>
