<svg width="442" height="216" viewBox="0 0 442 216" fill="none" xmlns="http://www.w3.org/2000/svg">
<line x1="97.9333" y1="45.5499" x2="43.8873" y2="51.7559" stroke="white" stroke-width="3.84756"/>
<circle cx="24.6066" cy="54.7838" r="20.0073" transform="rotate(33.246 24.6066 54.7838)" fill="#DD8157" stroke="white" stroke-width="5.38658"/>
<path d="M109.243 56.474L109.058 54.7803C108.926 53.5686 109.038 52.4277 109.395 51.3577C109.752 50.2877 110.282 49.2685 110.985 48.3001C111.687 47.3318 112.477 46.3957 113.353 45.4919C114.255 44.5576 115.161 43.6646 116.071 42.8129C117.11 41.8636 118.083 40.9493 118.99 40.07C119.898 39.1908 120.608 38.2913 121.12 37.3715C121.661 36.4487 121.874 35.464 121.759 34.4175C121.699 33.8668 121.505 33.3585 121.175 32.8929C120.87 32.3967 120.411 32.0149 119.796 31.7475C119.209 31.4771 118.448 31.393 117.511 31.4951C116.575 31.5973 115.81 31.8619 115.215 32.289C114.618 32.6885 114.187 33.2093 113.923 33.8512C113.658 34.4931 113.571 35.2271 113.661 36.0533L113.797 37.2926L107.518 37.9775C107.472 37.8153 107.425 37.6393 107.377 37.4495C107.353 37.2292 107.325 36.9813 107.295 36.7059C107.079 34.7231 107.352 33.0074 108.113 31.5589C108.875 30.1103 110.044 28.9517 111.622 28.083C113.223 27.1837 115.181 26.6079 117.494 26.3556C119.257 26.1633 120.797 26.2322 122.115 26.5622C123.46 26.8891 124.59 27.4069 125.503 28.1154C126.416 28.8239 127.121 29.6666 127.618 30.6435C128.139 31.5898 128.458 32.6 128.575 33.674C128.717 34.9684 128.61 36.1643 128.256 37.2619C127.902 38.3594 127.363 39.4214 126.639 40.4479C125.912 41.4468 125.044 42.4332 124.036 43.407C123.024 44.3534 121.932 45.3225 120.758 46.3144C120.173 46.8241 119.64 47.3003 119.158 47.7429C118.702 48.155 118.337 48.5152 118.064 48.8237C117.791 49.1321 117.598 49.404 117.484 49.6393L130.414 48.2289L131.054 54.0947L109.243 56.474ZM145.979 52.9683C143.996 53.1845 142.271 53.0801 140.803 52.655C139.333 52.2024 138.092 51.432 137.082 50.344C136.068 49.2284 135.254 47.7706 134.64 45.9705C134.026 44.1705 133.58 42.0036 133.304 39.47C133.031 36.964 133 34.7659 133.212 32.8757C133.423 30.9855 133.905 29.4003 134.658 28.12C135.407 26.8121 136.452 25.7924 137.793 25.0609C139.132 24.3018 140.792 23.8142 142.775 23.5979C144.758 23.3816 146.471 23.5013 147.914 23.9569C149.381 24.382 150.622 25.1524 151.635 26.268C152.646 27.356 153.458 28.8001 154.073 30.6001C154.687 32.4002 155.131 34.5532 155.404 37.0593C155.68 39.5929 155.713 41.8048 155.501 43.6949C155.289 45.5851 154.809 47.1841 154.06 48.492C153.308 49.7723 152.262 50.792 150.924 51.551C149.61 52.2796 147.962 52.752 145.979 52.9683ZM145.443 48.0525C146.544 47.9324 147.366 47.5501 147.909 46.9057C148.476 46.2307 148.806 45.2891 148.897 44.0809C149.012 42.8422 148.97 41.3002 148.768 39.4551L148.417 36.2331C148.213 34.3604 147.921 32.8317 147.54 31.6471C147.188 30.4594 146.664 29.6109 145.967 29.1017C145.298 28.5895 144.413 28.3934 143.311 28.5136C142.21 28.6337 141.374 29.0175 140.803 29.665C140.261 30.3094 139.931 31.2509 139.816 32.4897C139.697 33.7009 139.74 35.2428 139.944 37.1155L140.291 40.2963C140.495 42.1689 140.788 43.6976 141.168 44.8823C141.548 46.0669 142.074 46.9292 142.746 47.4689C143.442 47.9782 144.341 48.1727 145.443 48.0525ZM160.878 50.8414L160.694 49.1477C160.562 47.936 160.674 46.7951 161.031 45.7251C161.388 44.6551 161.918 43.6359 162.62 42.6675C163.323 41.6992 164.112 40.7631 164.989 39.8593C165.89 38.925 166.796 38.032 167.707 37.1803C168.746 36.231 169.719 35.3167 170.626 34.4374C171.533 33.5582 172.243 32.6587 172.756 31.7389C173.296 30.8161 173.509 29.8314 173.395 28.7849C173.335 28.2342 173.14 27.7259 172.811 27.2603C172.506 26.7641 172.046 26.3823 171.432 26.1149C170.845 25.8445 170.083 25.7604 169.147 25.8625C168.211 25.9647 167.445 26.2293 166.851 26.6564C166.254 27.0559 165.823 27.5767 165.559 28.2186C165.294 28.8605 165.207 29.5945 165.297 30.4207L165.432 31.66L159.153 32.3449C159.108 32.1827 159.061 32.0067 159.012 31.8169C158.988 31.5966 158.961 31.3487 158.931 31.0733C158.715 29.0905 158.987 27.3748 159.749 25.9263C160.511 24.4777 161.68 23.3191 163.257 22.4504C164.859 21.5511 166.817 20.9753 169.13 20.723C170.892 20.5307 172.433 20.5996 173.75 20.9296C175.096 21.2565 176.225 21.7743 177.138 22.4828C178.052 23.1913 178.757 24.034 179.253 25.0109C179.775 25.9572 180.094 26.9674 180.211 28.0414C180.352 29.3358 180.246 30.5317 179.892 31.6293C179.538 32.7268 178.999 33.7888 178.275 34.8153C177.548 35.8142 176.68 36.8006 175.672 37.7745C174.66 38.7208 173.568 39.6899 172.394 40.6818C171.809 41.1915 171.275 41.6677 170.794 42.1103C170.337 42.5224 169.973 42.8826 169.7 43.1911C169.427 43.4995 169.234 43.7714 169.12 44.0067L182.05 42.5963L182.689 48.4621L160.878 50.8414ZM198.965 46.6868L198.307 40.6557L185.088 42.0976L184.516 36.8515C185.339 35.2011 186.118 33.4023 186.853 31.4551C187.613 29.4773 188.304 27.3816 188.926 25.1679C189.549 22.9543 190.028 20.7006 190.363 18.4069L197.178 17.6634C197.084 18.844 196.849 20.1376 196.473 21.5441C196.094 22.9231 195.622 24.3401 195.056 25.7951C194.515 27.2196 193.914 28.6088 193.253 29.9628C192.617 31.2861 191.985 32.5116 191.355 33.6392C190.75 34.7363 190.18 35.6345 189.643 36.334L197.739 35.4508L197.032 28.9654C197.281 28.4366 197.534 27.8238 197.793 27.1268C198.079 26.4268 198.348 25.7008 198.6 24.9487C198.88 24.1936 199.108 23.4721 199.284 22.7841C199.484 22.0656 199.635 21.4082 199.737 20.8118L202.753 20.4829L204.307 34.7344L208.066 34.3243L208.634 39.5292L204.875 39.9392L205.533 45.9703L198.965 46.6868ZM240.551 47.6262L235.457 43.0822C235.295 43.1278 235.118 43.1611 234.925 43.1821C234.735 43.2307 234.558 43.264 234.392 43.282C231.446 43.6034 228.852 43.329 226.611 42.4588C224.371 41.5885 222.567 40.1272 221.201 38.0748C219.831 35.9948 218.972 33.3576 218.624 30.1631C218.266 26.8859 218.563 24.1087 219.513 21.8315C220.459 19.5267 221.976 17.7172 224.062 16.4028C226.172 15.058 228.783 14.2158 231.895 13.8763C235.007 13.5369 237.725 13.7978 240.048 14.659C242.396 15.4897 244.281 16.9282 245.702 18.9746C247.121 20.9935 248.009 23.6415 248.366 26.9187C248.733 30.2784 248.403 33.129 247.376 35.4703C246.374 37.7811 244.79 39.6119 242.625 40.9628L249.722 46.6259L240.551 47.6262ZM234.468 37.4635C235.653 37.3343 236.679 37.0412 237.549 36.584C238.419 36.1269 239.119 35.521 239.65 34.7665C240.208 34.0089 240.585 33.1179 240.78 32.0935C240.974 31.069 241.004 29.9371 240.869 28.6979L240.671 26.8803C240.533 25.6135 240.258 24.5009 239.847 23.5426C239.436 22.5842 238.876 21.7953 238.167 21.176C237.486 20.5536 236.672 20.1129 235.724 19.8541C234.776 19.5952 233.71 19.5303 232.526 19.6595C231.315 19.7917 230.274 20.0864 229.404 20.5435C228.534 21.0006 227.834 21.6065 227.303 22.3611C226.773 23.1156 226.41 24.0051 226.215 25.0296C226.02 26.054 225.992 27.1997 226.13 28.4665L226.328 30.284C226.464 31.5233 226.737 32.6221 227.148 33.5805C227.559 34.5388 228.105 35.3292 228.786 35.9516C229.467 36.574 230.281 37.0146 231.229 37.2735C232.177 37.5323 233.257 37.5957 234.468 37.4635ZM255.971 40.4684L255.39 35.1396L262.164 34.4006L260.51 19.2403L253.694 19.9838L253.257 15.9769C254.35 15.7741 255.522 15.4094 256.775 14.8826C258.054 14.3529 259.298 13.7435 260.504 13.0546C261.736 12.335 262.826 11.603 263.776 10.8585L266.42 10.5701L268.939 33.6616L275.342 32.9631L275.923 38.2919L255.971 40.4684Z" fill="white"/>
<path d="M79.8649 108.95C79.2807 109.017 78.7225 108.942 78.1903 108.726C77.6566 108.497 77.2127 108.156 76.8584 107.701C76.5041 107.247 76.2926 106.722 76.224 106.126C76.1609 105.577 76.2383 105.043 76.4562 104.523C76.686 104.001 77.0282 103.563 77.4826 103.209C77.9476 102.841 78.4961 102.621 79.1279 102.548C79.712 102.481 80.265 102.562 80.7867 102.792C81.307 103.01 81.7436 103.34 82.0966 103.783C82.4614 104.224 82.6795 104.754 82.7509 105.374C82.8181 105.958 82.7309 106.512 82.4891 107.035C82.2593 107.557 81.9105 107.99 81.4427 108.333C80.9869 108.676 80.4609 108.881 79.8649 108.95ZM94.9374 108.827L93.4861 96.2205L95.3459 96.0064L96.6139 107.022L102.801 106.309L102.984 107.901L94.9374 108.827ZM108.113 107.474C107.314 107.566 106.595 107.461 105.957 107.16C105.318 106.859 104.791 106.376 104.377 105.711C103.974 105.045 103.717 104.229 103.606 103.263C103.493 102.286 103.558 101.433 103.8 100.704C104.054 99.9745 104.458 99.3905 105.012 98.9523C105.564 98.5022 106.239 98.2312 107.038 98.1393C107.825 98.0487 108.533 98.1665 109.162 98.4926C109.792 98.8188 110.241 99.3106 110.51 99.9682L110.313 99.9908L110.258 97.9317L112.01 97.73C112.017 98.1037 112.023 98.4773 112.03 98.851C112.048 99.2114 112.076 99.5644 112.116 99.9102L112.904 106.759L111.098 106.967L110.868 104.964L111.064 104.941C110.951 105.631 110.618 106.207 110.067 106.669C109.527 107.118 108.876 107.386 108.113 107.474ZM108.397 106.009C109.172 105.92 109.76 105.575 110.162 104.973C110.576 104.37 110.721 103.531 110.597 102.459C110.474 101.386 110.143 100.608 109.604 100.127C109.076 99.632 108.425 99.4291 107.65 99.5183C106.863 99.6089 106.263 99.9558 105.849 100.559C105.446 101.149 105.306 101.981 105.43 103.053C105.553 104.126 105.879 104.91 106.407 105.405C106.935 105.9 107.598 106.101 108.397 106.009ZM118.759 106.248C117.674 106.373 116.824 106.175 116.208 105.654C115.603 105.12 115.23 104.238 115.089 103.011L114.449 97.4493L116.255 97.2413L116.891 102.767C116.977 103.518 117.196 104.054 117.547 104.376C117.898 104.698 118.39 104.823 119.022 104.75C119.737 104.668 120.288 104.363 120.674 103.835C121.06 103.308 121.208 102.65 121.117 101.864L120.528 96.7493L122.334 96.5414L123.372 105.554L121.62 105.756L121.397 103.824L121.63 103.798C121.456 104.494 121.117 105.059 120.611 105.491C120.104 105.912 119.486 106.164 118.759 106.248ZM126.017 105.249L125.229 98.4006C125.189 98.0549 125.131 97.7053 125.054 97.3518C124.987 96.9849 124.915 96.6188 124.837 96.2534L126.589 96.0516L126.968 97.9286L126.754 97.9533C126.951 97.2541 127.316 96.6988 127.848 96.2872C128.38 95.8637 129.021 95.6087 129.772 95.5222C130.833 95.4001 131.665 95.6002 132.269 96.1226C132.884 96.6436 133.263 97.5181 133.404 98.7459L134.046 104.325L132.24 104.533L131.61 99.0612C131.518 98.2624 131.292 97.7087 130.93 97.4001C130.579 97.0781 130.081 96.9542 129.438 97.0283C128.675 97.1161 128.094 97.4245 127.696 97.9535C127.297 98.4706 127.143 99.1285 127.235 99.9272L127.823 105.041L126.017 105.249ZM140.588 103.735C139.682 103.839 138.868 103.746 138.146 103.455C137.434 103.15 136.853 102.667 136.403 102.006C135.963 101.332 135.686 100.506 135.574 99.529C135.463 98.5633 135.552 97.7135 135.842 96.9796C136.132 96.2456 136.59 95.6613 137.217 95.2269C137.842 94.7804 138.607 94.5051 139.513 94.4008C140.097 94.3335 140.675 94.3697 141.247 94.5092C141.817 94.6368 142.302 94.8589 142.701 95.1753L142.257 96.5129C141.886 96.2294 141.483 96.0342 141.048 95.9273C140.611 95.8084 140.196 95.7716 139.803 95.8169C138.945 95.9157 138.303 96.2675 137.877 96.8721C137.451 97.4768 137.298 98.2977 137.418 99.3348C137.538 100.384 137.875 101.16 138.429 101.664C138.982 102.168 139.688 102.371 140.546 102.272C140.928 102.228 141.319 102.111 141.72 101.92C142.119 101.717 142.472 101.428 142.78 101.055L143.516 102.257C143.187 102.657 142.755 102.99 142.218 103.258C141.691 103.511 141.148 103.671 140.588 103.735ZM145.541 103.002L144.026 89.8408L145.832 89.6329L146.53 95.6949L146.279 95.7237C146.463 95.014 146.828 94.4526 147.372 94.0397C147.915 93.6148 148.568 93.3584 149.331 93.2706C150.404 93.1471 151.237 93.3532 151.83 93.8889C152.422 94.4126 152.786 95.2706 152.923 96.4627L153.57 102.078L151.764 102.286L151.13 96.7779C151.04 96.003 150.821 95.4605 150.471 95.1505C150.132 94.8272 149.635 94.7033 148.979 94.7787C148.216 94.8666 147.629 95.1757 147.219 95.706C146.82 96.2231 146.665 96.8691 146.754 97.644L147.347 102.794L145.541 103.002ZM156.141 101.782L155.103 92.7692L156.909 92.5612L157.947 101.574L156.141 101.782ZM154.744 90.908L154.528 89.0304L156.62 88.7896L156.836 90.6672L154.744 90.908ZM160.594 101.269L159.805 94.4202C159.766 94.0745 159.707 93.7249 159.63 93.3714C159.564 93.0046 159.491 92.6384 159.413 92.273L161.166 92.0713L161.545 93.9482L161.33 93.9729C161.528 93.2738 161.892 92.7184 162.425 92.3068C162.956 91.8833 163.597 91.6283 164.348 91.5419C165.409 91.4197 166.241 91.6198 166.845 92.1422C167.461 92.6632 167.839 93.5377 167.98 94.7656L168.623 100.345L166.817 100.553L166.187 95.0808C166.095 94.2821 165.868 93.7284 165.506 93.4197C165.155 93.0977 164.658 92.9738 164.014 93.0479C163.251 93.1358 162.67 93.4442 162.272 93.9732C161.873 94.4903 161.719 95.1482 161.811 95.9469L162.4 101.061L160.594 101.269ZM175.714 103.587C174.903 103.68 174.153 103.67 173.464 103.556C172.786 103.441 172.163 103.223 171.595 102.902L171.889 101.527C172.288 101.735 172.674 101.89 173.048 101.991C173.423 102.105 173.812 102.175 174.214 102.202C174.615 102.228 175.025 102.217 175.442 102.169C176.3 102.07 176.919 101.775 177.297 101.285C177.689 100.805 177.837 100.154 177.743 99.3311L177.465 96.9171L177.643 96.8965C177.53 97.586 177.197 98.1618 176.646 98.6238C176.106 99.0725 175.449 99.3415 174.674 99.4307C173.851 99.5254 173.115 99.4289 172.466 99.1413C171.828 98.8403 171.303 98.3753 170.892 97.7461C170.492 97.1037 170.239 96.3235 170.134 95.4055C170.028 94.4876 170.098 93.6763 170.343 92.9717C170.6 92.2656 171.006 91.6995 171.56 91.2732C172.126 90.8337 172.82 90.5666 173.642 90.4719C174.429 90.3813 175.131 90.4998 175.749 90.8273C176.377 91.1415 176.825 91.6215 177.092 92.2671L176.915 92.1426L176.862 90.2643L178.614 90.0626C178.609 90.4377 178.616 90.8113 178.635 91.1836C178.652 91.544 178.681 91.8971 178.72 92.2428L179.488 98.9127C179.645 100.272 179.4 101.351 178.756 102.15C178.123 102.947 177.109 103.426 175.714 103.587ZM174.94 97.9686C175.727 97.8781 176.322 97.5378 176.725 96.9478C177.14 96.3565 177.292 95.572 177.179 94.5945C177.067 93.6169 176.742 92.8933 176.205 92.4237C175.679 91.9527 175.023 91.7625 174.236 91.853C173.426 91.9464 172.812 92.2827 172.396 92.8622C171.991 93.4402 171.845 94.218 171.958 95.1956C172.07 96.1731 172.39 96.9033 172.916 97.3863C173.455 97.8678 174.13 98.062 174.94 97.9686ZM190.434 97.997C189.456 98.1095 188.687 97.9323 188.126 97.4654C187.563 96.9866 187.221 96.2167 187.099 95.1557L186.57 90.5601L184.817 90.7618L184.657 89.367L186.409 89.1653L186.135 86.787L187.886 86.0963L188.215 88.9574L190.719 88.6692L190.879 90.064L188.376 90.3522L188.886 94.7869C188.963 95.4545 189.137 95.9176 189.409 96.1763C189.68 96.4349 190.042 96.5382 190.495 96.486C190.722 96.4599 190.916 96.4194 191.079 96.3644C191.252 96.2962 191.407 96.224 191.543 96.1479L191.712 97.6142C191.542 97.7064 191.339 97.784 191.105 97.8472C190.872 97.9224 190.648 97.9723 190.434 97.997ZM193.406 97.4917L191.891 84.3306L193.697 84.1227L194.395 90.1847L194.145 90.2135C194.329 89.5038 194.693 88.9424 195.237 88.5295C195.78 88.1046 196.433 87.8482 197.196 87.7604C198.269 87.6369 199.102 87.843 199.695 88.3787C200.287 88.9024 200.652 89.7604 200.789 90.9525L201.435 96.5674L199.629 96.7753L198.995 91.2677C198.906 90.4928 198.687 89.9504 198.337 89.6403C197.998 89.317 197.5 89.1931 196.844 89.2685C196.082 89.3564 195.495 89.6655 195.085 90.1958C194.685 90.7129 194.53 91.3589 194.62 92.1338L195.212 97.2838L193.406 97.4917ZM208.191 95.9527C206.737 96.1202 205.545 95.8406 204.616 95.1141C203.687 94.3876 203.138 93.2972 202.971 91.8428C202.863 90.901 202.947 90.0579 203.223 89.3133C203.512 88.5674 203.956 87.9667 204.556 87.5111C205.166 87.0422 205.901 86.7584 206.759 86.6596C207.605 86.5621 208.335 86.6593 208.949 86.9511C209.562 87.2428 210.056 87.6994 210.429 88.3207C210.801 88.9302 211.038 89.676 211.14 90.5582L211.206 91.1304L204.41 91.9126L204.291 90.8755L209.852 90.2353L209.575 90.5027C209.472 89.6086 209.19 88.9405 208.728 88.4984C208.277 88.043 207.676 87.8585 206.925 87.945C206.091 88.0411 205.481 88.4072 205.095 89.0435C204.708 89.6679 204.572 90.4867 204.689 91.5001L204.71 91.6789C204.832 92.7399 205.18 93.5091 205.754 93.9865C206.341 94.4626 207.111 94.6457 208.064 94.536C208.589 94.4756 209.069 94.3478 209.506 94.1526C209.953 93.9441 210.365 93.643 210.743 93.2492L211.475 94.4151C211.1 94.8327 210.627 95.1772 210.054 95.4484C209.48 95.7078 208.859 95.8759 208.191 95.9527ZM218.696 94.5804L217.245 81.9736L222.502 81.3684C223.861 81.212 224.937 81.378 225.73 81.8665C226.535 82.3536 226.998 83.1158 227.117 84.1529C227.206 84.9278 227.048 85.6043 226.644 86.1823C226.239 86.7604 225.642 87.1855 224.852 87.4576L224.821 87.1894C225.765 87.2016 226.524 87.4464 227.098 87.9238C227.672 88.4013 228.01 89.0811 228.112 89.9633C228.241 91.0839 227.959 91.9921 227.266 92.6879C226.584 93.3704 225.557 93.7906 224.186 93.9484L218.696 94.5804ZM220.336 92.924L223.823 92.5226C224.669 92.4252 225.312 92.1881 225.752 91.8113C226.204 91.4332 226.386 90.8626 226.298 90.0996C226.21 89.3367 225.903 88.8224 225.377 88.5568C224.863 88.2898 224.183 88.205 223.337 88.3025L219.85 88.7039L220.336 92.924ZM219.685 87.2733L222.85 86.909C223.756 86.8047 224.416 86.5536 224.829 86.1557C225.242 85.7579 225.41 85.2251 225.334 84.5575C225.257 83.8899 224.972 83.4094 224.479 83.1158C223.986 82.8222 223.287 82.7276 222.381 82.8319L219.216 83.1963L219.685 87.2733ZM233.996 92.9821C232.911 93.107 232.061 92.909 231.445 92.3879C230.84 91.8536 230.467 90.9725 230.326 89.7446L229.686 84.1834L231.492 83.9755L232.128 89.501C232.214 90.252 232.433 90.7885 232.784 91.1105C233.135 91.4324 233.627 91.557 234.259 91.4843C234.974 91.402 235.525 91.097 235.911 90.5693C236.297 90.0417 236.445 89.3845 236.354 88.5977L235.765 83.4835L237.571 83.2756L238.609 92.288L236.857 92.4898L236.634 90.5585L236.867 90.5318C236.693 91.2282 236.354 91.7927 235.848 92.2254C235.34 92.6462 234.723 92.8984 233.996 92.9821ZM245.775 95.5218C244.964 95.6151 244.214 95.6048 243.524 95.4909C242.847 95.3757 242.224 95.1575 241.655 94.8364L241.95 93.4617C242.348 93.6695 242.735 93.8243 243.109 93.9262C243.484 94.04 243.873 94.11 244.274 94.1363C244.676 94.1625 245.085 94.1516 245.503 94.1036C246.361 94.0048 246.979 93.7101 247.358 93.2196C247.749 92.7397 247.898 92.0884 247.803 91.2658L247.525 88.8518L247.704 88.8312C247.59 89.5208 247.258 90.0965 246.707 90.5586C246.167 91.0073 245.509 91.2762 244.735 91.3655C243.912 91.4601 243.176 91.3637 242.527 91.076C241.888 90.7751 241.364 90.31 240.953 89.6809C240.553 89.0384 240.3 88.2582 240.194 87.3403C240.089 86.4223 240.158 85.611 240.403 84.9064C240.66 84.2004 241.066 83.6342 241.621 83.208C242.187 82.7684 242.881 82.5013 243.703 82.4066C244.49 82.316 245.192 82.4345 245.81 82.762C246.438 83.0763 246.886 83.5562 247.153 84.2019L246.976 84.0773L246.923 82.1991L248.675 81.9973C248.67 82.3724 248.677 82.7461 248.695 83.1184C248.713 83.4788 248.741 83.8318 248.781 84.1775L249.549 90.8475C249.705 92.2065 249.461 93.2855 248.816 94.0845C248.183 94.8821 247.169 95.3612 245.775 95.5218ZM245.001 89.9034C245.788 89.8128 246.383 89.4725 246.786 88.8825C247.201 88.2912 247.352 87.5067 247.24 86.5292C247.127 85.5517 246.802 84.8281 246.265 84.3584C245.74 83.8874 245.084 83.6972 244.297 83.7878C243.486 83.8811 242.873 84.2175 242.456 84.7969C242.052 85.3749 241.906 86.1527 242.018 87.1303C242.131 88.1078 242.451 88.8381 242.977 89.321C243.516 89.8026 244.19 89.9967 245.001 89.9034ZM257.132 90.1557L255.681 77.549L260.938 76.9438C262.297 76.7873 263.373 76.9534 264.166 77.4419C264.971 77.929 265.433 78.6911 265.553 79.7283C265.642 80.5032 265.484 81.1796 265.08 81.7577C264.675 82.3358 264.078 82.7609 263.288 83.033L263.257 82.7648C264.2 82.7769 264.959 83.0217 265.534 83.4992C266.108 83.9766 266.446 84.6564 266.548 85.5386C266.677 86.6592 266.395 87.5674 265.702 88.2632C265.019 88.9458 263.993 89.3659 262.622 89.5238L257.132 90.1557ZM258.771 88.4994L262.258 88.098C263.105 88.0005 263.748 87.7634 264.187 87.3867C264.639 87.0085 264.821 86.438 264.733 85.675C264.645 84.912 264.339 84.3978 263.813 84.1321C263.299 83.8652 262.619 83.7804 261.772 83.8778L258.285 84.2792L258.771 88.4994ZM258.121 82.8487L261.286 82.4843C262.192 82.38 262.851 82.129 263.265 81.7311C263.678 81.3332 263.846 80.8005 263.769 80.1329C263.692 79.4653 263.407 78.9847 262.915 78.6912C262.422 78.3976 261.722 78.303 260.816 78.4073L257.651 78.7716L258.121 82.8487ZM273.093 88.4813C272.199 88.5843 271.403 88.4887 270.705 88.1946C270.005 87.8886 269.437 87.4105 269 86.7602C268.561 86.098 268.286 85.2841 268.175 84.3185C268.064 83.3529 268.147 82.5038 268.425 81.7712C268.702 81.0266 269.147 80.4318 269.76 79.9868C270.372 79.5298 271.125 79.2499 272.019 79.147C272.913 79.0441 273.71 79.1456 274.409 79.4516C275.119 79.7443 275.694 80.2217 276.132 80.8839C276.582 81.5328 276.862 82.3401 276.973 83.3057C277.084 84.2713 276.995 85.1271 276.707 85.873C276.429 86.6056 275.978 87.2011 275.354 87.6594C274.741 88.1044 273.987 88.3784 273.093 88.4813ZM272.931 87.0687C273.718 86.9781 274.312 86.6318 274.714 86.0299C275.115 85.428 275.255 84.5906 275.131 83.5177C275.008 82.4448 274.682 81.6669 274.156 81.184C273.628 80.6891 272.97 80.487 272.183 80.5775C271.409 80.6667 270.82 81.0123 270.418 81.6142C270.015 82.2042 269.875 83.0356 269.999 84.1085C270.122 85.1814 270.442 85.966 270.958 86.4622C271.486 86.9571 272.144 87.1592 272.931 87.0687ZM282.822 87.3614C281.737 87.4863 280.887 87.2882 280.271 86.7672C279.666 86.2329 279.293 85.3518 279.152 84.1239L278.512 78.5626L280.318 78.3547L280.954 83.8802C281.04 84.6313 281.259 85.1677 281.61 85.4897C281.961 85.8117 282.453 85.9363 283.084 85.8635C283.8 85.7812 284.351 85.4762 284.737 84.9486C285.123 84.421 285.271 83.7637 285.18 82.9769L284.591 77.8627L286.397 77.6548L287.435 86.6673L285.683 86.869L285.46 84.9378L285.693 84.911C285.519 85.6074 285.18 86.172 284.674 86.6047C284.166 87.0254 283.549 87.2777 282.822 87.3614ZM290.08 86.3627L289.292 79.514C289.252 79.1683 289.194 78.8186 289.117 78.4651C289.05 78.0983 288.978 77.7322 288.9 77.3667L290.652 77.165L291.031 79.042L290.817 79.0667C291.014 78.3675 291.379 77.8121 291.911 77.4005C292.442 76.977 293.084 76.722 293.835 76.6356C294.896 76.5134 295.728 76.7136 296.332 77.236C296.947 77.757 297.326 78.6314 297.467 79.8593L298.109 85.4385L296.303 85.6464L295.673 80.1745C295.581 79.3758 295.355 78.8221 294.993 78.5134C294.642 78.1915 294.144 78.0676 293.501 78.1417C292.738 78.2295 292.157 78.5379 291.759 79.0669C291.36 79.584 291.206 80.2419 291.298 81.0406L291.886 86.1548L290.08 86.3627ZM304.204 84.9C303.226 85.0125 302.457 84.8353 301.896 84.3684C301.333 83.8896 300.991 83.1197 300.869 82.0587L300.34 77.4631L298.587 77.6648L298.427 76.27L300.179 76.0683L299.905 73.69L301.656 72.9993L301.985 75.8604L304.489 75.5722L304.649 76.967L302.146 77.2551L302.656 81.6899C302.733 82.3574 302.907 82.8206 303.179 83.0792C303.45 83.3379 303.812 83.4412 304.265 83.389C304.492 83.3629 304.686 83.3224 304.849 83.2674C305.023 83.1992 305.177 83.127 305.313 83.0509L305.482 84.5172C305.312 84.6093 305.109 84.687 304.875 84.7502C304.642 84.8253 304.418 84.8753 304.204 84.9ZM307.498 88.4707L306.9 87.0538C307.446 86.8701 307.895 86.6735 308.245 86.464C308.607 86.2532 308.898 85.9963 309.117 85.6933C309.337 85.4022 309.512 85.0378 309.643 84.5999L309.969 83.4934L310.017 84.2307L305.045 75.5081L306.976 75.2858L310.881 82.4462L310.398 82.5018L312.573 74.6415L314.433 74.4274L311.414 84.5591C311.22 85.1854 310.998 85.7183 310.747 86.158C310.495 86.5976 310.211 86.9625 309.894 87.2526C309.577 87.5428 309.218 87.7834 308.818 87.9745C308.417 88.1656 307.977 88.331 307.498 88.4707ZM321.814 82.7096L320.363 70.1029L325.709 69.4874C327.057 69.3323 328.125 69.5414 328.916 70.1148C329.718 70.6748 330.184 71.527 330.316 72.6715C330.448 73.8159 330.188 74.7578 329.536 75.4972C328.896 76.2352 327.903 76.6818 326.556 76.8368L323.069 77.2383L323.674 82.4955L321.814 82.7096ZM322.898 75.7541L326.188 75.3753C327.034 75.2779 327.65 75.0137 328.035 74.5828C328.421 74.1519 328.573 73.5848 328.492 72.8814C328.412 72.19 328.136 71.6783 327.663 71.3462C327.19 71.0141 326.53 70.8968 325.684 70.9942L322.393 71.373L322.898 75.7541ZM333.213 81.3974L332.432 74.6202C332.39 74.2506 332.335 73.8825 332.269 73.5156C332.213 73.1355 332.146 72.7628 332.068 72.3973L333.82 72.1956L334.285 74.4976L333.998 74.5305C334.053 73.9565 334.202 73.4682 334.446 73.0657C334.689 72.6632 335.004 72.3493 335.388 72.1238C335.785 71.8969 336.21 71.7574 336.663 71.7053C336.854 71.6833 337.016 71.6767 337.15 71.6855C337.282 71.6823 337.416 71.691 337.551 71.7117L337.719 73.3231C337.507 73.263 337.322 73.2359 337.166 73.2418C337.02 73.2345 336.84 73.2431 336.625 73.2678C336.101 73.3282 335.667 73.4989 335.325 73.7798C334.982 74.0489 334.737 74.3911 334.592 74.8065C334.446 75.2218 334.4 75.656 334.452 76.109L335.037 81.1875L333.213 81.3974ZM343.748 80.3477C342.854 80.4506 342.058 80.3551 341.359 80.061C340.66 79.755 340.091 79.2769 339.654 78.6266C339.216 77.9644 338.941 77.1505 338.829 76.1849C338.718 75.2193 338.802 74.3701 339.08 73.6375C339.356 72.893 339.801 72.2982 340.414 71.8532C341.026 71.3962 341.779 71.1163 342.673 71.0134C343.567 70.9104 344.364 71.012 345.064 71.318C345.774 71.6107 346.348 72.0881 346.787 72.7503C347.236 73.3992 347.516 74.2065 347.627 75.1721C347.739 76.1377 347.65 76.9935 347.361 77.7394C347.083 78.472 346.632 79.0674 346.009 79.5258C345.396 79.9708 344.642 80.2448 343.748 80.3477ZM343.585 78.935C344.372 78.8445 344.966 78.4982 345.368 77.8963C345.77 77.2944 345.909 76.457 345.786 75.3841C345.662 74.3112 345.337 73.5333 344.81 73.0503C344.282 72.5555 343.625 72.3533 342.838 72.4439C342.063 72.5331 341.475 72.8787 341.073 73.4806C340.67 74.0705 340.53 74.902 340.653 75.9749C340.777 77.0478 341.097 77.8324 341.613 78.3286C342.141 78.8235 342.798 79.0256 343.585 78.935ZM354.777 82.9736C353.967 83.0669 353.217 83.0566 352.527 82.9427C351.85 82.8274 351.227 82.6093 350.658 82.2882L350.953 80.9134C351.351 81.1213 351.737 81.2761 352.111 81.378C352.487 81.4918 352.876 81.5618 353.277 81.588C353.679 81.6143 354.088 81.6034 354.505 81.5554C355.364 81.4566 355.982 81.1619 356.361 80.6714C356.752 80.1915 356.901 79.5402 356.806 78.7176L356.528 76.3036L356.707 76.283C356.593 76.9725 356.261 77.5483 355.71 78.0104C355.17 78.4591 354.512 78.728 353.737 78.8172C352.915 78.9119 352.179 78.8155 351.53 78.5278C350.891 78.2269 350.366 77.7618 349.956 77.1327C349.556 76.4902 349.303 75.71 349.197 74.7921C349.092 73.8741 349.161 73.0628 349.406 72.3582C349.663 71.6522 350.069 71.086 350.624 70.6598C351.189 70.2202 351.883 69.9531 352.706 69.8584C353.493 69.7678 354.195 69.8863 354.812 70.2138C355.441 70.5281 355.888 71.008 356.156 71.6536L355.979 71.5291L355.925 69.6509L357.678 69.4491C357.673 69.8242 357.679 70.1979 357.698 70.5702C357.715 70.9305 357.744 71.2836 357.784 71.6293L358.552 78.2993C358.708 79.6583 358.464 80.7373 357.819 81.5363C357.186 82.3339 356.172 82.813 354.777 82.9736ZM354.004 77.3552C354.791 77.2646 355.386 76.9243 355.789 76.3343C356.204 75.743 356.355 74.9585 356.243 73.981C356.13 73.0035 355.805 72.2799 355.268 71.8102C354.743 71.3392 354.087 71.149 353.3 71.2396C352.489 71.3329 351.876 71.6693 351.459 72.2487C351.055 72.8267 350.909 73.6045 351.021 74.5821C351.134 75.5596 351.453 76.2899 351.98 76.7728C352.519 77.2544 353.193 77.4485 354.004 77.3552ZM361.171 78.179L360.39 71.4017C360.348 71.0322 360.293 70.664 360.227 70.2972C360.171 69.9171 360.104 69.5443 360.026 69.1788L361.778 68.9771L362.243 71.2791L361.956 71.312C362.011 70.738 362.16 70.2498 362.404 69.8473C362.647 69.4448 362.962 69.1308 363.346 68.9053C363.743 68.6785 364.168 68.539 364.621 68.4868C364.812 68.4648 364.974 68.4582 365.108 68.467C365.24 68.4638 365.374 68.4726 365.509 68.4932L365.677 70.1047C365.464 70.0445 365.28 70.0174 365.124 70.0234C364.978 70.016 364.798 70.0246 364.583 70.0493C364.059 70.1097 363.625 70.2804 363.283 70.5614C362.94 70.8304 362.695 71.1726 362.55 71.588C362.404 72.0033 362.358 72.4375 362.41 72.8905L362.995 77.969L361.171 78.179ZM371.329 77.1726C370.531 77.2645 369.812 77.16 369.173 76.8591C368.535 76.5581 368.008 76.0752 367.593 75.4103C367.19 74.744 366.933 73.928 366.822 72.9624C366.71 71.9848 366.775 71.1318 367.017 70.4033C367.271 69.6735 367.675 69.0895 368.229 68.6513C368.781 68.2012 369.456 67.9302 370.255 67.8382C371.042 67.7476 371.75 67.8654 372.379 68.1916C373.009 68.5177 373.458 69.0096 373.727 69.6672L373.53 69.6898L373.474 67.6307L375.227 67.4289C375.233 67.8026 375.24 68.1763 375.247 68.55C375.264 68.9104 375.293 69.2634 375.333 69.6091L376.121 76.4579L374.315 76.6658L374.084 74.663L374.281 74.6404C374.167 75.3299 373.835 75.9057 373.284 76.3677C372.744 76.8165 372.092 77.0847 371.329 77.1726ZM371.614 75.7084C372.389 75.6192 372.977 75.2737 373.379 74.6718C373.793 74.0685 373.938 73.2304 373.814 72.1575C373.691 71.0846 373.36 70.3074 372.821 69.8258C372.293 69.3309 371.641 69.1281 370.867 69.2173C370.08 69.3079 369.479 69.6548 369.066 70.2581C368.663 70.8481 368.523 71.6795 368.646 72.7524C368.77 73.8253 369.096 74.6092 369.624 75.1041C370.152 75.5989 370.815 75.8004 371.614 75.7084ZM378.756 76.1545L377.968 69.3057C377.928 68.96 377.87 68.6104 377.793 68.2569C377.727 67.8901 377.654 67.5239 377.576 67.1585L379.328 66.9568L379.707 68.8337L379.493 68.8584C379.668 68.1739 379.991 67.6234 380.462 67.2067C380.946 66.7887 381.551 66.5378 382.278 66.4541C383.017 66.369 383.64 66.4785 384.146 66.7827C384.663 67.0735 385.052 67.5722 385.315 68.2788L385.029 68.3117C385.192 67.6286 385.537 67.0634 386.066 66.616C386.592 66.1568 387.231 65.8839 387.983 65.7974C388.984 65.6822 389.769 65.8878 390.336 66.4143C390.904 66.9408 391.259 67.818 391.4 69.0459L392.043 74.625L390.237 74.8329L389.605 69.3432C389.514 68.5564 389.312 68.0059 388.998 67.6918C388.694 67.3643 388.245 67.2349 387.649 67.3035C386.957 67.3831 386.436 67.6847 386.086 68.2082C385.735 68.7317 385.607 69.3988 385.7 70.2094L386.285 75.2879L384.479 75.4958L383.847 70.006C383.756 69.2192 383.554 68.6688 383.24 68.3546C382.936 68.0272 382.487 67.8977 381.891 67.9664C381.199 68.046 380.684 68.3468 380.346 68.869C380.007 69.3911 379.885 70.0575 379.978 70.8681L380.563 75.9466L378.756 76.1545ZM83.4101 139.746C82.826 139.814 82.2678 139.739 81.7355 139.522C81.2019 139.294 80.7579 138.953 80.4036 138.498C80.0493 138.044 79.8379 137.518 79.7692 136.922C79.7061 136.374 79.7835 135.84 80.0014 135.319C80.2313 134.797 80.5734 134.359 81.0279 134.005C81.4929 133.638 82.0413 133.417 82.6731 133.345C83.2573 133.277 83.8102 133.359 84.3319 133.589C84.8523 133.807 85.2889 134.137 85.6418 134.579C86.0067 135.02 86.2248 135.551 86.2961 136.171C86.3634 136.755 86.2761 137.309 86.0344 137.832C85.8045 138.353 85.4557 138.786 84.988 139.13C84.5321 139.472 84.0062 139.678 83.4101 139.746ZM98.4826 139.624L97.0314 127.017L102.36 126.404C103.707 126.249 104.787 126.45 105.601 127.009C106.413 127.556 106.884 128.401 107.016 129.546C107.103 130.297 107.01 130.96 106.738 131.535C106.466 132.11 106.042 132.575 105.467 132.931C104.891 133.275 104.191 133.495 103.369 133.59L103.622 133.27L104.105 133.215C104.593 133.159 105.043 133.234 105.453 133.44C105.875 133.645 106.243 134.007 106.557 134.527L108.836 138.432L106.798 138.667L104.534 134.742C104.299 134.274 103.982 133.99 103.584 133.891C103.198 133.79 102.731 133.772 102.183 133.835L99.733 134.117L100.342 139.41L98.4826 139.624ZM99.5704 132.704L102.736 132.34C103.63 132.237 104.281 131.968 104.69 131.535C105.111 131.1 105.281 130.525 105.198 129.809C105.115 129.082 104.819 128.561 104.312 128.245C103.816 127.927 103.121 127.82 102.227 127.923L99.062 128.287L99.5704 132.704ZM114.766 137.912C113.311 138.08 112.119 137.8 111.19 137.074C110.261 136.347 109.713 135.257 109.545 133.803C109.437 132.861 109.521 132.018 109.798 131.273C110.086 130.527 110.531 129.926 111.13 129.471C111.741 129.002 112.475 128.718 113.333 128.619C114.18 128.522 114.91 128.619 115.523 128.911C116.137 129.203 116.63 129.659 117.003 130.28C117.376 130.89 117.612 131.636 117.714 132.518L117.78 133.09L110.985 133.872L110.865 132.835L116.427 132.195L116.149 132.462C116.046 131.568 115.764 130.9 115.303 130.458C114.852 130.003 114.251 129.818 113.5 129.905C112.665 130.001 112.055 130.367 111.669 131.003C111.282 131.628 111.147 132.446 111.263 133.46L111.284 133.639C111.406 134.7 111.754 135.469 112.329 135.946C112.915 136.422 113.685 136.605 114.639 136.496C115.163 136.435 115.644 136.308 116.08 136.112C116.527 135.904 116.94 135.603 117.317 135.209L118.049 136.375C117.675 136.792 117.201 137.137 116.628 137.408C116.054 137.668 115.433 137.836 114.766 137.912ZM120.342 137.107L118.827 123.946L120.633 123.738L122.148 136.9L120.342 137.107ZM128.98 136.276C127.526 136.444 126.334 136.164 125.405 135.437C124.476 134.711 123.927 133.621 123.76 132.166C123.652 131.224 123.736 130.381 124.012 129.637C124.301 128.891 124.745 128.29 125.345 127.834C125.955 127.366 126.69 127.082 127.548 126.983C128.395 126.885 129.124 126.983 129.738 127.274C130.351 127.566 130.845 128.023 131.218 128.644C131.59 129.254 131.827 129.999 131.929 130.882L131.995 131.454L125.199 132.236L125.08 131.199L130.641 130.559L130.364 130.826C130.261 129.932 129.979 129.264 129.517 128.822C129.066 128.366 128.465 128.182 127.714 128.268C126.88 128.364 126.27 128.731 125.884 129.367C125.497 129.991 125.361 130.81 125.478 131.823L125.499 132.002C125.621 133.063 125.969 133.832 126.543 134.31C127.13 134.786 127.9 134.969 128.853 134.859C129.378 134.799 129.859 134.671 130.295 134.476C130.742 134.267 131.154 133.966 131.532 133.573L132.264 134.738C131.889 135.156 131.416 135.501 130.843 135.772C130.269 136.031 129.648 136.199 128.98 136.276ZM138.027 135.235C137.228 135.327 136.509 135.222 135.871 134.921C135.232 134.62 134.705 134.137 134.291 133.472C133.888 132.806 133.631 131.99 133.52 131.025C133.407 130.047 133.472 129.194 133.714 128.465C133.969 127.736 134.372 127.152 134.926 126.713C135.478 126.263 136.153 125.992 136.952 125.9C137.739 125.81 138.447 125.928 139.077 126.254C139.706 126.58 140.155 127.072 140.424 127.729L140.227 127.752L140.172 125.693L141.924 125.491C141.931 125.865 141.938 126.238 141.944 126.612C141.962 126.972 141.99 127.326 142.03 127.671L142.818 134.52L141.012 134.728L140.782 132.725L140.979 132.703C140.865 133.392 140.532 133.968 139.982 134.43C139.441 134.879 138.79 135.147 138.027 135.235ZM138.311 133.771C139.086 133.681 139.674 133.336 140.076 132.734C140.49 132.131 140.635 131.293 140.512 130.22C140.388 129.147 140.057 128.369 139.518 127.888C138.99 127.393 138.339 127.19 137.564 127.279C136.777 127.37 136.177 127.717 135.763 128.32C135.36 128.91 135.22 129.742 135.344 130.815C135.467 131.887 135.793 132.671 136.321 133.166C136.849 133.661 137.512 133.863 138.311 133.771ZM148.566 134.021C147.815 134.108 147.112 134.092 146.459 133.974C145.805 133.856 145.249 133.648 144.792 133.351L145.205 132.053C145.684 132.336 146.202 132.53 146.757 132.635C147.313 132.74 147.871 132.761 148.431 132.696C149.087 132.621 149.569 132.45 149.877 132.186C150.183 131.909 150.313 131.568 150.266 131.162C150.23 130.852 150.094 130.614 149.858 130.448C149.633 130.281 149.277 130.177 148.789 130.136L147.033 129.994C146.251 129.915 145.64 129.696 145.2 129.336C144.76 128.976 144.503 128.48 144.431 127.848C144.369 127.311 144.457 126.818 144.695 126.368C144.945 125.916 145.325 125.54 145.834 125.24C146.355 124.939 146.979 124.746 147.706 124.662C148.374 124.586 149.004 124.61 149.599 124.734C150.193 124.859 150.701 125.079 151.124 125.392L150.69 126.656C150.284 126.389 149.84 126.198 149.355 126.085C148.87 125.96 148.389 125.925 147.912 125.979C147.244 126.056 146.764 126.238 146.471 126.526C146.178 126.813 146.055 127.16 146.101 127.565C146.137 127.875 146.262 128.12 146.476 128.301C146.701 128.468 147.034 128.581 147.475 128.639L149.231 128.781C150.061 128.855 150.7 129.059 151.15 129.394C151.599 129.728 151.861 130.218 151.935 130.861C151.999 131.422 151.9 131.928 151.638 132.381C151.377 132.834 150.984 133.2 150.46 133.477C149.936 133.755 149.305 133.936 148.566 134.021ZM158.545 132.873C157.09 133.04 155.899 132.761 154.969 132.034C154.04 131.308 153.492 130.217 153.325 128.763C153.216 127.821 153.3 126.978 153.577 126.233C153.866 125.487 154.31 124.887 154.91 124.431C155.52 123.962 156.254 123.678 157.113 123.58C157.959 123.482 158.689 123.579 159.302 123.871C159.916 124.163 160.409 124.619 160.783 125.241C161.155 125.85 161.392 126.596 161.493 127.478L161.559 128.05L154.764 128.833L154.645 127.795L160.206 127.155L159.929 127.423C159.826 126.529 159.543 125.86 159.082 125.418C158.631 124.963 158.03 124.778 157.279 124.865C156.444 124.961 155.834 125.327 155.448 125.963C155.061 126.588 154.926 127.407 155.043 128.42L155.063 128.599C155.185 129.66 155.534 130.429 156.108 130.906C156.694 131.383 157.464 131.566 158.418 131.456C158.943 131.396 159.423 131.268 159.86 131.073C160.307 130.864 160.719 130.563 161.096 130.169L161.829 131.335C161.454 131.753 160.98 132.097 160.407 132.368C159.833 132.628 159.212 132.796 158.545 132.873ZM172.77 131.235C171.876 131.338 171.08 131.242 170.381 130.948C169.682 130.642 169.113 130.164 168.676 129.514C168.238 128.852 167.963 128.038 167.852 127.072C167.74 126.107 167.824 125.258 168.102 124.525C168.379 123.78 168.823 123.186 169.437 122.741C170.048 122.284 170.801 122.004 171.695 121.901C172.589 121.798 173.386 121.899 174.086 122.205C174.796 122.498 175.37 122.976 175.809 123.638C176.258 124.287 176.538 125.094 176.649 126.059C176.761 127.025 176.672 127.881 176.383 128.627C176.105 129.359 175.654 129.955 175.031 130.413C174.418 130.858 173.664 131.132 172.77 131.235ZM172.607 129.822C173.394 129.732 173.988 129.386 174.39 128.784C174.792 128.182 174.931 127.344 174.808 126.272C174.684 125.199 174.359 124.421 173.832 123.938C173.304 123.443 172.647 123.241 171.86 123.331C171.085 123.421 170.497 123.766 170.095 124.368C169.692 124.958 169.552 125.789 169.675 126.862C169.799 127.935 170.119 128.72 170.635 129.216C171.163 129.711 171.82 129.913 172.607 129.822ZM179.728 130.271L178.851 122.653L177.099 122.855L176.938 121.46L179.192 121.201L178.744 121.723L178.58 120.293C178.458 119.232 178.633 118.396 179.106 117.786C179.578 117.164 180.333 116.793 181.37 116.674C181.621 116.645 181.885 116.633 182.163 116.637C182.441 116.641 182.675 116.675 182.863 116.738L183.032 118.204C182.882 118.161 182.698 118.134 182.479 118.123C182.271 118.098 182.06 118.099 181.845 118.123C181.499 118.163 181.209 118.269 180.976 118.441C180.74 118.601 180.567 118.826 180.456 119.117C180.356 119.406 180.331 119.765 180.38 120.194L180.52 121.41L180.211 121.084L182.929 120.771L183.089 122.165L180.658 122.445L181.534 130.063L179.728 130.271ZM193.769 128.818C192.792 128.93 192.022 128.753 191.461 128.286C190.899 127.807 190.557 127.037 190.434 125.976L189.905 121.381L188.153 121.583L187.992 120.188L189.745 119.986L189.471 117.608L191.222 116.917L191.551 119.778L194.054 119.49L194.215 120.885L191.711 121.173L192.222 125.608C192.299 126.275 192.473 126.738 192.744 126.997C193.016 127.256 193.378 127.359 193.831 127.307C194.057 127.281 194.252 127.24 194.415 127.185C194.588 127.117 194.743 127.045 194.879 126.969L195.048 128.435C194.877 128.527 194.675 128.605 194.441 128.668C194.208 128.743 193.984 128.793 193.769 128.818ZM196.742 128.312L195.227 115.151L197.033 114.943L197.731 121.005L197.481 121.034C197.665 120.325 198.029 119.763 198.573 119.35C199.116 118.925 199.769 118.669 200.532 118.581C201.605 118.458 202.438 118.664 203.031 119.199C203.623 119.723 203.987 120.581 204.125 121.773L204.771 127.388L202.965 127.596L202.331 122.088C202.242 121.314 202.022 120.771 201.672 120.461C201.333 120.138 200.836 120.014 200.18 120.089C199.417 120.177 198.831 120.486 198.421 121.017C198.021 121.534 197.866 122.18 197.955 122.955L198.548 128.105L196.742 128.312ZM211.527 126.773C210.073 126.941 208.881 126.661 207.952 125.935C207.022 125.208 206.474 124.118 206.307 122.664C206.198 121.722 206.282 120.879 206.559 120.134C206.848 119.388 207.292 118.787 207.892 118.332C208.502 117.863 209.236 117.579 210.095 117.48C210.941 117.383 211.671 117.48 212.284 117.772C212.898 118.064 213.391 118.52 213.765 119.141C214.137 119.751 214.374 120.497 214.475 121.379L214.541 121.951L207.746 122.733L207.627 121.696L213.188 121.056L212.911 121.323C212.808 120.429 212.526 119.761 212.064 119.319C211.613 118.864 211.012 118.679 210.261 118.766C209.426 118.862 208.816 119.228 208.43 119.864C208.043 120.489 207.908 121.307 208.025 122.321L208.045 122.5C208.167 123.561 208.516 124.33 209.09 124.807C209.676 125.283 210.446 125.466 211.4 125.357C211.925 125.296 212.405 125.169 212.842 124.973C213.289 124.765 213.701 124.464 214.079 124.07L214.811 125.236C214.436 125.653 213.962 125.998 213.389 126.269C212.815 126.529 212.195 126.697 211.527 126.773ZM220.727 125.551L224.89 112.298L226.482 112.115L233.637 124.065L231.724 124.285L229.756 120.888L230.601 121.298L222.965 122.177L223.748 121.58L222.604 125.335L220.727 125.551ZM225.894 114.248L223.915 120.981L223.438 120.619L229.786 119.888L229.476 120.341L225.965 114.24L225.894 114.248ZM235.143 123.892L234.105 114.879L235.911 114.671L236.949 123.684L235.143 123.892ZM233.746 113.018L233.53 111.141L235.622 110.9L235.838 112.777L233.746 113.018ZM239.56 123.383L238.78 116.606C238.737 116.236 238.683 115.868 238.616 115.501C238.561 115.121 238.493 114.749 238.415 114.383L240.168 114.181L240.632 116.483L240.346 116.516C240.401 115.942 240.55 115.454 240.793 115.052C241.037 114.649 241.351 114.335 241.736 114.11C242.132 113.883 242.557 113.743 243.01 113.691C243.201 113.669 243.363 113.663 243.497 113.671C243.63 113.668 243.763 113.677 243.899 113.698L244.066 115.309C243.854 115.249 243.67 115.222 243.513 115.228C243.367 115.22 243.187 115.229 242.973 115.254C242.448 115.314 242.015 115.485 241.673 115.766C241.329 116.035 241.085 116.377 240.939 116.792C240.794 117.208 240.747 117.642 240.799 118.095L241.384 123.173L239.56 123.383ZM249.684 122.381C248.897 122.471 248.178 122.367 247.528 122.067C246.889 121.766 246.363 121.284 245.948 120.619C245.545 119.952 245.288 119.136 245.177 118.171C245.064 117.193 245.129 116.34 245.371 115.612C245.626 114.882 246.029 114.298 246.583 113.86C247.147 113.408 247.823 113.137 248.609 113.047C249.384 112.957 250.086 113.076 250.716 113.402C251.356 113.715 251.81 114.194 252.077 114.84L251.863 114.864L251.154 108.713L252.96 108.505L254.476 121.666L252.687 121.872L252.453 119.834L252.667 119.809C252.543 120.512 252.211 121.093 251.672 121.554C251.133 122.015 250.471 122.29 249.684 122.381ZM249.968 120.917C250.743 120.828 251.337 120.481 251.751 119.878C252.165 119.275 252.31 118.437 252.187 117.364C252.063 116.291 251.732 115.514 251.193 115.032C250.653 114.539 249.996 114.336 249.221 114.426C248.434 114.516 247.834 114.863 247.42 115.466C247.017 116.056 246.877 116.888 247.001 117.961C247.124 119.034 247.45 119.818 247.978 120.312C248.518 120.806 249.181 121.007 249.968 120.917ZM257.075 121.367L256.295 114.59C256.252 114.22 256.198 113.852 256.132 113.485C256.076 113.105 256.009 112.732 255.93 112.367L257.683 112.165L258.147 114.467L257.861 114.5C257.916 113.926 258.065 113.438 258.308 113.035C258.552 112.633 258.866 112.319 259.251 112.093C259.648 111.866 260.072 111.727 260.525 111.675C260.716 111.653 260.878 111.646 261.012 111.655C261.145 111.652 261.279 111.661 261.414 111.681L261.581 113.293C261.369 113.233 261.185 113.205 261.028 113.211C260.883 113.204 260.702 113.213 260.488 113.237C259.963 113.298 259.53 113.468 259.188 113.749C258.844 114.018 258.6 114.361 258.454 114.776C258.309 115.191 258.262 115.626 258.314 116.079L258.899 121.157L257.075 121.367ZM267.61 120.317C266.716 120.42 265.92 120.325 265.222 120.031C264.522 119.725 263.954 119.246 263.517 118.596C263.078 117.934 262.803 117.12 262.692 116.154C262.581 115.189 262.664 114.34 262.942 113.607C263.219 112.863 263.664 112.268 264.277 111.823C264.889 111.366 265.642 111.086 266.536 110.983C267.43 110.88 268.227 110.982 268.926 111.288C269.636 111.58 270.211 112.058 270.649 112.72C271.099 113.369 271.379 114.176 271.49 115.142C271.601 116.107 271.512 116.963 271.224 117.709C270.946 118.442 270.495 119.037 269.871 119.495C269.258 119.94 268.504 120.214 267.61 120.317ZM267.448 118.905C268.235 118.814 268.829 118.468 269.231 117.866C269.632 117.264 269.772 116.427 269.648 115.354C269.525 114.281 269.199 113.503 268.673 113.02C268.145 112.525 267.487 112.323 266.7 112.413C265.926 112.503 265.337 112.848 264.935 113.45C264.532 114.04 264.392 114.872 264.516 115.944C264.639 117.017 264.959 117.802 265.475 118.298C266.003 118.793 266.661 118.995 267.448 118.905ZM274.564 123.267L273.331 112.556C273.291 112.21 273.233 111.861 273.156 111.507C273.09 111.14 273.017 110.774 272.939 110.409L274.692 110.207L275.105 112.225L274.908 112.248C275.021 111.546 275.341 110.966 275.868 110.507C276.406 110.046 277.075 109.77 277.874 109.678C278.673 109.586 279.392 109.696 280.032 110.009C280.671 110.31 281.191 110.788 281.592 111.442C282.005 112.095 282.268 112.91 282.381 113.888C282.492 114.853 282.421 115.707 282.168 116.449C281.928 117.189 281.53 117.779 280.977 118.217C280.423 118.655 279.747 118.92 278.948 119.012C278.162 119.103 277.454 118.991 276.826 118.677C276.209 118.349 275.766 117.862 275.498 117.217L275.695 117.194L276.37 123.059L274.564 123.267ZM278.339 117.651C279.126 117.56 279.72 117.214 280.122 116.612C280.535 116.009 280.68 115.171 280.557 114.098C280.433 113.025 280.102 112.248 279.564 111.766C279.036 111.271 278.378 111.069 277.592 111.16C276.805 111.25 276.204 111.597 275.791 112.2C275.388 112.79 275.248 113.622 275.371 114.695C275.495 115.768 275.821 116.552 276.349 117.046C276.889 117.54 277.552 117.741 278.339 117.651ZM289.945 117.583L288.493 104.976L296.576 104.046L296.747 105.53L290.524 106.246L290.989 110.288L296.801 109.619L296.972 111.103L291.16 111.772L291.804 117.369L289.945 117.583ZM303.783 116.153C302.329 116.321 301.137 116.041 300.208 115.315C299.278 114.588 298.73 113.498 298.563 112.043C298.454 111.101 298.538 110.258 298.815 109.514C299.104 108.768 299.548 108.167 300.148 107.711C300.758 107.243 301.492 106.959 302.351 106.86C303.197 106.763 303.927 106.86 304.54 107.151C305.154 107.443 305.647 107.9 306.021 108.521C306.393 109.131 306.63 109.876 306.731 110.759L306.797 111.331L300.002 112.113L299.883 111.076L305.444 110.436L305.167 110.703C305.064 109.809 304.782 109.141 304.32 108.699C303.869 108.243 303.268 108.059 302.517 108.145C301.682 108.241 301.072 108.608 300.686 109.244C300.299 109.868 300.164 110.687 300.281 111.7L300.301 111.879C300.423 112.94 300.772 113.709 301.346 114.187C301.932 114.663 302.702 114.846 303.656 114.736C304.181 114.676 304.661 114.548 305.098 114.353C305.545 114.144 305.957 113.843 306.334 113.45L307.067 114.616C306.692 115.033 306.218 115.378 305.645 115.649C305.071 115.908 304.45 116.076 303.783 116.153ZM312.829 115.112C312.031 115.204 311.312 115.099 310.673 114.798C310.035 114.497 309.508 114.014 309.093 113.349C308.69 112.683 308.433 111.867 308.322 110.902C308.21 109.924 308.275 109.071 308.517 108.343C308.771 107.613 309.175 107.029 309.728 106.59C310.281 106.14 310.956 105.869 311.755 105.777C312.542 105.687 313.25 105.805 313.879 106.131C314.509 106.457 314.958 106.949 315.227 107.606L315.03 107.629L314.974 105.57L316.727 105.368C316.733 105.742 316.74 106.115 316.747 106.489C316.764 106.85 316.793 107.203 316.833 107.548L317.621 114.397L315.815 114.605L315.584 112.602L315.781 112.58C315.667 113.269 315.335 113.845 314.784 114.307C314.244 114.756 313.592 115.024 312.829 115.112ZM313.114 113.648C313.889 113.558 314.477 113.213 314.879 112.611C315.292 112.008 315.438 111.17 315.314 110.097C315.191 109.024 314.86 108.247 314.321 107.765C313.793 107.27 313.141 107.067 312.367 107.156C311.58 107.247 310.979 107.594 310.566 108.197C310.163 108.787 310.023 109.619 310.146 110.692C310.27 111.764 310.596 112.548 311.124 113.043C311.652 113.538 312.315 113.74 313.114 113.648ZM323.78 113.851C322.802 113.964 322.033 113.786 321.472 113.32C320.909 112.841 320.567 112.071 320.445 111.01L319.916 106.414L318.163 106.616L318.003 105.221L319.755 105.019L319.482 102.641L321.232 101.95L321.561 104.812L324.065 104.523L324.225 105.918L321.722 106.206L322.232 110.641C322.309 111.309 322.483 111.772 322.755 112.03C323.026 112.289 323.388 112.392 323.841 112.34C324.068 112.314 324.263 112.274 324.425 112.219C324.599 112.15 324.753 112.078 324.89 112.002L325.058 113.468C324.888 113.561 324.685 113.638 324.451 113.701C324.218 113.777 323.994 113.826 323.78 113.851ZM329.972 113.138C328.887 113.263 328.037 113.065 327.421 112.544C326.816 112.01 326.443 111.129 326.302 109.901L325.661 104.34L327.467 104.132L328.104 109.657C328.19 110.408 328.409 110.945 328.76 111.267C329.111 111.589 329.603 111.713 330.234 111.64C330.95 111.558 331.5 111.253 331.887 110.726C332.273 110.198 332.421 109.541 332.33 108.754L331.741 103.64L333.547 103.432L334.585 112.444L332.832 112.646L332.61 110.715L332.843 110.688C332.669 111.384 332.329 111.949 331.824 112.382C331.316 112.802 330.699 113.055 329.972 113.138ZM337.194 112.144L336.414 105.367C336.372 104.997 336.317 104.629 336.251 104.262C336.195 103.882 336.128 103.509 336.05 103.144L337.802 102.942L338.266 105.244L337.98 105.277C338.035 104.703 338.184 104.215 338.428 103.812C338.671 103.41 338.985 103.096 339.37 102.87C339.767 102.643 340.192 102.504 340.645 102.452C340.835 102.43 340.998 102.423 341.132 102.432C341.264 102.429 341.398 102.437 341.533 102.458L341.701 104.069C341.488 104.009 341.304 103.982 341.148 103.988C341.002 103.981 340.822 103.989 340.607 104.014C340.083 104.075 339.649 104.245 339.307 104.526C338.964 104.795 338.719 105.137 338.574 105.553C338.428 105.968 338.382 106.402 338.434 106.855L339.018 111.934L337.194 112.144ZM348.034 111.059C346.579 111.227 345.387 110.947 344.458 110.22C343.529 109.494 342.981 108.404 342.813 106.949C342.705 106.007 342.789 105.164 343.066 104.42C343.354 103.674 343.799 103.073 344.398 102.617C345.009 102.149 345.743 101.865 346.601 101.766C347.448 101.668 348.178 101.766 348.791 102.057C349.405 102.349 349.898 102.806 350.271 103.427C350.644 104.037 350.88 104.782 350.982 105.664L351.048 106.237L344.253 107.019L344.133 105.982L349.695 105.342L349.417 105.609C349.314 104.715 349.032 104.047 348.571 103.605C348.12 103.149 347.519 102.965 346.768 103.051C345.933 103.147 345.323 103.514 344.937 104.15C344.55 104.774 344.415 105.593 344.531 106.606L344.552 106.785C344.674 107.846 345.022 108.615 345.597 109.093C346.183 109.569 346.953 109.752 347.907 109.642C348.431 109.582 348.912 109.454 349.348 109.259C349.795 109.05 350.208 108.749 350.585 108.356L351.317 109.521C350.943 109.939 350.469 110.283 349.896 110.555C349.322 110.814 348.701 110.982 348.034 111.059ZM87.0697 171.536C86.4856 171.604 85.9274 171.529 85.3951 171.313C84.8615 171.084 84.4175 170.743 84.0632 170.288C83.7089 169.834 83.4975 169.308 83.4289 168.712C83.3657 168.164 83.4431 167.63 83.661 167.109C83.8909 166.588 84.233 166.15 84.6875 165.795C85.1525 165.428 85.7009 165.207 86.3328 165.135C86.9169 165.067 87.4698 165.149 87.9915 165.379C88.5119 165.597 88.9485 165.927 89.3014 166.369C89.6663 166.811 89.8844 167.341 89.9557 167.961C90.023 168.545 89.9357 169.099 89.694 169.622C89.4641 170.143 89.1153 170.576 88.6476 170.92C88.1917 171.262 87.6658 171.468 87.0697 171.536ZM102.142 171.414L100.691 158.807L108.952 157.856L109.123 159.34L102.668 160.083L103.125 164.053L109.169 163.357L109.342 164.86L103.298 165.555L103.775 169.704L110.231 168.961L110.404 170.463L102.142 171.414ZM111.259 170.364L114.769 164.815L114.868 165.673L110.436 161.327L112.6 161.078L115.741 164.286L115.097 164.36L117.428 160.522L119.574 160.275L116.279 165.492L116.184 164.67L120.844 169.261L118.68 169.51L115.295 166.077L115.939 166.003L113.405 170.117L111.259 170.364ZM122.665 172.965L121.432 162.254C121.392 161.908 121.334 161.558 121.257 161.205C121.191 160.838 121.118 160.472 121.04 160.107L122.793 159.905L123.206 161.923L123.009 161.945C123.122 161.244 123.442 160.664 123.969 160.204C124.507 159.744 125.176 159.467 125.975 159.375C126.774 159.283 127.493 159.394 128.133 159.707C128.772 160.008 129.292 160.485 129.693 161.14C130.106 161.793 130.369 162.608 130.482 163.586C130.593 164.551 130.522 165.405 130.269 166.147C130.029 166.887 129.631 167.476 129.078 167.915C128.524 168.353 127.848 168.618 127.049 168.71C126.263 168.8 125.555 168.688 124.927 168.374C124.31 168.047 123.867 167.56 123.6 166.914L123.796 166.892L124.471 172.757L122.665 172.965ZM126.44 167.349C127.227 167.258 127.821 166.912 128.223 166.31C128.636 165.707 128.782 164.868 128.658 163.796C128.535 162.723 128.203 161.945 127.665 161.464C127.137 160.969 126.479 160.767 125.693 160.857C124.906 160.948 124.305 161.295 123.892 161.898C123.489 162.488 123.349 163.32 123.472 164.392C123.596 165.465 123.922 166.249 124.45 166.744C124.99 167.238 125.653 167.439 126.44 167.349ZM136.587 167.612C135.788 167.704 135.07 167.599 134.431 167.298C133.793 166.997 133.266 166.514 132.851 165.849C132.448 165.183 132.191 164.367 132.08 163.402C131.968 162.424 132.033 161.571 132.275 160.843C132.529 160.113 132.933 159.529 133.486 159.09C134.039 158.64 134.714 158.369 135.513 158.277C136.299 158.187 137.008 158.305 137.637 158.631C138.266 158.957 138.716 159.449 138.985 160.106L138.788 160.129L138.732 158.07L140.484 157.868C140.491 158.242 140.498 158.615 140.505 158.989C140.522 159.35 140.551 159.703 140.591 160.048L141.379 166.897L139.573 167.105L139.342 165.102L139.539 165.08C139.425 165.769 139.093 166.345 138.542 166.807C138.002 167.256 137.35 167.524 136.587 167.612ZM136.872 166.148C137.647 166.058 138.235 165.713 138.637 165.111C139.05 164.508 139.196 163.67 139.072 162.597C138.948 161.524 138.617 160.747 138.079 160.265C137.551 159.77 136.899 159.567 136.124 159.656C135.338 159.747 134.737 160.094 134.324 160.697C133.92 161.287 133.781 162.119 133.904 163.192C134.028 164.265 134.353 165.048 134.881 165.543C135.41 166.038 136.073 166.24 136.872 166.148ZM144.014 166.594L143.226 159.745C143.186 159.399 143.128 159.05 143.051 158.696C142.984 158.329 142.912 157.963 142.834 157.598L144.586 157.396L144.965 159.273L144.751 159.298C144.948 158.598 145.313 158.043 145.845 157.631C146.376 157.208 147.017 156.953 147.768 156.867C148.829 156.744 149.662 156.945 150.266 157.467C150.881 157.988 151.26 158.862 151.401 160.09L152.043 165.669L150.237 165.877L149.607 160.405C149.515 159.607 149.289 159.053 148.927 158.744C148.576 158.422 148.078 158.298 147.435 158.373C146.672 158.46 146.091 158.769 145.693 159.298C145.293 159.815 145.14 160.473 145.232 161.272L145.82 166.386L144.014 166.594ZM157.726 165.178C156.975 165.265 156.273 165.249 155.619 165.131C154.965 165.013 154.41 164.805 153.953 164.507L154.365 163.21C154.845 163.493 155.362 163.687 155.918 163.792C156.474 163.897 157.032 163.917 157.592 163.853C158.248 163.777 158.729 163.607 159.037 163.342C159.343 163.065 159.473 162.724 159.426 162.319C159.391 162.009 159.255 161.771 159.018 161.605C158.794 161.438 158.437 161.334 157.949 161.293L156.194 161.151C155.412 161.072 154.8 160.852 154.36 160.492C153.92 160.132 153.664 159.636 153.591 159.005C153.529 158.468 153.618 157.975 153.856 157.525C154.106 157.073 154.485 156.697 154.994 156.397C155.515 156.096 156.139 155.903 156.866 155.819C157.534 155.742 158.165 155.766 158.759 155.891C159.353 156.016 159.862 156.235 160.284 156.549L159.85 157.813C159.445 157.546 159 157.355 158.516 157.242C158.03 157.117 157.549 157.081 157.072 157.136C156.405 157.213 155.924 157.395 155.631 157.683C155.338 157.97 155.215 158.316 155.262 158.722C155.297 159.032 155.422 159.277 155.636 159.458C155.861 159.625 156.194 159.738 156.636 159.796L158.391 159.938C159.221 160.011 159.861 160.216 160.31 160.55C160.759 160.885 161.021 161.375 161.095 162.018C161.16 162.579 161.061 163.085 160.799 163.538C160.537 163.991 160.144 164.356 159.62 164.634C159.097 164.912 158.465 165.093 157.726 165.178ZM163.52 164.348L162.483 155.336L164.289 155.128L165.326 164.14L163.52 164.348ZM162.124 153.475L161.907 151.597L164 151.356L164.216 153.234L162.124 153.475ZM171.854 163.552C170.96 163.655 170.164 163.559 169.466 163.265C168.766 162.959 168.198 162.481 167.761 161.831C167.322 161.169 167.047 160.355 166.936 159.389C166.825 158.423 166.908 157.574 167.186 156.842C167.463 156.097 167.908 155.502 168.521 155.057C169.133 154.6 169.886 154.32 170.78 154.218C171.674 154.115 172.471 154.216 173.17 154.522C173.88 154.815 174.455 155.292 174.893 155.954C175.342 156.603 175.623 157.411 175.734 158.376C175.845 159.342 175.756 160.198 175.468 160.944C175.19 161.676 174.739 162.272 174.115 162.73C173.502 163.175 172.748 163.449 171.854 163.552ZM171.692 162.139C172.478 162.049 173.073 161.702 173.475 161.1C173.876 160.499 174.015 159.661 173.892 158.588C173.768 157.515 173.443 156.737 172.917 156.254C172.389 155.76 171.731 155.557 170.944 155.648C170.169 155.737 169.581 156.083 169.179 156.685C168.776 157.275 168.636 158.106 168.76 159.179C168.883 160.252 169.203 161.037 169.719 161.533C170.247 162.028 170.905 162.23 171.692 162.139ZM178.364 162.639L177.575 155.791C177.535 155.445 177.477 155.095 177.4 154.742C177.334 154.375 177.261 154.009 177.183 153.643L178.935 153.442L179.315 155.319L179.1 155.343C179.297 154.644 179.662 154.089 180.195 153.677C180.726 153.254 181.367 152.999 182.118 152.912C183.179 152.79 184.011 152.99 184.615 153.513C185.23 154.034 185.609 154.908 185.75 156.136L186.393 161.715L184.586 161.923L183.957 156.451C183.865 155.652 183.638 155.099 183.276 154.79C182.925 154.468 182.428 154.344 181.784 154.418C181.021 154.506 180.44 154.815 180.042 155.344C179.643 155.861 179.489 156.519 179.581 157.317L180.17 162.432L178.364 162.639ZM197.612 160.587C196.718 160.69 195.922 160.594 195.223 160.3C194.524 159.994 193.955 159.516 193.518 158.866C193.08 158.203 192.805 157.389 192.694 156.424C192.582 155.458 192.666 154.609 192.944 153.877C193.221 153.132 193.665 152.537 194.279 152.092C194.89 151.635 195.643 151.355 196.537 151.252C197.431 151.149 198.228 151.251 198.928 151.557C199.638 151.85 200.212 152.327 200.651 152.989C201.1 153.638 201.38 154.445 201.491 155.411C201.603 156.377 201.514 157.232 201.225 157.978C200.947 158.711 200.496 159.306 199.873 159.765C199.26 160.21 198.506 160.484 197.612 160.587ZM197.449 159.174C198.236 159.083 198.83 158.737 199.232 158.135C199.634 157.533 199.773 156.696 199.65 155.623C199.526 154.55 199.201 153.772 198.674 153.289C198.146 152.794 197.489 152.592 196.702 152.683C195.927 152.772 195.339 153.118 194.937 153.72C194.534 154.31 194.394 155.141 194.517 156.214C194.641 157.287 194.961 158.071 195.477 158.568C196.005 159.062 196.662 159.265 197.449 159.174ZM204.57 159.623L203.693 152.005L201.941 152.207L201.78 150.812L204.034 150.552L203.586 151.075L203.422 149.644C203.3 148.583 203.475 147.748 203.948 147.138C204.42 146.516 205.175 146.145 206.212 146.026C206.462 145.997 206.727 145.984 207.005 145.989C207.283 145.993 207.517 146.026 207.705 146.089L207.874 147.556C207.724 147.512 207.54 147.485 207.321 147.474C207.113 147.45 206.902 147.45 206.687 147.475C206.341 147.515 206.051 147.62 205.818 147.792C205.582 147.952 205.409 148.178 205.297 148.468C205.198 148.758 205.173 149.117 205.222 149.546L205.362 150.762L205.053 150.435L207.771 150.122L207.931 151.517L205.499 151.797L206.376 159.415L204.57 159.623ZM215.249 158.393L213.798 145.787L219.144 145.171C220.491 145.016 221.56 145.225 222.351 145.798C223.152 146.358 223.619 147.211 223.751 148.355C223.882 149.5 223.622 150.441 222.971 151.181C222.331 151.919 221.337 152.365 219.99 152.521L216.503 152.922L217.109 158.179L215.249 158.393ZM216.332 151.438L219.623 151.059C220.469 150.962 221.085 150.697 221.47 150.266C221.855 149.836 222.008 149.268 221.927 148.565C221.847 147.874 221.571 147.362 221.098 147.03C220.625 146.698 219.965 146.58 219.118 146.678L215.828 147.057L216.332 151.438ZM229.891 156.871C229.092 156.963 228.374 156.858 227.735 156.557C227.096 156.256 226.57 155.773 226.155 155.108C225.752 154.442 225.495 153.626 225.384 152.661C225.271 151.683 225.336 150.83 225.578 150.102C225.833 149.372 226.237 148.788 226.79 148.35C227.342 147.899 228.018 147.628 228.816 147.536C229.603 147.446 230.311 147.564 230.941 147.89C231.57 148.216 232.019 148.708 232.288 149.365L232.092 149.388L232.036 147.329L233.788 147.127C233.795 147.501 233.802 147.875 233.809 148.248C233.826 148.609 233.854 148.962 233.894 149.307L234.683 156.156L232.877 156.364L232.646 154.361L232.843 154.339C232.729 155.028 232.396 155.604 231.846 156.066C231.305 156.515 230.654 156.783 229.891 156.871ZM230.175 155.407C230.95 155.317 231.539 154.972 231.94 154.37C232.354 153.767 232.499 152.929 232.376 151.856C232.252 150.783 231.921 150.006 231.383 149.524C230.854 149.029 230.203 148.826 229.428 148.916C228.641 149.006 228.041 149.353 227.627 149.956C227.224 150.546 227.084 151.378 227.208 152.451C227.331 153.524 227.657 154.307 228.185 154.802C228.713 155.297 229.377 155.499 230.175 155.407ZM237.282 155.857L236.502 149.08C236.459 148.71 236.405 148.342 236.339 147.975C236.283 147.595 236.216 147.222 236.137 146.857L237.89 146.655L238.354 148.957L238.068 148.99C238.123 148.416 238.272 147.928 238.515 147.525C238.759 147.123 239.073 146.809 239.458 146.583C239.855 146.356 240.279 146.217 240.732 146.165C240.923 146.143 241.085 146.136 241.219 146.145C241.352 146.142 241.486 146.15 241.621 146.171L241.788 147.783C241.576 147.722 241.392 147.695 241.235 147.701C241.09 147.694 240.909 147.703 240.695 147.727C240.17 147.788 239.737 147.958 239.395 148.239C239.051 148.508 238.807 148.851 238.662 149.266C238.516 149.681 238.469 150.115 238.522 150.568L239.106 155.647L237.282 155.857ZM248.071 154.778C247.093 154.89 246.324 154.713 245.763 154.246C245.201 153.768 244.858 152.998 244.736 151.937L244.207 147.341L242.455 147.543L242.294 146.148L244.047 145.946L243.773 143.568L245.523 142.877L245.853 145.738L248.356 145.45L248.517 146.845L246.013 147.133L246.524 151.568C246.601 152.235 246.775 152.699 247.046 152.957C247.317 153.216 247.68 153.319 248.133 153.267C248.359 153.241 248.554 153.2 248.716 153.145C248.89 153.077 249.045 153.005 249.181 152.929L249.35 154.395C249.179 154.487 248.977 154.565 248.742 154.628C248.509 154.703 248.286 154.753 248.071 154.778ZM251.044 154.273L250.255 147.424C250.216 147.078 250.157 146.729 250.08 146.375C250.014 146.008 249.941 145.642 249.863 145.277L251.616 145.075L251.995 146.952L251.78 146.977C251.978 146.277 252.342 145.722 252.875 145.31C253.406 144.887 254.047 144.632 254.798 144.545C255.859 144.423 256.691 144.623 257.295 145.146C257.911 145.667 258.289 146.541 258.43 147.769L259.073 153.348L257.267 153.556L256.637 148.084C256.545 147.286 256.318 146.732 255.956 146.423C255.605 146.101 255.108 145.977 254.464 146.052C253.701 146.139 253.12 146.448 252.722 146.977C252.323 147.494 252.169 148.152 252.261 148.951L252.85 154.065L251.044 154.273ZM265.829 152.734C264.374 152.901 263.182 152.622 262.253 151.895C261.324 151.169 260.776 150.078 260.608 148.624C260.5 147.682 260.584 146.839 260.861 146.094C261.149 145.348 261.594 144.748 262.193 144.292C262.804 143.823 263.538 143.539 264.396 143.441C265.243 143.343 265.973 143.44 266.586 143.732C267.2 144.024 267.693 144.48 268.067 145.102C268.439 145.711 268.676 146.457 268.777 147.339L268.843 147.911L262.048 148.694L261.928 147.656L267.49 147.016L267.212 147.284C267.11 146.39 266.827 145.721 266.366 145.279C265.915 144.824 265.314 144.639 264.563 144.726C263.728 144.822 263.118 145.188 262.732 145.824C262.345 146.449 262.21 147.268 262.326 148.281L262.347 148.46C262.469 149.521 262.817 150.29 263.392 150.767C263.978 151.244 264.748 151.427 265.702 151.317C266.226 151.257 266.707 151.129 267.143 150.934C267.591 150.725 268.003 150.424 268.38 150.03L269.112 151.196C268.738 151.614 268.264 151.958 267.691 152.229C267.117 152.489 266.496 152.657 265.829 152.734ZM271.37 151.933L270.589 145.156C270.547 144.786 270.492 144.418 270.426 144.051C270.37 143.671 270.303 143.298 270.225 142.933L271.977 142.731L272.442 145.033L272.155 145.066C272.21 144.492 272.359 144.004 272.603 143.601C272.846 143.199 273.161 142.885 273.545 142.659C273.942 142.432 274.367 142.293 274.82 142.241C275.011 142.219 275.173 142.212 275.307 142.221C275.439 142.218 275.573 142.226 275.708 142.247L275.876 143.858C275.663 143.798 275.479 143.771 275.323 143.777C275.177 143.77 274.997 143.778 274.782 143.803C274.258 143.864 273.824 144.034 273.482 144.315C273.139 144.584 272.894 144.926 272.749 145.342C272.603 145.757 272.557 146.191 272.609 146.644L273.194 151.723L271.37 151.933ZM281.171 150.968C280.42 151.054 279.717 151.038 279.064 150.92C278.41 150.802 277.854 150.594 277.397 150.297L277.81 148.999C278.289 149.282 278.807 149.476 279.362 149.581C279.918 149.686 280.476 149.707 281.036 149.642C281.692 149.567 282.174 149.397 282.481 149.132C282.788 148.855 282.918 148.514 282.871 148.108C282.835 147.798 282.699 147.56 282.463 147.394C282.238 147.227 281.882 147.123 281.394 147.083L279.638 146.94C278.856 146.861 278.245 146.642 277.805 146.282C277.365 145.922 277.108 145.426 277.036 144.794C276.974 144.257 277.062 143.764 277.3 143.314C277.55 142.862 277.93 142.487 278.439 142.186C278.96 141.885 279.584 141.692 280.311 141.608C280.978 141.532 281.609 141.556 282.203 141.681C282.798 141.805 283.306 142.025 283.729 142.338L283.294 143.602C282.889 143.335 282.444 143.145 281.96 143.031C281.475 142.906 280.994 142.871 280.517 142.926C279.849 143.002 279.369 143.185 279.076 143.472C278.783 143.759 278.66 144.106 278.706 144.511C278.742 144.821 278.867 145.066 279.081 145.247C279.305 145.414 279.639 145.527 280.08 145.585L281.836 145.727C282.666 145.801 283.305 146.005 283.754 146.34C284.204 146.675 284.465 147.164 284.54 147.808C284.604 148.368 284.505 148.874 284.243 149.327C283.981 149.78 283.589 150.146 283.065 150.423C282.541 150.701 281.91 150.882 281.171 150.968ZM286.965 150.137L285.45 136.976L287.256 136.768L287.954 142.83L287.703 142.859C287.887 142.15 288.251 141.588 288.796 141.175C289.339 140.75 289.992 140.494 290.755 140.406C291.828 140.283 292.661 140.489 293.254 141.024C293.846 141.548 294.21 142.406 294.347 143.598L294.994 149.213L293.188 149.421L292.554 143.913C292.464 143.139 292.245 142.596 291.895 142.286C291.556 141.963 291.059 141.839 290.403 141.914C289.64 142.002 289.053 142.311 288.643 142.842C288.244 143.359 288.089 144.005 288.178 144.78L288.771 149.93L286.965 150.137ZM297.565 148.917L296.527 139.905L298.333 139.697L299.371 148.709L297.565 148.917ZM296.168 138.044L295.952 136.166L298.044 135.925L298.26 137.803L296.168 138.044ZM302.462 152.267L301.229 141.556C301.189 141.21 301.131 140.861 301.054 140.507C300.988 140.14 300.915 139.774 300.837 139.409L302.59 139.207L303.003 141.225L302.806 141.247C302.919 140.546 303.239 139.966 303.765 139.506C304.304 139.046 304.973 138.769 305.772 138.677C306.571 138.586 307.29 138.696 307.93 139.009C308.569 139.31 309.089 139.787 309.49 140.442C309.903 141.095 310.166 141.91 310.279 142.888C310.39 143.853 310.319 144.707 310.066 145.449C309.826 146.189 309.428 146.778 308.875 147.217C308.321 147.655 307.645 147.92 306.846 148.012C306.06 148.102 305.352 147.991 304.724 147.676C304.107 147.349 303.664 146.862 303.396 146.217L303.593 146.194L304.268 152.059L302.462 152.267ZM306.237 146.651C307.024 146.56 307.618 146.214 308.02 145.612C308.433 145.009 308.578 144.171 308.455 143.098C308.331 142.025 308 141.247 307.462 140.766C306.934 140.271 306.276 140.069 305.489 140.159C304.703 140.25 304.102 140.597 303.689 141.2C303.286 141.79 303.146 142.622 303.269 143.695C303.393 144.767 303.719 145.551 304.247 146.046C304.787 146.54 305.45 146.741 306.237 146.651ZM316.027 146.955C315.275 147.041 314.573 147.026 313.919 146.908C313.266 146.79 312.71 146.582 312.253 146.284L312.665 144.986C313.145 145.27 313.662 145.464 314.218 145.569C314.774 145.674 315.332 145.694 315.892 145.63C316.548 145.554 317.029 145.384 317.337 145.119C317.644 144.842 317.773 144.501 317.727 144.096C317.691 143.786 317.555 143.548 317.318 143.382C317.094 143.214 316.738 143.11 316.25 143.07L314.494 142.928C313.712 142.849 313.101 142.629 312.661 142.269C312.22 141.909 311.964 141.413 311.891 140.781C311.83 140.245 311.918 139.752 312.156 139.301C312.406 138.85 312.785 138.474 313.294 138.174C313.815 137.872 314.439 137.68 315.167 137.596C315.834 137.519 316.465 137.543 317.059 137.668C317.653 137.793 318.162 138.012 318.584 138.326L318.15 139.59C317.745 139.322 317.3 139.132 316.816 139.019C316.331 138.893 315.849 138.858 315.373 138.913C314.705 138.99 314.225 139.172 313.932 139.459C313.639 139.747 313.515 140.093 313.562 140.499C313.598 140.808 313.723 141.054 313.937 141.234C314.161 141.402 314.494 141.515 314.936 141.572L316.692 141.715C317.521 141.788 318.161 141.992 318.61 142.327C319.059 142.662 319.321 143.151 319.395 143.795C319.46 144.355 319.361 144.862 319.099 145.315C318.837 145.768 318.444 146.133 317.921 146.411C317.397 146.689 316.766 146.87 316.027 146.955ZM90.7293 203.327C90.1452 203.394 89.587 203.319 89.0547 203.103C88.5211 202.874 88.0771 202.533 87.7228 202.078C87.3685 201.624 87.1571 201.098 87.0885 200.502C87.0253 199.954 87.1027 199.42 87.3207 198.899C87.5505 198.378 87.8927 197.94 88.3471 197.585C88.8121 197.218 89.3605 196.998 89.9924 196.925C90.5765 196.858 91.1294 196.939 91.6512 197.169C92.1715 197.387 92.6081 197.717 92.961 198.159C93.3259 198.601 93.544 199.131 93.6154 199.751C93.6826 200.335 93.5953 200.889 93.3536 201.412C93.1237 201.934 92.7749 202.366 92.3072 202.71C91.8513 203.052 91.3254 203.258 90.7293 203.327ZM105.802 203.204L104.351 190.597L106.21 190.383L107.662 202.99L105.802 203.204ZM110.461 202.668L109.672 195.819C109.632 195.473 109.574 195.124 109.497 194.77C109.431 194.403 109.358 194.037 109.28 193.672L111.033 193.47L111.412 195.347L111.197 195.372C111.394 194.672 111.759 194.117 112.292 193.705C112.823 193.282 113.464 193.027 114.215 192.94C115.276 192.818 116.108 193.018 116.712 193.541C117.328 194.062 117.706 194.936 117.847 196.164L118.49 201.743L116.684 201.951L116.054 196.479C115.962 195.681 115.735 195.127 115.373 194.818C115.022 194.496 114.525 194.372 113.881 194.447C113.118 194.534 112.537 194.843 112.139 195.372C111.74 195.889 111.586 196.547 111.678 197.346L112.267 202.46L110.461 202.668ZM124.584 201.205C123.606 201.317 122.837 201.14 122.276 200.673C121.714 200.195 121.371 199.425 121.249 198.364L120.72 193.768L118.968 193.97L118.807 192.575L120.56 192.373L120.286 189.995L122.036 189.304L122.366 192.165L124.869 191.877L125.03 193.272L122.526 193.56L123.037 197.995C123.114 198.662 123.288 199.125 123.559 199.384C123.83 199.643 124.193 199.746 124.646 199.694C124.872 199.668 125.067 199.627 125.23 199.572C125.403 199.504 125.558 199.432 125.694 199.356L125.863 200.822C125.692 200.914 125.49 200.992 125.255 201.055C125.022 201.13 124.799 201.18 124.584 201.205ZM131.654 200.391C130.2 200.558 129.008 200.279 128.079 199.552C127.15 198.826 126.602 197.735 126.434 196.281C126.326 195.339 126.41 194.496 126.687 193.752C126.975 193.006 127.419 192.405 128.019 191.949C128.63 191.48 129.364 191.197 130.222 191.098C131.069 191 131.799 191.097 132.412 191.389C133.025 191.681 133.519 192.138 133.892 192.759C134.264 193.368 134.501 194.114 134.603 194.996L134.669 195.569L127.874 196.351L127.754 195.314L133.315 194.673L133.038 194.941C132.935 194.047 132.653 193.379 132.191 192.937C131.74 192.481 131.139 192.297 130.388 192.383C129.554 192.479 128.944 192.845 128.558 193.482C128.171 194.106 128.036 194.925 128.152 195.938L128.173 196.117C128.295 197.178 128.643 197.947 129.218 198.425C129.804 198.901 130.574 199.084 131.528 198.974C132.052 198.914 132.533 198.786 132.969 198.591C133.416 198.382 133.829 198.081 134.206 197.687L134.938 198.853C134.563 199.271 134.09 199.615 133.517 199.887C132.943 200.146 132.322 200.314 131.654 200.391ZM141.751 203.124C140.941 203.217 140.191 203.207 139.501 203.093C138.824 202.978 138.2 202.76 137.632 202.439L137.927 201.064C138.325 201.272 138.711 201.427 139.085 201.529C139.461 201.642 139.85 201.712 140.251 201.739C140.653 201.765 141.062 201.754 141.479 201.706C142.338 201.607 142.956 201.312 143.335 200.822C143.726 200.342 143.875 199.691 143.78 198.868L143.502 196.454L143.681 196.434C143.567 197.123 143.235 197.699 142.684 198.161C142.144 198.61 141.486 198.879 140.711 198.968C139.889 199.063 139.153 198.966 138.504 198.678C137.865 198.377 137.34 197.912 136.93 197.283C136.53 196.641 136.277 195.861 136.171 194.943C136.065 194.025 136.135 193.213 136.38 192.509C136.637 191.803 137.043 191.237 137.598 190.81C138.163 190.371 138.857 190.104 139.68 190.009C140.467 189.918 141.169 190.037 141.786 190.364C142.414 190.679 142.862 191.159 143.13 191.804L142.952 191.68L142.899 189.801L144.652 189.6C144.647 189.975 144.653 190.348 144.672 190.721C144.689 191.081 144.718 191.434 144.758 191.78L145.526 198.45C145.682 199.809 145.438 200.888 144.793 201.687C144.16 202.484 143.146 202.964 141.751 203.124ZM140.978 197.506C141.765 197.415 142.36 197.075 142.763 196.485C143.178 195.894 143.329 195.109 143.217 194.132C143.104 193.154 142.779 192.43 142.242 191.961C141.717 191.49 141.061 191.3 140.274 191.39C139.463 191.483 138.85 191.82 138.433 192.399C138.029 192.977 137.883 193.755 137.995 194.733C138.108 195.71 138.427 196.44 138.954 196.923C139.493 197.405 140.167 197.599 140.978 197.506ZM148.145 198.33L147.364 191.552C147.322 191.183 147.267 190.815 147.201 190.448C147.145 190.068 147.078 189.695 147 189.329L148.752 189.128L149.216 191.43L148.93 191.463C148.985 190.889 149.134 190.4 149.378 189.998C149.621 189.595 149.936 189.281 150.32 189.056C150.717 188.829 151.142 188.69 151.595 188.637C151.785 188.615 151.948 188.609 152.082 188.618C152.214 188.614 152.348 188.623 152.483 188.644L152.651 190.255C152.438 190.195 152.254 190.168 152.098 190.174C151.952 190.167 151.772 190.175 151.557 190.2C151.033 190.26 150.599 190.431 150.257 190.712C149.914 190.981 149.669 191.323 149.524 191.739C149.378 192.154 149.332 192.588 149.384 193.041L149.968 198.12L148.145 198.33ZM158.303 197.323C157.505 197.415 156.786 197.311 156.147 197.01C155.509 196.709 154.982 196.226 154.567 195.561C154.164 194.895 153.907 194.079 153.796 193.113C153.684 192.135 153.749 191.282 153.991 190.554C154.245 189.824 154.649 189.24 155.203 188.802C155.755 188.352 156.43 188.081 157.229 187.989C158.016 187.898 158.724 188.016 159.353 188.342C159.983 188.668 160.432 189.16 160.701 189.818L160.504 189.84L160.448 187.781L162.201 187.58C162.207 187.953 162.214 188.327 162.221 188.701C162.238 189.061 162.267 189.414 162.307 189.76L163.095 196.608L161.289 196.816L161.058 194.814L161.255 194.791C161.141 195.481 160.809 196.056 160.258 196.518C159.718 196.967 159.066 197.235 158.303 197.323ZM158.588 195.859C159.363 195.77 159.951 195.424 160.353 194.822C160.767 194.219 160.912 193.381 160.788 192.308C160.665 191.235 160.334 190.458 159.795 189.976C159.267 189.482 158.615 189.279 157.841 189.368C157.054 189.458 156.453 189.805 156.04 190.409C155.637 190.999 155.497 191.83 155.62 192.903C155.744 193.976 156.07 194.76 156.598 195.255C157.126 195.75 157.789 195.951 158.588 195.859ZM169.254 196.063C168.276 196.175 167.507 195.998 166.946 195.531C166.383 195.052 166.041 194.282 165.919 193.221L165.39 188.626L163.638 188.827L163.477 187.433L165.229 187.231L164.956 184.853L166.706 184.162L167.035 187.023L169.539 186.735L169.699 188.13L167.196 188.418L167.707 192.852C167.783 193.52 167.957 193.983 168.229 194.242C168.5 194.5 168.862 194.604 169.315 194.552C169.542 194.526 169.737 194.485 169.899 194.43C170.073 194.362 170.227 194.29 170.364 194.214L170.532 195.68C170.362 195.772 170.159 195.85 169.925 195.913C169.692 195.988 169.468 196.038 169.254 196.063ZM172.227 195.557L171.189 186.545L172.995 186.337L174.033 195.349L172.227 195.557ZM170.83 184.684L170.614 182.806L172.706 182.565L172.922 184.443L170.83 184.684ZM180.561 194.761C179.667 194.864 178.87 194.768 178.172 194.474C177.473 194.168 176.904 193.69 176.467 193.04C176.028 192.378 175.753 191.564 175.642 190.598C175.531 189.632 175.615 188.783 175.893 188.051C176.169 187.306 176.614 186.711 177.227 186.266C177.839 185.809 178.592 185.53 179.486 185.427C180.38 185.324 181.177 185.425 181.877 185.731C182.587 186.024 183.161 186.501 183.6 187.164C184.049 187.812 184.329 188.62 184.44 189.585C184.551 190.551 184.463 191.407 184.174 192.153C183.896 192.885 183.445 193.481 182.821 193.939C182.208 194.384 181.455 194.658 180.561 194.761ZM180.398 193.348C181.185 193.258 181.779 192.911 182.181 192.31C182.583 191.708 182.722 190.87 182.598 189.797C182.475 188.724 182.15 187.946 181.623 187.464C181.095 186.969 180.438 186.767 179.651 186.857C178.876 186.946 178.288 187.292 177.886 187.894C177.483 188.484 177.343 189.315 177.466 190.388C177.59 191.461 177.91 192.246 178.426 192.742C178.954 193.237 179.611 193.439 180.398 193.348ZM187.07 193.849L186.282 187C186.242 186.654 186.183 186.304 186.106 185.951C186.04 185.584 185.968 185.218 185.889 184.853L187.642 184.651L188.021 186.528L187.806 186.552C188.004 185.853 188.369 185.298 188.901 184.886C189.432 184.463 190.073 184.208 190.824 184.121C191.885 183.999 192.717 184.199 193.321 184.722C193.937 185.243 194.315 186.117 194.457 187.345L195.099 192.924L193.293 193.132L192.663 187.66C192.571 186.862 192.344 186.308 191.983 185.999C191.631 185.677 191.134 185.553 190.49 185.627C189.727 185.715 189.147 186.024 188.749 186.553C188.349 187.07 188.195 187.728 188.287 188.526L188.876 193.641L187.07 193.849ZM204.887 191.797L200.434 183.178L202.312 182.962L205.841 190.166L205.376 190.219L207.247 182.394L208.642 182.233L212.225 189.431L211.777 189.482L213.577 181.665L215.383 181.457L212.988 190.865L211.342 191.054L207.636 183.726L208.476 183.629L206.568 191.604L204.887 191.797ZM218.084 190.278L217.046 181.266L218.852 181.058L219.89 190.07L218.084 190.278ZM216.687 179.405L216.471 177.527L218.563 177.286L218.779 179.164L216.687 179.405ZM226.06 189.523C225.083 189.636 224.313 189.458 223.752 188.992C223.19 188.513 222.848 187.743 222.725 186.682L222.196 182.086L220.444 182.288L220.283 180.893L222.036 180.691L221.762 178.313L223.513 177.622L223.842 180.483L226.345 180.195L226.506 181.59L224.002 181.878L224.513 186.313C224.59 186.981 224.764 187.444 225.035 187.702C225.307 187.961 225.669 188.064 226.122 188.012C226.348 187.986 226.543 187.946 226.706 187.891C226.879 187.822 227.034 187.75 227.17 187.674L227.339 189.14C227.168 189.232 226.966 189.31 226.732 189.373C226.499 189.448 226.275 189.498 226.06 189.523ZM229.033 189.018L227.518 175.857L229.324 175.649L230.022 181.711L229.772 181.74C229.956 181.03 230.32 180.469 230.864 180.056C231.407 179.631 232.06 179.374 232.823 179.287C233.896 179.163 234.729 179.369 235.322 179.905C235.914 180.429 236.278 181.286 236.416 182.479L237.062 188.094L235.256 188.301L234.622 182.794C234.533 182.019 234.313 181.476 233.963 181.166C233.624 180.843 233.127 180.719 232.471 180.795C231.708 180.882 231.122 181.192 230.712 181.722C230.312 182.239 230.157 182.885 230.246 183.66L230.839 188.81L229.033 189.018ZM247.583 186.882L246.311 175.831L242.002 176.327L241.822 174.772L252.301 173.565L252.48 175.121L248.171 175.617L249.443 186.668L247.583 186.882ZM258.137 185.83C256.683 185.998 255.491 185.718 254.562 184.992C253.633 184.265 253.085 183.175 252.917 181.72C252.809 180.779 252.893 179.936 253.17 179.191C253.458 178.445 253.902 177.844 254.502 177.389C255.113 176.92 255.847 176.636 256.705 176.537C257.552 176.44 258.282 176.537 258.895 176.829C259.508 177.121 260.002 177.577 260.375 178.198C260.747 178.808 260.984 179.554 261.086 180.436L261.152 181.008L254.357 181.79L254.237 180.753L259.799 180.113L259.521 180.38C259.418 179.486 259.136 178.818 258.674 178.376C258.223 177.921 257.622 177.736 256.871 177.823C256.037 177.919 255.427 178.285 255.041 178.921C254.654 179.546 254.519 180.364 254.635 181.378L254.656 181.557C254.778 182.618 255.126 183.387 255.701 183.864C256.287 184.34 257.057 184.523 258.011 184.414C258.535 184.353 259.016 184.225 259.452 184.03C259.899 183.822 260.312 183.521 260.689 183.127L261.421 184.293C261.046 184.71 260.573 185.055 260 185.326C259.426 185.585 258.805 185.754 258.137 185.83ZM263.714 185.025L262.199 171.864L264.005 171.656L265.52 184.817L263.714 185.025ZM272.352 184.194C270.898 184.361 269.706 184.082 268.777 183.355C267.848 182.629 267.299 181.538 267.132 180.084C267.023 179.142 267.108 178.299 267.384 177.555C267.673 176.809 268.117 176.208 268.717 175.752C269.327 175.284 270.062 175 270.92 174.901C271.766 174.803 272.496 174.901 273.11 175.192C273.723 175.484 274.217 175.941 274.59 176.562C274.962 177.171 275.199 177.917 275.301 178.799L275.366 179.372L268.571 180.154L268.452 179.117L274.013 178.477L273.736 178.744C273.633 177.85 273.351 177.182 272.889 176.74C272.438 176.284 271.837 176.1 271.086 176.186C270.252 176.282 269.641 176.649 269.256 177.285C268.869 177.909 268.733 178.728 268.85 179.741L268.871 179.92C268.993 180.981 269.341 181.75 269.915 182.228C270.502 182.704 271.272 182.887 272.225 182.777C272.75 182.717 273.23 182.589 273.667 182.394C274.114 182.185 274.526 181.884 274.904 181.491L275.636 182.656C275.261 183.074 274.787 183.418 274.215 183.69C273.641 183.949 273.02 184.117 272.352 184.194ZM282.449 186.927C281.639 187.021 280.888 187.01 280.199 186.896C279.521 186.781 278.898 186.563 278.33 186.242L278.624 184.867C279.023 185.075 279.409 185.23 279.783 185.332C280.159 185.445 280.547 185.516 280.949 185.542C281.351 185.568 281.76 185.557 282.177 185.509C283.036 185.41 283.654 185.116 284.032 184.625C284.424 184.145 284.572 183.494 284.478 182.671L284.2 180.257L284.379 180.237C284.265 180.926 283.932 181.502 283.382 181.964C282.841 182.413 282.184 182.682 281.409 182.771C280.586 182.866 279.851 182.769 279.201 182.482C278.563 182.181 278.038 181.716 277.628 181.086C277.227 180.444 276.975 179.664 276.869 178.746C276.763 177.828 276.833 177.017 277.078 176.312C277.335 175.606 277.741 175.04 278.296 174.613C278.861 174.174 279.555 173.907 280.378 173.812C281.165 173.722 281.867 173.84 282.484 174.168C283.112 174.482 283.56 174.962 283.828 175.607L283.65 175.483L283.597 173.605L285.35 173.403C285.344 173.778 285.351 174.152 285.37 174.524C285.387 174.884 285.416 175.237 285.456 175.583L286.223 182.253C286.38 183.612 286.136 184.691 285.491 185.49C284.858 186.288 283.844 186.767 282.449 186.927ZM281.676 181.309C282.462 181.218 283.057 180.878 283.461 180.288C283.876 179.697 284.027 178.912 283.914 177.935C283.802 176.957 283.477 176.234 282.94 175.764C282.414 175.293 281.758 175.103 280.972 175.193C280.161 175.287 279.547 175.623 279.131 176.202C278.726 176.78 278.58 177.558 278.693 178.536C278.805 179.513 279.125 180.244 279.652 180.727C280.19 181.208 280.865 181.402 281.676 181.309ZM288.842 182.133L288.062 175.355C288.02 174.986 287.965 174.618 287.899 174.251C287.843 173.871 287.776 173.498 287.697 173.133L289.45 172.931L289.914 175.233L289.628 175.266C289.683 174.692 289.832 174.203 290.076 173.801C290.319 173.398 290.633 173.084 291.018 172.859C291.415 172.632 291.839 172.493 292.292 172.441C292.483 172.419 292.646 172.412 292.779 172.421C292.912 172.418 293.046 172.426 293.181 172.447L293.348 174.058C293.136 173.998 292.952 173.971 292.796 173.977C292.65 173.97 292.47 173.978 292.255 174.003C291.73 174.063 291.297 174.234 290.955 174.515C290.611 174.784 290.367 175.126 290.222 175.542C290.076 175.957 290.029 176.391 290.082 176.844L290.666 181.923L288.842 182.133ZM299.001 181.126C298.202 181.218 297.484 181.114 296.845 180.813C296.207 180.512 295.68 180.029 295.265 179.364C294.862 178.698 294.605 177.882 294.494 176.916C294.382 175.939 294.446 175.086 294.689 174.357C294.943 173.627 295.347 173.043 295.9 172.605C296.452 172.155 297.128 171.884 297.927 171.792C298.713 171.701 299.421 171.819 300.051 172.145C300.68 172.471 301.13 172.963 301.398 173.621L301.202 173.644L301.146 171.584L302.898 171.383C302.905 171.756 302.912 172.13 302.919 172.504C302.936 172.864 302.965 173.217 303.004 173.563L303.793 180.412L301.987 180.62L301.756 178.617L301.953 178.594C301.839 179.284 301.507 179.859 300.956 180.321C300.416 180.77 299.764 181.038 299.001 181.126ZM299.286 179.662C300.06 179.573 300.649 179.227 301.051 178.625C301.464 178.022 301.609 177.184 301.486 176.111C301.362 175.038 301.031 174.261 300.493 173.779C299.965 173.285 299.313 173.082 298.538 173.171C297.751 173.262 297.151 173.609 296.737 174.212C296.334 174.802 296.194 175.633 296.318 176.706C296.442 177.779 296.767 178.563 297.295 179.058C297.823 179.553 298.487 179.754 299.286 179.662ZM306.428 180.108L305.64 173.259C305.6 172.914 305.542 172.564 305.465 172.211C305.398 171.844 305.326 171.478 305.248 171.112L307 170.91L307.379 172.787L307.165 172.812C307.339 172.128 307.663 171.577 308.134 171.16C308.617 170.742 309.223 170.492 309.95 170.408C310.689 170.323 311.312 170.432 311.818 170.736C312.334 171.027 312.724 171.526 312.987 172.233L312.7 172.265C312.863 171.582 313.209 171.017 313.737 170.57C314.264 170.11 314.903 169.838 315.654 169.751C316.656 169.636 317.44 169.841 318.008 170.368C318.576 170.894 318.931 171.772 319.072 173L319.714 178.579L317.908 178.787L317.276 173.297C317.186 172.51 316.984 171.96 316.67 171.645C316.366 171.318 315.916 171.189 315.32 171.257C314.629 171.337 314.108 171.638 313.757 172.162C313.407 172.685 313.278 173.352 313.372 174.163L313.956 179.242L312.15 179.449L311.518 173.96C311.428 173.173 311.226 172.622 310.912 172.308C310.608 171.981 310.158 171.851 309.562 171.92C308.871 172 308.356 172.301 308.017 172.823C307.679 173.345 307.556 174.011 307.65 174.822L308.234 179.9L306.428 180.108Z" fill="white"/>
</svg>
