<svg width="481" height="267" viewBox="0 0 481 267" fill="none" xmlns="http://www.w3.org/2000/svg">
<line x1="439.408" y1="47.2387" x2="386.179" y2="52.7602" stroke="white" stroke-width="3.84756"/>
<circle cx="456.868" cy="45.9054" r="20.0073" transform="rotate(33.246 456.868 45.9054)" fill="#E9DA56" stroke="white" stroke-width="5.38658"/>
<path d="M209.194 82.7449L209.034 81.0487C208.919 79.8352 209.048 78.6961 209.421 77.6314C209.793 76.5666 210.338 75.5552 211.054 74.597C211.77 73.6389 212.573 72.7143 213.463 71.8233C214.378 70.9021 215.296 70.0223 216.219 69.1838C217.271 68.2495 218.258 67.3494 219.178 66.4833C220.097 65.6173 220.82 64.7281 221.346 63.8158C221.9 62.9009 222.127 61.9194 222.028 60.8714C221.976 60.3198 221.788 59.8088 221.466 59.3385C221.168 58.8379 220.714 58.4495 220.103 58.1733C219.521 57.8945 218.76 57.7994 217.823 57.888C216.885 57.9766 216.116 58.2301 215.515 58.6486C214.912 59.0395 214.474 59.554 214.2 60.192C213.927 60.83 213.829 61.5627 213.907 62.3901L214.025 63.6312L207.736 64.2254C207.693 64.0626 207.649 63.8859 207.603 63.6954C207.582 63.4748 207.559 63.2266 207.532 62.9508C207.345 60.9651 207.642 59.2535 208.425 57.8161C209.207 56.3787 210.393 55.2371 211.983 54.3912C213.597 53.5151 215.563 52.9677 217.88 52.7487C219.645 52.5819 221.184 52.673 222.497 53.022C223.837 53.3683 224.959 53.9023 225.862 54.6239C226.765 55.3455 227.458 56.1983 227.94 57.1823C228.448 58.1361 228.752 59.1507 228.854 60.2263C228.976 61.5226 228.853 62.7169 228.483 63.8092C228.113 64.9015 227.559 65.9556 226.82 66.9715C226.079 67.9598 225.197 68.9336 224.174 69.8928C223.149 70.8245 222.043 71.7777 220.855 72.7526C220.263 73.2538 219.722 73.7222 219.235 74.1578C218.772 74.5633 218.402 74.9182 218.125 75.2227C217.848 75.5272 217.651 75.7962 217.534 76.0299L230.482 74.8062L231.037 80.6807L209.194 82.7449ZM245.977 79.7697C243.991 79.9574 242.268 79.8281 240.807 79.3818C239.343 78.908 238.114 78.1198 237.119 77.0173C236.122 75.8872 235.329 74.4178 234.741 72.6091C234.152 70.8003 233.738 68.6273 233.498 66.09C233.261 63.5802 233.262 61.3819 233.501 59.495C233.74 57.6081 234.245 56.0299 235.016 54.7606C235.784 53.4637 236.843 52.4592 238.195 51.7471C239.544 51.0075 241.212 50.5438 243.198 50.3561C245.183 50.1685 246.894 50.3129 248.331 50.7893C249.792 51.2356 251.021 52.0237 252.018 53.1538C253.013 54.2564 253.804 55.712 254.393 57.5207C254.981 59.3295 255.394 61.4887 255.631 63.9984C255.871 66.5357 255.871 68.7479 255.632 70.6348C255.393 72.5217 254.89 74.1136 254.122 75.4105C253.351 76.6798 252.291 77.6843 250.942 78.424C249.618 79.1335 247.963 79.5821 245.977 79.7697ZM245.512 74.8468C246.615 74.7425 247.443 74.3721 247.995 73.7356C248.572 73.0689 248.915 72.1322 249.023 70.9254C249.157 69.6885 249.136 68.1461 248.961 66.2983L248.657 63.0714C248.479 61.196 248.209 59.6633 247.846 58.4733C247.511 57.2806 246.999 56.4247 246.31 55.9055C245.648 55.3836 244.766 55.1748 243.663 55.2791C242.56 55.3833 241.718 55.755 241.139 56.3941C240.587 57.0307 240.244 57.9674 240.11 59.2043C239.974 60.4137 239.995 61.9561 240.172 63.8315L240.473 67.017C240.65 68.8924 240.92 70.4251 241.283 71.6151C241.646 72.8052 242.16 73.6749 242.824 74.2243C243.513 74.7435 244.409 74.951 245.512 74.8468ZM260.906 77.8581L260.746 76.1619C260.631 74.9484 260.76 73.8093 261.132 72.7445C261.505 71.6798 262.049 70.6684 262.766 69.7102C263.482 68.7521 264.285 67.8275 265.175 66.9365C266.089 66.0153 267.008 65.1354 267.93 64.297C268.983 63.3627 269.969 62.4626 270.889 61.5965C271.809 60.7305 272.532 59.8413 273.058 58.929C273.611 58.0141 273.839 57.0326 273.74 55.9846C273.688 55.433 273.5 54.922 273.177 54.4517C272.88 53.9511 272.426 53.5627 271.815 53.2865C271.232 53.0077 270.472 52.9126 269.534 53.0012C268.597 53.0898 267.827 53.3433 267.227 53.7618C266.624 54.1527 266.186 54.6672 265.912 55.3052C265.638 55.9432 265.541 56.6759 265.619 57.5033L265.736 58.7444L259.448 59.3386C259.405 59.1758 259.36 58.9991 259.314 58.8086C259.294 58.588 259.27 58.3398 259.244 58.064C259.056 56.0783 259.354 54.3667 260.136 52.9293C260.919 51.4919 262.105 50.3503 263.694 49.5044C265.309 48.6283 267.275 48.0808 269.591 47.8619C271.356 47.6951 272.895 47.7862 274.208 48.1352C275.549 48.4815 276.671 49.0155 277.574 49.7371C278.477 50.4587 279.169 51.3115 279.652 52.2955C280.159 53.2492 280.464 54.2639 280.566 55.3395C280.688 56.6358 280.564 57.8301 280.195 58.9224C279.825 60.0147 279.27 61.0688 278.532 62.0847C277.79 63.073 276.908 64.0468 275.886 65.006C274.861 65.9377 273.755 66.8909 272.567 67.8658C271.974 68.367 271.434 68.8354 270.947 69.271C270.484 69.6765 270.114 70.0314 269.837 70.3359C269.559 70.6404 269.362 70.9094 269.245 71.1431L282.194 69.9194L282.749 75.7939L260.906 77.8581ZM297.73 74.879C295.248 75.1136 293.132 74.9518 291.382 74.3937C289.657 73.8055 288.322 72.9299 287.377 71.767C286.43 70.5765 285.881 69.1815 285.729 67.5819L285.659 66.8372L291.947 66.243L292.021 67.029C292.118 68.0494 292.581 68.8265 293.41 69.3603C294.24 69.8941 295.413 70.0893 296.93 69.946C298.447 69.8026 299.545 69.351 300.225 68.5912C300.902 67.8037 301.179 66.7619 301.056 65.4656C300.97 64.5555 300.723 63.8554 300.315 63.3653C299.907 62.8751 299.389 62.5484 298.762 62.3851C298.159 62.1916 297.499 62.1288 296.782 62.1965L294.093 62.4507L293.655 57.8173L296.055 57.5905C296.744 57.5254 297.339 57.3439 297.84 57.0462C298.365 56.7183 298.755 56.278 299.009 55.7253C299.29 55.17 299.393 54.4925 299.318 53.6927C299.247 52.948 299.036 52.328 298.683 51.8327C298.327 51.3098 297.833 50.9391 297.2 50.7206C296.592 50.472 295.889 50.3854 295.089 50.461C294.344 50.5314 293.668 50.7344 293.059 51.0702C292.479 51.4033 292.033 51.835 291.721 52.3654C291.437 52.8931 291.326 53.4879 291.389 54.1498L291.44 54.6876L285.358 55.2623L285.26 54.228C285.12 52.7387 285.408 51.3758 286.126 50.1393C286.869 48.8726 287.995 47.834 289.505 47.0235C291.012 46.1855 292.841 45.6648 294.992 45.4615C297.116 45.2608 298.981 45.4185 300.588 45.9344C302.192 46.4228 303.464 47.2209 304.404 48.3286C305.341 49.4087 305.881 50.7073 306.024 52.2241C306.12 53.2446 306.016 54.2005 305.711 55.092C305.43 55.9532 304.987 56.7047 304.379 57.3465C303.8 57.9856 303.099 58.5248 302.278 58.9641L302.294 59.1296C303.883 59.4525 305.19 60.1777 306.214 61.3052C307.237 62.4051 307.832 63.8514 308.002 65.6441C308.125 67.2463 307.818 68.7083 307.081 70.0302C306.34 71.3245 305.19 72.4071 303.631 73.2779C302.069 74.1212 300.102 74.6549 297.73 74.879ZM340.576 75.7969L335.549 71.1799C335.386 71.2231 335.208 71.2538 335.015 71.2721C334.824 71.3179 334.646 71.3486 334.481 71.3643C331.53 71.6431 328.941 71.3313 326.713 70.4288C324.485 69.5263 322.702 68.0391 321.366 65.9672C320.027 63.8677 319.206 61.2183 318.903 58.0191C318.593 54.7371 318.93 51.9645 319.912 49.7013C320.892 47.4104 322.435 45.6229 324.539 44.3388C326.669 43.0245 329.292 42.2201 332.409 41.9256C335.525 41.6311 338.239 41.9312 340.549 42.8259C342.885 43.6904 344.748 45.156 346.14 47.2227C347.53 49.2618 348.379 51.9223 348.689 55.2043C349.007 58.569 348.636 61.4145 347.576 63.7407C346.541 66.0368 344.931 67.8446 342.746 69.1641L349.76 74.929L340.576 75.7969ZM334.641 65.5475C335.827 65.4354 336.858 65.1571 337.734 64.7126C338.61 64.268 339.319 63.6723 339.861 62.9255C340.43 62.1761 340.819 61.2906 341.029 60.2691C341.238 59.2475 341.285 58.1162 341.167 56.8751L340.995 55.0549C340.875 53.7862 340.617 52.6698 340.22 51.7056C339.822 50.7414 339.274 49.9446 338.575 49.315C337.903 48.6829 337.095 48.2305 336.151 47.958C335.207 47.6855 334.142 47.6052 332.956 47.7173C331.742 47.832 330.697 48.1116 329.821 48.5561C328.945 49.0007 328.236 49.5964 327.694 50.3432C327.153 51.09 326.777 51.9742 326.568 52.9957C326.358 54.0173 326.313 55.1624 326.433 56.431L326.605 58.2513C326.723 59.4923 326.98 60.595 327.377 61.5592C327.774 62.5234 328.309 63.3215 328.981 63.9537C329.653 64.5858 330.461 65.0382 331.405 65.3107C332.349 65.5832 333.427 65.6622 334.641 65.5475ZM366.233 67.9045L365.662 61.8646L352.424 63.1156L351.928 57.8617C352.775 56.2235 353.58 54.4361 354.343 52.4996C355.131 50.533 355.852 48.4475 356.506 46.2431C357.16 44.0387 357.672 41.7921 358.04 39.5034L364.866 38.8584C364.754 40.0376 364.501 41.3276 364.104 42.7285C363.706 44.1019 363.213 45.5119 362.626 46.9587C362.064 48.3752 361.443 49.7556 360.763 51.0999C360.108 52.4139 359.458 53.6301 358.813 54.7485C358.192 55.8367 357.608 56.7267 357.061 57.4183L365.17 56.6521L364.556 50.1571C364.812 49.632 365.075 49.0229 365.343 48.3297C365.639 47.6339 365.919 46.9118 366.182 46.1635C366.473 45.4125 366.711 44.6944 366.897 44.009C367.107 43.2935 367.268 42.6383 367.379 42.0435L370.399 41.7581L371.748 56.0305L375.512 55.6747L376.005 60.8873L372.24 61.243L372.811 67.2829L366.233 67.9045Z" fill="white"/>
<path d="M31.4901 158.252C30.9059 158.32 30.3477 158.245 29.8155 158.028C29.2818 157.8 28.8379 157.458 28.4836 157.004C28.1293 156.549 27.9178 156.024 27.8492 155.428C27.7861 154.88 27.8635 154.345 28.0814 153.825C28.3112 153.303 28.6534 152.865 29.1079 152.511C29.5729 152.143 30.1213 151.923 30.7531 151.851C31.3373 151.783 31.8902 151.865 32.4119 152.094C32.9322 152.312 33.3689 152.643 33.7218 153.085C34.0866 153.526 34.3047 154.057 34.3761 154.677C34.4433 155.261 34.3561 155.815 34.1143 156.338C33.8845 156.859 33.5357 157.292 33.0679 157.636C32.6121 157.978 32.0861 158.184 31.4901 158.252ZM46.5626 158.13L45.1113 145.523L46.9711 145.309L48.4223 157.916L46.5626 158.13ZM51.2214 157.593L50.433 150.745C50.3932 150.399 50.3348 150.049 50.2579 149.696C50.1915 149.329 50.1192 148.963 50.0409 148.597L51.7933 148.396L52.1724 150.273L51.9578 150.297C52.1552 149.598 52.5201 149.043 53.0525 148.631C53.5835 148.208 54.2246 147.953 54.9756 147.866C56.0366 147.744 56.869 147.944 57.4727 148.467C58.0883 148.988 58.4668 149.862 58.6081 151.09L59.2504 156.669L57.4443 156.877L56.8144 151.405C56.7225 150.607 56.4956 150.053 56.134 149.744C55.7828 149.422 55.2854 149.298 54.6417 149.372C53.8787 149.46 53.2982 149.769 52.9 150.298C52.5006 150.815 52.3468 151.473 52.4387 152.271L53.0275 157.386L51.2214 157.593ZM65.3447 156.131C64.3672 156.243 63.5978 156.066 63.0368 155.599C62.4743 155.12 62.132 154.35 62.0099 153.289L61.4808 148.694L59.7284 148.896L59.5679 147.501L61.3203 147.299L61.0465 144.921L62.797 144.23L63.1264 147.091L65.6298 146.803L65.7904 148.198L63.2869 148.486L63.7974 152.921C63.8743 153.588 64.0484 154.051 64.3198 154.31C64.5911 154.569 64.9533 154.672 65.4063 154.62C65.6328 154.594 65.8275 154.553 65.9902 154.498C66.1636 154.43 66.3183 154.358 66.4545 154.282L66.6233 155.748C66.4527 155.84 66.2503 155.918 66.016 155.981C65.783 156.056 65.5593 156.106 65.3447 156.131ZM68.2817 155.63L67.5015 148.852C67.459 148.483 67.4045 148.115 67.3381 147.748C67.2823 147.368 67.2152 146.995 67.1369 146.629L68.8894 146.428L69.3537 148.73L69.0676 148.763C69.1223 148.189 69.2714 147.7 69.515 147.298C69.7585 146.895 70.0727 146.581 70.4574 146.356C70.8541 146.129 71.2789 145.989 71.7319 145.937C71.9227 145.915 72.085 145.909 72.2189 145.918C72.3514 145.914 72.4852 145.923 72.6205 145.944L72.7879 147.555C72.5756 147.495 72.3913 147.468 72.235 147.474C72.0892 147.467 71.909 147.475 71.6944 147.5C71.1698 147.56 70.7365 147.731 70.3944 148.012C70.0509 148.281 69.8065 148.623 69.661 149.039C69.5156 149.454 69.4689 149.888 69.5211 150.341L70.1057 155.42L68.2817 155.63ZM78.8169 154.58C77.9228 154.683 77.1267 154.587 76.4284 154.293C75.7289 153.987 75.1604 153.509 74.7232 152.859C74.2846 152.196 74.0097 151.383 73.8986 150.417C73.7874 149.451 73.8708 148.602 74.1489 147.87C74.4255 147.125 74.8704 146.53 75.4836 146.085C76.0953 145.628 76.8483 145.348 77.7423 145.245C78.6364 145.143 79.4333 145.244 80.1329 145.55C80.843 145.843 81.4174 146.32 81.856 146.982C82.3051 147.631 82.5853 148.439 82.6965 149.404C82.8076 150.37 82.7189 151.226 82.4303 151.971C82.1523 152.704 81.7014 153.3 81.0777 153.758C80.4646 154.203 79.711 154.477 78.8169 154.58ZM78.6543 153.167C79.4411 153.077 80.0354 152.73 80.4372 152.128C80.839 151.527 80.9781 150.689 80.8546 149.616C80.7311 148.543 80.406 147.765 79.8793 147.282C79.3513 146.788 78.6938 146.585 77.907 146.676C77.1321 146.765 76.5438 147.111 76.142 147.713C75.7388 148.303 75.599 149.134 75.7225 150.207C75.846 151.28 76.1658 152.064 76.682 152.561C77.21 153.056 77.8675 153.258 78.6543 153.167ZM88.796 153.431C88.0092 153.522 87.2905 153.417 86.64 153.118C86.0014 152.817 85.4747 152.334 85.0599 151.669C84.6571 151.002 84.4001 150.186 84.2889 149.221C84.1764 148.243 84.2413 147.39 84.4835 146.662C84.7377 145.932 85.1416 145.348 85.6951 144.91C86.2592 144.458 86.9346 144.187 87.7214 144.097C88.4963 144.007 89.1985 144.126 89.8279 144.452C90.4679 144.765 90.9217 145.244 91.1893 145.89L90.9747 145.915L90.2665 139.763L92.0726 139.555L93.5877 152.716L91.7995 152.922L91.5648 150.884L91.7794 150.859C91.655 151.562 91.3233 152.144 90.7845 152.604C90.2456 153.065 89.5828 153.34 88.796 153.431ZM89.0804 151.967C89.8553 151.878 90.4496 151.531 90.8633 150.928C91.277 150.325 91.4221 149.487 91.2986 148.414C91.1751 147.341 90.8441 146.564 90.3054 146.082C89.7655 145.589 89.108 145.387 88.3332 145.476C87.5464 145.566 86.9461 145.913 86.5324 146.517C86.1292 147.106 85.9894 147.938 86.1129 149.011C86.2364 150.084 86.5622 150.868 87.0902 151.363C87.6302 151.856 88.2936 152.057 89.0804 151.967ZM99.4424 152.205C98.3576 152.33 97.5074 152.132 96.8917 151.611C96.2867 151.077 95.9134 150.196 95.7721 148.968L95.1319 143.407L96.938 143.199L97.574 148.724C97.6605 149.475 97.8793 150.012 98.2304 150.334C98.5815 150.656 99.073 150.78 99.7048 150.708C100.42 150.625 100.971 150.32 101.357 149.793C101.743 149.265 101.891 148.608 101.8 147.821L101.212 142.707L103.018 142.499L104.055 151.511L102.303 151.713L102.081 149.782L102.313 149.755C102.14 150.451 101.8 151.016 101.294 151.449C100.787 151.869 100.17 152.122 99.4424 152.205ZM110.671 150.913C109.765 151.017 108.951 150.924 108.229 150.632C107.518 150.328 106.937 149.845 106.486 149.184C106.046 148.51 105.77 147.684 105.657 146.707C105.546 145.741 105.635 144.891 105.925 144.157C106.215 143.423 106.674 142.839 107.3 142.404C107.925 141.958 108.691 141.683 109.597 141.578C110.181 141.511 110.759 141.547 111.33 141.687C111.901 141.814 112.385 142.037 112.784 142.353L112.34 143.691C111.969 143.407 111.566 143.212 111.131 143.105C110.695 142.986 110.28 142.949 109.886 142.995C109.028 143.093 108.386 143.445 107.96 144.05C107.535 144.654 107.382 145.475 107.501 146.512C107.622 147.562 107.959 148.338 108.512 148.842C109.065 149.346 109.771 149.549 110.63 149.45C111.011 149.406 111.402 149.289 111.803 149.097C112.202 148.894 112.556 148.606 112.863 148.233L113.599 149.434C113.271 149.834 112.838 150.168 112.301 150.435C111.775 150.689 111.231 150.848 110.671 150.913ZM119.165 149.935C118.187 150.048 117.418 149.87 116.857 149.403C116.295 148.925 115.952 148.155 115.83 147.094L115.301 142.498L113.549 142.7L113.388 141.305L115.141 141.103L114.867 138.725L116.617 138.034L116.947 140.895L119.45 140.607L119.611 142.002L117.107 142.29L117.618 146.725C117.695 147.392 117.869 147.856 118.14 148.114C118.411 148.373 118.774 148.476 119.227 148.424C119.453 148.398 119.648 148.357 119.811 148.302C119.984 148.234 120.139 148.162 120.275 148.086L120.444 149.552C120.273 149.644 120.071 149.722 119.836 149.785C119.603 149.86 119.38 149.91 119.165 149.935ZM122.138 149.43L121.1 140.417L122.906 140.209L123.944 149.222L122.138 149.43ZM120.741 138.556L120.525 136.678L122.617 136.438L122.833 138.315L120.741 138.556ZM130.472 148.633C129.578 148.736 128.782 148.641 128.083 148.347C127.384 148.041 126.815 147.562 126.378 146.912C125.94 146.25 125.665 145.436 125.554 144.471C125.442 143.505 125.526 142.656 125.804 141.923C126.08 141.179 126.525 140.584 127.139 140.139C127.75 139.682 128.503 139.402 129.397 139.299C130.291 139.196 131.088 139.298 131.788 139.604C132.498 139.896 133.072 140.374 133.511 141.036C133.96 141.685 134.24 142.492 134.351 143.458C134.463 144.423 134.374 145.279 134.085 146.025C133.807 146.758 133.356 147.353 132.733 147.811C132.12 148.256 131.366 148.53 130.472 148.633ZM130.309 147.221C131.096 147.13 131.69 146.784 132.092 146.182C132.494 145.58 132.633 144.743 132.51 143.67C132.386 142.597 132.061 141.819 131.534 141.336C131.006 140.841 130.349 140.639 129.562 140.73C128.787 140.819 128.199 141.164 127.797 141.766C127.394 142.356 127.254 143.188 127.377 144.261C127.501 145.333 127.821 146.118 128.337 146.614C128.865 147.109 129.522 147.311 130.309 147.221ZM136.981 147.721L136.193 140.872C136.153 140.526 136.095 140.177 136.018 139.823C135.951 139.457 135.879 139.09 135.801 138.725L137.553 138.523L137.932 140.4L137.718 140.425C137.915 139.726 138.28 139.17 138.812 138.759C139.343 138.335 139.984 138.08 140.735 137.994C141.796 137.872 142.629 138.072 143.232 138.594C143.848 139.115 144.227 139.99 144.368 141.218L145.01 146.797L143.204 147.005L142.574 141.533C142.482 140.734 142.255 140.18 141.894 139.872C141.543 139.55 141.045 139.426 140.401 139.5C139.638 139.588 139.058 139.896 138.66 140.425C138.26 140.942 138.107 141.6 138.199 142.399L138.787 147.513L136.981 147.721ZM156.229 145.668C155.335 145.771 154.539 145.676 153.841 145.381C153.141 145.075 152.573 144.597 152.136 143.947C151.697 143.285 151.422 142.471 151.311 141.505C151.2 140.54 151.283 139.691 151.561 138.958C151.838 138.213 152.283 137.619 152.896 137.174C153.508 136.717 154.261 136.437 155.155 136.334C156.049 136.231 156.846 136.332 157.545 136.638C158.256 136.931 158.83 137.409 159.269 138.071C159.718 138.72 159.998 139.527 160.109 140.493C160.22 141.458 160.131 142.314 159.843 143.06C159.565 143.792 159.114 144.388 158.49 144.846C157.877 145.291 157.124 145.565 156.229 145.668ZM156.067 144.256C156.854 144.165 157.448 143.819 157.85 143.217C158.252 142.615 158.391 141.777 158.267 140.705C158.144 139.632 157.819 138.854 157.292 138.371C156.764 137.876 156.106 137.674 155.32 137.764C154.545 137.854 153.956 138.199 153.555 138.801C153.151 139.391 153.012 140.222 153.135 141.295C153.259 142.368 153.578 143.153 154.095 143.649C154.623 144.144 155.28 144.346 156.067 144.256ZM163.188 144.704L162.311 137.086L160.559 137.288L160.398 135.893L162.651 135.634L162.204 136.157L162.039 134.726C161.917 133.665 162.093 132.829 162.566 132.219C163.038 131.597 163.793 131.226 164.83 131.107C165.08 131.078 165.344 131.066 165.623 131.07C165.901 131.074 166.134 131.108 166.323 131.171L166.492 132.637C166.342 132.594 166.157 132.567 165.939 132.556C165.731 132.531 165.519 132.532 165.305 132.556C164.959 132.596 164.669 132.702 164.435 132.874C164.2 133.034 164.027 133.259 163.915 133.55C163.816 133.839 163.79 134.198 163.84 134.627L163.98 135.843L163.67 135.517L166.388 135.204L166.549 136.599L164.117 136.878L164.994 144.496L163.188 144.704ZM172.561 143.625L176.725 130.372L178.316 130.189L185.472 142.139L183.558 142.359L181.591 138.962L182.435 139.372L174.8 140.251L175.583 139.653L174.439 143.409L172.561 143.625ZM177.728 132.322L175.749 139.054L175.273 138.693L181.621 137.962L181.31 138.414L177.8 132.314L177.728 132.322ZM190.36 141.739C189.573 141.83 188.854 141.725 188.204 141.426C187.565 141.125 187.038 140.642 186.624 139.977C186.221 139.311 185.964 138.495 185.853 137.529C185.74 136.551 185.805 135.698 186.047 134.97C186.301 134.24 186.705 133.656 187.259 133.218C187.823 132.766 188.498 132.495 189.285 132.405C190.06 132.316 190.762 132.434 191.392 132.76C192.031 133.073 192.485 133.552 192.753 134.198L192.538 134.223L191.83 128.071L193.636 127.863L195.151 141.025L193.363 141.23L193.128 139.192L193.343 139.167C193.219 139.87 192.887 140.452 192.348 140.912C191.809 141.373 191.146 141.649 190.36 141.739ZM190.644 140.275C191.419 140.186 192.013 139.84 192.427 139.236C192.841 138.633 192.986 137.795 192.862 136.722C192.739 135.649 192.408 134.872 191.869 134.39C191.329 133.897 190.672 133.695 189.897 133.784C189.11 133.875 188.51 134.221 188.096 134.825C187.693 135.415 187.553 136.246 187.676 137.319C187.8 138.392 188.126 139.176 188.654 139.671C189.194 140.164 189.857 140.366 190.644 140.275ZM201.256 140.485C200.47 140.575 199.751 140.471 199.1 140.171C198.462 139.87 197.935 139.387 197.52 138.722C197.117 138.056 196.86 137.24 196.749 136.275C196.637 135.297 196.702 134.444 196.944 133.716C197.198 132.986 197.602 132.402 198.156 131.963C198.72 131.512 199.395 131.241 200.182 131.15C200.957 131.061 201.659 131.18 202.288 131.506C202.928 131.819 203.382 132.298 203.65 132.944L203.435 132.968L202.727 126.817L204.533 126.609L206.048 139.77L204.26 139.976L204.025 137.937L204.24 137.913C204.115 138.616 203.784 139.197 203.245 139.658C202.706 140.119 202.043 140.394 201.256 140.485ZM201.541 139.021C202.316 138.931 202.91 138.585 203.324 137.982C203.737 137.379 203.883 136.541 203.759 135.468C203.636 134.395 203.304 133.617 202.766 133.136C202.226 132.642 201.568 132.44 200.794 132.53C200.007 132.62 199.406 132.967 198.993 133.57C198.59 134.16 198.45 134.992 198.573 136.065C198.697 137.138 199.023 137.921 199.551 138.416C200.091 138.91 200.754 139.111 201.541 139.021ZM208.683 139.467L207.646 130.454L209.452 130.246L210.49 139.259L208.683 139.467ZM207.287 128.593L207.071 126.716L209.163 126.475L209.379 128.352L207.287 128.593ZM216.66 138.712C215.682 138.824 214.913 138.647 214.352 138.18C213.789 137.701 213.447 136.931 213.325 135.87L212.796 131.275L211.044 131.476L210.883 130.082L212.635 129.88L212.362 127.502L214.112 126.811L214.441 129.672L216.945 129.384L217.106 130.779L214.602 131.067L215.113 135.501C215.189 136.169 215.364 136.632 215.635 136.891C215.906 137.149 216.268 137.253 216.721 137.201C216.948 137.175 217.143 137.134 217.305 137.079C217.479 137.011 217.633 136.939 217.77 136.863L217.938 138.329C217.768 138.421 217.565 138.499 217.331 138.562C217.098 138.637 216.874 138.687 216.66 138.712ZM219.633 138.206L218.595 129.194L220.401 128.986L221.439 137.998L219.633 138.206ZM218.236 127.333L218.02 125.455L220.112 125.214L220.328 127.092L218.236 127.333ZM227.967 137.41C227.073 137.513 226.276 137.417 225.578 137.123C224.879 136.817 224.31 136.339 223.873 135.689C223.434 135.027 223.159 134.213 223.048 133.247C222.937 132.281 223.021 131.432 223.299 130.7C223.575 129.955 224.02 129.36 224.633 128.915C225.245 128.458 225.998 128.179 226.892 128.076C227.786 127.973 228.583 128.074 229.283 128.38C229.993 128.673 230.567 129.15 231.006 129.813C231.455 130.461 231.735 131.269 231.846 132.234C231.957 133.2 231.869 134.056 231.58 134.802C231.302 135.534 230.851 136.13 230.227 136.588C229.614 137.033 228.861 137.307 227.967 137.41ZM227.804 135.997C228.591 135.907 229.185 135.56 229.587 134.959C229.989 134.357 230.128 133.519 230.004 132.446C229.881 131.373 229.556 130.595 229.029 130.113C228.501 129.618 227.844 129.416 227.057 129.506C226.282 129.595 225.694 129.941 225.292 130.543C224.889 131.133 224.749 131.964 224.872 133.037C224.996 134.11 225.316 134.895 225.832 135.391C226.36 135.886 227.017 136.088 227.804 135.997ZM234.476 136.498L233.688 129.649C233.648 129.303 233.589 128.953 233.512 128.6C233.446 128.233 233.374 127.867 233.295 127.502L235.048 127.3L235.427 129.177L235.212 129.201C235.41 128.502 235.775 127.947 236.307 127.535C236.838 127.112 237.479 126.857 238.23 126.77C239.291 126.648 240.124 126.848 240.727 127.371C241.343 127.892 241.721 128.766 241.863 129.994L242.505 135.573L240.699 135.781L240.069 130.309C239.977 129.511 239.75 128.957 239.389 128.648C239.037 128.326 238.54 128.202 237.896 128.276C237.133 128.364 236.553 128.673 236.155 129.202C235.755 129.719 235.601 130.377 235.693 131.175L236.282 136.29L234.476 136.498ZM248.546 135.041C247.747 135.133 247.028 135.028 246.39 134.727C245.751 134.426 245.224 133.944 244.81 133.279C244.407 132.612 244.15 131.796 244.039 130.831C243.926 129.853 243.991 129 244.233 128.272C244.487 127.542 244.891 126.958 245.445 126.52C245.997 126.07 246.672 125.799 247.471 125.707C248.258 125.616 248.966 125.734 249.595 126.06C250.225 126.386 250.674 126.878 250.943 127.536L250.746 127.558L250.69 125.499L252.443 125.297C252.45 125.671 252.456 126.045 252.463 126.418C252.481 126.779 252.509 127.132 252.549 127.477L253.337 134.326L251.531 134.534L251.301 132.531L251.497 132.509C251.384 133.198 251.051 133.774 250.5 134.236C249.96 134.685 249.309 134.953 248.546 135.041ZM248.83 133.577C249.605 133.488 250.193 133.142 250.595 132.54C251.009 131.937 251.154 131.099 251.03 130.026C250.907 128.953 250.576 128.176 250.037 127.694C249.509 127.199 248.858 126.996 248.083 127.086C247.296 127.176 246.696 127.523 246.282 128.126C245.879 128.716 245.739 129.548 245.863 130.621C245.986 131.694 246.312 132.478 246.84 132.972C247.368 133.467 248.031 133.669 248.83 133.577ZM255.973 134.023L254.458 120.862L256.264 120.654L257.779 133.815L255.973 134.023ZM265.372 132.941L263.921 120.334L265.548 120.147L271.674 130.548L271.137 130.61L274.739 119.089L276.349 118.903L277.8 131.51L276.119 131.704L274.958 121.618L275.548 121.55L272.167 132.159L271.005 132.292L265.302 122.73L265.91 122.66L267.071 132.745L265.372 132.941ZM280.648 131.182L279.61 122.17L281.416 121.962L282.454 130.974L280.648 131.182ZM279.251 120.309L279.035 118.431L281.127 118.19L281.343 120.068L279.251 120.309ZM288.213 130.475C287.462 130.561 286.759 130.545 286.105 130.427C285.452 130.309 284.896 130.101 284.439 129.804L284.852 128.506C285.331 128.789 285.849 128.983 286.404 129.088C286.96 129.193 287.518 129.214 288.078 129.149C288.734 129.074 289.216 128.904 289.523 128.639C289.83 128.362 289.96 128.021 289.913 127.615C289.877 127.305 289.741 127.067 289.505 126.901C289.28 126.734 288.924 126.63 288.436 126.59L286.68 126.447C285.898 126.368 285.287 126.149 284.847 125.789C284.407 125.429 284.15 124.933 284.078 124.301C284.016 123.764 284.104 123.271 284.342 122.821C284.592 122.369 284.972 121.994 285.481 121.693C286.001 121.392 286.626 121.199 287.353 121.115C288.02 121.039 288.651 121.063 289.245 121.187C289.84 121.312 290.348 121.532 290.771 121.845L290.336 123.109C289.931 122.842 289.486 122.652 289.002 122.538C288.517 122.413 288.036 122.378 287.559 122.433C286.891 122.509 286.411 122.692 286.118 122.979C285.825 123.266 285.702 123.613 285.748 124.018C285.784 124.328 285.909 124.573 286.123 124.754C286.347 124.921 286.68 125.034 287.122 125.092L288.878 125.234C289.708 125.308 290.347 125.512 290.796 125.847C291.246 126.181 291.507 126.671 291.581 127.315C291.646 127.875 291.547 128.381 291.285 128.834C291.023 129.287 290.631 129.653 290.107 129.93C289.583 130.208 288.952 130.389 288.213 130.475ZM297.119 129.449C296.368 129.536 295.665 129.52 295.012 129.402C294.358 129.284 293.802 129.076 293.345 128.778L293.758 127.481C294.237 127.764 294.755 127.958 295.31 128.063C295.866 128.168 296.424 128.188 296.984 128.124C297.64 128.048 298.122 127.878 298.429 127.613C298.736 127.336 298.866 126.995 298.819 126.59C298.783 126.28 298.647 126.042 298.411 125.876C298.186 125.709 297.83 125.605 297.342 125.564L295.586 125.422C294.804 125.343 294.193 125.124 293.753 124.763C293.313 124.403 293.056 123.907 292.984 123.276C292.922 122.739 293.01 122.246 293.248 121.796C293.498 121.344 293.878 120.968 294.387 120.668C294.908 120.367 295.532 120.174 296.259 120.09C296.926 120.013 297.557 120.037 298.151 120.162C298.746 120.287 299.254 120.506 299.677 120.82L299.242 122.084C298.837 121.817 298.392 121.626 297.908 121.513C297.423 121.388 296.942 121.352 296.465 121.407C295.797 121.484 295.317 121.666 295.024 121.954C294.731 122.241 294.608 122.587 294.654 122.993C294.69 123.303 294.815 123.548 295.029 123.729C295.253 123.896 295.587 124.009 296.028 124.067L297.784 124.209C298.614 124.282 299.253 124.487 299.702 124.821C300.152 125.156 300.413 125.646 300.487 126.289C300.552 126.85 300.453 127.356 300.191 127.809C299.929 128.262 299.537 128.627 299.013 128.905C298.489 129.183 297.858 129.364 297.119 129.449ZM302.913 128.619L301.875 119.607L303.681 119.399L304.719 128.411L302.913 128.619ZM301.516 117.746L301.3 115.868L303.392 115.627L303.608 117.505L301.516 117.746ZM311.247 127.823C310.353 127.926 309.556 127.83 308.858 127.536C308.159 127.23 307.59 126.752 307.153 126.102C306.714 125.44 306.44 124.626 306.328 123.66C306.217 122.694 306.301 121.845 306.579 121.113C306.855 120.368 307.3 119.773 307.913 119.328C308.525 118.871 309.278 118.591 310.172 118.489C311.066 118.386 311.863 118.487 312.563 118.793C313.273 119.086 313.847 119.563 314.286 120.225C314.735 120.874 315.015 121.682 315.126 122.647C315.237 123.613 315.149 124.469 314.86 125.215C314.582 125.947 314.131 126.543 313.508 127.001C312.894 127.446 312.141 127.72 311.247 127.823ZM311.084 126.41C311.871 126.32 312.465 125.973 312.867 125.371C313.269 124.77 313.408 123.932 313.284 122.859C313.161 121.786 312.836 121.008 312.309 120.526C311.781 120.031 311.124 119.829 310.337 119.919C309.562 120.008 308.974 120.354 308.572 120.956C308.169 121.546 308.029 122.377 308.152 123.45C308.276 124.523 308.596 125.308 309.112 125.804C309.64 126.299 310.297 126.501 311.084 126.41ZM317.756 126.91L316.968 120.062C316.928 119.716 316.869 119.366 316.793 119.013C316.726 118.646 316.654 118.28 316.575 117.914L318.328 117.713L318.707 119.59L318.492 119.614C318.69 118.915 319.055 118.36 319.587 117.948C320.118 117.525 320.759 117.27 321.51 117.183C322.571 117.061 323.404 117.261 324.007 117.784C324.623 118.305 325.001 119.179 325.143 120.407L325.785 125.986L323.979 126.194L323.349 120.722C323.257 119.924 323.03 119.37 322.669 119.061C322.317 118.739 321.82 118.615 321.176 118.689C320.413 118.777 319.833 119.086 319.435 119.615C319.035 120.132 318.881 120.79 318.973 121.588L319.562 126.703L317.756 126.91ZM336.306 124.775L335.034 113.724L330.725 114.22L330.545 112.664L341.024 111.458L341.203 113.014L336.894 113.51L338.166 124.561L336.306 124.775ZM346.86 123.723C345.406 123.891 344.214 123.611 343.285 122.884C342.356 122.158 341.808 121.068 341.64 119.613C341.532 118.671 341.616 117.828 341.893 117.084C342.181 116.338 342.625 115.737 343.225 115.281C343.836 114.813 344.57 114.529 345.428 114.43C346.275 114.332 347.005 114.43 347.618 114.721C348.231 115.013 348.725 115.47 349.098 116.091C349.47 116.701 349.707 117.446 349.809 118.329L349.875 118.901L343.08 119.683L342.96 118.646L348.522 118.006L348.244 118.273C348.141 117.379 347.859 116.711 347.397 116.269C346.946 115.813 346.345 115.629 345.594 115.715C344.76 115.811 344.15 116.178 343.764 116.814C343.377 117.438 343.242 118.257 343.358 119.27L343.379 119.449C343.501 120.51 343.849 121.279 344.424 121.757C345.01 122.233 345.78 122.416 346.734 122.306C347.258 122.246 347.739 122.118 348.175 121.923C348.622 121.714 349.035 121.413 349.412 121.02L350.144 122.185C349.769 122.603 349.296 122.947 348.723 123.219C348.149 123.478 347.528 123.646 346.86 123.723ZM352.437 122.918L351.649 116.069C351.609 115.724 351.551 115.374 351.474 115.02C351.407 114.654 351.335 114.287 351.257 113.922L353.009 113.72L353.388 115.597L353.174 115.622C353.348 114.937 353.672 114.387 354.143 113.97C354.626 113.552 355.232 113.301 355.959 113.218C356.698 113.133 357.321 113.242 357.827 113.546C358.343 113.837 358.733 114.336 358.996 115.042L358.709 115.075C358.872 114.392 359.218 113.827 359.746 113.38C360.273 112.92 360.912 112.647 361.663 112.561C362.665 112.446 363.449 112.651 364.017 113.178C364.585 113.704 364.94 114.582 365.081 115.809L365.723 121.389L363.917 121.596L363.285 116.107C363.195 115.32 362.993 114.769 362.679 114.455C362.375 114.128 361.925 113.998 361.329 114.067C360.638 114.147 360.117 114.448 359.766 114.972C359.416 115.495 359.288 116.162 359.381 116.973L359.965 122.051L358.159 122.259L357.527 116.77C357.437 115.983 357.235 115.432 356.921 115.118C356.617 114.791 356.167 114.661 355.571 114.73C354.88 114.809 354.365 115.11 354.026 115.632C353.688 116.155 353.565 116.821 353.659 117.632L354.243 122.71L352.437 122.918ZM368.755 124.953L367.522 114.242C367.483 113.896 367.424 113.547 367.347 113.193C367.281 112.826 367.209 112.46 367.13 112.095L368.883 111.893L369.296 113.911L369.1 113.934C369.212 113.232 369.532 112.652 370.059 112.192C370.598 111.732 371.266 111.455 372.065 111.364C372.864 111.272 373.583 111.382 374.223 111.695C374.862 111.996 375.382 112.474 375.783 113.128C376.197 113.781 376.46 114.596 376.572 115.574C376.683 116.539 376.612 117.393 376.36 118.135C376.119 118.875 375.721 119.465 375.168 119.903C374.614 120.341 373.938 120.606 373.14 120.698C372.353 120.788 371.645 120.677 371.017 120.362C370.4 120.035 369.957 119.548 369.69 118.903L369.886 118.88L370.562 124.745L368.755 124.953ZM372.53 119.337C373.317 119.246 373.911 118.9 374.313 118.298C374.727 117.695 374.872 116.857 374.748 115.784C374.625 114.711 374.294 113.934 373.755 113.452C373.227 112.957 372.569 112.755 371.783 112.846C370.996 112.936 370.396 113.283 369.982 113.886C369.579 114.476 369.439 115.308 369.562 116.381C369.686 117.454 370.012 118.237 370.54 118.732C371.08 119.226 371.743 119.427 372.53 119.337ZM379.208 119.836L377.693 106.675L379.499 106.467L381.014 119.628L379.208 119.836ZM387.13 119.087C386.332 119.179 385.613 119.075 384.974 118.774C384.336 118.473 383.809 117.99 383.394 117.325C382.991 116.659 382.734 115.843 382.623 114.877C382.511 113.9 382.576 113.047 382.818 112.318C383.072 111.588 383.476 111.004 384.03 110.566C384.582 110.116 385.257 109.845 386.056 109.753C386.843 109.662 387.551 109.78 388.18 110.106C388.81 110.432 389.259 110.924 389.528 111.582L389.331 111.605L389.275 109.545L391.028 109.344C391.034 109.717 391.041 110.091 391.048 110.465C391.065 110.825 391.094 111.178 391.134 111.524L391.922 118.373L390.116 118.581L389.885 116.578L390.082 116.555C389.968 117.245 389.636 117.82 389.085 118.282C388.545 118.731 387.893 118.999 387.13 119.087ZM387.415 117.623C388.19 117.534 388.778 117.188 389.18 116.587C389.594 115.983 389.739 115.145 389.615 114.072C389.492 112.999 389.161 112.222 388.622 111.741C388.094 111.246 387.442 111.043 386.668 111.132C385.881 111.223 385.28 111.57 384.867 112.173C384.464 112.763 384.324 113.594 384.447 114.667C384.571 115.74 384.897 116.524 385.425 117.019C385.953 117.514 386.616 117.715 387.415 117.623ZM398.081 117.827C397.103 117.939 396.334 117.762 395.773 117.295C395.21 116.816 394.868 116.046 394.746 114.985L394.217 110.39L392.465 110.592L392.304 109.197L394.056 108.995L393.783 106.617L395.533 105.926L395.862 108.787L398.366 108.499L398.526 109.894L396.023 110.182L396.534 114.617C396.61 115.284 396.784 115.747 397.056 116.006C397.327 116.265 397.689 116.368 398.142 116.316C398.369 116.29 398.564 116.249 398.726 116.194C398.9 116.126 399.054 116.054 399.191 115.978L399.359 117.444C399.189 117.536 398.986 117.614 398.752 117.677C398.519 117.752 398.295 117.802 398.081 117.827ZM405.151 117.013C403.697 117.18 402.505 116.901 401.576 116.174C400.647 115.448 400.098 114.357 399.931 112.903C399.823 111.961 399.907 111.118 400.183 110.373C400.472 109.627 400.916 109.027 401.516 108.571C402.126 108.102 402.861 107.818 403.719 107.72C404.565 107.622 405.295 107.719 405.909 108.011C406.522 108.303 407.016 108.759 407.389 109.381C407.761 109.99 407.998 110.736 408.1 111.618L408.166 112.19L401.37 112.973L401.251 111.935L406.812 111.295L406.535 111.563C406.432 110.669 406.15 110.001 405.688 109.558C405.237 109.103 404.636 108.919 403.885 109.005C403.051 109.101 402.441 109.467 402.055 110.104C401.668 110.728 401.532 111.547 401.649 112.56L401.67 112.739C401.792 113.8 402.14 114.569 402.714 115.047C403.301 115.523 404.071 115.706 405.024 115.596C405.549 115.536 406.029 115.408 406.466 115.213C406.913 115.004 407.325 114.703 407.703 114.309L408.435 115.475C408.06 115.893 407.587 116.237 407.014 116.508C406.44 116.768 405.819 116.936 405.151 117.013ZM413.84 116.013C413.089 116.099 412.387 116.083 411.733 115.965C411.079 115.847 410.524 115.639 410.067 115.342L410.479 114.044C410.958 114.327 411.476 114.521 412.032 114.626C412.587 114.731 413.145 114.752 413.706 114.687C414.361 114.612 414.843 114.442 415.151 114.177C415.457 113.9 415.587 113.559 415.54 113.153C415.505 112.843 415.368 112.605 415.132 112.439C414.907 112.272 414.551 112.168 414.063 112.128L412.307 111.985C411.525 111.906 410.914 111.687 410.474 111.327C410.034 110.967 409.778 110.471 409.705 109.839C409.643 109.302 409.731 108.809 409.969 108.359C410.219 107.907 410.599 107.532 411.108 107.231C411.629 106.93 412.253 106.737 412.98 106.653C413.648 106.577 414.279 106.601 414.873 106.725C415.467 106.85 415.975 107.07 416.398 107.383L415.964 108.647C415.558 108.38 415.114 108.19 414.63 108.076C414.144 107.951 413.663 107.916 413.186 107.971C412.518 108.047 412.038 108.23 411.745 108.517C411.452 108.804 411.329 109.151 411.376 109.556C411.411 109.866 411.536 110.111 411.75 110.292C411.975 110.459 412.308 110.572 412.749 110.63L414.505 110.772C415.335 110.846 415.975 111.05 416.424 111.385C416.873 111.719 417.135 112.209 417.209 112.853C417.273 113.413 417.175 113.919 416.913 114.372C416.651 114.825 416.258 115.191 415.734 115.468C415.211 115.746 414.579 115.927 413.84 116.013ZM132.792 177.795C132.208 177.863 131.65 177.788 131.117 177.571C130.584 177.343 130.14 177.001 129.786 176.547C129.431 176.093 129.22 175.567 129.151 174.971C129.088 174.423 129.165 173.888 129.383 173.368C129.613 172.846 129.955 172.408 130.41 172.054C130.875 171.687 131.423 171.466 132.055 171.394C132.639 171.326 133.192 171.408 133.714 171.638C134.234 171.855 134.671 172.186 135.024 172.628C135.389 173.069 135.607 173.6 135.678 174.22C135.745 174.804 135.658 175.358 135.416 175.881C135.186 176.402 134.838 176.835 134.37 177.179C133.914 177.521 133.388 177.727 132.792 177.795ZM147.865 177.673L146.413 165.066L151.742 164.453C153.089 164.298 154.169 164.499 154.983 165.058C155.794 165.605 156.266 166.45 156.398 167.595C156.484 168.346 156.392 169.009 156.12 169.584C155.848 170.159 155.424 170.624 154.849 170.98C154.273 171.324 153.573 171.544 152.751 171.638L153.004 171.319L153.487 171.264C153.975 171.208 154.425 171.283 154.835 171.489C155.257 171.694 155.625 172.056 155.939 172.576L158.218 176.481L156.18 176.716L153.916 172.791C153.681 172.323 153.364 172.039 152.966 171.94C152.58 171.839 152.113 171.821 151.565 171.884L149.115 172.166L149.724 177.459L147.865 177.673ZM148.952 170.753L152.117 170.389C153.012 170.286 153.663 170.017 154.072 169.584C154.493 169.149 154.663 168.574 154.58 167.858C154.497 167.131 154.201 166.61 153.693 166.294C153.198 165.976 152.503 165.869 151.609 165.972L148.444 166.336L148.952 170.753ZM163.844 175.996C162.949 176.099 162.153 176.004 161.455 175.71C160.756 175.404 160.187 174.926 159.75 174.275C159.311 173.613 159.036 172.799 158.925 171.834C158.814 170.868 158.897 170.019 159.176 169.286C159.452 168.542 159.897 167.947 160.51 167.502C161.122 167.045 161.875 166.765 162.769 166.662C163.663 166.559 164.46 166.661 165.16 166.967C165.87 167.259 166.444 167.737 166.883 168.399C167.332 169.048 167.612 169.855 167.723 170.821C167.834 171.786 167.746 172.642 167.457 173.388C167.179 174.121 166.728 174.716 166.104 175.174C165.491 175.619 164.738 175.893 163.844 175.996ZM163.681 174.584C164.468 174.493 165.062 174.147 165.464 173.545C165.866 172.943 166.005 172.106 165.881 171.033C165.758 169.96 165.433 169.182 164.906 168.699C164.378 168.204 163.72 168.002 162.934 168.093C162.159 168.182 161.57 168.527 161.169 169.129C160.765 169.719 160.626 170.551 160.749 171.624C160.873 172.697 161.193 173.481 161.709 173.977C162.237 174.472 162.894 174.674 163.681 174.584ZM170.353 175.084L168.838 161.923L170.644 161.715L172.159 174.876L170.353 175.084ZM174.806 174.571L173.291 161.41L175.097 161.202L176.612 174.363L174.806 174.571ZM183.14 173.775C182.246 173.878 181.45 173.782 180.751 173.488C180.052 173.182 179.483 172.704 179.046 172.054C178.608 171.392 178.333 170.578 178.222 169.612C178.11 168.647 178.194 167.797 178.472 167.065C178.749 166.32 179.193 165.726 179.807 165.281C180.418 164.824 181.171 164.544 182.065 164.441C182.959 164.338 183.756 164.439 184.456 164.745C185.166 165.038 185.74 165.515 186.179 166.178C186.628 166.827 186.908 167.634 187.019 168.599C187.131 169.565 187.042 170.421 186.753 171.167C186.475 171.899 186.024 172.495 185.401 172.953C184.788 173.398 184.034 173.672 183.14 173.775ZM182.977 172.362C183.764 172.272 184.358 171.926 184.76 171.324C185.162 170.722 185.301 169.884 185.178 168.811C185.054 167.739 184.729 166.961 184.202 166.478C183.674 165.983 183.017 165.781 182.23 165.871C181.455 165.96 180.867 166.306 180.465 166.908C180.062 167.498 179.922 168.329 180.046 169.402C180.169 170.475 180.489 171.26 181.005 171.756C181.533 172.251 182.191 172.453 182.977 172.362ZM192.869 172.655C191.784 172.78 190.934 172.582 190.318 172.061C189.713 171.527 189.34 170.645 189.198 169.418L188.558 163.856L190.364 163.648L191 169.174C191.087 169.925 191.306 170.461 191.657 170.783C192.008 171.105 192.499 171.23 193.131 171.157C193.846 171.075 194.397 170.77 194.783 170.242C195.169 169.715 195.317 169.057 195.227 168.271L194.638 163.156L196.444 162.949L197.482 171.961L195.729 172.163L195.507 170.231L195.739 170.205C195.566 170.901 195.226 171.466 194.72 171.898C194.213 172.319 193.596 172.571 192.869 172.655ZM203.65 171.414C202.673 171.526 201.903 171.349 201.342 170.882C200.78 170.404 200.438 169.634 200.316 168.573L199.786 163.977L198.034 164.179L197.873 162.784L199.626 162.582L199.352 160.204L201.103 159.513L201.432 162.374L203.935 162.086L204.096 163.481L201.593 163.769L202.103 168.204C202.18 168.871 202.354 169.335 202.625 169.593C202.897 169.852 203.259 169.955 203.712 169.903C203.938 169.877 204.133 169.836 204.296 169.781C204.469 169.713 204.624 169.641 204.76 169.565L204.929 171.031C204.758 171.123 204.556 171.201 204.322 171.264C204.089 171.339 203.865 171.389 203.65 171.414ZM215.271 170.076C214.377 170.179 213.581 170.083 212.883 169.789C212.183 169.483 211.615 169.005 211.178 168.355C210.739 167.693 210.464 166.879 210.353 165.913C210.242 164.948 210.325 164.099 210.603 163.366C210.88 162.621 211.325 162.027 211.938 161.582C212.55 161.125 213.303 160.845 214.197 160.742C215.091 160.639 215.888 160.74 216.587 161.046C217.298 161.339 217.872 161.817 218.311 162.479C218.76 163.128 219.04 163.935 219.151 164.9C219.262 165.866 219.173 166.722 218.885 167.468C218.607 168.2 218.156 168.796 217.532 169.254C216.919 169.699 216.166 169.973 215.271 170.076ZM215.109 168.663C215.896 168.573 216.49 168.227 216.892 167.625C217.294 167.023 217.433 166.185 217.309 165.113C217.186 164.04 216.861 163.262 216.334 162.779C215.806 162.284 215.148 162.082 214.362 162.172C213.587 162.262 212.998 162.607 212.597 163.209C212.193 163.799 212.054 164.63 212.177 165.703C212.301 166.776 212.62 167.561 213.137 168.057C213.665 168.552 214.322 168.754 215.109 168.663ZM222.23 169.112L221.353 161.494L219.601 161.696L219.44 160.301L221.693 160.042L221.246 160.564L221.081 159.134C220.959 158.073 221.135 157.237 221.608 156.627C222.08 156.005 222.835 155.634 223.872 155.515C224.122 155.486 224.386 155.474 224.665 155.478C224.943 155.482 225.176 155.516 225.365 155.579L225.534 157.045C225.384 157.002 225.199 156.975 224.981 156.964C224.773 156.939 224.561 156.94 224.347 156.964C224.001 157.004 223.711 157.11 223.477 157.282C223.242 157.442 223.069 157.667 222.957 157.958C222.858 158.247 222.832 158.606 222.882 159.035L223.022 160.251L222.712 159.925L225.43 159.612L225.591 161.006L223.159 161.286L224.036 168.904L222.23 169.112ZM238.595 167.391C237.308 167.539 236.181 167.403 235.215 166.983C234.248 166.563 233.465 165.898 232.865 164.989C232.276 164.066 231.905 162.943 231.753 161.62C231.6 160.297 231.707 159.125 232.073 158.104C232.45 157.082 233.062 156.257 233.907 155.628C234.753 154.999 235.82 154.611 237.107 154.462C238.001 154.36 238.815 154.399 239.549 154.58C240.282 154.761 240.94 155.072 241.522 155.512L241.049 157.071C240.421 156.648 239.82 156.361 239.247 156.209C238.686 156.056 238.048 156.021 237.332 156.103C235.973 156.26 234.984 156.797 234.365 157.713C233.746 158.63 233.525 159.858 233.702 161.395C233.879 162.933 234.374 164.084 235.186 164.848C235.998 165.6 237.083 165.898 238.442 165.742C239.157 165.659 239.771 165.48 240.282 165.204C240.806 164.926 241.325 164.504 241.84 163.937L242.654 165.347C242.188 165.909 241.618 166.367 240.946 166.722C240.273 167.065 239.49 167.288 238.595 167.391ZM248.241 166.281C247.347 166.384 246.551 166.288 245.853 165.994C245.153 165.688 244.585 165.21 244.148 164.56C243.709 163.897 243.434 163.083 243.323 162.118C243.212 161.152 243.295 160.303 243.573 159.571C243.85 158.826 244.295 158.231 244.908 157.786C245.52 157.329 246.273 157.049 247.167 156.946C248.061 156.843 248.858 156.945 249.557 157.251C250.267 157.544 250.842 158.021 251.28 158.683C251.729 159.332 252.01 160.139 252.121 161.105C252.232 162.071 252.143 162.926 251.855 163.672C251.577 164.405 251.126 165 250.502 165.459C249.889 165.904 249.135 166.178 248.241 166.281ZM248.079 164.868C248.865 164.777 249.46 164.431 249.862 163.829C250.263 163.227 250.402 162.39 250.279 161.317C250.155 160.244 249.83 159.466 249.304 158.983C248.776 158.488 248.118 158.286 247.331 158.377C246.556 158.466 245.968 158.812 245.566 159.414C245.163 160.004 245.023 160.835 245.147 161.908C245.27 162.981 245.59 163.765 246.106 164.262C246.634 164.756 247.292 164.959 248.079 164.868ZM254.751 165.368L253.962 158.52C253.922 158.174 253.864 157.824 253.787 157.471C253.721 157.104 253.648 156.738 253.57 156.372L255.322 156.171L255.702 158.047L255.487 158.072C255.662 157.388 255.985 156.837 256.456 156.42C256.94 156.002 257.545 155.752 258.272 155.668C259.011 155.583 259.634 155.692 260.14 155.996C260.657 156.287 261.046 156.786 261.309 157.493L261.023 157.526C261.186 156.842 261.531 156.277 262.06 155.83C262.587 155.371 263.226 155.098 263.977 155.011C264.978 154.896 265.763 155.102 266.331 155.628C266.899 156.155 267.253 157.032 267.395 158.26L268.037 163.839L266.231 164.047L265.599 158.557C265.508 157.77 265.306 157.22 264.992 156.906C264.689 156.578 264.239 156.449 263.643 156.517C262.951 156.597 262.43 156.898 262.08 157.422C261.729 157.945 261.601 158.613 261.694 159.423L262.279 164.502L260.473 164.71L259.841 159.22C259.75 158.433 259.548 157.883 259.234 157.568C258.931 157.241 258.481 157.112 257.885 157.18C257.193 157.26 256.678 157.561 256.34 158.083C256.001 158.605 255.879 159.271 255.972 160.082L256.557 165.16L254.751 165.368ZM270.624 163.541L269.836 156.692C269.796 156.346 269.738 155.997 269.661 155.643C269.594 155.276 269.522 154.91 269.444 154.545L271.196 154.343L271.575 156.22L271.361 156.245C271.536 155.56 271.859 155.01 272.33 154.593C272.814 154.175 273.419 153.924 274.146 153.841C274.885 153.755 275.508 153.865 276.014 154.169C276.53 154.46 276.92 154.959 277.183 155.665L276.897 155.698C277.059 155.015 277.405 154.45 277.933 154.002C278.46 153.543 279.099 153.27 279.85 153.184C280.852 153.069 281.636 153.274 282.204 153.801C282.772 154.327 283.127 155.204 283.268 156.432L283.911 162.011L282.104 162.219L281.472 156.73C281.382 155.943 281.18 155.392 280.866 155.078C280.562 154.751 280.112 154.621 279.516 154.69C278.825 154.77 278.304 155.071 277.954 155.595C277.603 156.118 277.475 156.785 277.568 157.596L278.153 162.674L276.346 162.882L275.715 157.392C275.624 156.606 275.422 156.055 275.108 155.741C274.804 155.414 274.354 155.284 273.758 155.353C273.067 155.432 272.552 155.733 272.214 156.255C271.875 156.778 271.752 157.444 271.846 158.255L272.43 163.333L270.624 163.541ZM289.717 161.506C288.633 161.631 287.782 161.433 287.167 160.912C286.562 160.378 286.188 159.496 286.047 158.269L285.407 152.707L287.213 152.499L287.849 158.025C287.935 158.776 288.154 159.312 288.505 159.634C288.856 159.956 289.348 160.081 289.98 160.008C290.695 159.926 291.246 159.621 291.632 159.093C292.018 158.566 292.166 157.908 292.075 157.122L291.487 152.007L293.293 151.799L294.33 160.812L292.578 161.014L292.355 159.082L292.588 159.056C292.414 159.752 292.075 160.317 291.569 160.749C291.062 161.17 290.445 161.422 289.717 161.506ZM296.976 160.507L296.187 153.659C296.147 153.313 296.089 152.963 296.012 152.61C295.946 152.243 295.873 151.877 295.795 151.511L297.547 151.31L297.927 153.187L297.712 153.211C297.909 152.512 298.274 151.957 298.807 151.545C299.338 151.122 299.979 150.867 300.73 150.78C301.791 150.658 302.623 150.858 303.227 151.381C303.842 151.902 304.221 152.776 304.362 154.004L305.005 159.583L303.199 159.791L302.569 154.319C302.477 153.52 302.25 152.967 301.888 152.658C301.537 152.336 301.04 152.212 300.396 152.286C299.633 152.374 299.052 152.683 298.654 153.212C298.255 153.729 298.101 154.387 298.193 155.185L298.782 160.299L296.976 160.507ZM307.576 159.287L306.538 150.275L308.344 150.067L309.382 159.079L307.576 159.287ZM306.179 148.414L305.963 146.536L308.055 146.295L308.271 148.173L306.179 148.414ZM315.552 158.532C314.574 158.645 313.805 158.467 313.244 158C312.682 157.522 312.339 156.752 312.217 155.691L311.688 151.095L309.936 151.297L309.775 149.902L311.528 149.7L311.254 147.322L313.004 146.631L313.334 149.492L315.837 149.204L315.998 150.599L313.494 150.887L314.005 155.322C314.082 155.989 314.256 156.453 314.527 156.711C314.798 156.97 315.161 157.073 315.614 157.021C315.84 156.995 316.035 156.954 316.197 156.899C316.371 156.831 316.526 156.759 316.662 156.683L316.831 158.149C316.66 158.241 316.458 158.319 316.223 158.382C315.99 158.457 315.767 158.507 315.552 158.532ZM318.846 162.103L318.248 160.686C318.795 160.502 319.243 160.306 319.593 160.096C319.956 159.885 320.246 159.628 320.465 159.325C320.685 159.034 320.861 158.67 320.991 158.232L321.317 157.125L321.366 157.863L316.393 149.14L318.325 148.918L322.229 156.078L321.746 156.134L323.922 148.273L325.781 148.059L322.762 158.191C322.569 158.817 322.346 159.35 322.095 159.79C321.843 160.23 321.559 160.595 321.242 160.885C320.926 161.175 320.567 161.415 320.166 161.607C319.765 161.798 319.325 161.963 318.846 162.103ZM333.162 156.342L331.711 143.735L333.571 143.521L335.022 156.128L333.162 156.342ZM337.821 155.805L337.033 148.957C336.993 148.611 336.935 148.261 336.858 147.908C336.791 147.541 336.719 147.175 336.641 146.809L338.393 146.608L338.772 148.485L338.558 148.509C338.755 147.81 339.12 147.255 339.652 146.843C340.183 146.42 340.824 146.165 341.575 146.078C342.636 145.956 343.469 146.156 344.072 146.679C344.688 147.2 345.066 148.074 345.208 149.302L345.85 154.881L344.044 155.089L343.414 149.617C343.322 148.818 343.095 148.265 342.734 147.956C342.383 147.634 341.885 147.51 341.241 147.584C340.478 147.672 339.898 147.981 339.5 148.51C339.1 149.027 338.946 149.684 339.038 150.483L339.627 155.597L337.821 155.805ZM352.391 154.291C351.485 154.395 350.671 154.302 349.949 154.011C349.238 153.706 348.657 153.223 348.206 152.562C347.766 151.888 347.49 151.062 347.378 150.085C347.266 149.119 347.356 148.269 347.646 147.536C347.936 146.802 348.394 146.217 349.02 145.783C349.645 145.336 350.411 145.061 351.317 144.957C351.901 144.89 352.479 144.926 353.051 145.065C353.621 145.193 354.106 145.415 354.504 145.731L354.06 147.069C353.69 146.785 353.287 146.59 352.852 146.483C352.415 146.364 352 146.328 351.607 146.373C350.748 146.472 350.106 146.823 349.681 147.428C349.255 148.033 349.102 148.854 349.221 149.891C349.342 150.94 349.679 151.716 350.232 152.22C350.786 152.724 351.492 152.927 352.35 152.828C352.731 152.784 353.122 152.667 353.523 152.476C353.923 152.273 354.276 151.984 354.583 151.611L355.32 152.813C354.991 153.213 354.559 153.546 354.022 153.814C353.495 154.067 352.952 154.227 352.391 154.291ZM361.355 153.259C359.9 153.427 358.709 153.147 357.78 152.421C356.85 151.694 356.302 150.604 356.135 149.149C356.026 148.208 356.11 147.364 356.387 146.62C356.676 145.874 357.12 145.273 357.72 144.818C358.33 144.349 359.064 144.065 359.923 143.966C360.769 143.869 361.499 143.966 362.112 144.258C362.726 144.549 363.219 145.006 363.593 145.627C363.965 146.237 364.202 146.982 364.303 147.865L364.369 148.437L357.574 149.219L357.455 148.182L363.016 147.542L362.739 147.809C362.636 146.915 362.354 146.247 361.892 145.805C361.441 145.35 360.84 145.165 360.089 145.252C359.254 145.348 358.644 145.714 358.258 146.35C357.871 146.974 357.736 147.793 357.853 148.807L357.873 148.985C357.995 150.046 358.344 150.816 358.918 151.293C359.504 151.769 360.274 151.952 361.228 151.842C361.753 151.782 362.233 151.654 362.67 151.459C363.117 151.251 363.529 150.949 363.906 150.556L364.639 151.722C364.264 152.139 363.79 152.484 363.217 152.755C362.643 153.014 362.022 153.182 361.355 153.259ZM366.932 152.454L366.143 145.605C366.103 145.26 366.045 144.91 365.968 144.557C365.902 144.19 365.829 143.824 365.751 143.458L367.503 143.256L367.883 145.133L367.668 145.158C367.865 144.459 368.23 143.904 368.763 143.492C369.294 143.068 369.935 142.813 370.686 142.727C371.747 142.605 372.579 142.805 373.183 143.327C373.798 143.848 374.177 144.723 374.318 145.951L374.961 151.53L373.154 151.738L372.525 146.266C372.433 145.467 372.206 144.914 371.844 144.605C371.493 144.283 370.996 144.159 370.352 144.233C369.589 144.321 369.008 144.629 368.61 145.158C368.211 145.675 368.057 146.333 368.149 147.132L368.738 152.246L366.932 152.454ZM381.055 150.991C380.077 151.104 379.308 150.927 378.747 150.46C378.185 149.981 377.842 149.211 377.72 148.15L377.191 143.555L375.439 143.756L375.278 142.361L377.03 142.16L376.757 139.781L378.507 139.091L378.837 141.952L381.34 141.664L381.501 143.058L378.997 143.347L379.508 147.781C379.584 148.449 379.759 148.912 380.03 149.171C380.301 149.429 380.663 149.533 381.116 149.48C381.343 149.454 381.538 149.414 381.7 149.359C381.874 149.291 382.029 149.218 382.165 149.142L382.334 150.609C382.163 150.701 381.96 150.778 381.726 150.842C381.493 150.917 381.269 150.967 381.055 150.991ZM384.028 150.486L382.99 141.474L384.796 141.266L385.834 150.278L384.028 150.486ZM382.631 139.613L382.415 137.735L384.507 137.494L384.723 139.372L382.631 139.613ZM391.127 149.669L386.227 141.101L388.158 140.879L392.065 148.057L391.546 148.117L393.773 140.232L395.615 140.02L392.772 149.479L391.127 149.669ZM402.113 148.567C400.659 148.735 399.467 148.455 398.538 147.729C397.609 147.002 397.06 145.912 396.893 144.457C396.784 143.516 396.868 142.672 397.145 141.928C397.434 141.182 397.878 140.581 398.478 140.126C399.088 139.657 399.823 139.373 400.681 139.274C401.527 139.177 402.257 139.274 402.871 139.566C403.484 139.857 403.977 140.314 404.351 140.935C404.723 141.545 404.96 142.29 405.061 143.173L405.127 143.745L398.332 144.527L398.213 143.49L403.774 142.85L403.497 143.117C403.394 142.223 403.112 141.555 402.65 141.113C402.199 140.658 401.598 140.473 400.847 140.559C400.012 140.656 399.402 141.022 399.017 141.658C398.629 142.282 398.494 143.101 398.611 144.115L398.631 144.293C398.754 145.354 399.102 146.124 399.676 146.601C400.262 147.077 401.032 147.26 401.986 147.15C402.511 147.09 402.991 146.962 403.428 146.767C403.875 146.559 404.287 146.257 404.665 145.864L405.397 147.03C405.022 147.447 404.548 147.792 403.976 148.063C403.401 148.322 402.781 148.49 402.113 148.567ZM413.28 147.119L413.101 145.563L416.033 145.225L414.942 135.748L415.872 135.641L412.547 138.234L412.341 136.446L415.28 134.115L416.621 133.96L417.893 145.011L420.647 144.694L420.826 146.25L413.28 147.119ZM155.608 207.38C155.024 207.447 154.466 207.373 153.934 207.156C153.4 206.928 152.956 206.586 152.602 206.132C152.248 205.677 152.036 205.152 151.967 204.556C151.904 204.008 151.982 203.473 152.2 202.953C152.43 202.431 152.772 201.993 153.226 201.639C153.691 201.271 154.24 201.051 154.871 200.978C155.456 200.911 156.008 200.992 156.53 201.222C157.051 201.44 157.487 201.77 157.84 202.213C158.205 202.654 158.423 203.185 158.494 203.805C158.562 204.389 158.474 204.942 158.233 205.465C158.003 205.987 157.654 206.42 157.186 206.764C156.73 207.106 156.204 207.311 155.608 207.38ZM170.681 207.258L169.23 194.651L174.558 194.037C175.906 193.882 176.986 194.084 177.799 194.643C178.611 195.19 179.083 196.035 179.214 197.18C179.301 197.931 179.208 198.594 178.936 199.168C178.664 199.743 178.24 200.209 177.665 200.565C177.089 200.909 176.389 201.129 175.567 201.223L175.82 200.904L176.303 200.849C176.792 200.792 177.241 200.867 177.651 201.074C178.074 201.279 178.442 201.641 178.755 202.161L181.035 206.066L178.996 206.3L176.732 202.375C176.497 201.907 176.181 201.624 175.783 201.524C175.397 201.424 174.929 201.405 174.381 201.468L171.931 201.75L172.541 207.043L170.681 207.258ZM171.769 200.338L174.934 199.973C175.828 199.87 176.479 199.602 176.889 199.169C177.31 198.734 177.479 198.158 177.397 197.443C177.313 196.716 177.017 196.194 176.51 195.878C176.014 195.561 175.319 195.454 174.425 195.557L171.26 195.921L171.769 200.338ZM186.964 205.546C185.509 205.714 184.318 205.434 183.388 204.708C182.459 203.981 181.911 202.891 181.744 201.436C181.635 200.494 181.719 199.651 181.996 198.907C182.285 198.161 182.729 197.56 183.329 197.105C183.939 196.636 184.673 196.352 185.532 196.253C186.378 196.156 187.108 196.253 187.721 196.544C188.335 196.836 188.828 197.293 189.202 197.914C189.574 198.524 189.811 199.269 189.912 200.152L189.978 200.724L183.183 201.506L183.064 200.469L188.625 199.829L188.348 200.096C188.245 199.202 187.962 198.534 187.501 198.092C187.05 197.636 186.449 197.452 185.698 197.538C184.863 197.634 184.253 198.001 183.867 198.637C183.48 199.261 183.345 200.08 183.462 201.093L183.482 201.272C183.604 202.333 183.953 203.103 184.527 203.58C185.113 204.056 185.883 204.239 186.837 204.129C187.362 204.069 187.842 203.941 188.279 203.746C188.726 203.538 189.138 203.236 189.515 202.843L190.248 204.009C189.873 204.426 189.399 204.771 188.826 205.042C188.252 205.301 187.631 205.469 186.964 205.546ZM192.541 204.741L191.025 191.58L192.832 191.372L194.347 204.533L192.541 204.741ZM201.179 203.91C199.724 204.077 198.532 203.798 197.603 203.071C196.674 202.345 196.126 201.254 195.958 199.8C195.85 198.858 195.934 198.015 196.211 197.27C196.499 196.524 196.943 195.924 197.543 195.468C198.154 194.999 198.888 194.715 199.746 194.617C200.593 194.519 201.323 194.616 201.936 194.908C202.549 195.2 203.043 195.656 203.416 196.278C203.789 196.887 204.025 197.633 204.127 198.515L204.193 199.087L197.398 199.87L197.278 198.833L202.84 198.192L202.562 198.46C202.459 197.566 202.177 196.898 201.716 196.455C201.265 196 200.664 195.816 199.912 195.902C199.078 195.998 198.468 196.364 198.082 197.001C197.695 197.625 197.56 198.444 197.676 199.457L197.697 199.636C197.819 200.697 198.167 201.466 198.742 201.944C199.328 202.42 200.098 202.603 201.052 202.493C201.576 202.433 202.057 202.305 202.493 202.11C202.94 201.901 203.353 201.6 203.73 201.206L204.462 202.372C204.088 202.79 203.614 203.134 203.041 203.405C202.467 203.665 201.846 203.833 201.179 203.91ZM210.225 202.868C209.426 202.96 208.708 202.856 208.069 202.555C207.43 202.254 206.904 201.771 206.489 201.106C206.086 200.44 205.829 199.624 205.718 198.658C205.605 197.681 205.67 196.828 205.913 196.099C206.167 195.369 206.571 194.785 207.124 194.347C207.676 193.897 208.352 193.626 209.15 193.534C209.937 193.443 210.645 193.561 211.275 193.887C211.904 194.214 212.353 194.705 212.622 195.363L212.426 195.386L212.37 193.326L214.122 193.125C214.129 193.498 214.136 193.872 214.143 194.246C214.16 194.606 214.188 194.959 214.228 195.305L215.017 202.154L213.211 202.362L212.98 200.359L213.177 200.336C213.063 201.026 212.731 201.602 212.18 202.064C211.64 202.512 210.988 202.781 210.225 202.868ZM210.509 201.404C211.284 201.315 211.873 200.97 212.274 200.368C212.688 199.764 212.833 198.926 212.71 197.853C212.586 196.78 212.255 196.003 211.717 195.522C211.189 195.027 210.537 194.824 209.762 194.913C208.975 195.004 208.375 195.351 207.961 195.954C207.558 196.544 207.418 197.375 207.542 198.448C207.665 199.521 207.991 200.305 208.519 200.8C209.047 201.295 209.711 201.496 210.509 201.404ZM220.764 201.655C220.013 201.742 219.311 201.726 218.657 201.608C218.003 201.49 217.448 201.282 216.991 200.984L217.403 199.687C217.882 199.97 218.4 200.164 218.956 200.269C219.511 200.374 220.069 200.394 220.63 200.33C221.285 200.254 221.767 200.084 222.075 199.819C222.381 199.542 222.511 199.201 222.464 198.796C222.429 198.486 222.293 198.248 222.056 198.082C221.831 197.915 221.475 197.811 220.987 197.77L219.232 197.628C218.449 197.549 217.838 197.329 217.398 196.969C216.958 196.609 216.702 196.113 216.629 195.482C216.567 194.945 216.655 194.452 216.893 194.002C217.143 193.55 217.523 193.174 218.032 192.874C218.553 192.572 219.177 192.38 219.904 192.296C220.572 192.219 221.203 192.243 221.797 192.368C222.391 192.493 222.899 192.712 223.322 193.026L222.888 194.29C222.483 194.023 222.038 193.832 221.554 193.719C221.068 193.593 220.587 193.558 220.11 193.613C219.443 193.69 218.962 193.872 218.669 194.16C218.376 194.447 218.253 194.793 218.3 195.199C218.335 195.509 218.46 195.754 218.674 195.935C218.899 196.102 219.232 196.215 219.673 196.273L221.429 196.415C222.259 196.488 222.899 196.692 223.348 197.027C223.797 197.362 224.059 197.851 224.133 198.495C224.197 199.055 224.099 199.562 223.837 200.015C223.575 200.468 223.182 200.833 222.658 201.111C222.135 201.389 221.503 201.57 220.764 201.655ZM230.743 200.506C229.289 200.674 228.097 200.394 227.168 199.668C226.239 198.941 225.69 197.851 225.523 196.396C225.414 195.455 225.499 194.611 225.775 193.867C226.064 193.121 226.508 192.52 227.108 192.065C227.718 191.596 228.453 191.312 229.311 191.213C230.157 191.116 230.887 191.213 231.501 191.505C232.114 191.796 232.607 192.253 232.981 192.874C233.353 193.484 233.59 194.23 233.691 195.112L233.757 195.684L226.962 196.466L226.843 195.429L232.404 194.789L232.127 195.056C232.024 194.162 231.742 193.494 231.28 193.052C230.829 192.597 230.228 192.412 229.477 192.499C228.642 192.595 228.032 192.961 227.647 193.597C227.259 194.222 227.124 195.04 227.241 196.054L227.261 196.233C227.384 197.294 227.732 198.063 228.306 198.54C228.893 199.016 229.663 199.199 230.616 199.09C231.141 199.029 231.621 198.901 232.058 198.706C232.505 198.498 232.917 198.197 233.295 197.803L234.027 198.969C233.652 199.386 233.178 199.731 232.606 200.002C232.032 200.261 231.411 200.43 230.743 200.506ZM244.968 198.869C244.074 198.972 243.278 198.876 242.58 198.582C241.88 198.276 241.312 197.798 240.874 197.148C240.436 196.486 240.161 195.672 240.05 194.706C239.939 193.74 240.022 192.891 240.3 192.159C240.577 191.414 241.022 190.819 241.635 190.374C242.247 189.917 242.999 189.637 243.894 189.534C244.788 189.432 245.585 189.533 246.284 189.839C246.994 190.132 247.569 190.609 248.007 191.271C248.456 191.92 248.737 192.728 248.848 193.693C248.959 194.659 248.87 195.515 248.582 196.26C248.303 196.993 247.853 197.589 247.229 198.047C246.616 198.492 245.862 198.766 244.968 198.869ZM244.806 197.456C245.592 197.366 246.187 197.019 246.588 196.417C246.99 195.816 247.129 194.978 247.006 193.905C246.882 192.832 246.557 192.054 246.031 191.571C245.502 191.077 244.845 190.874 244.058 190.965C243.283 191.054 242.695 191.4 242.293 192.002C241.89 192.592 241.75 193.423 241.874 194.496C241.997 195.569 242.317 196.354 242.833 196.85C243.361 197.345 244.019 197.547 244.806 197.456ZM251.927 197.905L251.05 190.287L249.297 190.489L249.137 189.094L251.39 188.835L250.943 189.357L250.778 187.927C250.656 186.866 250.831 186.03 251.305 185.42C251.777 184.798 252.531 184.427 253.568 184.308C253.819 184.279 254.083 184.267 254.361 184.271C254.64 184.275 254.873 184.309 255.061 184.371L255.23 185.838C255.08 185.795 254.896 185.767 254.677 185.756C254.469 185.732 254.258 185.732 254.043 185.757C253.698 185.797 253.408 185.903 253.174 186.074C252.939 186.234 252.765 186.46 252.654 186.75C252.554 187.04 252.529 187.399 252.578 187.828L252.718 189.044L252.409 188.717L255.127 188.404L255.288 189.799L252.856 190.079L253.733 197.697L251.927 197.905ZM265.967 196.451C264.99 196.564 264.221 196.387 263.66 195.92C263.097 195.441 262.755 194.671 262.633 193.61L262.104 189.015L260.351 189.216L260.191 187.821L261.943 187.62L261.669 185.241L263.42 184.551L263.749 187.412L266.253 187.124L266.413 188.518L263.91 188.807L264.42 193.241C264.497 193.909 264.671 194.372 264.943 194.631C265.214 194.889 265.576 194.993 266.029 194.94C266.256 194.914 266.45 194.874 266.613 194.819C266.786 194.751 266.941 194.678 267.077 194.602L267.246 196.069C267.076 196.161 266.873 196.238 266.639 196.302C266.406 196.377 266.182 196.427 265.967 196.451ZM268.94 195.946L267.425 182.785L269.231 182.577L269.929 188.639L269.679 188.668C269.863 187.958 270.227 187.397 270.771 186.984C271.314 186.559 271.967 186.303 272.73 186.215C273.803 186.091 274.636 186.297 275.229 186.833C275.821 187.357 276.186 188.215 276.323 189.407L276.969 195.022L275.163 195.23L274.529 189.722C274.44 188.947 274.22 188.405 273.871 188.095C273.532 187.771 273.034 187.647 272.378 187.723C271.615 187.811 271.029 188.12 270.619 188.65C270.219 189.167 270.064 189.813 270.153 190.588L270.746 195.738L268.94 195.946ZM283.725 194.407C282.271 194.575 281.079 194.295 280.15 193.569C279.221 192.842 278.672 191.752 278.505 190.297C278.397 189.355 278.481 188.512 278.757 187.768C279.046 187.022 279.49 186.421 280.09 185.966C280.7 185.497 281.435 185.213 282.293 185.114C283.139 185.017 283.869 185.114 284.483 185.405C285.096 185.697 285.59 186.154 285.963 186.775C286.335 187.385 286.572 188.13 286.674 189.013L286.739 189.585L279.944 190.367L279.825 189.33L285.386 188.69L285.109 188.957C285.006 188.063 284.724 187.395 284.262 186.953C283.811 186.497 283.21 186.313 282.459 186.399C281.625 186.495 281.014 186.862 280.629 187.498C280.242 188.122 280.106 188.941 280.223 189.954L280.244 190.133C280.366 191.194 280.714 191.964 281.288 192.441C281.875 192.917 282.645 193.1 283.598 192.99C284.123 192.93 284.603 192.802 285.04 192.607C285.487 192.399 285.899 192.097 286.277 191.704L287.009 192.87C286.634 193.287 286.16 193.632 285.588 193.903C285.014 194.162 284.393 194.33 283.725 194.407ZM298.505 192.706C297.491 192.822 296.559 192.803 295.708 192.647C294.855 192.48 294.097 192.193 293.434 191.786L293.891 190.247C294.332 190.511 294.779 190.719 295.231 190.872C295.696 191.024 296.179 191.125 296.68 191.176C297.191 191.214 297.739 191.199 298.323 191.132C299.325 191.017 300.037 190.754 300.461 190.343C300.897 189.93 301.081 189.432 301.014 188.848C300.956 188.347 300.745 187.979 300.379 187.743C300.026 187.506 299.428 187.351 298.586 187.279L296.592 187.11C295.408 187.005 294.499 186.717 293.865 186.246C293.242 185.762 292.876 185.049 292.768 184.107C292.68 183.345 292.806 182.654 293.145 182.035C293.484 181.416 293.994 180.91 294.674 180.518C295.365 180.124 296.194 179.872 297.159 179.761C298.053 179.658 298.891 179.694 299.672 179.87C300.452 180.034 301.127 180.337 301.697 180.778L301.252 182.261C300.662 181.858 300.051 181.584 299.418 181.439C298.784 181.283 298.08 181.249 297.305 181.338C296.387 181.444 295.687 181.718 295.207 182.16C294.738 182.6 294.542 183.148 294.617 183.804C294.677 184.329 294.886 184.721 295.242 184.982C295.61 185.242 296.184 185.405 296.965 185.472L298.958 185.624C300.19 185.735 301.123 186.02 301.756 186.479C302.387 186.926 302.755 187.602 302.859 188.508C302.943 189.235 302.82 189.896 302.489 190.49C302.171 191.082 301.672 191.574 300.992 191.966C300.311 192.347 299.482 192.593 298.505 192.706ZM308.856 191.514C307.879 191.627 307.109 191.45 306.548 190.983C305.986 190.504 305.643 189.734 305.521 188.673L304.992 184.077L303.24 184.279L303.079 182.884L304.832 182.682L304.558 180.304L306.308 179.613L306.638 182.475L309.141 182.186L309.302 183.581L306.798 183.869L307.309 188.304C307.386 188.972 307.56 189.435 307.831 189.693C308.103 189.952 308.465 190.055 308.918 190.003C309.144 189.977 309.339 189.937 309.502 189.882C309.675 189.813 309.83 189.741 309.966 189.665L310.135 191.131C309.964 191.224 309.762 191.301 309.527 191.364C309.294 191.44 309.071 191.489 308.856 191.514ZM315.299 190.773C314.5 190.864 313.781 190.76 313.143 190.459C312.504 190.158 311.977 189.675 311.563 189.01C311.16 188.344 310.903 187.528 310.792 186.562C310.679 185.585 310.744 184.732 310.986 184.003C311.24 183.273 311.644 182.689 312.198 182.251C312.75 181.801 313.425 181.53 314.224 181.438C315.011 181.348 315.719 181.465 316.348 181.792C316.978 182.118 317.427 182.61 317.696 183.267L317.499 183.29L317.443 181.231L319.196 181.029C319.203 181.403 319.209 181.776 319.216 182.15C319.234 182.51 319.262 182.863 319.302 183.209L320.09 190.058L318.284 190.266L318.054 188.263L318.25 188.24C318.137 188.93 317.804 189.506 317.253 189.968C316.713 190.416 316.062 190.685 315.299 190.773ZM315.583 189.308C316.358 189.219 316.946 188.874 317.348 188.272C317.762 187.668 317.907 186.83 317.783 185.757C317.66 184.685 317.329 183.907 316.79 183.426C316.262 182.931 315.611 182.728 314.836 182.817C314.049 182.908 313.449 183.255 313.035 183.858C312.632 184.448 312.492 185.279 312.616 186.352C312.739 187.425 313.065 188.209 313.593 188.704C314.121 189.199 314.784 189.4 315.583 189.308ZM322.726 189.754L321.211 176.593L323.017 176.385L323.947 184.468L323.983 184.464L327.464 180.077L329.699 179.82L325.488 185.106L325.413 184.299L331.13 188.787L328.841 189.05L324.092 185.412L324.056 185.416L324.532 189.547L322.726 189.754ZM332.243 188.659L331.205 179.646L333.011 179.438L334.049 188.451L332.243 188.659ZM330.846 177.785L330.63 175.908L332.722 175.667L332.938 177.544L330.846 177.785ZM336.696 188.146L335.907 181.297C335.868 180.952 335.809 180.602 335.732 180.249C335.666 179.882 335.594 179.516 335.515 179.15L337.268 178.948L337.647 180.825L337.432 180.85C337.63 180.151 337.995 179.596 338.527 179.184C339.058 178.76 339.699 178.506 340.45 178.419C341.511 178.297 342.343 178.497 342.947 179.019C343.563 179.54 343.941 180.415 344.083 181.643L344.725 187.222L342.919 187.43L342.289 181.958C342.197 181.159 341.97 180.606 341.608 180.297C341.257 179.975 340.76 179.851 340.116 179.925C339.353 180.013 338.773 180.321 338.375 180.85C337.975 181.367 337.821 182.025 337.913 182.824L338.502 187.938L336.696 188.146ZM351.816 190.464C351.005 190.558 350.255 190.547 349.566 190.433C348.888 190.318 348.265 190.1 347.697 189.779L347.991 188.404C348.39 188.612 348.776 188.767 349.15 188.869C349.526 188.982 349.914 189.052 350.316 189.079C350.717 189.105 351.127 189.094 351.544 189.046C352.402 188.947 353.021 188.653 353.399 188.162C353.791 187.682 353.939 187.031 353.845 186.208L353.567 183.794L353.746 183.774C353.632 184.463 353.299 185.039 352.749 185.501C352.208 185.95 351.551 186.219 350.776 186.308C349.953 186.403 349.218 186.306 348.568 186.018C347.93 185.718 347.405 185.252 346.995 184.623C346.594 183.981 346.342 183.201 346.236 182.283C346.13 181.365 346.2 180.553 346.445 179.849C346.702 179.143 347.108 178.577 347.663 178.15C348.228 177.711 348.922 177.444 349.745 177.349C350.531 177.259 351.234 177.377 351.851 177.705C352.479 178.019 352.927 178.499 353.195 179.144L353.017 179.02L352.964 177.142L354.716 176.94C354.711 177.315 354.718 177.689 354.737 178.061C354.754 178.421 354.783 178.774 354.822 179.12L355.59 185.79C355.747 187.149 355.503 188.228 354.858 189.027C354.225 189.825 353.211 190.304 351.816 190.464ZM351.043 184.846C351.829 184.755 352.424 184.415 352.827 183.825C353.243 183.234 353.394 182.449 353.281 181.472C353.169 180.494 352.844 179.771 352.307 179.301C351.781 178.83 351.125 178.64 350.339 178.73C349.528 178.824 348.914 179.16 348.498 179.739C348.093 180.317 347.947 181.095 348.06 182.073C348.172 183.05 348.492 183.781 349.019 184.263C349.557 184.745 350.232 184.939 351.043 184.846ZM363.173 185.098L361.722 172.491L369.805 171.561L369.975 173.045L363.753 173.762L364.218 177.803L370.029 177.134L370.2 178.618L364.389 179.287L365.033 184.884L363.173 185.098ZM377.011 183.668C375.557 183.836 374.365 183.556 373.436 182.83C372.507 182.103 371.959 181.013 371.791 179.558C371.683 178.616 371.767 177.773 372.044 177.029C372.332 176.283 372.776 175.682 373.376 175.227C373.987 174.758 374.721 174.474 375.579 174.375C376.426 174.278 377.156 174.375 377.769 174.667C378.382 174.958 378.876 175.415 379.249 176.036C379.621 176.646 379.858 177.391 379.96 178.274L380.026 178.846L373.231 179.628L373.111 178.591L378.672 177.951L378.395 178.218C378.292 177.324 378.01 176.656 377.548 176.214C377.097 175.759 376.496 175.574 375.745 175.66C374.911 175.757 374.301 176.123 373.915 176.759C373.528 177.383 373.393 178.202 373.509 179.216L373.53 179.394C373.652 180.455 374 181.225 374.575 181.702C375.161 182.178 375.931 182.361 376.885 182.251C377.409 182.191 377.89 182.063 378.326 181.868C378.773 181.66 379.186 181.358 379.563 180.965L380.295 182.131C379.92 182.548 379.447 182.893 378.874 183.164C378.3 183.423 377.679 183.591 377.011 183.668ZM386.058 182.627C385.259 182.719 384.54 182.614 383.902 182.313C383.263 182.012 382.737 181.529 382.322 180.865C381.919 180.198 381.662 179.382 381.551 178.417C381.438 177.439 381.503 176.586 381.745 175.858C382 175.128 382.403 174.544 382.957 174.106C383.509 173.655 384.185 173.384 384.983 173.292C385.77 173.202 386.478 173.32 387.108 173.646C387.737 173.972 388.186 174.464 388.455 175.121L388.259 175.144L388.203 173.085L389.955 172.883C389.962 173.257 389.969 173.631 389.975 174.004C389.993 174.365 390.021 174.718 390.061 175.063L390.85 181.912L389.044 182.12L388.813 180.117L389.01 180.095C388.896 180.784 388.563 181.36 388.013 181.822C387.472 182.271 386.821 182.539 386.058 182.627ZM386.342 181.163C387.117 181.073 387.706 180.728 388.107 180.126C388.521 179.523 388.666 178.685 388.543 177.612C388.419 176.539 388.088 175.762 387.549 175.28C387.021 174.785 386.37 174.582 385.595 174.672C384.808 174.762 384.208 175.109 383.794 175.712C383.391 176.302 383.251 177.134 383.375 178.207C383.498 179.28 383.824 180.063 384.352 180.558C384.88 181.053 385.544 181.255 386.342 181.163ZM397.008 181.366C396.031 181.479 395.261 181.302 394.7 180.835C394.138 180.356 393.796 179.586 393.673 178.525L393.144 173.929L391.392 174.131L391.231 172.736L392.984 172.535L392.71 170.156L394.461 169.466L394.79 172.327L397.293 172.038L397.454 173.433L394.951 173.721L395.461 178.156C395.538 178.824 395.712 179.287 395.983 179.545C396.255 179.804 396.617 179.907 397.07 179.855C397.296 179.829 397.491 179.789 397.654 179.734C397.827 179.665 397.982 179.593 398.118 179.517L398.287 180.983C398.116 181.076 397.914 181.153 397.68 181.216C397.447 181.292 397.223 181.342 397.008 181.366ZM403.2 180.653C402.116 180.778 401.265 180.58 400.65 180.059C400.045 179.525 399.671 178.644 399.53 177.416L398.89 171.855L400.696 171.647L401.332 177.172C401.419 177.923 401.637 178.46 401.988 178.782C402.34 179.104 402.831 179.228 403.463 179.156C404.178 179.073 404.729 178.768 405.115 178.241C405.501 177.713 405.649 177.056 405.559 176.269L404.97 171.155L406.776 170.947L407.813 179.959L406.061 180.161L405.839 178.23L406.071 178.203C405.898 178.899 405.558 179.464 405.052 179.897C404.545 180.317 403.928 180.57 403.2 180.653ZM410.423 179.659L409.643 172.882C409.6 172.512 409.546 172.144 409.479 171.777C409.424 171.397 409.357 171.024 409.278 170.659L411.031 170.457L411.495 172.759L411.209 172.792C411.264 172.218 411.413 171.73 411.656 171.327C411.9 170.925 412.214 170.611 412.599 170.385C412.995 170.158 413.42 170.019 413.873 169.967C414.064 169.945 414.226 169.938 414.36 169.947C414.493 169.944 414.627 169.952 414.762 169.973L414.929 171.585C414.717 171.524 414.533 171.497 414.376 171.503C414.23 171.496 414.05 171.505 413.836 171.529C413.311 171.59 412.878 171.76 412.536 172.041C412.192 172.31 411.948 172.653 411.802 173.068C411.657 173.483 411.61 173.917 411.662 174.37L412.247 179.449L410.423 179.659ZM421.262 178.574C419.808 178.742 418.616 178.462 417.687 177.736C416.758 177.009 416.209 175.919 416.042 174.464C415.933 173.522 416.018 172.679 416.294 171.935C416.583 171.189 417.027 170.588 417.627 170.133C418.237 169.664 418.972 169.38 419.83 169.281C420.676 169.184 421.406 169.281 422.02 169.572C422.633 169.864 423.127 170.321 423.5 170.942C423.872 171.552 424.109 172.297 424.211 173.18L424.276 173.752L417.481 174.534L417.362 173.497L422.923 172.857L422.646 173.124C422.543 172.23 422.261 171.562 421.799 171.12C421.348 170.664 420.747 170.48 419.996 170.566C419.162 170.662 418.551 171.029 418.166 171.665C417.779 172.289 417.643 173.108 417.76 174.121L417.781 174.3C417.903 175.361 418.251 176.131 418.825 176.608C419.412 177.084 420.182 177.267 421.135 177.157C421.66 177.097 422.14 176.969 422.577 176.774C423.024 176.565 423.436 176.264 423.814 175.871L424.546 177.037C424.171 177.454 423.697 177.799 423.125 178.07C422.551 178.329 421.93 178.497 421.262 178.574ZM121.496 243.518C120.912 243.586 120.354 243.511 119.821 243.294C119.288 243.066 118.844 242.725 118.489 242.27C118.135 241.816 117.924 241.29 117.855 240.694C117.792 240.146 117.869 239.612 118.087 239.091C118.317 238.569 118.659 238.131 119.114 237.777C119.579 237.41 120.127 237.189 120.759 237.117C121.343 237.049 121.896 237.131 122.418 237.361C122.938 237.579 123.375 237.909 123.728 238.351C124.092 238.792 124.311 239.323 124.382 239.943C124.449 240.527 124.362 241.081 124.12 241.604C123.89 242.125 123.542 242.558 123.074 242.902C122.618 243.244 122.092 243.45 121.496 243.518ZM141.701 242.968C139.949 243.17 138.593 242.879 137.633 242.096C136.685 241.311 136.111 240.054 135.912 238.326L135.046 230.797L136.905 230.583L137.768 238.076C137.908 239.292 138.276 240.18 138.872 240.739C139.478 241.285 140.36 241.492 141.516 241.359C142.613 241.232 143.406 240.833 143.897 240.161C144.385 239.476 144.56 238.526 144.42 237.31L143.557 229.817L145.381 229.608L146.248 237.136C146.447 238.864 146.162 240.22 145.394 241.202C144.625 242.185 143.394 242.773 141.701 242.968ZM149.557 241.901L148.769 235.052C148.729 234.706 148.67 234.357 148.594 234.003C148.527 233.636 148.455 233.27 148.376 232.905L150.129 232.703L150.508 234.58L150.293 234.605C150.491 233.905 150.856 233.35 151.388 232.938C151.919 232.515 152.56 232.26 153.311 232.173C154.372 232.051 155.205 232.251 155.808 232.774C156.424 233.295 156.802 234.169 156.944 235.397L157.586 240.976L155.78 241.184L155.15 235.712C155.058 234.914 154.831 234.36 154.47 234.051C154.118 233.729 153.621 233.605 152.977 233.68C152.214 233.767 151.634 234.076 151.236 234.605C150.836 235.122 150.682 235.78 150.774 236.579L151.363 241.693L149.557 241.901ZM162.716 240.386L157.816 231.818L159.747 231.596L163.654 238.774L163.135 238.834L165.362 230.949L167.204 230.737L164.361 240.196L162.716 240.386ZM173.702 239.284C172.248 239.452 171.056 239.172 170.127 238.446C169.197 237.719 168.649 236.629 168.482 235.174C168.373 234.232 168.457 233.389 168.734 232.645C169.023 231.899 169.467 231.298 170.067 230.843C170.677 230.374 171.411 230.09 172.27 229.991C173.116 229.894 173.846 229.991 174.46 230.282C175.073 230.574 175.566 231.031 175.94 231.652C176.312 232.262 176.549 233.007 176.65 233.89L176.716 234.462L169.921 235.244L169.802 234.207L175.363 233.567L175.086 233.834C174.983 232.94 174.701 232.272 174.239 231.83C173.788 231.374 173.187 231.19 172.436 231.276C171.601 231.373 170.991 231.739 170.606 232.375C170.218 232.999 170.083 233.818 170.2 234.831L170.22 235.01C170.343 236.071 170.691 236.841 171.265 237.318C171.851 237.794 172.621 237.977 173.575 237.867C174.1 237.807 174.58 237.679 175.017 237.484C175.464 237.276 175.876 236.974 176.254 236.581L176.986 237.747C176.611 238.164 176.137 238.509 175.565 238.78C174.99 239.039 174.37 239.207 173.702 239.284ZM179.279 238.479L178.241 229.467L180.047 229.259L181.085 238.271L179.279 238.479ZM177.882 227.606L177.666 225.728L179.758 225.487L179.974 227.365L177.882 227.606ZM183.732 237.967L182.217 224.805L184.023 224.598L185.538 237.759L183.732 237.967ZM188.185 237.454L187.147 228.441L188.953 228.234L189.991 237.246L188.185 237.454ZM186.788 226.58L186.572 224.703L188.664 224.462L188.88 226.339L186.788 226.58ZM192.638 236.941L191.849 230.093C191.81 229.747 191.751 229.397 191.674 229.044C191.608 228.677 191.535 228.311 191.457 227.945L193.21 227.744L193.589 229.62L193.374 229.645C193.572 228.946 193.936 228.391 194.469 227.979C195 227.556 195.641 227.301 196.392 227.214C197.453 227.092 198.285 227.292 198.889 227.814C199.505 228.335 199.883 229.21 200.024 230.438L200.667 236.017L198.861 236.225L198.231 230.753C198.139 229.954 197.912 229.401 197.55 229.092C197.199 228.77 196.702 228.646 196.058 228.72C195.295 228.808 194.714 229.116 194.316 229.645C193.917 230.163 193.763 230.82 193.855 231.619L194.444 236.733L192.638 236.941ZM207.758 239.259C206.947 239.353 206.197 239.342 205.508 239.228C204.83 239.113 204.207 238.895 203.639 238.574L203.933 237.199C204.332 237.407 204.718 237.562 205.092 237.664C205.467 237.778 205.856 237.848 206.258 237.874C206.659 237.9 207.069 237.889 207.486 237.841C208.344 237.742 208.963 237.448 209.341 236.957C209.733 236.477 209.881 235.826 209.787 235.003L209.509 232.589L209.687 232.569C209.574 233.258 209.241 233.834 208.69 234.296C208.15 234.745 207.493 235.014 206.718 235.103C205.895 235.198 205.159 235.101 204.51 234.814C203.872 234.513 203.347 234.048 202.936 233.418C202.536 232.776 202.283 231.996 202.178 231.078C202.072 230.16 202.142 229.349 202.387 228.644C202.644 227.938 203.05 227.372 203.604 226.946C204.17 226.506 204.864 226.239 205.686 226.144C206.473 226.054 207.175 226.172 207.793 226.5C208.421 226.814 208.869 227.294 209.136 227.939L208.959 227.815L208.906 225.937L210.658 225.735C210.653 226.11 210.66 226.484 210.679 226.856C210.696 227.216 210.725 227.569 210.764 227.915L211.532 234.585C211.689 235.944 211.444 237.023 210.8 237.822C210.167 238.62 209.153 239.099 207.758 239.259ZM206.984 233.641C207.771 233.55 208.366 233.21 208.769 232.62C209.184 232.029 209.336 231.244 209.223 230.267C209.111 229.289 208.786 228.566 208.249 228.096C207.723 227.625 207.067 227.435 206.28 227.525C205.47 227.619 204.856 227.955 204.44 228.534C204.035 229.112 203.889 229.89 204.002 230.868C204.114 231.845 204.434 232.576 204.96 233.059C205.499 233.54 206.174 233.734 206.984 233.641ZM222.478 233.669C221.5 233.782 220.731 233.605 220.17 233.138C219.607 232.659 219.265 231.889 219.143 230.828L218.614 226.232L216.861 226.434L216.701 225.039L218.453 224.838L218.179 222.459L219.93 221.769L220.259 224.63L222.763 224.341L222.923 225.736L220.42 226.024L220.93 230.459C221.007 231.127 221.181 231.59 221.453 231.849C221.724 232.107 222.086 232.21 222.539 232.158C222.766 232.132 222.96 232.092 223.123 232.037C223.296 231.968 223.451 231.896 223.587 231.82L223.756 233.286C223.586 233.379 223.383 233.456 223.149 233.519C222.916 233.595 222.692 233.645 222.478 233.669ZM225.45 233.164L223.935 220.003L225.741 219.795L226.439 225.857L226.189 225.886C226.373 225.176 226.737 224.615 227.281 224.202C227.824 223.777 228.477 223.52 229.24 223.433C230.313 223.309 231.146 223.515 231.739 224.051C232.331 224.575 232.696 225.433 232.833 226.625L233.479 232.24L231.673 232.448L231.039 226.94C230.95 226.165 230.731 225.623 230.381 225.313C230.042 224.989 229.544 224.865 228.888 224.941C228.126 225.029 227.539 225.338 227.129 225.868C226.729 226.385 226.574 227.031 226.664 227.806L227.256 232.956L225.45 233.164ZM240.235 231.625C238.781 231.792 237.589 231.513 236.66 230.786C235.731 230.06 235.182 228.969 235.015 227.515C234.907 226.573 234.991 225.73 235.267 224.986C235.556 224.24 236 223.639 236.6 223.183C237.21 222.714 237.945 222.431 238.803 222.332C239.649 222.234 240.379 222.332 240.993 222.623C241.606 222.915 242.1 223.372 242.473 223.993C242.845 224.602 243.082 225.348 243.184 226.23L243.25 226.803L236.454 227.585L236.335 226.548L241.896 225.908L241.619 226.175C241.516 225.281 241.234 224.613 240.772 224.171C240.321 223.715 239.72 223.531 238.969 223.617C238.135 223.713 237.525 224.079 237.139 224.716C236.752 225.34 236.616 226.159 236.733 227.172L236.754 227.351C236.876 228.412 237.224 229.181 237.798 229.659C238.385 230.135 239.155 230.318 240.108 230.208C240.633 230.148 241.113 230.02 241.55 229.825C241.997 229.616 242.409 229.315 242.787 228.921L243.519 230.087C243.144 230.505 242.671 230.849 242.098 231.121C241.524 231.38 240.903 231.548 240.235 231.625ZM250.758 230.251L249.307 217.644L250.934 217.456L257.06 227.858L256.523 227.92L260.125 216.398L261.735 216.213L263.186 228.82L261.505 229.013L260.344 218.928L260.934 218.86L257.553 229.468L256.391 229.602L250.688 220.04L251.296 219.97L252.457 230.055L250.758 230.251ZM270.219 228.173C268.764 228.341 267.573 228.061 266.644 227.335C265.714 226.608 265.166 225.518 264.999 224.063C264.89 223.122 264.974 222.278 265.251 221.534C265.54 220.788 265.984 220.187 266.584 219.732C267.194 219.263 267.928 218.979 268.787 218.88C269.633 218.783 270.363 218.88 270.976 219.172C271.59 219.463 272.083 219.92 272.457 220.541C272.829 221.151 273.066 221.897 273.167 222.779L273.233 223.351L266.438 224.133L266.319 223.096L271.88 222.456L271.603 222.723C271.5 221.829 271.217 221.161 270.756 220.719C270.305 220.264 269.704 220.079 268.953 220.166C268.118 220.262 267.508 220.628 267.122 221.264C266.735 221.888 266.6 222.707 266.717 223.721L266.737 223.899C266.859 224.96 267.208 225.73 267.782 226.207C268.368 226.683 269.138 226.866 270.092 226.757C270.617 226.696 271.097 226.568 271.534 226.373C271.981 226.165 272.393 225.864 272.77 225.47L273.503 226.636C273.128 227.053 272.654 227.398 272.081 227.669C271.507 227.928 270.886 228.096 270.219 228.173ZM275.796 227.368L275.007 220.52C274.967 220.174 274.909 219.824 274.832 219.471C274.766 219.104 274.693 218.738 274.615 218.372L276.367 218.171L276.747 220.047L276.532 220.072C276.707 219.388 277.03 218.837 277.501 218.42C277.985 218.002 278.59 217.752 279.317 217.668C280.056 217.583 280.679 217.692 281.185 217.996C281.702 218.287 282.091 218.786 282.354 219.493L282.068 219.526C282.231 218.842 282.576 218.277 283.105 217.83C283.632 217.371 284.271 217.098 285.022 217.011C286.023 216.896 286.808 217.102 287.376 217.628C287.944 218.155 288.298 219.032 288.44 220.26L289.082 225.839L287.276 226.047L286.644 220.557C286.553 219.77 286.351 219.22 286.037 218.906C285.734 218.578 285.284 218.449 284.688 218.517C283.996 218.597 283.475 218.898 283.125 219.422C282.774 219.945 282.646 220.613 282.739 221.423L283.324 226.502L281.518 226.71L280.886 221.22C280.795 220.433 280.593 219.883 280.279 219.568C279.976 219.241 279.526 219.112 278.93 219.18C278.238 219.26 277.723 219.561 277.385 220.083C277.046 220.605 276.924 221.271 277.017 222.082L277.602 227.16L275.796 227.368ZM296.498 225.148C295.711 225.239 295.003 225.121 294.374 224.795C293.744 224.469 293.295 223.977 293.026 223.319L293.223 223.297L293.457 225.335L291.669 225.541L290.154 212.38L291.96 212.172L292.668 218.323L292.454 218.348C292.58 217.657 292.907 217.088 293.435 216.641C293.974 216.18 294.637 215.904 295.423 215.814C296.222 215.722 296.942 215.832 297.582 216.145C298.22 216.446 298.741 216.93 299.144 217.596C299.557 218.249 299.82 219.064 299.933 220.042C300.044 221.007 299.973 221.861 299.72 222.603C299.478 223.331 299.074 223.915 298.508 224.355C297.955 224.793 297.285 225.058 296.498 225.148ZM295.888 223.787C296.663 223.698 297.258 223.357 297.673 222.766C298.087 222.163 298.232 221.325 298.109 220.252C297.984 219.167 297.652 218.384 297.113 217.902C296.573 217.409 295.916 217.207 295.141 217.296C294.354 217.386 293.754 217.733 293.34 218.337C292.937 218.927 292.797 219.758 292.921 220.831C293.044 221.904 293.37 222.688 293.898 223.183C294.438 223.676 295.102 223.877 295.888 223.787ZM306.751 223.968C305.297 224.135 304.105 223.856 303.176 223.129C302.247 222.403 301.698 221.312 301.531 219.858C301.422 218.916 301.506 218.073 301.783 217.328C302.072 216.583 302.516 215.982 303.116 215.526C303.726 215.057 304.461 214.773 305.319 214.675C306.165 214.577 306.895 214.674 307.509 214.966C308.122 215.258 308.615 215.714 308.989 216.336C309.361 216.945 309.598 217.691 309.699 218.573L309.765 219.145L302.97 219.928L302.851 218.891L308.412 218.25L308.135 218.518C308.032 217.624 307.75 216.956 307.288 216.513C306.837 216.058 306.236 215.874 305.485 215.96C304.65 216.056 304.04 216.422 303.655 217.059C303.267 217.683 303.132 218.502 303.249 219.515L303.269 219.694C303.392 220.755 303.74 221.524 304.314 222.002C304.9 222.478 305.67 222.661 306.624 222.551C307.149 222.491 307.629 222.363 308.066 222.168C308.513 221.959 308.925 221.658 309.303 221.264L310.035 222.43C309.66 222.848 309.186 223.192 308.614 223.464C308.039 223.723 307.419 223.891 306.751 223.968ZM312.292 223.167L311.512 216.39C311.469 216.02 311.415 215.652 311.348 215.285C311.293 214.905 311.225 214.532 311.147 214.167L312.9 213.965L313.364 216.267L313.078 216.3C313.133 215.726 313.282 215.238 313.525 214.835C313.769 214.433 314.083 214.119 314.468 213.893C314.864 213.666 315.289 213.527 315.742 213.475C315.933 213.453 316.095 213.446 316.229 213.455C316.362 213.452 316.496 213.46 316.631 213.481L316.798 215.093C316.586 215.032 316.402 215.005 316.245 215.011C316.099 215.004 315.919 215.013 315.705 215.037C315.18 215.098 314.747 215.268 314.405 215.549C314.061 215.818 313.817 216.161 313.671 216.576C313.526 216.991 313.479 217.425 313.531 217.878L314.116 222.957L312.292 223.167ZM322.093 222.202C321.342 222.288 320.64 222.272 319.986 222.154C319.332 222.036 318.777 221.828 318.32 221.531L318.732 220.233C319.211 220.516 319.729 220.71 320.285 220.815C320.84 220.921 321.398 220.941 321.959 220.876C322.614 220.801 323.096 220.631 323.404 220.366C323.71 220.089 323.84 219.748 323.793 219.342C323.758 219.033 323.622 218.795 323.385 218.628C323.16 218.461 322.804 218.357 322.316 218.317L320.561 218.175C319.778 218.095 319.167 217.876 318.727 217.516C318.287 217.156 318.031 216.66 317.958 216.028C317.896 215.492 317.984 214.998 318.222 214.548C318.472 214.097 318.852 213.721 319.361 213.421C319.882 213.119 320.506 212.926 321.233 212.843C321.901 212.766 322.532 212.79 323.126 212.915C323.72 213.039 324.228 213.259 324.651 213.573L324.217 214.836C323.812 214.569 323.367 214.379 322.883 214.265C322.397 214.14 321.916 214.105 321.439 214.16C320.772 214.237 320.291 214.419 319.998 214.706C319.705 214.993 319.582 215.34 319.629 215.745C319.664 216.055 319.789 216.3 320.003 216.481C320.228 216.649 320.561 216.761 321.002 216.819L322.758 216.961C323.588 217.035 324.228 217.239 324.677 217.574C325.126 217.909 325.388 218.398 325.462 219.042C325.526 219.602 325.428 220.109 325.166 220.562C324.904 221.014 324.511 221.38 323.987 221.657C323.464 221.935 322.832 222.117 322.093 222.202ZM327.887 221.372L326.372 208.211L328.178 208.003L328.876 214.065L328.626 214.093C328.81 213.384 329.174 212.822 329.718 212.409C330.261 211.985 330.914 211.728 331.677 211.64C332.75 211.517 333.583 211.723 334.176 212.259C334.768 212.782 335.132 213.64 335.27 214.832L335.916 220.447L334.11 220.655L333.476 215.148C333.387 214.373 333.167 213.83 332.818 213.52C332.478 213.197 331.981 213.073 331.325 213.148C330.562 213.236 329.976 213.545 329.566 214.076C329.166 214.593 329.011 215.239 329.1 216.014L329.693 221.164L327.887 221.372ZM338.487 220.151L337.45 211.139L339.256 210.931L340.293 219.943L338.487 220.151ZM337.09 209.278L336.874 207.4L338.966 207.159L339.182 209.037L337.09 209.278ZM343.385 223.501L342.152 212.79C342.112 212.444 342.053 212.095 341.977 211.741C341.91 211.374 341.838 211.008 341.759 210.643L343.512 210.441L343.925 212.459L343.729 212.482C343.841 211.78 344.161 211.2 344.688 210.74C345.227 210.28 345.896 210.004 346.694 209.912C347.493 209.82 348.212 209.93 348.852 210.243C349.491 210.544 350.011 211.022 350.412 211.676C350.826 212.329 351.089 213.144 351.201 214.122C351.312 215.087 351.242 215.941 350.989 216.683C350.748 217.423 350.351 218.013 349.797 218.451C349.244 218.889 348.568 219.154 347.769 219.246C346.982 219.337 346.275 219.225 345.646 218.91C345.029 218.583 344.586 218.096 344.319 217.451L344.516 217.428L345.191 223.293L343.385 223.501ZM347.159 217.885C347.946 217.794 348.54 217.448 348.942 216.846C349.356 216.243 349.501 215.405 349.377 214.332C349.254 213.259 348.923 212.482 348.384 212C347.856 211.505 347.199 211.303 346.412 211.394C345.625 211.484 345.025 211.831 344.611 212.434C344.208 213.024 344.068 213.856 344.192 214.929C344.315 216.002 344.641 216.786 345.169 217.28C345.709 217.774 346.372 217.975 347.159 217.885ZM358.765 217.817L357.314 205.21L365.396 204.28L365.567 205.764L359.344 206.48L359.81 210.522L365.621 209.853L365.792 211.337L359.98 212.006L360.625 217.603L358.765 217.817ZM371.76 216.484C370.675 216.609 369.825 216.411 369.209 215.89C368.604 215.356 368.231 214.475 368.09 213.247L367.449 207.685L369.255 207.477L369.891 213.003C369.978 213.754 370.197 214.29 370.548 214.612C370.899 214.934 371.39 215.059 372.022 214.986C372.738 214.904 373.288 214.599 373.674 214.071C374.061 213.544 374.208 212.886 374.118 212.1L373.529 206.985L375.335 206.778L376.373 215.79L374.62 215.992L374.398 214.061L374.63 214.034C374.457 214.73 374.117 215.295 373.611 215.727C373.104 216.148 372.487 216.4 371.76 216.484ZM379.018 215.485L378.23 208.637C378.19 208.291 378.132 207.941 378.055 207.588C377.988 207.221 377.916 206.855 377.838 206.489L379.59 206.288L379.969 208.165L379.755 208.189C379.952 207.49 380.317 206.935 380.849 206.523C381.38 206.1 382.021 205.845 382.772 205.758C383.833 205.636 384.666 205.836 385.269 206.359C385.885 206.88 386.264 207.754 386.405 208.982L387.047 214.561L385.241 214.769L384.611 209.297C384.519 208.499 384.292 207.945 383.931 207.636C383.58 207.314 383.082 207.19 382.438 207.264C381.675 207.352 381.095 207.661 380.697 208.19C380.297 208.707 380.144 209.365 380.235 210.163L380.824 215.278L379.018 215.485ZM393.589 213.971C392.682 214.076 391.868 213.982 391.146 213.691C390.435 213.386 389.854 212.903 389.403 212.243C388.963 211.568 388.687 210.743 388.575 209.765C388.463 208.799 388.553 207.95 388.843 207.216C389.133 206.482 389.591 205.897 390.217 205.463C390.842 205.017 391.608 204.741 392.514 204.637C393.098 204.57 393.676 204.606 394.248 204.745C394.818 204.873 395.303 205.095 395.701 205.411L395.257 206.749C394.887 206.466 394.484 206.27 394.049 206.163C393.612 206.045 393.197 206.008 392.804 206.053C391.945 206.152 391.303 206.504 390.878 207.108C390.452 207.713 390.299 208.534 390.418 209.571C390.539 210.62 390.876 211.397 391.43 211.901C391.983 212.405 392.689 212.607 393.547 212.508C393.928 212.464 394.32 212.347 394.72 212.156C395.12 211.953 395.473 211.665 395.78 211.291L396.517 212.493C396.188 212.893 395.756 213.227 395.219 213.494C394.692 213.748 394.149 213.907 393.589 213.971ZM402.082 212.993C401.105 213.106 400.336 212.929 399.774 212.462C399.212 211.983 398.87 211.213 398.748 210.152L398.219 205.557L396.466 205.758L396.306 204.363L398.058 204.162L397.784 201.783L399.535 201.093L399.864 203.954L402.368 203.666L402.528 205.06L400.025 205.349L400.535 209.783C400.612 210.451 400.786 210.914 401.057 211.173C401.329 211.431 401.691 211.535 402.144 211.482C402.371 211.456 402.565 211.416 402.728 211.361C402.901 211.293 403.056 211.22 403.192 211.144L403.361 212.611C403.19 212.703 402.988 212.78 402.754 212.844C402.521 212.919 402.297 212.969 402.082 212.993ZM405.055 212.488L404.018 203.476L405.824 203.268L406.861 212.28L405.055 212.488ZM403.658 201.615L403.442 199.737L405.535 199.496L405.751 201.374L403.658 201.615ZM413.389 211.692C412.495 211.795 411.699 211.699 411.001 211.405C410.301 211.099 409.733 210.621 409.296 209.971C408.857 209.309 408.582 208.495 408.471 207.529C408.36 206.563 408.443 205.714 408.721 204.982C408.998 204.237 409.443 203.642 410.056 203.197C410.668 202.74 411.421 202.46 412.315 202.357C413.209 202.255 414.006 202.356 414.705 202.662C415.415 202.955 415.99 203.432 416.428 204.094C416.877 204.743 417.158 205.551 417.269 206.516C417.38 207.482 417.291 208.338 417.003 209.083C416.725 209.816 416.274 210.412 415.65 210.87C415.037 211.315 414.283 211.589 413.389 211.692ZM413.227 210.279C414.013 210.189 414.608 209.842 415.009 209.24C415.411 208.639 415.55 207.801 415.427 206.728C415.303 205.655 414.978 204.877 414.452 204.394C413.924 203.9 413.266 203.697 412.479 203.788C411.704 203.877 411.116 204.223 410.714 204.825C410.311 205.415 410.171 206.246 410.295 207.319C410.418 208.392 410.738 209.177 411.254 209.673C411.782 210.168 412.44 210.37 413.227 210.279ZM419.899 210.779L419.11 203.931C419.07 203.585 419.012 203.235 418.935 202.882C418.869 202.515 418.796 202.149 418.718 201.783L420.47 201.582L420.85 203.459L420.635 203.483C420.832 202.784 421.197 202.229 421.73 201.817C422.261 201.394 422.902 201.139 423.653 201.052C424.714 200.93 425.546 201.13 426.15 201.653C426.765 202.174 427.144 203.048 427.285 204.276L427.928 209.855L426.121 210.063L425.492 204.591C425.4 203.792 425.173 203.239 424.811 202.93C424.46 202.608 423.963 202.484 423.319 202.558C422.556 202.646 421.975 202.955 421.577 203.484C421.178 204.001 421.024 204.659 421.116 205.457L421.705 210.571L419.899 210.779Z" fill="white"/>
</svg>
