<svg width="447" height="187" viewBox="0 0 447 187" fill="none" xmlns="http://www.w3.org/2000/svg">
<line x1="99.8557" y1="44.9786" x2="45.8096" y2="51.1846" stroke="white" stroke-width="3.84756"/>
<circle cx="24.3547" cy="54.6671" r="20.0073" transform="rotate(33.246 24.3547 54.6671)" fill="#67C790" stroke="white" stroke-width="5.38658"/>
<path d="M116.246 56.9735L116.061 55.2798C115.929 54.0681 116.041 52.9272 116.398 51.8572C116.755 50.7872 117.285 49.768 117.988 48.7996C118.69 47.8313 119.48 46.8952 120.356 45.9914C121.258 45.0571 122.163 44.1641 123.074 43.3124C124.113 42.3631 125.086 41.4488 125.993 40.5695C126.9 39.6903 127.61 38.7908 128.123 37.871C128.663 36.9482 128.877 35.9635 128.762 34.9171C128.702 34.3663 128.508 33.8581 128.178 33.3924C127.873 32.8962 127.413 32.5144 126.799 32.247C126.212 31.9766 125.451 31.8925 124.514 31.9946C123.578 32.0968 122.813 32.3614 122.218 32.7885C121.621 33.1881 121.19 33.7088 120.926 34.3507C120.661 34.9926 120.574 35.7266 120.664 36.5528L120.8 37.7921L114.521 38.477C114.475 38.3148 114.428 38.1388 114.379 37.949C114.355 37.7287 114.328 37.4808 114.298 37.2054C114.082 35.2226 114.355 33.507 115.116 32.0584C115.878 30.6099 117.047 29.4512 118.625 28.5825C120.226 27.6832 122.184 27.1074 124.497 26.8551C126.26 26.6628 127.8 26.7317 129.118 27.0617C130.463 27.3887 131.592 27.9064 132.506 28.6149C133.419 29.3234 134.124 30.1661 134.621 31.143C135.142 32.0893 135.461 33.0995 135.578 34.1736C135.719 35.4679 135.613 36.6638 135.259 37.7614C134.905 38.8589 134.366 39.9209 133.642 40.9474C132.915 41.9463 132.047 42.9327 131.039 43.9066C130.027 44.8529 128.935 45.822 127.761 46.8139C127.176 47.3236 126.643 47.7998 126.161 48.2424C125.705 48.6545 125.34 49.0148 125.067 49.3232C124.794 49.6316 124.601 49.9035 124.487 50.1388L137.417 48.7284L138.057 54.5943L116.246 56.9735ZM152.982 53.4678C150.999 53.6841 149.274 53.5797 147.806 53.1545C146.336 52.7019 145.095 51.9315 144.085 50.8435C143.071 49.7279 142.257 48.2701 141.643 46.47C141.029 44.67 140.583 42.5031 140.307 39.9696C140.034 37.4635 140.003 35.2654 140.215 33.3752C140.426 31.485 140.908 29.8998 141.66 28.6195C142.41 27.3116 143.455 26.2919 144.796 25.5604C146.135 24.8014 147.795 24.3137 149.778 24.0974C151.761 23.8811 153.474 24.0008 154.917 24.4564C156.384 24.8815 157.625 25.6519 158.638 26.7675C159.649 27.8555 160.461 29.2996 161.075 31.0996C161.69 32.8997 162.134 35.0527 162.407 37.5588C162.683 40.0924 162.716 42.3043 162.504 44.1945C162.292 46.0846 161.812 47.6836 161.063 48.9915C160.31 50.2718 159.265 51.2915 157.927 52.0505C156.613 52.7791 154.965 53.2515 152.982 53.4678ZM152.446 48.5521C153.547 48.4319 154.369 48.0496 154.912 47.4052C155.479 46.7302 155.809 45.7887 155.9 44.5804C156.015 43.3417 155.973 41.7998 155.771 39.9546L155.42 36.7326C155.216 34.8599 154.923 33.3313 154.543 32.1466C154.191 30.9589 153.666 30.1104 152.97 29.6012C152.301 29.089 151.416 28.8929 150.314 29.0131C149.213 29.1333 148.377 29.517 147.806 30.1645C147.264 30.8089 146.934 31.7505 146.819 32.9892C146.7 34.2004 146.743 35.7424 146.947 37.615L147.294 40.7958C147.498 42.6684 147.791 44.1971 148.171 45.3818C148.551 46.5665 149.077 47.4287 149.749 47.9685C150.445 48.4777 151.344 48.6722 152.446 48.5521ZM167.881 51.3409L167.697 49.6472C167.564 48.4355 167.677 47.2946 168.034 46.2246C168.391 45.1546 168.921 44.1354 169.623 43.167C170.326 42.1987 171.115 41.2626 171.992 40.3588C172.893 39.4245 173.799 38.5315 174.709 37.6798C175.748 36.7305 176.722 35.8162 177.629 34.9369C178.536 34.0577 179.246 33.1582 179.759 32.2384C180.299 31.3156 180.512 30.3309 180.398 29.2845C180.338 28.7337 180.143 28.2255 179.814 27.7598C179.509 27.2636 179.049 26.8818 178.435 26.6144C177.848 26.344 177.086 26.2599 176.15 26.362C175.214 26.4642 174.448 26.7288 173.854 27.1559C173.257 27.5555 172.826 28.0762 172.561 28.7181C172.297 29.36 172.21 30.094 172.3 30.9202L172.435 32.1595L166.156 32.8444C166.111 32.6822 166.064 32.5062 166.015 32.3164C165.991 32.0961 165.964 31.8482 165.934 31.5728C165.718 29.59 165.99 27.8744 166.752 26.4258C167.514 24.9773 168.683 23.8186 170.26 22.9499C171.862 22.0506 173.82 21.4748 176.133 21.2225C177.895 21.0302 179.436 21.0991 180.753 21.4291C182.099 21.7561 183.228 22.2738 184.141 22.9823C185.055 23.6908 185.76 24.5335 186.256 25.5104C186.778 26.4567 187.097 27.4669 187.214 28.541C187.355 29.8353 187.249 31.0312 186.895 32.1288C186.541 33.2263 186.002 34.2883 185.278 35.3148C184.551 36.3137 183.683 37.3001 182.674 38.274C181.663 39.2203 180.57 40.1894 179.397 41.1813C178.811 41.691 178.278 42.1672 177.797 42.6098C177.34 43.0219 176.976 43.3822 176.703 43.6906C176.43 43.999 176.237 44.2709 176.123 44.5062L189.052 43.0958L189.692 48.9617L167.881 51.3409ZM205.968 47.1863L205.31 41.1552L192.091 42.5972L191.519 37.351C192.342 35.7006 193.121 33.9018 193.856 31.9546C194.616 29.9768 195.307 27.8811 195.929 25.6674C196.552 23.4538 197.03 21.2001 197.365 18.9064L204.181 18.1629C204.087 19.3435 203.852 20.6371 203.476 22.0436C203.097 23.4226 202.625 24.8396 202.059 26.2946C201.518 27.7191 200.917 29.1084 200.256 30.4623C199.62 31.7856 198.988 33.0111 198.358 34.1387C197.753 35.2358 197.183 36.134 196.646 36.8335L204.742 35.9503L204.035 29.4649C204.284 28.9361 204.537 28.3233 204.796 27.6263C205.082 26.9263 205.351 26.2003 205.603 25.4482C205.883 24.6931 206.111 23.9716 206.287 23.2836C206.487 22.5651 206.638 21.9077 206.74 21.3114L209.756 20.9824L211.31 35.2339L215.069 34.8238L215.637 40.0287L211.878 40.4387L212.536 46.4698L205.968 47.1863ZM247.554 48.1257L242.46 43.5817C242.298 43.6273 242.121 43.6606 241.928 43.6816C241.738 43.7302 241.561 43.7635 241.395 43.7815C238.449 44.103 235.855 43.8285 233.614 42.9583C231.374 42.088 229.57 40.6267 228.204 38.5743C226.834 36.4943 225.975 33.8571 225.627 30.6626C225.269 27.3854 225.566 24.6082 226.515 22.331C227.462 20.0263 228.979 18.2167 231.065 16.9024C233.175 15.5575 235.786 14.7153 238.898 14.3758C242.01 14.0364 244.728 14.2973 247.051 15.1585C249.399 15.9892 251.284 17.4278 252.705 19.4742C254.124 21.493 255.012 24.141 255.369 27.4182C255.736 30.7779 255.406 33.6285 254.379 35.9698C253.377 38.2806 251.793 40.1114 249.628 41.4623L256.725 47.1254L247.554 48.1257ZM241.471 37.963C242.655 37.8339 243.682 37.5407 244.552 37.0836C245.422 36.6264 246.122 36.0206 246.653 35.266C247.211 34.5084 247.588 33.6174 247.783 32.593C247.977 31.5685 248.007 30.4367 247.872 29.1974L247.674 27.3798C247.535 26.113 247.261 25.0005 246.85 24.0421C246.439 23.0837 245.879 22.2949 245.17 21.6755C244.489 21.0531 243.675 20.6125 242.727 20.3536C241.779 20.0947 240.713 20.0299 239.529 20.159C238.317 20.2912 237.277 20.5859 236.407 21.043C235.537 21.5002 234.837 22.106 234.306 22.8606C233.775 23.6151 233.413 24.5046 233.218 25.5291C233.023 26.5535 232.995 27.6992 233.133 28.966L233.331 30.7835C233.466 32.0228 233.74 33.1216 234.151 34.08C234.562 35.0383 235.108 35.8287 235.789 36.4511C236.47 37.0735 237.284 37.5141 238.232 37.773C239.18 38.0319 240.26 38.0952 241.471 37.963ZM273.094 39.8639L272.436 33.8328L259.218 35.2748L258.645 30.0286C259.469 28.3783 260.248 26.5795 260.983 24.6322C261.742 22.6544 262.433 20.5587 263.056 18.3451C263.678 16.1314 264.157 13.8777 264.492 11.584L271.308 10.8405C271.214 12.0212 270.979 13.3148 270.602 14.7212C270.223 16.1002 269.751 17.5172 269.185 18.9723C268.644 20.3968 268.043 21.786 267.383 23.1399C266.747 24.4633 266.114 25.6887 265.485 26.8163C264.88 27.9134 264.309 28.8117 263.772 29.5111L271.869 28.628L271.161 22.1425C271.41 21.6138 271.664 21.0009 271.922 20.3039C272.208 19.6039 272.477 18.8779 272.729 18.1258C273.009 17.3708 273.237 16.6492 273.413 15.9613C273.613 15.2428 273.764 14.5853 273.867 13.989L276.882 13.66L278.437 27.9115L282.196 27.5014L282.764 32.7063L279.005 33.1164L279.662 39.1474L273.094 39.8639Z" fill="white"/>
<path d="M88.8649 110.95C88.2807 111.017 87.7225 110.942 87.1903 110.726C86.6566 110.497 86.2127 110.156 85.8584 109.701C85.5041 109.247 85.2926 108.722 85.224 108.126C85.1609 107.577 85.2383 107.043 85.4562 106.523C85.686 106.001 86.0282 105.563 86.4826 105.209C86.9476 104.841 87.4961 104.621 88.1279 104.548C88.712 104.481 89.265 104.562 89.7867 104.792C90.307 105.01 90.7436 105.34 91.0966 105.783C91.4614 106.224 91.6795 106.754 91.7509 107.374C91.8181 107.958 91.7309 108.512 91.4891 109.035C91.2593 109.557 90.9105 109.99 90.4427 110.333C89.9869 110.676 89.4609 110.881 88.8649 110.95ZM103.937 110.827L102.486 98.2205L107.815 97.6071C109.162 97.452 110.242 97.6538 111.055 98.2125C111.867 98.7592 112.339 99.6048 112.471 100.749C112.557 101.5 112.465 102.163 112.192 102.738C111.92 103.313 111.497 103.778 110.922 104.135C110.345 104.479 109.646 104.698 108.823 104.793L109.077 104.474L109.559 104.418C110.048 104.362 110.498 104.437 110.908 104.644C111.33 104.849 111.698 105.211 112.011 105.73L114.291 109.635L112.252 109.87L109.989 105.945C109.754 105.477 109.437 105.193 109.039 105.094C108.653 104.994 108.186 104.975 107.638 105.038L105.188 105.32L105.797 110.613L103.937 110.827ZM105.025 103.907L108.19 103.543C109.084 103.44 109.736 103.172 110.145 102.738C110.566 102.303 110.735 101.728 110.653 101.013C110.569 100.286 110.274 99.764 109.766 99.448C109.271 99.1306 108.576 99.0233 107.682 99.1263L104.517 99.4906L105.025 103.907ZM119.916 109.151C119.022 109.254 118.226 109.158 117.528 108.864C116.828 108.558 116.26 108.08 115.823 107.43C115.384 106.768 115.109 105.954 114.998 104.988C114.887 104.022 114.97 103.173 115.248 102.441C115.525 101.696 115.97 101.101 116.583 100.656C117.195 100.199 117.948 99.9194 118.842 99.8165C119.736 99.7136 120.533 99.8151 121.232 100.121C121.942 100.414 122.517 100.891 122.955 101.553C123.405 102.202 123.685 103.01 123.796 103.975C123.907 104.941 123.818 105.797 123.53 106.543C123.252 107.275 122.801 107.871 122.177 108.329C121.564 108.774 120.81 109.048 119.916 109.151ZM119.754 107.738C120.541 107.648 121.135 107.301 121.537 106.699C121.938 106.098 122.078 105.26 121.954 104.187C121.831 103.114 121.505 102.336 120.979 101.853C120.451 101.359 119.793 101.156 119.006 101.247C118.232 101.336 117.643 101.682 117.241 102.284C116.838 102.874 116.698 103.705 116.822 104.778C116.945 105.851 117.265 106.636 117.781 107.132C118.31 107.627 118.967 107.829 119.754 107.738ZM126.426 108.238L124.911 95.0774L126.717 94.8694L128.232 108.031L126.426 108.238ZM130.879 107.726L129.364 94.5647L131.17 94.3568L132.685 107.518L130.879 107.726ZM139.213 106.929C138.319 107.032 137.523 106.937 136.824 106.643C136.125 106.337 135.556 105.859 135.119 105.208C134.68 104.546 134.406 103.732 134.294 102.767C134.183 101.801 134.267 100.952 134.545 100.219C134.821 99.4748 135.266 98.88 135.879 98.435C136.491 97.978 137.244 97.6981 138.138 97.5951C139.032 97.4922 139.829 97.5937 140.529 97.8997C141.239 98.1925 141.813 98.6699 142.252 99.3321C142.701 99.981 142.981 100.788 143.092 101.754C143.203 102.719 143.115 103.575 142.826 104.321C142.548 105.054 142.097 105.649 141.474 106.108C140.86 106.553 140.107 106.827 139.213 106.929ZM139.05 105.517C139.837 105.426 140.431 105.08 140.833 104.478C141.235 103.876 141.374 103.039 141.25 101.966C141.127 100.893 140.802 100.115 140.275 99.6321C139.747 99.1373 139.09 98.9351 138.303 99.0257C137.528 99.1149 136.94 99.4604 136.538 100.062C136.135 100.652 135.995 101.484 136.118 102.557C136.242 103.63 136.562 104.414 137.078 104.91C137.606 105.405 138.263 105.607 139.05 105.517ZM148.941 105.81C147.857 105.934 147.006 105.736 146.391 105.215C145.786 104.681 145.413 103.8 145.271 102.572L144.631 97.0108L146.437 96.8029L147.073 102.328C147.16 103.079 147.378 103.616 147.729 103.938C148.081 104.26 148.572 104.384 149.204 104.312C149.919 104.229 150.47 103.924 150.856 103.397C151.242 102.869 151.39 102.212 151.3 101.425L150.711 96.3109L152.517 96.103L153.554 105.115L151.802 105.317L151.58 103.386L151.812 103.359C151.639 104.056 151.299 104.62 150.793 105.053C150.286 105.474 149.669 105.726 148.941 105.81ZM159.723 104.568C158.746 104.681 157.976 104.504 157.415 104.037C156.853 103.558 156.51 102.788 156.388 101.727L155.859 97.1315L154.107 97.3332L153.946 95.9384L155.699 95.7367L155.425 93.3584L157.175 92.6677L157.505 95.5288L160.008 95.2406L160.169 96.6354L157.665 96.9235L158.176 101.358C158.253 102.026 158.427 102.489 158.698 102.748C158.97 103.006 159.332 103.11 159.785 103.057C160.011 103.031 160.206 102.991 160.369 102.936C160.542 102.868 160.697 102.795 160.833 102.719L161.002 104.186C160.831 104.278 160.629 104.355 160.394 104.419C160.161 104.494 159.938 104.544 159.723 104.568ZM171.344 103.231C170.45 103.333 169.654 103.238 168.956 102.944C168.256 102.638 167.688 102.16 167.251 101.509C166.812 100.847 166.537 100.033 166.426 99.0677C166.315 98.1021 166.398 97.253 166.676 96.5204C166.953 95.7759 167.398 95.1811 168.011 94.736C168.623 94.2791 169.376 93.9991 170.27 93.8962C171.164 93.7933 171.961 93.8948 172.66 94.2008C173.37 94.4935 173.945 94.971 174.383 95.6332C174.833 96.2821 175.113 97.0893 175.224 98.0549C175.335 99.0206 175.246 99.8763 174.958 100.622C174.68 101.355 174.229 101.95 173.605 102.409C172.992 102.854 172.238 103.128 171.344 103.231ZM171.182 101.818C171.968 101.727 172.563 101.381 172.965 100.779C173.366 100.177 173.506 99.3399 173.382 98.267C173.258 97.194 172.933 96.4161 172.407 95.9332C171.879 95.4383 171.221 95.2362 170.434 95.3268C169.66 95.416 169.071 95.7615 168.669 96.3634C168.266 96.9534 168.126 97.7848 168.25 98.8578C168.373 99.9307 168.693 100.715 169.209 101.211C169.737 101.706 170.395 101.908 171.182 101.818ZM178.303 102.266L177.426 94.6488L175.673 94.8505L175.513 93.4557L177.766 93.1963L177.319 93.7189L177.154 92.2883C177.032 91.2274 177.208 90.3918 177.681 89.7817C178.153 89.1596 178.907 88.7889 179.945 88.6695C180.195 88.6407 180.459 88.6283 180.738 88.6325C181.016 88.6367 181.249 88.6703 181.438 88.7331L181.606 90.1995C181.457 90.1563 181.272 90.1292 181.054 90.1182C180.845 90.0938 180.634 90.094 180.419 90.1187C180.074 90.1585 179.784 90.2643 179.55 90.4362C179.315 90.5961 179.141 90.8214 179.03 91.1121C178.93 91.4014 178.905 91.7606 178.955 92.1898L179.095 93.4058L178.785 93.079L181.503 92.7661L181.664 94.1609L179.232 94.4408L180.109 102.059L178.303 102.266ZM192.344 100.813C191.366 100.926 190.597 100.749 190.036 100.282C189.473 99.8028 189.131 99.0329 189.009 97.9719L188.48 93.3762L186.727 93.578L186.567 92.1832L188.319 91.9815L188.045 89.6032L189.796 88.9124L190.125 91.7735L192.629 91.4854L192.789 92.8801L190.286 93.1683L190.796 97.603C190.873 98.2706 191.047 98.7338 191.319 98.9924C191.59 99.2511 191.952 99.3543 192.405 99.3022C192.632 99.2761 192.826 99.2356 192.989 99.1806C193.163 99.1123 193.317 99.0402 193.453 98.9641L193.622 100.43C193.452 100.523 193.249 100.6 193.015 100.663C192.782 100.739 192.558 100.788 192.344 100.813ZM195.316 100.308L193.801 87.1468L195.607 86.9389L196.305 93.0008L196.055 93.0297C196.239 92.32 196.603 91.7586 197.148 91.3457C197.69 90.9208 198.343 90.6644 199.106 90.5766C200.179 90.4531 201.012 90.6592 201.606 91.1948C202.197 91.7186 202.562 92.5765 202.699 93.7687L203.345 99.3836L201.539 99.5915L200.905 94.0839C200.816 93.309 200.597 92.7665 200.247 92.4565C199.908 92.1332 199.41 92.0092 198.755 92.0847C197.992 92.1725 197.405 92.4817 196.995 93.012C196.596 93.5291 196.44 94.1751 196.53 94.95L197.123 100.1L195.316 100.308ZM210.101 98.7689C208.647 98.9363 207.455 98.6568 206.526 97.9303C205.597 97.2038 205.049 96.1134 204.881 94.659C204.773 93.7172 204.857 92.874 205.133 92.1295C205.422 91.3836 205.866 90.7829 206.466 90.3273C207.076 89.8584 207.811 89.5745 208.669 89.4757C209.516 89.3783 210.245 89.4755 210.859 89.7672C211.472 90.059 211.966 90.5156 212.339 91.1369C212.711 91.7464 212.948 92.4922 213.05 93.3743L213.116 93.9466L206.321 94.7288L206.201 93.6917L211.762 93.0514L211.485 93.3189C211.382 92.4248 211.1 91.7567 210.638 91.3146C210.187 90.8592 209.586 90.6747 208.835 90.7612C208.001 90.8572 207.391 91.2234 207.005 91.8597C206.618 92.4841 206.483 93.3029 206.599 94.3162L206.62 94.495C206.742 95.556 207.09 96.3253 207.665 96.8027C208.251 97.2788 209.021 97.4619 209.975 97.3521C210.499 97.2917 210.98 97.164 211.416 96.9688C211.863 96.7603 212.275 96.4591 212.653 96.0654L213.385 97.2313C213.01 97.6489 212.537 97.9933 211.964 98.2646C211.39 98.524 210.769 98.6921 210.101 98.7689ZM220.606 97.3965L219.155 84.7898L227.417 83.8388L227.587 85.323L221.132 86.0661L221.589 90.0359L227.633 89.3401L227.806 90.8422L221.762 91.5379L222.239 95.6865L228.695 94.9434L228.868 96.4455L220.606 97.3965ZM234.41 95.9705C233.623 96.0611 232.905 95.9566 232.254 95.657C231.616 95.3561 231.089 94.8732 230.674 94.2082C230.271 93.5419 230.014 92.726 229.903 91.7603C229.791 90.7828 229.856 89.9298 230.098 89.2013C230.352 88.4714 230.756 87.8874 231.309 87.4492C231.873 86.9978 232.549 86.7267 233.336 86.6362C234.111 86.547 234.813 86.6654 235.442 86.9916C236.082 87.3045 236.536 87.7837 236.804 88.4293L236.589 88.454L235.881 82.3027L237.687 82.0948L239.202 95.2558L237.414 95.4617L237.179 93.4232L237.394 93.3985C237.269 94.1013 236.938 94.683 236.399 95.1437C235.86 95.6043 235.197 95.8799 234.41 95.9705ZM234.695 94.5064C235.47 94.4172 236.064 94.0709 236.478 93.4677C236.891 92.8644 237.036 92.0263 236.913 90.9534C236.789 89.8805 236.458 89.1032 235.92 88.6217C235.38 88.1282 234.722 87.9261 233.947 88.0153C233.161 88.1058 232.56 88.4528 232.147 89.056C231.743 89.646 231.604 90.4775 231.727 91.5504C231.851 92.6233 232.176 93.4072 232.705 93.902C233.244 94.3955 233.908 94.597 234.695 94.5064ZM245.057 94.7449C243.972 94.8698 243.122 94.6717 242.506 94.1507C241.901 93.6164 241.528 92.7353 241.386 91.5074L240.746 85.9462L242.552 85.7382L243.188 91.2638C243.275 92.0148 243.494 92.5513 243.845 92.8733C244.196 93.1952 244.687 93.3198 245.319 93.2471C246.034 93.1647 246.585 92.8598 246.971 92.3321C247.358 91.8045 247.505 91.1473 247.415 90.3605L246.826 85.2463L248.632 85.0383L249.67 94.0508L247.917 94.2526L247.695 92.3213L247.927 92.2946C247.754 92.991 247.414 93.5555 246.908 93.9882C246.401 94.409 245.784 94.6612 245.057 94.7449ZM256.285 93.4523C255.379 93.5566 254.565 93.4631 253.843 93.1717C253.132 92.8671 252.551 92.3844 252.1 91.7236C251.66 91.0495 251.384 90.2236 251.271 89.2461C251.16 88.2805 251.25 87.4307 251.54 86.6967C251.83 85.9627 252.288 85.3785 252.914 84.944C253.539 84.4976 254.305 84.2222 255.211 84.1179C255.795 84.0507 256.373 84.0868 256.945 84.2264C257.515 84.354 258 84.576 258.398 84.8925L257.954 86.23C257.584 85.9466 257.181 85.7514 256.746 85.6444C256.309 85.5256 255.894 85.4888 255.501 85.5341C254.642 85.6329 254 85.9846 253.575 86.5893C253.149 87.1939 252.996 88.0148 253.115 89.052C253.236 90.101 253.573 90.8776 254.126 91.3816C254.68 91.8856 255.386 92.0883 256.244 91.9894C256.625 91.9455 257.016 91.828 257.417 91.6369C257.817 91.4339 258.17 91.1456 258.477 90.772L259.214 91.9737C258.885 92.3739 258.452 92.7076 257.916 92.9747C257.389 93.2286 256.846 93.3878 256.285 93.4523ZM264.638 92.4907C263.84 92.5827 263.121 92.4782 262.482 92.1772C261.844 91.8763 261.317 91.3934 260.902 90.7284C260.499 90.0621 260.242 89.2462 260.131 88.2805C260.019 87.303 260.084 86.45 260.326 85.7215C260.58 84.9916 260.984 84.4076 261.538 83.9694C262.09 83.5193 262.765 83.2483 263.564 83.1564C264.351 83.0658 265.059 83.1836 265.688 83.5097C266.318 83.8359 266.767 84.3277 267.036 84.9853L266.839 85.0079L266.783 82.9488L268.536 82.7471C268.542 83.1208 268.549 83.4944 268.556 83.8681C268.573 84.2285 268.602 84.5815 268.642 84.9273L269.43 91.776L267.624 91.9839L267.393 89.9812L267.59 89.9585C267.476 90.6481 267.144 91.2239 266.593 91.6859C266.053 92.1346 265.401 92.4029 264.638 92.4907ZM264.923 91.0266C265.698 90.9374 266.286 90.5918 266.688 89.9899C267.102 89.3867 267.247 88.5486 267.123 87.4756C267 86.4027 266.669 85.6255 266.13 85.1439C265.602 84.6491 264.95 84.4463 264.176 84.5355C263.389 84.626 262.788 84.973 262.375 85.5762C261.972 86.1662 261.832 86.9977 261.955 88.0706C262.079 89.1435 262.405 89.9274 262.933 90.4222C263.461 90.9171 264.124 91.1185 264.923 91.0266ZM275.589 91.2301C274.611 91.3427 273.842 91.1655 273.281 90.6986C272.718 90.2198 272.376 89.4499 272.254 88.3889L271.725 83.7932L269.973 83.9949L269.812 82.6002L271.564 82.3984L271.291 80.0201L273.041 79.3294L273.37 82.1905L275.874 81.9023L276.034 83.2971L273.531 83.5853L274.042 88.02C274.118 88.6876 274.292 89.1507 274.564 89.4094C274.835 89.6681 275.197 89.7713 275.65 89.7192C275.877 89.6931 276.072 89.6526 276.234 89.5976C276.408 89.5293 276.562 89.4571 276.699 89.3811L276.867 90.8474C276.697 90.9395 276.494 91.0172 276.26 91.0804C276.027 91.1555 275.803 91.2054 275.589 91.2301ZM278.562 90.7248L277.524 81.7124L279.33 81.5044L280.368 90.5169L278.562 90.7248ZM277.165 79.8512L276.949 77.9736L279.041 77.7328L279.257 79.6104L277.165 79.8512ZM286.896 89.9285C286.002 90.0314 285.205 89.9359 284.507 89.6418C283.808 89.3358 283.239 88.8576 282.802 88.2074C282.363 87.5452 282.088 86.7313 281.977 85.7657C281.866 84.8 281.95 83.9509 282.228 83.2183C282.504 82.4738 282.949 81.879 283.562 81.434C284.174 80.977 284.927 80.6971 285.821 80.5942C286.715 80.4912 287.512 80.5928 288.212 80.8988C288.922 81.1915 289.496 81.6689 289.935 82.3311C290.384 82.98 290.664 83.7872 290.775 84.7529C290.886 85.7185 290.798 86.5743 290.509 87.3202C290.231 88.0528 289.78 88.6482 289.156 89.1066C288.543 89.5516 287.79 89.8256 286.896 89.9285ZM286.733 88.5158C287.52 88.4253 288.114 88.079 288.516 87.4771C288.918 86.8752 289.057 86.0378 288.933 84.9649C288.81 83.892 288.485 83.1141 287.958 82.6311C287.43 82.1363 286.773 81.9341 285.986 82.0247C285.211 82.1139 284.623 82.4595 284.221 83.0614C283.818 83.6513 283.678 84.4828 283.801 85.5557C283.925 86.6286 284.245 87.4132 284.761 87.9094C285.289 88.4043 285.946 88.6064 286.733 88.5158ZM293.405 89.0161L292.617 82.1673C292.577 81.8216 292.518 81.472 292.441 81.1185C292.375 80.7516 292.303 80.3855 292.224 80.0201L293.977 79.8183L294.356 81.6953L294.141 81.72C294.339 81.0208 294.704 80.4655 295.236 80.0539C295.767 79.6304 296.408 79.3754 297.159 79.2889C298.22 79.1668 299.053 79.3669 299.656 79.8893C300.272 80.4103 300.65 81.2848 300.792 82.5127L301.434 88.0918L299.628 88.2997L298.998 82.8279C298.906 82.0291 298.679 81.4754 298.318 81.1668C297.966 80.8448 297.469 80.7209 296.825 80.795C296.062 80.8828 295.482 81.1912 295.084 81.7202C294.684 82.2373 294.53 82.8952 294.622 83.694L295.211 88.8082L293.405 89.0161ZM308.951 87.2265L307.5 74.6197L309.127 74.4324L315.253 84.8341L314.716 84.8958L318.318 73.3743L319.928 73.189L321.379 85.7958L319.698 85.9893L318.537 75.9039L319.127 75.836L315.746 86.4442L314.584 86.578L308.881 77.0155L309.489 76.9455L310.65 87.0309L308.951 87.2265ZM328.108 85.1842C327.214 85.2872 326.418 85.1916 325.719 84.8975C325.02 84.5915 324.451 84.1134 324.014 83.4631C323.576 82.8009 323.301 81.987 323.189 81.0214C323.078 80.0558 323.162 79.2067 323.44 78.4741C323.716 77.7295 324.161 77.1347 324.774 76.6897C325.386 76.2327 326.139 75.9528 327.033 75.8499C327.927 75.7469 328.724 75.8485 329.424 76.1545C330.134 76.4472 330.708 76.9246 331.147 77.5868C331.596 78.2357 331.876 79.043 331.987 80.0086C332.099 80.9742 332.01 81.83 331.721 82.5759C331.443 83.3085 330.992 83.9039 330.369 84.3623C329.756 84.8073 329.002 85.0813 328.108 85.1842ZM327.945 83.7716C328.732 83.681 329.326 83.3347 329.728 82.7328C330.13 82.1309 330.269 81.2935 330.146 80.2206C330.022 79.1477 329.697 78.3698 329.17 77.8868C328.642 77.392 327.985 77.1899 327.198 77.2804C326.423 77.3696 325.835 77.7152 325.433 78.3171C325.03 78.9071 324.89 79.7385 325.013 80.8114C325.137 81.8843 325.457 82.6689 325.973 83.1651C326.501 83.66 327.158 83.8621 327.945 83.7716ZM338.087 84.0355C337.3 84.126 336.581 84.0215 335.931 83.722C335.292 83.421 334.766 82.9381 334.351 82.2732C333.948 81.6069 333.691 80.7909 333.58 79.8253C333.467 78.8477 333.532 77.9947 333.774 77.2662C334.029 76.5364 334.433 75.9523 334.986 75.5142C335.55 75.0627 336.226 74.7917 337.012 74.7011C337.787 74.6119 338.489 74.7304 339.119 75.0565C339.759 75.3694 340.213 75.8486 340.48 76.4943L340.266 76.519L339.557 70.3676L341.364 70.1597L342.879 83.3208L341.09 83.5266L340.856 81.4881L341.07 81.4634C340.946 82.1662 340.614 82.748 340.075 83.2086C339.537 83.6693 338.874 83.9449 338.087 84.0355ZM338.371 82.5713C339.146 82.4821 339.74 82.1359 340.154 81.5326C340.568 80.9293 340.713 80.0912 340.59 79.0183C340.466 77.9454 340.135 77.1682 339.596 76.6866C339.056 76.1931 338.399 75.991 337.624 76.0802C336.837 76.1708 336.237 76.5177 335.823 77.121C335.42 77.7109 335.28 78.5424 335.404 79.6153C335.527 80.6882 335.853 81.4721 336.381 81.967C336.921 82.4604 337.585 82.6619 338.371 82.5713ZM348.733 82.8099C347.648 82.9347 346.798 82.7367 346.183 82.2157C345.578 81.6814 345.204 80.8003 345.063 79.5724L344.423 74.0111L346.229 73.8032L346.865 79.3287C346.951 80.0797 347.17 80.6162 347.521 80.9382C347.872 81.2601 348.364 81.3848 348.996 81.312C349.711 81.2297 350.262 80.9247 350.648 80.3971C351.034 79.8694 351.182 79.2122 351.091 78.4254L350.503 73.3112L352.309 73.1033L353.346 82.1158L351.594 82.3175L351.371 80.3863L351.604 80.3595C351.43 81.0559 351.091 81.6204 350.585 82.0531C350.078 82.4739 349.461 82.7261 348.733 82.8099ZM355.992 81.8112L354.477 68.6501L356.283 68.4422L357.798 81.6033L355.992 81.8112ZM364.63 80.9799C363.175 81.1473 361.983 80.8678 361.054 80.1413C360.125 79.4148 359.577 78.3243 359.409 76.8699C359.301 75.9282 359.385 75.085 359.662 74.3405C359.95 73.5946 360.395 72.9938 360.994 72.5383C361.605 72.0694 362.339 71.7855 363.197 71.6867C364.044 71.5893 364.774 71.6864 365.387 71.9782C366.001 72.27 366.494 72.7265 366.868 73.3479C367.24 73.9573 367.476 74.7031 367.578 75.5853L367.644 76.1575L360.849 76.9398L360.729 75.9026L366.291 75.2624L366.013 75.5299C365.911 74.6358 365.628 73.9677 365.167 73.5256C364.716 73.0702 364.115 72.8857 363.364 72.9722C362.529 73.0682 361.919 73.4344 361.533 74.0707C361.146 74.6951 361.011 75.5139 361.127 76.5272L361.148 76.706C361.27 77.767 361.618 78.5362 362.193 79.0137C362.779 79.4898 363.549 79.6729 364.503 79.5631C365.027 79.5027 365.508 79.3749 365.944 79.1797C366.391 78.9712 366.804 78.6701 367.181 78.2764L367.913 79.4423C367.539 79.8599 367.065 80.2043 366.492 80.4756C365.918 80.7349 365.297 80.903 364.63 80.9799ZM92.4101 141.746C91.826 141.814 91.2678 141.739 90.7355 141.522C90.2019 141.294 89.7579 140.953 89.4036 140.498C89.0493 140.044 88.8379 139.518 88.7692 138.922C88.7061 138.374 88.7835 137.84 89.0014 137.319C89.2313 136.797 89.5734 136.359 90.0279 136.005C90.4929 135.638 91.0413 135.417 91.6731 135.345C92.2573 135.277 92.8102 135.359 93.3319 135.589C93.8523 135.807 94.2889 136.137 94.6418 136.579C95.0067 137.02 95.2248 137.551 95.2961 138.171C95.3634 138.755 95.2761 139.309 95.0344 139.832C94.8045 140.353 94.4557 140.786 93.988 141.13C93.5321 141.472 93.0062 141.678 92.4101 141.746ZM106.177 141.774L110.341 128.521L111.932 128.338L119.088 140.288L117.175 140.508L115.207 137.111L116.052 137.521L108.416 138.4L109.199 137.803L108.055 141.558L106.177 141.774ZM111.345 130.471L109.365 137.204L108.889 136.842L115.237 136.111L114.927 136.563L111.416 130.463L111.345 130.471ZM124.477 139.831C123.571 139.935 122.756 139.841 122.034 139.55C121.323 139.245 120.742 138.763 120.291 138.102C119.851 137.428 119.575 136.602 119.463 135.624C119.351 134.659 119.441 133.809 119.731 133.075C120.021 132.341 120.479 131.757 121.105 131.322C121.73 130.876 122.496 130.601 123.402 130.496C123.986 130.429 124.564 130.465 125.136 130.605C125.706 130.732 126.191 130.954 126.589 131.271L126.146 132.608C125.775 132.325 125.372 132.13 124.937 132.023C124.5 131.904 124.085 131.867 123.692 131.912C122.834 132.011 122.192 132.363 121.766 132.968C121.34 133.572 121.187 134.393 121.307 135.43C121.427 136.479 121.764 137.256 122.318 137.76C122.871 138.264 123.577 138.467 124.435 138.368C124.816 138.324 125.208 138.206 125.608 138.015C126.008 137.812 126.361 137.524 126.668 137.15L127.405 138.352C127.076 138.752 126.644 139.086 126.107 139.353C125.58 139.607 125.037 139.766 124.477 139.831ZM132.97 138.853C131.993 138.965 131.224 138.788 130.663 138.321C130.1 137.842 129.758 137.073 129.636 136.012L129.107 131.416L127.354 131.618L127.194 130.223L128.946 130.021L128.672 127.643L130.423 126.952L130.752 129.813L133.256 129.525L133.416 130.92L130.913 131.208L131.423 135.643C131.5 136.31 131.674 136.773 131.946 137.032C132.217 137.291 132.579 137.394 133.032 137.342C133.259 137.316 133.453 137.275 133.616 137.22C133.789 137.152 133.944 137.08 134.08 137.004L134.249 138.47C134.078 138.562 133.876 138.64 133.642 138.703C133.409 138.778 133.185 138.828 132.97 138.853ZM135.943 138.348L134.906 129.335L136.712 129.127L137.749 138.14L135.943 138.348ZM134.547 127.474L134.33 125.596L136.423 125.355L136.639 127.233L134.547 127.474ZM143.043 137.53L138.143 128.962L140.074 128.74L143.981 135.918L143.462 135.978L145.689 128.094L147.531 127.882L144.688 137.341L143.043 137.53ZM153.296 136.513C152.497 136.605 151.778 136.5 151.14 136.2C150.501 135.899 149.975 135.416 149.56 134.751C149.157 134.084 148.9 133.268 148.789 132.303C148.676 131.325 148.741 130.472 148.983 129.744C149.238 129.014 149.642 128.43 150.195 127.992C150.747 127.542 151.423 127.271 152.221 127.179C153.008 127.088 153.716 127.206 154.346 127.532C154.975 127.858 155.424 128.35 155.693 129.008L155.497 129.03L155.441 126.971L157.193 126.769C157.2 127.143 157.207 127.517 157.213 127.89C157.231 128.251 157.259 128.604 157.299 128.95L158.088 135.798L156.282 136.006L156.051 134.003L156.248 133.981C156.134 134.67 155.801 135.246 155.251 135.708C154.71 136.157 154.059 136.425 153.296 136.513ZM153.58 135.049C154.355 134.96 154.944 134.614 155.345 134.012C155.759 133.409 155.904 132.571 155.781 131.498C155.657 130.425 155.326 129.648 154.787 129.166C154.259 128.671 153.608 128.469 152.833 128.558C152.046 128.648 151.446 128.995 151.032 129.599C150.629 130.188 150.489 131.02 150.613 132.093C150.736 133.166 151.062 133.95 151.59 134.445C152.118 134.939 152.782 135.141 153.58 135.049ZM164.246 135.252C163.269 135.365 162.499 135.188 161.938 134.721C161.376 134.242 161.034 133.472 160.912 132.411L160.382 127.815L158.63 128.017L158.469 126.622L160.222 126.421L159.948 124.042L161.699 123.352L162.028 126.213L164.531 125.925L164.692 127.319L162.189 127.608L162.699 132.042C162.776 132.71 162.95 133.173 163.221 133.432C163.493 133.69 163.855 133.794 164.308 133.741C164.534 133.715 164.729 133.675 164.892 133.62C165.065 133.552 165.22 133.479 165.356 133.403L165.525 134.87C165.354 134.962 165.152 135.039 164.918 135.103C164.685 135.178 164.461 135.228 164.246 135.252ZM167.219 134.747L166.182 125.735L167.988 125.527L169.025 134.539L167.219 134.747ZM165.822 123.874L165.606 121.996L167.698 121.755L167.915 123.633L165.822 123.874ZM175.553 133.951C174.659 134.054 173.863 133.958 173.165 133.664C172.465 133.358 171.897 132.88 171.459 132.23C171.021 131.567 170.746 130.754 170.635 129.788C170.524 128.822 170.607 127.973 170.885 127.241C171.162 126.496 171.607 125.901 172.22 125.456C172.832 124.999 173.584 124.719 174.479 124.616C175.373 124.514 176.17 124.615 176.869 124.921C177.579 125.214 178.154 125.691 178.592 126.353C179.041 127.002 179.322 127.81 179.433 128.775C179.544 129.741 179.455 130.597 179.167 131.342C178.888 132.075 178.438 132.671 177.814 133.129C177.201 133.574 176.447 133.848 175.553 133.951ZM175.391 132.538C176.177 132.448 176.772 132.101 177.173 131.499C177.575 130.897 177.714 130.06 177.591 128.987C177.467 127.914 177.142 127.136 176.616 126.653C176.087 126.159 175.43 125.956 174.643 126.047C173.868 126.136 173.28 126.482 172.878 127.084C172.475 127.674 172.335 128.505 172.459 129.578C172.582 130.651 172.902 131.435 173.418 131.932C173.946 132.427 174.604 132.629 175.391 132.538ZM182.062 133.038L181.274 126.19C181.234 125.844 181.176 125.494 181.099 125.141C181.033 124.774 180.96 124.408 180.882 124.042L182.634 123.841L183.013 125.718L182.799 125.742C182.996 125.043 183.361 124.488 183.894 124.076C184.425 123.653 185.066 123.398 185.817 123.311C186.878 123.189 187.71 123.389 188.314 123.912C188.929 124.433 189.308 125.307 189.449 126.535L190.091 132.114L188.285 132.322L187.655 126.85C187.564 126.051 187.337 125.498 186.975 125.189C186.624 124.867 186.126 124.743 185.483 124.817C184.72 124.905 184.139 125.214 183.741 125.743C183.342 126.26 183.188 126.918 183.28 127.716L183.869 132.83L182.062 133.038ZM201.311 130.986C200.417 131.089 199.621 130.993 198.922 130.699C198.223 130.393 197.654 129.915 197.217 129.264C196.778 128.602 196.504 127.788 196.392 126.823C196.281 125.857 196.365 125.008 196.643 124.275C196.919 123.531 197.364 122.936 197.977 122.491C198.589 122.034 199.342 121.754 200.236 121.651C201.13 121.548 201.927 121.65 202.627 121.956C203.337 122.249 203.911 122.726 204.35 123.388C204.799 124.037 205.079 124.844 205.19 125.81C205.301 126.776 205.213 127.631 204.924 128.377C204.646 129.11 204.195 129.705 203.572 130.164C202.958 130.609 202.205 130.883 201.311 130.986ZM201.148 129.573C201.935 129.482 202.529 129.136 202.931 128.534C203.333 127.932 203.472 127.095 203.348 126.022C203.225 124.949 202.9 124.171 202.373 123.688C201.845 123.193 201.188 122.991 200.401 123.082C199.626 123.171 199.038 123.517 198.636 124.118C198.233 124.708 198.093 125.54 198.216 126.613C198.34 127.686 198.66 128.47 199.176 128.967C199.704 129.461 200.361 129.664 201.148 129.573ZM208.269 130.021L207.392 122.404L205.64 122.606L205.479 121.211L207.732 120.951L207.285 121.474L207.121 120.043C206.998 118.982 207.174 118.147 207.647 117.537C208.119 116.915 208.874 116.544 209.911 116.425C210.161 116.396 210.426 116.383 210.704 116.388C210.982 116.392 211.216 116.425 211.404 116.488L211.573 117.955C211.423 117.911 211.239 117.884 211.02 117.873C210.812 117.849 210.6 117.849 210.386 117.874C210.04 117.914 209.75 118.019 209.516 118.191C209.281 118.351 209.108 118.576 208.996 118.867C208.897 119.156 208.872 119.516 208.921 119.945L209.061 121.161L208.752 120.834L211.47 120.521L211.63 121.916L209.198 122.196L210.075 129.814L208.269 130.021ZM224.635 128.301C223.347 128.449 222.22 128.313 221.254 127.893C220.288 127.472 219.504 126.808 218.904 125.898C218.315 124.976 217.944 123.853 217.792 122.529C217.64 121.206 217.746 120.034 218.112 119.014C218.489 117.992 219.101 117.166 219.947 116.538C220.792 115.909 221.859 115.52 223.146 115.372C224.041 115.269 224.854 115.308 225.588 115.49C226.321 115.671 226.979 115.982 227.561 116.422L227.089 117.98C226.46 117.557 225.859 117.27 225.286 117.119C224.725 116.966 224.087 116.931 223.372 117.013C222.013 117.169 221.023 117.706 220.404 118.623C219.785 119.54 219.564 120.767 219.741 122.305C219.918 123.843 220.413 124.994 221.226 125.758C222.037 126.51 223.122 126.808 224.481 126.651C225.196 126.569 225.81 126.39 226.322 126.113C226.845 125.836 227.364 125.413 227.879 124.847L228.694 126.257C228.227 126.818 227.657 127.276 226.986 127.631C226.312 127.975 225.529 128.198 224.635 128.301ZM234.281 127.19C233.386 127.293 232.59 127.198 231.892 126.903C231.192 126.597 230.624 126.119 230.187 125.469C229.748 124.807 229.473 123.993 229.362 123.027C229.251 122.062 229.334 121.213 229.612 120.48C229.889 119.735 230.334 119.141 230.947 118.696C231.559 118.239 232.312 117.959 233.206 117.856C234.1 117.753 234.897 117.854 235.596 118.16C236.307 118.453 236.881 118.931 237.32 119.593C237.769 120.242 238.049 121.049 238.16 122.015C238.271 122.98 238.183 123.836 237.894 124.582C237.616 125.314 237.165 125.91 236.541 126.368C235.928 126.813 235.175 127.087 234.281 127.19ZM234.118 125.778C234.905 125.687 235.499 125.341 235.901 124.739C236.303 124.137 236.442 123.3 236.318 122.227C236.195 121.154 235.87 120.376 235.343 119.893C234.815 119.398 234.157 119.196 233.371 119.286C232.596 119.376 232.007 119.721 231.606 120.323C231.202 120.913 231.063 121.744 231.186 122.817C231.31 123.89 231.629 124.675 232.146 125.171C232.674 125.666 233.331 125.868 234.118 125.778ZM240.79 126.278L240.001 119.429C239.962 119.083 239.903 118.734 239.826 118.38C239.76 118.013 239.688 117.647 239.609 117.282L241.362 117.08L241.741 118.957L241.526 118.982C241.701 118.297 242.024 117.747 242.496 117.33C242.979 116.912 243.584 116.661 244.312 116.577C245.051 116.492 245.673 116.602 246.179 116.906C246.696 117.197 247.086 117.695 247.348 118.402L247.062 118.435C247.225 117.752 247.571 117.187 248.099 116.739C248.626 116.28 249.265 116.007 250.016 115.921C251.017 115.805 251.802 116.011 252.37 116.538C252.938 117.064 253.292 117.941 253.434 119.169L254.076 124.748L252.27 124.956L251.638 119.466C251.547 118.68 251.345 118.129 251.031 117.815C250.728 117.488 250.278 117.358 249.682 117.427C248.991 117.506 248.47 117.808 248.119 118.331C247.769 118.855 247.64 119.522 247.734 120.333L248.318 125.411L246.512 125.619L245.88 120.129C245.79 119.343 245.587 118.792 245.273 118.478C244.97 118.15 244.52 118.021 243.924 118.09C243.233 118.169 242.718 118.47 242.379 118.992C242.041 119.514 241.918 120.181 242.011 120.991L242.596 126.07L240.79 126.278ZM256.664 124.45L255.875 117.602C255.835 117.256 255.777 116.906 255.7 116.553C255.634 116.186 255.561 115.82 255.483 115.454L257.235 115.253L257.615 117.13L257.4 117.154C257.575 116.47 257.898 115.919 258.369 115.503C258.853 115.085 259.458 114.834 260.185 114.75C260.924 114.665 261.547 114.774 262.053 115.079C262.57 115.369 262.959 115.868 263.222 116.575L262.936 116.608C263.099 115.925 263.444 115.359 263.973 114.912C264.5 114.453 265.139 114.18 265.89 114.093C266.891 113.978 267.676 114.184 268.244 114.71C268.812 115.237 269.166 116.114 269.308 117.342L269.95 122.921L268.144 123.129L267.512 117.639C267.421 116.852 267.219 116.302 266.905 115.988C266.601 115.66 266.152 115.531 265.556 115.599C264.864 115.679 264.343 115.981 263.993 116.504C263.642 117.028 263.514 117.695 263.607 118.505L264.192 123.584L262.386 123.792L261.754 118.302C261.663 117.515 261.461 116.965 261.147 116.651C260.843 116.323 260.394 116.194 259.798 116.262C259.106 116.342 258.591 116.643 258.253 117.165C257.914 117.687 257.792 118.353 257.885 119.164L258.47 124.243L256.664 124.45ZM275.757 122.416C274.672 122.54 273.822 122.342 273.206 121.821C272.601 121.287 272.228 120.406 272.086 119.178L271.446 113.617L273.252 113.409L273.888 118.934C273.975 119.685 274.193 120.222 274.545 120.544C274.896 120.866 275.387 120.99 276.019 120.918C276.734 120.835 277.285 120.53 277.671 120.003C278.057 119.475 278.205 118.818 278.115 118.031L277.526 112.917L279.332 112.709L280.369 121.721L278.617 121.923L278.395 119.992L278.627 119.965C278.454 120.662 278.114 121.226 277.608 121.659C277.101 122.08 276.484 122.332 275.757 122.416ZM283.015 121.417L282.226 114.568C282.187 114.222 282.128 113.873 282.051 113.519C281.985 113.152 281.913 112.786 281.834 112.421L283.587 112.219L283.966 114.096L283.751 114.121C283.949 113.422 284.314 112.866 284.846 112.455C285.377 112.031 286.018 111.776 286.769 111.69C287.83 111.568 288.662 111.768 289.266 112.29C289.882 112.811 290.26 113.686 290.402 114.913L291.044 120.493L289.238 120.701L288.608 115.229C288.516 114.43 288.289 113.876 287.927 113.568C287.576 113.246 287.079 113.122 286.435 113.196C285.672 113.284 285.092 113.592 284.694 114.121C284.294 114.638 284.14 115.296 284.232 116.095L284.821 121.209L283.015 121.417ZM293.615 120.197L292.577 111.184L294.383 110.976L295.421 119.989L293.615 120.197ZM292.218 109.323L292.002 107.445L294.094 107.205L294.31 109.082L292.218 109.323ZM301.591 119.442C300.614 119.554 299.844 119.377 299.283 118.91C298.721 118.431 298.379 117.661 298.256 116.6L297.727 112.005L295.975 112.206L295.814 110.812L297.567 110.61L297.293 108.232L299.043 107.541L299.373 110.402L301.876 110.114L302.037 111.508L299.533 111.797L300.044 116.231C300.121 116.899 300.295 117.362 300.566 117.621C300.838 117.879 301.2 117.983 301.653 117.931C301.879 117.904 302.074 117.864 302.237 117.809C302.41 117.741 302.565 117.669 302.701 117.592L302.87 119.059C302.699 119.151 302.497 119.229 302.262 119.292C302.03 119.367 301.806 119.417 301.591 119.442ZM304.885 123.012L304.287 121.595C304.834 121.412 305.282 121.215 305.633 121.006C305.995 120.795 306.285 120.538 306.504 120.235C306.724 119.944 306.9 119.579 307.031 119.141L307.356 118.035L307.405 118.772L302.433 110.05L304.364 109.827L308.269 116.988L307.786 117.043L309.961 109.183L311.821 108.969L308.802 119.101C308.608 119.727 308.385 120.26 308.134 120.699C307.883 121.139 307.599 121.504 307.282 121.794C306.965 122.084 306.606 122.325 306.205 122.516C305.804 122.707 305.364 122.872 304.885 123.012ZM319.202 117.251L317.75 104.644L319.61 104.43L321.061 117.037L319.202 117.251ZM323.86 116.715L323.072 109.866C323.032 109.52 322.974 109.171 322.897 108.817C322.83 108.45 322.758 108.084 322.68 107.719L324.432 107.517L324.811 109.394L324.597 109.419C324.794 108.72 325.159 108.164 325.691 107.753C326.222 107.329 326.864 107.074 327.615 106.988C328.676 106.866 329.508 107.066 330.112 107.588C330.727 108.109 331.106 108.984 331.247 110.211L331.889 115.791L330.083 115.998L329.453 110.527C329.361 109.728 329.135 109.174 328.773 108.866C328.422 108.544 327.924 108.42 327.281 108.494C326.518 108.582 325.937 108.89 325.539 109.419C325.14 109.936 324.986 110.594 325.078 111.393L325.666 116.507L323.86 116.715ZM338.431 115.201C337.525 115.305 336.711 115.211 335.989 114.92C335.277 114.615 334.696 114.133 334.246 113.472C333.806 112.798 333.529 111.972 333.417 110.994C333.306 110.029 333.395 109.179 333.685 108.445C333.975 107.711 334.433 107.127 335.06 106.692C335.685 106.246 336.45 105.971 337.356 105.866C337.94 105.799 338.518 105.835 339.09 105.975C339.66 106.102 340.145 106.324 340.544 106.641L340.1 107.978C339.729 107.695 339.326 107.5 338.891 107.393C338.454 107.274 338.039 107.237 337.646 107.282C336.788 107.381 336.146 107.733 335.72 108.338C335.294 108.942 335.141 109.763 335.261 110.8C335.381 111.849 335.718 112.626 336.272 113.13C336.825 113.634 337.531 113.837 338.389 113.738C338.771 113.694 339.162 113.576 339.563 113.385C339.962 113.182 340.315 112.894 340.623 112.52L341.359 113.722C341.03 114.122 340.598 114.456 340.061 114.723C339.534 114.977 338.991 115.136 338.431 115.201ZM347.394 114.169C345.94 114.336 344.748 114.057 343.819 113.33C342.89 112.604 342.341 111.513 342.174 110.059C342.065 109.117 342.15 108.274 342.426 107.529C342.715 106.783 343.159 106.183 343.759 105.727C344.369 105.258 345.104 104.974 345.962 104.876C346.808 104.778 347.538 104.875 348.152 105.167C348.765 105.459 349.259 105.915 349.632 106.537C350.004 107.146 350.241 107.892 350.343 108.774L350.408 109.346L343.613 110.129L343.494 109.091L349.055 108.451L348.778 108.719C348.675 107.825 348.393 107.157 347.931 106.714C347.48 106.259 346.879 106.075 346.128 106.161C345.294 106.257 344.683 106.623 344.298 107.26C343.911 107.884 343.775 108.703 343.892 109.716L343.913 109.895C344.035 110.956 344.383 111.725 344.957 112.203C345.544 112.679 346.314 112.862 347.267 112.752C347.792 112.692 348.272 112.564 348.709 112.369C349.156 112.16 349.568 111.859 349.946 111.465L350.678 112.631C350.303 113.049 349.829 113.393 349.257 113.664C348.683 113.924 348.062 114.092 347.394 114.169ZM352.971 113.364L352.182 106.515C352.143 106.169 352.084 105.82 352.007 105.466C351.941 105.099 351.869 104.733 351.79 104.368L353.543 104.166L353.922 106.043L353.707 106.068C353.905 105.368 354.269 104.813 354.802 104.401C355.333 103.978 355.974 103.723 356.725 103.637C357.786 103.514 358.618 103.715 359.222 104.237C359.838 104.758 360.216 105.632 360.358 106.86L361 112.439L359.194 112.647L358.564 107.175C358.472 106.377 358.245 105.823 357.883 105.514C357.532 105.192 357.035 105.069 356.391 105.143C355.628 105.23 355.048 105.539 354.649 106.068C354.25 106.585 354.096 107.243 354.188 108.042L354.777 113.156L352.971 113.364ZM367.094 111.901C366.117 112.013 365.347 111.836 364.786 111.369C364.224 110.891 363.881 110.121 363.759 109.06L363.23 104.464L361.478 104.666L361.317 103.271L363.07 103.069L362.796 100.691L364.546 100L364.876 102.861L367.379 102.573L367.54 103.968L365.036 104.256L365.547 108.691C365.624 109.358 365.798 109.822 366.069 110.08C366.341 110.339 366.703 110.442 367.156 110.39C367.382 110.364 367.577 110.323 367.74 110.268C367.913 110.2 368.068 110.128 368.204 110.052L368.373 111.518C368.202 111.61 368 111.688 367.765 111.751C367.532 111.826 367.309 111.876 367.094 111.901ZM370.067 111.396L369.029 102.383L370.836 102.175L371.873 111.188L370.067 111.396ZM368.67 100.522L368.454 98.6444L370.546 98.4036L370.762 100.281L368.67 100.522ZM377.166 110.578L372.266 102.011L374.198 101.788L378.104 108.967L377.586 109.026L379.813 101.142L381.654 100.93L378.812 110.389L377.166 110.578ZM388.152 109.477C386.698 109.644 385.506 109.365 384.577 108.638C383.648 107.912 383.099 106.821 382.932 105.367C382.824 104.425 382.908 103.582 383.184 102.837C383.473 102.091 383.917 101.491 384.517 101.035C385.127 100.566 385.862 100.282 386.72 100.184C387.567 100.086 388.296 100.183 388.91 100.475C389.523 100.767 390.017 101.223 390.39 101.845C390.762 102.454 390.999 103.2 391.101 104.082L391.167 104.654L384.371 105.437L384.252 104.399L389.813 103.759L389.536 104.027C389.433 103.133 389.151 102.465 388.689 102.022C388.238 101.567 387.637 101.383 386.886 101.469C386.052 101.565 385.442 101.931 385.056 102.568C384.669 103.192 384.533 104.011 384.65 105.024L384.671 105.203C384.793 106.264 385.141 107.033 385.715 107.511C386.302 107.987 387.072 108.17 388.025 108.06C388.55 108 389.031 107.872 389.467 107.677C389.914 107.468 390.326 107.167 390.704 106.773L391.436 107.939C391.061 108.357 390.588 108.701 390.015 108.972C389.441 109.232 388.82 109.4 388.152 109.477ZM402.431 107.833C401.573 107.932 400.736 107.901 399.92 107.742C399.103 107.57 398.405 107.276 397.825 106.859L398.307 105.373C398.943 105.758 399.577 106.023 400.21 106.168C400.843 106.313 401.505 106.345 402.196 106.266C403.078 106.164 403.725 105.902 404.135 105.481C404.558 105.058 404.729 104.5 404.649 103.809C404.571 103.129 404.28 102.644 403.775 102.351C403.281 102.046 402.587 101.945 401.693 102.048L399.743 102.272L399.57 100.77L401.377 100.562C402.14 100.474 402.726 100.213 403.135 99.7797C403.542 99.3341 403.708 98.7776 403.631 98.11C403.561 97.502 403.299 97.0611 402.845 96.7872C402.389 96.5015 401.774 96.4032 400.999 96.4924C399.687 96.6434 398.59 97.2348 397.706 98.2666L396.917 96.926C397.35 96.381 397.927 95.9341 398.648 95.5853C399.367 95.2247 400.138 94.997 400.961 94.9023C402.224 94.7569 403.253 94.9343 404.048 95.4348C404.841 95.9233 405.296 96.6801 405.414 97.7054C405.504 98.4803 405.359 99.1673 404.981 99.7664C404.615 100.364 404.067 100.796 403.337 101.061L403.314 100.864C404.224 100.904 404.951 101.183 405.494 101.701C406.047 102.205 406.372 102.88 406.47 103.726C406.599 104.847 406.301 105.775 405.576 106.511C404.862 107.233 403.814 107.674 402.431 107.833ZM96.0697 173.536C95.4856 173.604 94.9274 173.529 94.3951 173.313C93.8615 173.084 93.4175 172.743 93.0632 172.288C92.7089 171.834 92.4975 171.308 92.4289 170.712C92.3657 170.164 92.4431 169.63 92.661 169.109C92.8909 168.588 93.233 168.15 93.6875 167.795C94.1525 167.428 94.7009 167.207 95.3328 167.135C95.9169 167.067 96.4698 167.149 96.9915 167.379C97.5119 167.597 97.9485 167.927 98.3014 168.369C98.6663 168.811 98.8844 169.341 98.9557 169.961C99.023 170.545 98.9357 171.099 98.694 171.622C98.4641 172.143 98.1153 172.576 97.6476 172.92C97.1917 173.262 96.6658 173.468 96.0697 173.536ZM111.142 173.414L109.691 160.807L111.551 160.593L112.819 171.608L119.006 170.896L119.189 172.488L111.142 173.414ZM124.642 172.023C123.747 172.126 122.951 172.03 122.253 171.736C121.553 171.43 120.985 170.952 120.548 170.302C120.109 169.64 119.834 168.826 119.723 167.86C119.612 166.895 119.695 166.045 119.973 165.313C120.25 164.568 120.695 163.973 121.308 163.528C121.92 163.071 122.673 162.792 123.567 162.689C124.461 162.586 125.258 162.687 125.957 162.993C126.668 163.286 127.242 163.763 127.681 164.426C128.13 165.074 128.41 165.882 128.521 166.847C128.632 167.813 128.544 168.669 128.255 169.415C127.977 170.147 127.526 170.743 126.902 171.201C126.289 171.646 125.536 171.92 124.642 172.023ZM124.479 170.61C125.266 170.52 125.86 170.173 126.262 169.572C126.664 168.97 126.803 168.132 126.679 167.059C126.556 165.986 126.231 165.209 125.704 164.726C125.176 164.231 124.518 164.029 123.732 164.119C122.957 164.208 122.368 164.554 121.967 165.156C121.563 165.746 121.424 166.577 121.547 167.65C121.671 168.723 121.99 169.508 122.507 170.004C123.035 170.499 123.692 170.701 124.479 170.61ZM131.115 171.115L130.335 164.337C130.292 163.968 130.238 163.6 130.172 163.233C130.116 162.853 130.049 162.48 129.97 162.115L131.723 161.913L132.187 164.215L131.901 164.248C131.956 163.674 132.105 163.185 132.348 162.783C132.592 162.38 132.906 162.066 133.291 161.841C133.687 161.614 134.112 161.475 134.565 161.423C134.756 161.401 134.918 161.394 135.052 161.403C135.185 161.4 135.319 161.408 135.454 161.429L135.621 163.04C135.409 162.98 135.225 162.953 135.068 162.959C134.923 162.952 134.742 162.96 134.528 162.985C134.003 163.045 133.57 163.216 133.228 163.497C132.884 163.766 132.64 164.108 132.494 164.524C132.349 164.939 132.302 165.373 132.354 165.826L132.939 170.905L131.115 171.115ZM141.954 170.03C140.5 170.197 139.308 169.918 138.379 169.191C137.45 168.465 136.901 167.374 136.734 165.92C136.626 164.978 136.71 164.135 136.986 163.391C137.275 162.645 137.719 162.044 138.319 161.588C138.929 161.119 139.664 160.836 140.522 160.737C141.368 160.639 142.098 160.737 142.712 161.028C143.325 161.32 143.819 161.777 144.192 162.398C144.564 163.007 144.801 163.753 144.903 164.635L144.969 165.208L138.173 165.99L138.054 164.953L143.615 164.312L143.338 164.58C143.235 163.686 142.953 163.018 142.491 162.576C142.04 162.12 141.439 161.936 140.688 162.022C139.854 162.118 139.244 162.484 138.858 163.121C138.471 163.745 138.335 164.564 138.452 165.577L138.473 165.756C138.595 166.817 138.943 167.586 139.517 168.064C140.104 168.54 140.874 168.723 141.827 168.613C142.352 168.553 142.832 168.425 143.269 168.23C143.716 168.021 144.128 167.72 144.506 167.326L145.238 168.492C144.863 168.91 144.39 169.254 143.817 169.526C143.243 169.785 142.622 169.953 141.954 170.03ZM147.531 169.225L146.743 162.376C146.703 162.03 146.644 161.681 146.567 161.327C146.501 160.96 146.429 160.594 146.35 160.229L148.103 160.027L148.482 161.904L148.267 161.929C148.442 161.244 148.765 160.694 149.237 160.277C149.72 159.859 150.325 159.608 151.053 159.525C151.792 159.439 152.414 159.549 152.921 159.853C153.437 160.144 153.827 160.643 154.089 161.349L153.803 161.382C153.966 160.699 154.312 160.134 154.84 159.686C155.367 159.227 156.006 158.954 156.757 158.868C157.758 158.753 158.543 158.958 159.111 159.485C159.679 160.011 160.034 160.888 160.175 162.116L160.817 167.695L159.011 167.903L158.379 162.414C158.289 161.627 158.086 161.076 157.772 160.762C157.469 160.435 157.019 160.305 156.423 160.374C155.732 160.454 155.211 160.755 154.86 161.279C154.51 161.802 154.381 162.469 154.475 163.28L155.059 168.358L153.253 168.566L152.621 163.076C152.531 162.29 152.328 161.739 152.014 161.425C151.711 161.098 151.261 160.968 150.665 161.037C149.974 161.116 149.459 161.417 149.12 161.939C148.782 162.462 148.659 163.128 148.752 163.939L149.337 169.017L147.531 169.225ZM168.333 166.83L166.882 154.223L168.741 154.009L170.193 166.616L168.333 166.83ZM173.436 170.156L172.203 159.445C172.163 159.099 172.105 158.75 172.028 158.396C171.962 158.029 171.889 157.663 171.811 157.298L173.564 157.096L173.977 159.114L173.78 159.137C173.893 158.435 174.213 157.855 174.74 157.396C175.278 156.935 175.947 156.659 176.746 156.567C177.545 156.475 178.264 156.585 178.904 156.898C179.543 157.199 180.063 157.677 180.464 158.331C180.877 158.984 181.14 159.799 181.253 160.777C181.364 161.743 181.293 162.596 181.04 163.338C180.8 164.078 180.402 164.668 179.849 165.106C179.295 165.544 178.619 165.809 177.82 165.901C177.034 165.992 176.326 165.88 175.698 165.566C175.081 165.238 174.638 164.752 174.371 164.106L174.567 164.083L175.242 169.948L173.436 170.156ZM177.211 164.54C177.998 164.449 178.592 164.103 178.994 163.501C179.407 162.898 179.553 162.06 179.429 160.987C179.306 159.914 178.974 159.137 178.436 158.655C177.908 158.16 177.25 157.958 176.464 158.049C175.677 158.139 175.076 158.486 174.663 159.09C174.26 159.68 174.12 160.511 174.243 161.584C174.367 162.657 174.693 163.441 175.221 163.936C175.761 164.429 176.424 164.63 177.211 164.54ZM187.001 164.844C186.25 164.931 185.547 164.915 184.893 164.797C184.24 164.679 183.684 164.471 183.227 164.173L183.639 162.876C184.119 163.159 184.637 163.353 185.192 163.458C185.748 163.563 186.306 163.583 186.866 163.519C187.522 163.444 188.004 163.273 188.311 163.008C188.618 162.732 188.747 162.39 188.701 161.985C188.665 161.675 188.529 161.437 188.292 161.271C188.068 161.104 187.712 161 187.224 160.959L185.468 160.817C184.686 160.738 184.075 160.519 183.635 160.159C183.195 159.798 182.938 159.303 182.865 158.671C182.804 158.134 182.892 157.641 183.13 157.191C183.38 156.739 183.759 156.363 184.268 156.063C184.789 155.762 185.413 155.569 186.141 155.485C186.808 155.408 187.439 155.432 188.033 155.557C188.627 155.682 189.136 155.901 189.559 156.215L189.124 157.479C188.719 157.212 188.274 157.021 187.79 156.908C187.305 156.783 186.823 156.747 186.347 156.802C185.679 156.879 185.199 157.061 184.906 157.349C184.613 157.636 184.489 157.982 184.536 158.388C184.572 158.698 184.697 158.943 184.911 159.124C185.135 159.291 185.468 159.404 185.91 159.462L187.666 159.604C188.496 159.677 189.135 159.882 189.584 160.216C190.034 160.551 190.295 161.041 190.369 161.684C190.434 162.245 190.335 162.751 190.073 163.204C189.811 163.657 189.418 164.022 188.895 164.3C188.371 164.578 187.74 164.759 187.001 164.844ZM196.014 163.807C194.929 163.932 194.079 163.734 193.463 163.213C192.858 162.678 192.485 161.797 192.344 160.569L191.703 155.008L193.509 154.8L194.146 160.326C194.232 161.077 194.451 161.613 194.802 161.935C195.153 162.257 195.645 162.382 196.276 162.309C196.992 162.227 197.542 161.922 197.929 161.394C198.315 160.866 198.463 160.209 198.372 159.422L197.783 154.308L199.589 154.1L200.627 163.113L198.874 163.314L198.652 161.383L198.885 161.356C198.711 162.053 198.371 162.617 197.866 163.05C197.358 163.471 196.741 163.723 196.014 163.807ZM203.272 162.808L202.484 155.959C202.444 155.614 202.386 155.264 202.309 154.91C202.242 154.544 202.17 154.178 202.092 153.812L203.844 153.61L204.223 155.487L204.009 155.512C204.183 154.828 204.507 154.277 204.978 153.86C205.461 153.442 206.067 153.191 206.794 153.108C207.533 153.023 208.156 153.132 208.662 153.436C209.178 153.727 209.568 154.226 209.831 154.932L209.544 154.965C209.707 154.282 210.053 153.717 210.581 153.27C211.108 152.81 211.747 152.537 212.498 152.451C213.5 152.336 214.284 152.541 214.852 153.068C215.42 153.594 215.775 154.472 215.916 155.699L216.558 161.279L214.752 161.487L214.12 155.997C214.03 155.21 213.828 154.659 213.514 154.345C213.21 154.018 212.76 153.888 212.164 153.957C211.473 154.037 210.952 154.338 210.602 154.862C210.251 155.385 210.123 156.052 210.216 156.863L210.8 161.941L208.994 162.149L208.362 156.66C208.272 155.873 208.07 155.322 207.756 155.008C207.452 154.681 207.002 154.551 206.406 154.62C205.715 154.7 205.2 155 204.861 155.523C204.523 156.045 204.4 156.711 204.494 157.522L205.078 162.6L203.272 162.808Z" fill="white"/>
</svg>
