<svg width="22" height="19" viewBox="0 0 22 19" fill="none" xmlns="http://www.w3.org/2000/svg">
<path d="M1.97801 8.10802C7.74936 5.59354 11.5978 3.93583 13.5234 3.13491C19.0214 0.848123 20.1638 0.450884 20.9084 0.437627C21.0722 0.434882 21.4384 0.475469 21.6756 0.667938C21.8759 0.830456 21.931 1.04999 21.9573 1.20408C21.9837 1.35816 22.0165 1.70917 21.9904 1.98344C21.6925 5.11388 20.4033 12.7106 19.7475 16.2168C19.47 17.7004 18.9235 18.1978 18.3945 18.2465C17.2448 18.3523 16.3718 17.4867 15.2583 16.7568C13.5159 15.6146 12.5315 14.9036 10.8402 13.789C8.88557 12.5009 10.1527 11.793 11.2666 10.636C11.5581 10.3332 16.6236 5.72577 16.7217 5.30781C16.7339 5.25553 16.7453 5.06068 16.6295 4.95779C16.5138 4.8549 16.3429 4.89009 16.2196 4.91807C16.0449 4.95773 13.2613 6.79756 7.86898 10.4375C7.07888 10.9801 6.36322 11.2444 5.72203 11.2306C5.01516 11.2153 3.65542 10.8309 2.6446 10.5023C1.40478 10.0993 0.419404 9.88624 0.505209 9.2018C0.549901 8.8453 1.04084 8.48071 1.97801 8.10802Z" fill="white"/>
</svg>
