<svg width="24" height="20" viewBox="0 0 24 20" fill="none" xmlns="http://www.w3.org/2000/svg">
<path d="M23.2892 2.91598C22.4457 3.28596 21.547 3.5312 20.61 3.65027C21.5739 3.07475 22.3097 2.17035 22.6555 1.08026C21.7568 1.61609 20.7645 1.99458 19.707 2.20579C18.8537 1.29714 17.6374 0.734375 16.3106 0.734375C13.7363 0.734375 11.6639 2.82384 11.6639 5.38535C11.6639 5.75391 11.695 6.1083 11.7716 6.44568C7.90594 6.25714 4.48539 4.40441 2.18755 1.58207C1.78638 2.27809 1.55107 3.07475 1.55107 3.93236C1.55107 5.5427 2.38033 6.97017 3.61644 7.7966C2.86939 7.78243 2.13652 7.56554 1.51563 7.22391C1.51563 7.23809 1.51563 7.25652 1.51563 7.27494C1.51563 9.53452 3.12738 11.4114 5.24095 11.8437C4.86246 11.9472 4.44996 11.9968 4.02186 11.9968C3.72417 11.9968 3.42365 11.9798 3.14156 11.9174C3.74402 13.7588 5.45358 15.1126 7.48634 15.1565C5.90436 16.394 3.89569 17.1397 1.72117 17.1397C1.33985 17.1397 0.974126 17.1227 0.608398 17.0759C2.6681 18.4041 5.10912 19.1625 7.7415 19.1625C16.2978 19.1625 20.9757 12.0748 20.9757 5.93111C20.9757 5.72556 20.9686 5.52711 20.9587 5.33007C21.8816 4.67516 22.657 3.85723 23.2892 2.91598Z" fill="black"/>
</svg>
