<svg width="23" height="19" viewBox="0 0 23 19" fill="none" xmlns="http://www.w3.org/2000/svg">
<path d="M22.25 2.78125C21.4438 3.18438 20.6375 3.31875 19.6969 3.45312C20.6375 2.91563 21.3094 2.10937 21.5781 1.03437C20.7719 1.57187 19.8312 1.84063 18.7563 2.10938C17.95 1.30312 16.7406 0.765625 15.5312 0.765625C12.7094 0.765625 10.5594 3.45312 11.2312 6.14062C7.60313 6.00625 4.37812 4.25938 2.09375 1.57188C0.884375 3.5875 1.55625 6.14062 3.4375 7.48438C2.76562 7.48438 2.09375 7.21563 1.42188 6.94688C1.42188 8.9625 2.9 10.8437 4.91563 11.3812C4.24375 11.5156 3.57188 11.65 2.9 11.5156C3.4375 13.2625 5.05 14.6062 7.06562 14.6062C5.45312 15.8156 3.03437 16.4875 0.75 16.2188C2.76562 17.4281 5.05 18.2344 7.46875 18.2344C15.6656 18.2344 20.2344 11.3812 19.9656 5.06562C20.9062 4.52812 21.7125 3.72187 22.25 2.78125Z" fill="white"/>
</svg>
